<?xml version="1.0" encoding="UTF-8" standalone="no"?>
<!-- Created with Inkscape (http://www.inkscape.org/) -->

<svg
   xmlns:dc="http://purl.org/dc/elements/1.1/"
   xmlns:cc="http://creativecommons.org/ns#"
   xmlns:rdf="http://www.w3.org/1999/02/22-rdf-syntax-ns#"
   xmlns:svg="http://www.w3.org/2000/svg"
   xmlns="http://www.w3.org/2000/svg"
   xmlns:sodipodi="http://sodipodi.sourceforge.net/DTD/sodipodi-0.dtd"
   xmlns:inkscape="http://www.inkscape.org/namespaces/inkscape"
   width="1000"
   height="150"
   viewBox="0 0 264.58333 39.687501"
   version="1.1"
   id="svg8"
   inkscape:version="0.92.1 r15371"
   sodipodi:docname="BannerAboutMe.svg">
  <defs
     id="defs2" />
  <sodipodi:namedview
     id="base"
     pagecolor="#ffffff"
     bordercolor="#666666"
     borderopacity="1.0"
     inkscape:pageopacity="0.0"
     inkscape:pageshadow="2"
     inkscape:zoom="1.979899"
     inkscape:cx="133.54341"
     inkscape:cy="30.697649"
     inkscape:document-units="mm"
     inkscape:current-layer="layer1"
     showgrid="false"
     units="px"
     showguides="true"
     inkscape:guide-bbox="true"
     inkscape:window-width="3840"
     inkscape:window-height="2071"
     inkscape:window-x="-10"
     inkscape:window-y="-10"
     inkscape:window-maximized="1" />
  <metadata
     id="metadata5">
    <rdf:RDF>
      <cc:Work
         rdf:about="">
        <dc:format>image/svg+xml</dc:format>
        <dc:type
           rdf:resource="http://purl.org/dc/dcmitype/StillImage" />
        <dc:title />
      </cc:Work>
    </rdf:RDF>
  </metadata>
  <g
     inkscape:label="Layer 1"
     inkscape:groupmode="layer"
     id="layer1"
     transform="translate(0,-257.31249)">
    <g
       id="g4550">
      <path
         style="opacity:1;fill:#70a9a1;fill-opacity:1;stroke:#050505;stroke-width:0.36470932;stroke-linecap:round;stroke-linejoin:miter;stroke-miterlimit:4;stroke-dasharray:none;stroke-dashoffset:0;stroke-opacity:1;paint-order:normal"
         d="m 198.49413,268.29294 h 65.67934 l -9.72985,14.25229 9.72985,14.25229 h -65.67934 z"
         id="rect4485-8-3"
         inkscape:connector-curvature="0"
         sodipodi:nodetypes="cccccc" />
      <path
         style="opacity:1;fill:#70a9a1;fill-opacity:1;stroke:#050505;stroke-width:0.36470932;stroke-linecap:round;stroke-linejoin:miter;stroke-miterlimit:4;stroke-dasharray:none;stroke-dashoffset:0;stroke-opacity:1;paint-order:normal"
         d="M 66.089192,268.29293 H 0.40985474 L 10.139702,282.54522 0.40985474,296.7975 H 66.089192 Z"
         id="rect4485-8-3-6"
         inkscape:connector-curvature="0"
         sodipodi:nodetypes="cccccc" />
      <path
         style="opacity:1;fill:#70a9a1;fill-opacity:1;stroke:#050505;stroke-width:0.39078322;stroke-linecap:round;stroke-linejoin:miter;stroke-miterlimit:4;stroke-dasharray:none;stroke-dashoffset:0;stroke-opacity:1;paint-order:normal"
         d="m 33.43642,257.47432 h 197.71055 v 28.47729 H 33.43642 Z"
         id="rect4485"
         inkscape:connector-curvature="0" />
      <path
         sodipodi:nodetypes="cccc"
         inkscape:connector-curvature="0"
         id="path4527"
         d="M 33.436417,285.9516 H 66.08925 l -5.8e-5,10.8459 z"
         style="fill:#40798c;fill-opacity:1;stroke:#000000;stroke-width:0.34526131px;stroke-linecap:butt;stroke-linejoin:miter;stroke-opacity:1" />
      <path
         sodipodi:nodetypes="cccc"
         inkscape:connector-curvature="0"
         id="path4527-1"
         d="m 231.14691,285.9516 h -32.65283 l 5e-5,10.8459 z"
         style="fill:#40798c;fill-opacity:1;stroke:#000000;stroke-width:0.34526131px;stroke-linecap:butt;stroke-linejoin:miter;stroke-opacity:1" />
    </g>
    <g
       aria-label=" Michaela Lachenmaier"
       transform="matrix(0.17594793,0,0,0.17433722,34.575117,205.21066)"
       style="font-style:normal;font-variant:normal;font-weight:normal;font-stretch:normal;font-size:40px;line-height:1.25;font-family:'MV Boli';-inkscape-font-specification:'MV Boli';letter-spacing:0px;word-spacing:0px;fill:#ecebe4;fill-opacity:1;stroke:#ecebe4;stroke-opacity:1"
       id="flowRoot4485">
      <g
         aria-label="Über mich"
         style="font-style:normal;font-variant:normal;font-weight:normal;font-stretch:normal;font-size:48.90428162px;line-height:1.25;font-family:'MV Boli';-inkscape-font-specification:'MV Boli';letter-spacing:0px;word-spacing:0px;fill:#050505;fill-opacity:1;stroke:#050505;stroke-width:1.22260702;stroke-opacity:1"
         id="text4538">
        <path
           d="m 449.77871,344.24924 q 0,0.15282 -0.0382,0.72592 -0.0382,0.53489 -0.22924,1.29902 -0.15282,0.72592 -0.53489,1.52826 -0.38206,0.80233 -1.06978,1.49005 -0.68772,0.68772 -1.7575,1.14619 -1.03157,0.45848 -2.55983,0.45848 -2.3688,0 -3.89706,-1.29902 -1.49005,-1.33722 -1.49005,-4.35554 0,-1.26081 0.34385,-2.44521 0.34386,-1.22261 1.06979,-2.13956 0.76412,-0.91696 1.87211,-1.49005 1.1462,-0.5731 2.75087,-0.5731 2.71266,0 4.1263,1.45184 1.41364,1.45185 1.41364,4.20272 z m -17.84242,0 q 0,0.15282 -0.0382,0.72592 -0.0382,0.53489 -0.22924,1.29902 -0.19103,0.72592 -0.5731,1.52826 -0.38206,0.80233 -1.06978,1.49005 -0.68771,0.68772 -1.7575,1.14619 -1.03157,0.45848 -2.52162,0.45848 -2.44522,0 -3.93527,-1.29902 -1.45185,-1.33722 -1.45185,-4.35554 0,-1.26081 0.34386,-2.44521 0.34386,-1.22261 1.06978,-2.13956 0.72593,-0.91696 1.87212,-1.49005 1.1462,-0.5731 2.75087,-0.5731 2.67445,0 4.08809,1.45184 1.45185,1.45185 1.45185,4.20272 z m 9.93368,20.40225 q 0.11462,-1.94853 0.72592,-3.13293 0.6113,-1.1844 1.52826,-1.83391 0.95516,-0.68772 2.10135,-0.91696 1.18441,-0.22923 2.3306,-0.22923 1.03157,0 1.83391,0.22923 0.80234,0.22924 1.33723,0.84055 0.57309,0.57309 0.84054,1.56646 0.30565,0.99337 0.30565,2.52163 0,10.58319 -1.26081,19.67633 -1.26082,9.09314 -3.5532,16.5434 -2.29239,7.41206 -5.50174,13.18123 -3.20934,5.73097 -7.1064,9.62803 -3.85885,3.89706 -8.32901,5.92201 -4.47016,2.02494 -9.24597,2.02494 -5.73097,0 -9.58982,-2.33059 -3.85885,-2.29239 -6.18945,-6.22766 -2.29239,-3.93527 -3.28575,-9.09314 -0.95517,-5.19608 -0.95517,-10.92705 0,-4.54657 0.5731,-9.20776 0.61131,-4.66119 1.52826,-9.05493 0.91696,-4.43195 2.06315,-8.36722 1.1844,-3.97347 2.33059,-7.14461 0.72593,-2.21597 1.45185,-3.43858 0.76413,-1.22261 1.49005,-1.7957 0.72593,-0.61131 1.45185,-0.72593 0.72592,-0.15282 1.49005,-0.15282 1.45185,0 2.55983,0.15282 1.1462,0.11462 1.91033,0.49669 0.76413,0.38206 1.14619,1.10798 0.38207,0.68772 0.38207,1.87212 v 0.30565 q -0.0764,0.45848 -0.11462,0.99337 -0.0382,0.53489 -0.22924,1.1844 -0.45848,1.41364 -1.26082,3.82065 -0.76412,2.3688 -1.68108,5.46352 -0.91696,3.05652 -1.87212,6.60972 -0.95516,3.5532 -1.71929,7.29744 -0.76413,3.70603 -1.26081,7.41205 -0.45848,3.66782 -0.45848,6.99179 0,3.43858 0.5731,6.41868 0.57309,2.9419 1.91032,5.11967 1.37543,2.17777 3.5532,3.43858 2.17777,1.22261 5.38711,1.22261 2.48343,0 4.6994,-1.33723 2.25418,-1.37543 4.20271,-3.82064 1.98674,-2.48342 3.70603,-5.92201 1.7575,-3.43858 3.20934,-7.56488 1.45185,-4.1263 2.59804,-8.78748 1.1844,-4.6994 2.06315,-9.66624 0.87875,-5.00505 1.45185,-10.16292 0.6113,-5.15788 0.87875,-10.20113 z"
           style="font-style:normal;font-variant:normal;font-weight:normal;font-stretch:normal;font-size:78.24684906px;font-family:Pacifico;-inkscape-font-specification:Pacifico;fill:#050505;fill-opacity:1;stroke:#050505;stroke-width:1.22260702;stroke-opacity:1"
           id="path4491"
           inkscape:connector-curvature="0" />
        <path
           d="m 464.94667,393.80303 q 2.13957,-2.67446 3.89706,-4.27913 1.79571,-1.64288 3.5532,-1.64288 2.25419,0 4.01168,0.99337 1.7575,0.99337 2.98011,2.63625 1.22261,1.64288 1.87212,3.78244 0.64951,2.13956 0.64951,4.47016 0,1.94853 -0.15283,3.70602 -0.15283,1.71929 -0.5731,3.40038 -0.38206,1.64288 -1.10798,3.28576 -0.68772,1.64287 -1.83392,3.40037 1.37544,-0.80233 2.78908,-1.56646 1.41364,-0.76413 2.82728,-1.68109 1.45184,-0.91695 2.90369,-2.02494 1.45184,-1.1462 2.9801,-2.67445 l 2.9419,6.30406 q -2.10136,1.91033 -4.20271,3.32397 -2.06315,1.41364 -4.27913,2.48342 -2.17777,1.03157 -4.58477,1.7957 -2.3688,0.76413 -5.04326,1.37543 -0.64951,0.64951 -1.7957,1.29902 -1.10799,0.64951 -2.21598,1.1844 -1.26081,0.61131 -2.71266,1.1844 h -0.95516 q -5.96021,0 -6.45689,-0.15282 -4.58478,-1.26081 -5.76918,-1.98674 -2.17777,-1.41364 -4.20271,-2.90369 0.11462,-3.09472 0.45848,-6.99178 0.26744,-3.40038 0.80233,-8.29081 0.76413,-7.22102 1.45185,-10.58319 0.34386,-3.78244 0.91696,-8.36722 0.45847,-3.51499 1.45184,-8.74928 1.03158,-5.27249 2.55984,-9.70444 1.56646,-4.47016 3.43858,-7.94695 1.91032,-3.47678 4.1263,-5.57814 2.25418,-2.10136 4.85222,-2.10136 2.90369,0 4.66119,0.99337 1.75749,0.99337 2.71266,2.71266 0.95516,1.68109 1.26081,3.97347 0.30565,2.29239 0.30565,4.89043 0,3.62962 -1.37543,7.48847 -1.33723,3.85885 -3.515,7.71771 -2.17777,3.82064 -4.89042,7.48846 -2.67446,3.66783 -5.34891,6.91538 z m 3.43859,2.78907 q -1.33723,0 -2.67446,0.5731 -1.33722,0.53489 -2.48342,1.71929 -1.14619,1.14619 -2.02494,2.9801 -1.71929,3.5532 -1.29902,4.35554 0,0.0764 -0.5731,4.58478 -0.22924,1.71929 -0.38206,3.05651 -0.15283,1.52826 -0.26745,2.86549 1.26082,0.38206 2.52163,0.64951 1.10799,0.22924 2.33059,0.0382 1.22261,-0.19103 2.3306,-0.19103 1.29902,0 2.3688,-0.76413 1.06978,-0.76413 1.91032,-2.02494 0.84055,-1.29902 1.45185,-2.9419 0.6113,-1.64288 0.99337,-3.40037 0.38206,-1.79571 0.57309,-3.515 0.19104,-1.7575 0.19104,-3.20934 0,-0.95516 -0.22924,-1.79571 -0.19103,-0.87875 -0.76413,-1.52826 -0.53489,-0.64951 -1.52826,-1.03157 -0.95516,-0.42027 -2.44521,-0.42027 z m 3.74423,-34.99713 q 0,-0.15282 -0.0764,-0.64951 -0.0382,-0.49668 -0.26745,-1.03157 -0.19103,-0.53489 -0.5731,-0.95516 -0.38206,-0.42027 -1.03157,-0.42027 -0.76413,0 -1.60467,1.10798 -0.80234,1.06978 -1.60467,2.9419 -0.80234,1.83391 -1.56647,4.27913 -0.76413,2.407 -1.49005,5.08146 -0.72592,2.63624 -1.37543,5.38711 -0.61131,2.75086 -1.1462,5.23428 -0.49668,2.44522 -0.87875,4.50837 -0.38206,2.02494 -0.6113,3.28575 1.03157,-1.98673 2.29239,-4.12629 1.29902,-2.13957 2.59804,-4.43195 1.29902,-2.3306 2.52162,-4.73761 1.26082,-2.44521 2.25419,-4.96684 1.03157,-2.55983 1.68108,-5.15787 0.68772,-2.63625 0.87875,-5.34891 z"
           style="font-style:normal;font-variant:normal;font-weight:normal;font-stretch:normal;font-size:78.24684906px;font-family:Pacifico;-inkscape-font-specification:Pacifico;fill:#050505;fill-opacity:1;stroke:#050505;stroke-width:1.22260702;stroke-opacity:1"
           id="path4493"
           inkscape:connector-curvature="0" />
        <path
           d="m 502.46542,424.55923 q -3.5914,0 -6.30406,-1.29902 -2.67446,-1.29902 -4.47016,-3.47678 -1.7957,-2.21598 -2.71266,-5.08146 -0.87875,-2.9037 -0.87875,-6.07483 0,-2.13957 0.80234,-5.08146 0.80233,-2.98011 1.64288,-5.2725 0.87874,-2.29238 2.17776,-4.35553 1.29902,-2.10136 3.01832,-3.66782 1.75749,-1.60468 3.89706,-2.52163 2.17776,-0.95516 4.81401,-0.95516 2.13956,0 3.97347,0.68771 1.83391,0.68772 3.17114,1.94853 1.37543,1.22261 2.13956,2.98011 0.76413,1.7575 0.76413,3.93526 0,2.3688 -1.56646,5.3107 -1.52826,2.9419 -3.59141,5.04326 -2.06315,2.10135 -4.92864,3.74423 -2.82728,1.64288 -6.15124,2.55983 0.5731,1.03158 1.10799,1.7193 0.5731,0.68771 1.14619,1.06978 0.5731,0.38206 1.1844,0.53489 0.64951,0.15282 1.37544,0.15282 2.29239,0 4.81401,-0.91695 2.55984,-0.91696 4.96684,-2.29239 2.40701,-1.37543 4.54657,-2.9801 2.13957,-1.64288 3.62962,-3.09473 l 4.92863,5.11967 q -3.36217,3.47679 -7.14461,6.15124 -1.64288,1.14619 -3.5532,2.25418 -1.87212,1.10799 -3.97347,1.98674 -2.06315,0.84054 -4.31733,1.37543 -2.21598,0.49668 -4.50837,0.49668 z m -5.08146,-17.95704 q 1.37544,0 2.98011,-0.68771 1.64288,-0.72593 3.01831,-1.83391 1.41364,-1.10799 2.75086,-2.98011 1.33723,-1.87211 1.33723,-3.09472 0,-1.71929 -0.64951,-2.82728 -0.6113,-1.10799 -1.52826,-1.10799 -1.64288,0 -2.82728,0.61131 -1.14619,0.6113 -1.94853,1.60467 -0.76413,0.95516 -1.26081,2.21597 -0.45848,1.22261 -1.10799,3.05652 -0.6113,1.83391 -0.68771,3.01831 -0.0764,1.1844 -0.0764,2.02494 z"
           style="font-style:normal;font-variant:normal;font-weight:normal;font-stretch:normal;font-size:78.24684906px;font-family:Pacifico;-inkscape-font-specification:Pacifico;fill:#050505;fill-opacity:1;stroke:#050505;stroke-width:1.22260702;stroke-opacity:1"
           id="path4495"
           inkscape:connector-curvature="0" />
        <path
           d="m 518.43573,416.57408 q 0,-1.68108 0.19103,-3.89706 0.19104,-2.25418 0.49669,-4.7376 0.34386,-2.48342 0.76413,-5.04325 0.45847,-2.59804 1.14619,-5.50174 0.68772,-2.94189 1.1844,-4.89042 0.49669,-1.94853 0.99337,-3.20935 0.30565,-0.84054 0.6113,-1.33722 0.30566,-0.49669 0.68772,-0.76413 0.42027,-0.30565 0.99337,-0.38207 0.6113,-0.11462 1.49005,-0.11462 0.99337,0 1.52826,0.11462 0.5731,0.0764 0.84054,0.45848 0.26745,0.34386 0.30565,1.03158 0.0764,0.68771 0.0764,1.87211 0,1.41364 -0.19104,4.01168 -0.19103,2.59804 -0.11462,4.54657 h 0.42028 q 0.76413,-1.52826 1.91032,-4.01168 1.14619,-2.48342 2.40701,-4.1263 1.26081,-1.64287 2.86548,-2.75086 1.60467,-1.1462 3.70603,-1.1462 0.72592,0 1.41364,0.26745 0.68772,0.22924 1.1844,0.68772 0.53489,0.45847 0.84054,1.14619 0.30565,0.64951 0.30565,1.49005 0,0.64951 -0.19103,1.83391 -0.19103,1.1462 -0.6113,3.01831 -0.42027,1.87212 -0.61131,3.09473 -0.19103,1.1844 -0.19103,1.98673 0,1.37544 0.26745,2.29239 0.26744,0.91696 0.68771,1.49005 0.45848,0.53489 0.99337,0.76413 0.5731,0.22924 1.1844,0.22924 1.71929,0 3.5532,-0.76413 1.83391,-0.76413 3.36217,-1.71929 1.79571,-1.10799 3.515,-2.52163 l -0.5731,8.94032 q -0.99337,0.64951 -2.25418,1.45184 -1.26081,0.80234 -2.71266,1.52826 -1.41364,0.68772 -2.9801,1.1844 -1.52826,0.45848 -3.13293,0.45848 -2.86549,0 -4.62299,-1.14619 -1.7575,-1.1844 -2.78907,-3.05652 -1.03157,-1.91032 -1.52826,-4.24092 -0.49668,-2.3688 -0.80233,-4.77581 h -0.61131 l -6.83896,19.06503 q -0.53489,1.49005 -1.03157,2.48342 -0.45848,0.95516 -0.95516,1.56647 -0.49669,0.6113 -1.06978,0.87875 -0.5731,0.22923 -1.26082,0.22923 -1.56646,0 -2.52162,-0.64951 -0.95517,-0.68771 -1.49006,-1.7957 -0.49668,-1.14619 -0.68771,-2.55983 -0.15283,-1.45185 -0.15283,-2.98011 z"
           style="font-style:normal;font-variant:normal;font-weight:normal;font-stretch:normal;font-size:78.24684906px;font-family:Pacifico;-inkscape-font-specification:Pacifico;fill:#050505;fill-opacity:1;stroke:#050505;stroke-width:1.22260702;stroke-opacity:1"
           id="path4497"
           inkscape:connector-curvature="0" />
        <path
           d="m 587.9715,417.41462 q 0,-0.49668 0.0764,-1.41363 0.0764,-0.91696 0.22924,-2.10136 0.15283,-1.1844 0.34386,-2.48342 0.19103,-1.33723 0.38206,-2.63625 0.42027,-3.05651 1.03158,-6.57151 h -0.5731 q -0.45848,0.5731 -1.06978,1.71929 -0.5731,1.1462 -1.64288,3.36217 -1.06978,2.21598 -2.75086,5.76918 -1.64288,3.51499 -4.27913,8.82569 -0.76413,1.56647 -1.7957,2.13956 -0.99337,0.53489 -2.21598,0.53489 -1.56646,0 -2.52162,-0.64951 -0.95517,-0.68771 -1.49006,-1.7957 -0.49668,-1.14619 -0.68771,-2.55983 -0.15283,-1.45185 -0.15283,-2.98011 0,-1.56646 0.19103,-3.70602 0.19104,-2.13957 0.49669,-4.50837 0.30565,-2.3688 0.87875,-5.38711 0.6113,-3.05652 1.03157,-5.3107 0.45848,-2.25418 0.91696,-4.1263 0.45847,-1.87212 0.84054,-3.05652 0.38206,-1.2226 0.72592,-1.94853 0.34386,-0.72592 0.76413,-1.10798 0.45848,-0.42027 1.06978,-0.53489 0.61131,-0.15283 1.56647,-0.15283 1.45184,0 2.25418,0.11462 0.84054,0.0764 1.22261,0.45848 0.42027,0.34386 0.49668,1.03157 0.0764,0.68772 0.0764,1.87212 0,0.64951 -0.0764,1.49005 -0.0382,0.84054 -0.15283,1.79571 -0.0764,0.95516 -0.22924,1.94853 -0.26744,1.91032 -0.30565,1.98673 -0.53489,2.59804 -1.10798,5.80738 l 0.42027,0.45848 q 0.0764,-0.11462 0.99336,-2.02494 0.95517,-1.91032 2.02495,-3.78244 1.10799,-1.87212 2.3688,-3.89706 1.26081,-2.06315 2.40701,-3.62962 1.10798,-1.56646 2.33059,-2.59804 1.26081,-1.03157 2.98011,-1.03157 1.60467,0 2.75086,0.95516 1.1462,0.91696 1.1462,2.63625 0,1.49005 -0.19104,2.82728 -0.22924,1.71929 -0.45847,2.59804 -0.26745,0.99336 -0.61131,2.44521 -0.26744,1.26081 -0.95516,3.62962 -0.11462,0.38206 -0.22924,1.10798 -0.0382,0.22924 -0.0382,0.30565 l 0.42027,0.45848 q 0.0764,-0.11462 1.06978,-1.98673 0.99337,-1.91033 2.13956,-3.78244 1.1844,-1.87212 2.48342,-3.93527 1.33723,-2.06315 2.48342,-3.62962 1.10799,-1.52825 2.21598,-2.55983 1.10798,-1.06978 2.71266,-1.06978 1.7957,0 3.01831,0.95516 1.26081,0.91696 1.26081,2.63625 0,2.63624 -0.26745,5.00505 -0.26744,2.3688 -0.80233,5.23428 -0.53489,2.86549 -0.80234,5.23429 -0.26744,2.33059 -0.26744,4.96684 0,2.06315 0.53489,3.36217 0.53489,1.29902 1.29902,1.29902 0.80233,0 1.68108,-0.34386 0.87875,-0.34386 1.79571,-0.87875 0.91695,-0.53489 1.7957,-1.22261 0.87875,-0.72592 1.68109,-1.49005 1.87211,-1.7575 3.70602,-3.97347 l 0.64951,9.01673 q -1.68108,1.33722 -3.36217,2.78907 -1.64287,1.41364 -3.51499,2.59804 -1.83391,1.14619 -4.04989,1.91032 -2.21597,0.72592 -5.00504,0.72592 -1.37544,0 -2.3306,-0.87874 -0.91695,-0.91696 -1.49005,-2.52163 -0.5731,-1.60467 -0.84054,-3.78244 -0.22924,-2.17777 -0.22924,-4.7376 0,-2.40701 0.15282,-5.08146 0.19104,-2.71266 0.49669,-5.46353 h -0.5731 l -7.75591,19.75275 q -0.99337,1.60467 -2.21598,2.17776 -1.22261,0.53489 -2.82728,0.53489 -1.2226,0 -1.94853,-0.64951 -0.72592,-0.68771 -1.14619,-1.71929 -0.38207,-1.06978 -0.53489,-2.33059 -0.11462,-1.26081 -0.11462,-2.44522 z"
           style="font-style:normal;font-variant:normal;font-weight:normal;font-stretch:normal;font-size:78.24684906px;font-family:Pacifico;-inkscape-font-specification:Pacifico;fill:#050505;fill-opacity:1;stroke:#050505;stroke-width:1.22260702;stroke-opacity:1"
           id="path4499"
           inkscape:connector-curvature="0" />
        <path
           d="m 644.6699,416.42126 q -1.37543,1.26081 -3.43858,2.71266 -2.02494,1.41364 -4.39374,2.63624 -2.3688,1.1844 -4.85222,1.98674 -2.44522,0.80233 -4.66119,0.80233 -1.98674,0 -3.36217,-0.53489 -1.33723,-0.57309 -2.17777,-1.56646 -0.84054,-0.99337 -1.22261,-2.40701 -0.34386,-1.45184 -0.34386,-3.17114 0,-2.407 0.53489,-5.61635 1.06978,-6.18944 1.37544,-6.95357 0.53489,-1.68109 2.13956,-7.45027 1.29902,-4.81401 1.60467,-6.26586 0.19103,-0.95516 1.06978,-1.71929 0.80234,-0.68771 1.79571,-1.10799 1.03157,-0.45847 2.10135,-0.64951 1.10799,-0.22923 1.98674,-0.22923 1.60467,0 2.17777,0.6113 0.57309,0.5731 0.57309,1.56646 0,0.84055 -0.38206,2.44522 -0.38207,1.56646 -0.95516,3.59141 -0.5731,1.98673 -1.45185,4.81401 -0.87875,2.78907 -1.45184,5.11967 -0.5731,2.29239 -0.95517,4.50836 -0.38206,2.17777 -0.38206,3.93527 0,1.71929 0.38206,2.75086 0.38207,0.99337 1.56647,0.99337 1.37543,0 3.05652,-0.95516 1.68108,-0.95516 3.40037,-2.29239 1.71929,-1.37543 3.36217,-2.82728 1.64288,-1.45184 2.90369,-2.48342 z m -17.07829,-40.04038 q 0,-0.87875 0.38207,-1.98674 0.38206,-1.10799 1.2226,-2.06315 0.87875,-0.99337 2.29239,-1.64288 1.45185,-0.68771 3.59141,-0.68771 1.33723,0 2.52163,0.30565 1.1844,0.30565 2.06315,0.95516 0.87874,0.6113 1.37543,1.64288 0.53489,1.03157 0.53489,2.44521 0,1.29902 -0.42027,2.52163 -0.42027,1.22261 -1.33723,2.17777 -0.91695,0.95516 -2.33059,1.56646 -1.37544,0.5731 -3.32397,0.5731 -3.36216,0 -4.96684,-1.56647 -1.60467,-1.60467 -1.60467,-4.24091 z"
           style="font-style:normal;font-variant:normal;font-weight:normal;font-stretch:normal;font-size:78.24684906px;font-family:Pacifico;-inkscape-font-specification:Pacifico;fill:#050505;fill-opacity:1;stroke:#050505;stroke-width:1.22260702;stroke-opacity:1"
           id="path4501"
           inkscape:connector-curvature="0" />
        <path
           d="m 653.87767,424.55923 q -3.515,0 -6.18945,-1.29902 -2.63625,-1.29902 -4.43195,-3.47678 -1.7957,-2.17777 -2.71266,-5.04326 -0.91695,-2.86548 -0.91695,-5.96021 0,-2.21597 0.76413,-5.3107 0.76413,-3.09472 1.64287,-5.38711 0.91696,-2.33059 2.21598,-4.43195 1.33723,-2.10135 3.05652,-3.66782 1.75749,-1.60467 3.89706,-2.52163 2.13956,-0.95516 4.69939,-0.95516 2.17777,0 4.01168,0.68772 1.87212,0.64951 3.17114,1.83391 1.33722,1.1844 2.06315,2.82728 0.76413,1.60467 0.76413,3.47679 0,1.29902 -0.34386,2.55983 -0.34386,1.26081 -1.33723,2.9801 -0.99337,1.68109 -1.94853,2.29239 -0.91695,0.61131 -2.10135,0.61131 -1.83391,0 -2.3688,-0.95517 -0.87875,-1.49005 -0.53489,-2.63624 0.11461,-0.61131 0.68771,-2.82728 0.0764,-0.30565 0.0382,-1.37543 0,-0.91696 -0.19103,-1.52826 -0.19104,-0.61131 -0.84055,-0.61131 -1.56646,0 -2.67445,0.76413 -1.10799,0.72593 -1.91032,1.94853 -0.76413,1.1844 -1.52826,3.40038 -0.76413,2.17777 -1.10799,3.66782 -0.30565,1.49005 -0.38206,2.86548 -0.0764,1.33723 -0.0764,2.25419 0,1.37543 0.22924,2.86548 0.26745,1.49005 0.99337,2.75087 0.76413,1.2226 1.94853,2.06315 1.1844,0.80233 3.05652,0.80233 1.83391,0 4.04988,-1.10799 2.21598,-1.14619 4.43195,-2.86548 2.25419,-1.71929 4.27913,-3.78244 2.02494,-2.06315 3.47679,-3.89706 l 2.63624,4.43195 q -2.86548,4.08809 -6.18944,7.29744 -1.41364,1.37543 -3.09473,2.67445 -1.64288,1.29902 -3.47679,2.33059 -1.7957,0.99337 -3.78244,1.64288 -1.94853,0.6113 -3.97347,0.6113 z"
           style="font-style:normal;font-variant:normal;font-weight:normal;font-stretch:normal;font-size:78.24684906px;font-family:Pacifico;-inkscape-font-specification:Pacifico;fill:#050505;fill-opacity:1;stroke:#050505;stroke-width:1.22260702;stroke-opacity:1"
           id="path4503"
           inkscape:connector-curvature="0" />
        <path
           d="m 684.13718,400.79481 q 1.56647,-2.06315 3.515,-4.43195 1.94853,-2.3688 5.19608,-5.46352 3.28575,-3.09473 5.3489,-4.43196 2.10136,-1.37543 3.93527,-1.37543 0.45848,0 1.03157,0.19103 0.5731,0.15283 1.06978,0.61131 0.53489,0.45848 0.87875,1.29902 0.34386,0.80233 0.34386,2.10135 0,2.59804 -0.72592,5.08146 -0.72592,2.44522 -2.75087,5.96021 -2.02494,3.515 -2.75086,6.07483 -0.68772,2.55984 -0.68772,5.34891 0,1.52826 0.45848,2.44521 0.45848,0.91696 1.1844,0.91696 0.91695,0 1.94853,-0.38207 1.03157,-0.38206 2.06315,-0.99337 1.03157,-0.6113 2.02494,-1.37543 0.99337,-0.80233 1.87212,-1.64288 2.10135,-1.94853 4.1263,-4.43195 l 0.64951,10.16292 q -0.68772,0.53489 -1.7575,1.33723 -1.03158,0.80234 -2.3306,1.71929 -1.26081,0.87875 -2.75086,1.7957 -1.49005,0.91696 -3.01831,1.64288 -1.49006,0.68772 -3.01831,1.1462 -1.49006,0.45847 -2.86549,0.45847 -2.10136,0 -3.66782,-1.10798 -1.52826,-1.1462 -2.52163,-2.86549 -0.99337,-1.7575 -1.49005,-3.82065 -0.49668,-2.06314 -0.49668,-3.89705 0,-1.22261 0.30565,-2.71266 0.34386,-1.52826 0.80233,-3.05652 0.49669,-1.52826 1.06979,-2.98011 0.6113,-1.45184 1.10798,-2.59804 0.53489,-1.14619 0.91696,-1.87211 0.38206,-0.72593 0.49668,-0.84055 l -0.80233,-0.11462 q -0.64951,0.42028 -2.21598,2.13957 -1.52826,1.71929 -3.47679,4.35553 -1.94853,2.59804 -4.04988,5.8838 -2.06315,3.24755 -3.74424,6.72434 -0.84054,1.71929 -1.37543,3.01831 -0.53489,1.26081 -1.06978,2.10136 -0.49669,0.80233 -1.10799,1.2226 -0.6113,0.42027 -1.56646,0.42027 -1.26082,0 -1.98674,-0.72592 -0.72592,-0.72592 -1.10799,-1.91032 -0.38206,-1.22261 -0.49668,-2.75087 -0.11462,-1.52826 -0.11462,-3.13293 0,-2.55983 0.0382,-6.68613 0.0764,-4.16451 0.38207,-9.20776 0.30565,-5.04325 0.87875,-10.6214 0.5731,-5.57814 1.60467,-11.00346 1.06978,-5.46353 2.63625,-10.39216 1.60467,-4.96684 3.85885,-8.71108 2.29239,-3.78244 5.34891,-5.99841 3.05651,-2.21598 7.02999,-2.21598 2.06314,0 3.36216,0.61131 1.33723,0.6113 2.10136,1.71929 0.80234,1.10799 1.10799,2.67445 0.30565,1.52826 0.30565,3.43858 0,2.82728 -0.80234,6.26586 -0.80233,3.43859 -2.13956,7.14461 -1.29902,3.70603 -2.9801,7.52668 -1.68109,3.78244 -3.43858,7.37385 -1.7575,3.5532 -3.47679,6.72434 -1.68109,3.17113 -2.98011,5.57814 z m 3.40038,-23.6116 q 2.25418,-5.84559 3.24755,-9.85727 1.03157,-4.01168 1.03157,-5.922 0,-2.90369 -0.76413,-2.90369 -0.99337,0 -2.9419,3.24755 -1.94853,3.24755 -4.58477,9.437 -0.64951,2.10135 -1.22261,4.35553 -0.53489,2.25419 -0.99337,4.50837 -0.42027,2.21597 -0.80233,4.39374 -0.34386,2.13956 -0.61131,4.08809 -0.64951,4.54657 -0.99337,8.90211 1.03158,-2.40701 2.25419,-5.23428 1.2226,-2.82728 2.407,-5.57815 1.1844,-2.78907 2.21598,-5.23429 1.06978,-2.48342 1.7575,-4.20271 z"
           style="font-style:normal;font-variant:normal;font-weight:normal;font-stretch:normal;font-size:78.24684906px;font-family:Pacifico;-inkscape-font-specification:Pacifico;fill:#050505;fill-opacity:1;stroke:#050505;stroke-width:1.22260702;stroke-opacity:1"
           id="path4505"
           inkscape:connector-curvature="0" />
      </g>
    </g>
  </g>
</svg>
