<?xml version="1.0" encoding="UTF-8" standalone="no"?>
<!-- Created with Inkscape (http://www.inkscape.org/) -->

<svg
   xmlns:dc="http://purl.org/dc/elements/1.1/"
   xmlns:cc="http://creativecommons.org/ns#"
   xmlns:rdf="http://www.w3.org/1999/02/22-rdf-syntax-ns#"
   xmlns:svg="http://www.w3.org/2000/svg"
   xmlns="http://www.w3.org/2000/svg"
   xmlns:sodipodi="http://sodipodi.sourceforge.net/DTD/sodipodi-0.dtd"
   xmlns:inkscape="http://www.inkscape.org/namespaces/inkscape"
   width="1000"
   height="150"
   viewBox="0 0 264.58333 39.687501"
   version="1.1"
   id="svg8"
   inkscape:version="0.92.1 r15371"
   sodipodi:docname="BannerPrices.svg">
  <defs
     id="defs2" />
  <sodipodi:namedview
     id="base"
     pagecolor="#ffffff"
     bordercolor="#666666"
     borderopacity="1.0"
     inkscape:pageopacity="0.0"
     inkscape:pageshadow="2"
     inkscape:zoom="1.979899"
     inkscape:cx="231.02313"
     inkscape:cy="30.697649"
     inkscape:document-units="mm"
     inkscape:current-layer="layer1"
     showgrid="false"
     units="px"
     showguides="true"
     inkscape:guide-bbox="true"
     inkscape:window-width="3840"
     inkscape:window-height="2071"
     inkscape:window-x="-10"
     inkscape:window-y="-10"
     inkscape:window-maximized="1" />
  <metadata
     id="metadata5">
    <rdf:RDF>
      <cc:Work
         rdf:about="">
        <dc:format>image/svg+xml</dc:format>
        <dc:type
           rdf:resource="http://purl.org/dc/dcmitype/StillImage" />
        <dc:title />
      </cc:Work>
    </rdf:RDF>
  </metadata>
  <g
     inkscape:label="Layer 1"
     inkscape:groupmode="layer"
     id="layer1"
     transform="translate(0,-257.31249)">
    <g
       id="g4550">
      <path
         style="opacity:1;fill:#70a9a1;fill-opacity:1;stroke:#050505;stroke-width:0.36470932;stroke-linecap:round;stroke-linejoin:miter;stroke-miterlimit:4;stroke-dasharray:none;stroke-dashoffset:0;stroke-opacity:1;paint-order:normal"
         d="m 198.49413,268.29294 h 65.67934 l -9.72985,14.25229 9.72985,14.25229 h -65.67934 z"
         id="rect4485-8-3"
         inkscape:connector-curvature="0"
         sodipodi:nodetypes="cccccc" />
      <path
         style="opacity:1;fill:#70a9a1;fill-opacity:1;stroke:#050505;stroke-width:0.36470932;stroke-linecap:round;stroke-linejoin:miter;stroke-miterlimit:4;stroke-dasharray:none;stroke-dashoffset:0;stroke-opacity:1;paint-order:normal"
         d="M 66.089192,268.29293 H 0.40985474 L 10.139702,282.54522 0.40985474,296.7975 H 66.089192 Z"
         id="rect4485-8-3-6"
         inkscape:connector-curvature="0"
         sodipodi:nodetypes="cccccc" />
      <path
         style="opacity:1;fill:#70a9a1;fill-opacity:1;stroke:#050505;stroke-width:0.39078322;stroke-linecap:round;stroke-linejoin:miter;stroke-miterlimit:4;stroke-dasharray:none;stroke-dashoffset:0;stroke-opacity:1;paint-order:normal"
         d="m 33.43642,257.47432 h 197.71055 v 28.47729 H 33.43642 Z"
         id="rect4485"
         inkscape:connector-curvature="0" />
      <path
         sodipodi:nodetypes="cccc"
         inkscape:connector-curvature="0"
         id="path4527"
         d="M 33.436417,285.9516 H 66.08925 l -5.8e-5,10.8459 z"
         style="fill:#40798c;fill-opacity:1;stroke:#000000;stroke-width:0.34526131px;stroke-linecap:butt;stroke-linejoin:miter;stroke-opacity:1" />
      <path
         sodipodi:nodetypes="cccc"
         inkscape:connector-curvature="0"
         id="path4527-1"
         d="m 231.14691,285.9516 h -32.65283 l 5e-5,10.8459 z"
         style="fill:#40798c;fill-opacity:1;stroke:#000000;stroke-width:0.34526131px;stroke-linecap:butt;stroke-linejoin:miter;stroke-opacity:1" />
    </g>
    <g
       aria-label=" Michaela Lachenmaier"
       transform="matrix(0.19418472,0,0,0.19418472,24.448296,197.85783)"
       style="font-style:normal;font-variant:normal;font-weight:normal;font-stretch:normal;font-size:40px;line-height:1.25;font-family:'MV Boli';-inkscape-font-specification:'MV Boli';letter-spacing:0px;word-spacing:0px;fill:#ecebe4;fill-opacity:1;stroke:#ecebe4;stroke-opacity:1"
       id="flowRoot4485">
      <g
         aria-label="Preise &amp; Leistungen"
         style="font-style:normal;font-variant:normal;font-weight:normal;font-stretch:normal;font-size:48.90428162px;line-height:1.25;font-family:'MV Boli';-inkscape-font-specification:'MV Boli';letter-spacing:0px;word-spacing:0px;fill:#050505;fill-opacity:1;stroke:#050505;stroke-width:1.22260702;stroke-opacity:1"
         id="text4538"
         transform="translate(0,2)">
        <path
           d="m 273.74239,342.90884 q 6.41869,0 11.2327,1.7575 4.85223,1.71929 8.06157,4.62298 3.20934,2.86549 4.81401,6.60972 1.64288,3.74423 1.64288,7.75591 0,3.74424 -1.45184,7.41206 -1.45185,3.66782 -4.39375,6.76254 -2.90369,3.09473 -7.37385,5.34891 -4.43195,2.25418 -10.43036,3.17114 -0.11462,2.78907 -0.19103,5.11966 -0.0382,0.99337 -0.0764,1.98674 -0.0382,0.99337 -0.0764,1.83391 0,0.80234 -0.0382,1.41364 0,0.6113 0,0.84054 -0.0764,2.67446 -0.64951,5.57815 -0.53489,2.86548 -1.60467,5.61635 -1.03157,2.75086 -2.55983,5.19608 -1.49005,2.48342 -3.515,4.31733 -1.98673,1.87212 -4.47015,2.9419 -2.48342,1.10798 -5.42532,1.10798 -3.13293,0 -5.61635,-1.64287 -2.44522,-1.60468 -4.31733,-4.35554 -1.83392,-2.75087 -3.13294,-6.34228 -1.26081,-3.5914 -2.06314,-7.48846 -0.80234,-3.93527 -1.18441,-7.90874 -0.34385,-3.97348 -0.34385,-7.48847 0,-6.03662 1.10798,-11.65297 1.10799,-5.61635 3.17114,-10.50678 2.06315,-4.92864 5.00505,-8.97852 2.9419,-4.04989 6.60972,-6.95358 3.70603,-2.90369 8.02336,-4.47016 4.35553,-1.60467 9.24596,-1.60467 z m -22.92388,43.17331 q 0,1.56647 0,4.24092 0.0382,2.63625 0.22924,5.65456 0.19103,3.01831 0.6113,6.11303 0.42027,3.09473 1.22261,5.61635 0.84054,2.48342 2.06315,4.0881 1.26081,1.56646 3.13293,1.56646 1.94853,0 3.32396,-1.33723 1.37544,-1.37543 2.29239,-3.51499 0.91696,-2.17777 1.45185,-4.89043 0.53489,-2.75086 0.80233,-5.50173 0.26745,-2.75087 0.34386,-5.23429 0.0764,-2.52162 0.0764,-4.27912 v -1.79571 q -3.17113,-1.26081 -5.00504,-2.21597 -1.79571,-0.95516 -2.71266,-1.83391 -0.91696,-0.87875 -1.1844,-1.83391 -0.22924,-0.99337 -0.22924,-2.29239 0,-0.68772 0.0382,-1.33723 0.0382,-0.68771 0.19104,-1.1844 0.19103,-0.53489 0.49668,-0.84054 0.34386,-0.34386 0.91696,-0.34386 0.38206,0 0.68771,0.15283 0.34386,0.15282 0.84054,0.42027 1.26082,0.68772 2.29239,1.14619 1.03158,0.42027 1.7575,0.68772 0.84054,0.30565 1.52826,0.45848 0,-0.49669 0,-1.94853 0.0382,-1.49005 0.22924,-3.36217 0.22924,-1.91033 0.72592,-3.97347 0.49668,-2.06315 1.45185,-3.78244 0.95516,-1.7193 2.48342,-2.82728 1.52826,-1.1462 3.78244,-1.1462 0.68771,0 1.41364,0.15283 0.72592,0.11462 1.29902,0.49668 0.6113,0.34386 0.99336,0.95516 0.42028,0.61131 0.42028,1.56647 0,0.26744 -0.0382,0.38206 0,0.0764 0,0.22924 l -2.3306,9.81907 -0.34385,3.01831 q 3.74423,-0.5731 6.45689,-1.83391 2.71266,-1.26082 4.47016,-2.98011 1.7957,-1.71929 2.63624,-3.78244 0.87875,-2.06315 0.87875,-4.24092 0,-2.13956 -0.84054,-4.35553 -0.80234,-2.25419 -2.82728,-4.0881 -2.02494,-1.83391 -5.42532,-3.01831 -3.40037,-1.1844 -8.55825,-1.1844 -3.85885,0 -6.99178,1.49005 -3.13293,1.45185 -5.57815,3.97348 -2.44521,2.52162 -4.24091,5.88379 -1.79571,3.36217 -2.98011,7.18282 -1.14619,3.78244 -1.71929,7.83233 -0.53489,4.01167 -0.53489,7.83232 z"
           style="font-style:normal;font-variant:normal;font-weight:normal;font-stretch:normal;font-size:78.24684906px;font-family:Pacifico;-inkscape-font-specification:Pacifico;fill:#050505;fill-opacity:1;stroke:#050505;stroke-width:1.22260702;stroke-opacity:1"
           id="path4552"
           inkscape:connector-curvature="0" />
        <path
           d="m 295.52008,404.57408 q 0,-1.68108 0.19103,-3.89706 0.19103,-2.25418 0.49668,-4.7376 0.34386,-2.48342 0.76413,-5.04325 0.45848,-2.59804 1.1462,-5.50174 0.68771,-2.94189 1.1844,-4.89042 0.49668,-1.94853 0.99337,-3.20935 0.30565,-0.84054 0.6113,-1.33722 0.30565,-0.49669 0.68772,-0.76413 0.42027,-0.30565 0.99336,-0.38207 0.61131,-0.11462 1.49006,-0.11462 0.99337,0 1.52826,0.11462 0.57309,0.0764 0.84054,0.45848 0.26744,0.34386 0.30565,1.03158 0.0764,0.68771 0.0764,1.87211 0,1.41364 -0.19103,4.01168 -0.19103,2.59804 -0.11462,4.54657 h 0.42027 q 0.76413,-1.52826 1.91033,-4.01168 1.14619,-2.48342 2.407,-4.1263 1.26082,-1.64287 2.86549,-2.75086 1.60467,-1.1462 3.70603,-1.1462 0.72592,0 1.41364,0.26745 0.68771,0.22924 1.1844,0.68772 0.53489,0.45847 0.84054,1.14619 0.30565,0.64951 0.30565,1.49005 0,0.64951 -0.19103,1.83391 -0.19103,1.1462 -0.61131,3.01831 -0.42027,1.87212 -0.6113,3.09473 -0.19103,1.1844 -0.19103,1.98673 0,1.37544 0.26744,2.29239 0.26745,0.91696 0.68772,1.49005 0.45848,0.53489 0.99337,0.76413 0.5731,0.22924 1.1844,0.22924 1.71929,0 3.5532,-0.76413 1.83391,-0.76413 3.36217,-1.71929 1.7957,-1.10799 3.515,-2.52163 l -0.5731,8.94032 q -0.99337,0.64951 -2.25418,1.45184 -1.26082,0.80234 -2.71266,1.52826 -1.41364,0.68772 -2.98011,1.1844 -1.52826,0.45848 -3.13293,0.45848 -2.86548,0 -4.62298,-1.14619 -1.7575,-1.1844 -2.78907,-3.05652 -1.03158,-1.91032 -1.52826,-4.24092 -0.49669,-2.3688 -0.80234,-4.77581 h -0.6113 l -6.83896,19.06503 q -0.53489,1.49005 -1.03157,2.48342 -0.45848,0.95516 -0.95517,1.56647 -0.49668,0.6113 -1.06978,0.87875 -0.57309,0.22923 -1.26081,0.22923 -1.56647,0 -2.52163,-0.64951 -0.95516,-0.68771 -1.49005,-1.7957 -0.49668,-1.14619 -0.68772,-2.55983 -0.15282,-1.45185 -0.15282,-2.98011 z"
           style="font-style:normal;font-variant:normal;font-weight:normal;font-stretch:normal;font-size:78.24684906px;font-family:Pacifico;-inkscape-font-specification:Pacifico;fill:#050505;fill-opacity:1;stroke:#050505;stroke-width:1.22260702;stroke-opacity:1"
           id="path4554"
           inkscape:connector-curvature="0" />
        <path
           d="m 341.29143,412.55923 q -3.59141,0 -6.30407,-1.29902 -2.67445,-1.29902 -4.47016,-3.47678 -1.7957,-2.21598 -2.71266,-5.08146 -0.87874,-2.9037 -0.87874,-6.07483 0,-2.13957 0.80233,-5.08146 0.80234,-2.98011 1.64288,-5.2725 0.87875,-2.29238 2.17777,-4.35553 1.29902,-2.10136 3.01831,-3.66782 1.7575,-1.60468 3.89706,-2.52163 2.17777,-0.95516 4.81401,-0.95516 2.13957,0 3.97348,0.68771 1.83391,0.68772 3.17113,1.94853 1.37544,1.22261 2.13957,2.98011 0.76413,1.7575 0.76413,3.93526 0,2.3688 -1.56647,5.3107 -1.52826,2.9419 -3.59141,5.04326 -2.06315,2.10135 -4.92863,3.74423 -2.82728,1.64288 -6.15124,2.55983 0.57309,1.03158 1.10798,1.7193 0.5731,0.68771 1.1462,1.06978 0.57309,0.38206 1.1844,0.53489 0.64951,0.15282 1.37543,0.15282 2.29239,0 4.81402,-0.91695 2.55983,-0.91696 4.96684,-2.29239 2.40701,-1.37543 4.54657,-2.9801 2.13956,-1.64288 3.62961,-3.09473 l 4.92864,5.11967 q -3.36217,3.47679 -7.14461,6.15124 -1.64288,1.14619 -3.5532,2.25418 -1.87212,1.10799 -3.97348,1.98674 -2.06315,0.84054 -4.31733,1.37543 -2.21597,0.49668 -4.50836,0.49668 z m -5.08146,-17.95704 q 1.37543,0 2.9801,-0.68771 1.64288,-0.72593 3.01831,-1.83391 1.41364,-1.10799 2.75087,-2.98011 1.33723,-1.87211 1.33723,-3.09472 0,-1.71929 -0.64951,-2.82728 -0.61131,-1.10799 -1.52826,-1.10799 -1.64288,0 -2.82728,0.61131 -1.1462,0.6113 -1.94853,1.60467 -0.76413,0.95516 -1.26082,2.21597 -0.45847,1.22261 -1.10798,3.05652 -0.61131,1.83391 -0.68772,3.01831 -0.0764,1.1844 -0.0764,2.02494 z"
           style="font-style:normal;font-variant:normal;font-weight:normal;font-stretch:normal;font-size:78.24684906px;font-family:Pacifico;-inkscape-font-specification:Pacifico;fill:#050505;fill-opacity:1;stroke:#050505;stroke-width:1.22260702;stroke-opacity:1"
           id="path4556"
           inkscape:connector-curvature="0" />
        <path
           d="m 380.49127,404.42126 q -1.37543,1.26081 -3.43858,2.71266 -2.02495,1.41364 -4.39375,2.63624 -2.3688,1.1844 -4.85222,1.98674 -2.44521,0.80233 -4.66119,0.80233 -1.98673,0 -3.36217,-0.53489 -1.33722,-0.57309 -2.17777,-1.56646 -0.84054,-0.99337 -1.2226,-2.40701 -0.34386,-1.45184 -0.34386,-3.17114 0,-2.407 0.53489,-5.61635 1.06978,-6.18944 1.37543,-6.95357 0.53489,-1.68109 2.13956,-7.45027 1.29902,-4.81401 1.60468,-6.26586 0.19103,-0.95516 1.06978,-1.71929 0.80233,-0.68771 1.7957,-1.10799 1.03158,-0.45847 2.10136,-0.64951 1.10798,-0.22923 1.98673,-0.22923 1.60467,0 2.17777,0.6113 0.5731,0.5731 0.5731,1.56646 0,0.84055 -0.38207,2.44522 -0.38206,1.56646 -0.95516,3.59141 -0.57309,1.98673 -1.45184,4.81401 -0.87875,2.78907 -1.45185,5.11967 -0.5731,2.29239 -0.95516,4.50836 -0.38207,2.17777 -0.38207,3.93527 0,1.71929 0.38207,2.75086 0.38206,0.99337 1.56646,0.99337 1.37544,0 3.05652,-0.95516 1.68109,-0.95516 3.40038,-2.29239 1.71929,-1.37543 3.36217,-2.82728 1.64288,-1.45184 2.90369,-2.48342 z m -17.07829,-40.04038 q 0,-0.87875 0.38206,-1.98674 0.38207,-1.10799 1.22261,-2.06315 0.87875,-0.99337 2.29239,-1.64288 1.45184,-0.68771 3.5914,-0.68771 1.33723,0 2.52163,0.30565 1.1844,0.30565 2.06315,0.95516 0.87875,0.6113 1.37543,1.64288 0.53489,1.03157 0.53489,2.44521 0,1.29902 -0.42027,2.52163 -0.42027,1.22261 -1.33722,2.17777 -0.91696,0.95516 -2.3306,1.56646 -1.37543,0.5731 -3.32396,0.5731 -3.36217,0 -4.96684,-1.56647 -1.60467,-1.60467 -1.60467,-4.24091 z"
           style="font-style:normal;font-variant:normal;font-weight:normal;font-stretch:normal;font-size:78.24684906px;font-family:Pacifico;-inkscape-font-specification:Pacifico;fill:#050505;fill-opacity:1;stroke:#050505;stroke-width:1.22260702;stroke-opacity:1"
           id="path4558"
           inkscape:connector-curvature="0" />
        <path
           d="m 376.67061,397.88795 q 2.13957,-1.83391 3.47679,-3.05652 1.33723,-1.2226 2.67445,-2.82728 1.33723,-1.64287 2.10136,-2.67445 0.80234,-1.03157 1.87212,-2.44521 1.06978,-1.41364 2.59804,-3.43858 1.52826,-2.06315 3.97347,-5.11967 0.49668,-0.68772 1.10799,-1.33723 0.6113,-0.64951 1.33722,-1.14619 0.76413,-0.53489 1.64288,-0.84054 0.91696,-0.34386 2.02495,-0.34386 1.83391,0 2.82727,0.42027 0.99337,0.38206 1.45185,0.95516 0.45848,0.5731 0.53489,1.22261 0.0764,0.6113 0.0764,1.06978 0,0.91695 -0.72592,2.02494 -0.72592,1.10799 -1.60467,2.13956 -0.87875,1.03158 -1.68109,1.91033 -0.76413,0.84054 -0.87874,1.26081 0,1.1844 0.15282,2.17777 0.19103,0.95516 0.45848,1.91032 0.30565,0.91696 0.6113,1.98674 0.30565,1.03157 0.5731,2.40701 0.30565,1.37543 0.0764,3.78244 -0.19103,2.407 -0.19103,4.85222 1.37543,-0.91696 2.9419,-1.64288 1.60467,-0.76413 3.32396,-1.56646 1.71929,-0.80234 3.515,-1.7575 1.83391,-0.99337 3.66782,-2.3688 l 0.0382,8.55825 q -2.3688,1.83391 -5.50173,3.43858 -3.09472,1.60467 -6.5333,2.82728 -3.40038,1.2226 -6.91537,1.94853 -3.47679,0.68771 -6.60972,0.68771 -2.25419,0 -4.20272,-0.42027 -1.94853,-0.42027 -3.43858,-1.29902 -1.45184,-0.91695 -2.3688,-2.3688 -0.91695,-1.45185 -1.10799,-3.51499 -0.53489,0.11461 -1.06978,0.15282 -0.49668,0.0382 -0.99337,0.0382 -0.6113,0 -1.14619,-0.0382 -0.53489,-0.0382 -0.91696,-0.26744 -0.38206,-0.26745 -0.6113,-0.80234 -0.22924,-0.5731 -0.22924,-1.60467 0,-0.91696 0.45848,-1.68109 0.45848,-0.80233 1.06978,-1.41364 0.6113,-0.6113 1.22261,-1.06978 0.6113,-0.45847 0.91695,-0.72592 z m 4.89043,4.89043 q 0.45848,0 0.99337,0.5731 0.5731,0.57309 1.29902,1.26081 0.72592,0.68772 1.68108,1.26081 0.95517,0.5731 2.17777,0.5731 1.49006,0 2.44522,-0.49668 0.99337,-0.49669 1.56646,-1.29902 0.5731,-0.84055 0.80234,-1.91033 0.22924,-1.10799 0.22924,-2.29239 0,-1.03157 -0.15283,-2.10135 -0.11462,-1.06978 0.0382,-2.63625 0.19103,-1.60467 -0.0764,-2.44521 -0.22923,-0.87875 -0.42027,-1.49005 z"
           style="font-style:normal;font-variant:normal;font-weight:normal;font-stretch:normal;font-size:78.24684906px;font-family:Pacifico;-inkscape-font-specification:Pacifico;fill:#050505;fill-opacity:1;stroke:#050505;stroke-width:1.22260702;stroke-opacity:1"
           id="path4560"
           inkscape:connector-curvature="0" />
        <path
           d="m 423.8174,412.55923 q -3.59141,0 -6.30407,-1.29902 -2.67445,-1.29902 -4.47016,-3.47678 -1.7957,-2.21598 -2.71266,-5.08146 -0.87874,-2.9037 -0.87874,-6.07483 0,-2.13957 0.80233,-5.08146 0.80234,-2.98011 1.64288,-5.2725 0.87875,-2.29238 2.17777,-4.35553 1.29902,-2.10136 3.01831,-3.66782 1.7575,-1.60468 3.89706,-2.52163 2.17777,-0.95516 4.81401,-0.95516 2.13957,0 3.97348,0.68771 1.83391,0.68772 3.17113,1.94853 1.37544,1.22261 2.13957,2.98011 0.76413,1.7575 0.76413,3.93526 0,2.3688 -1.56647,5.3107 -1.52826,2.9419 -3.59141,5.04326 -2.06315,2.10135 -4.92863,3.74423 -2.82728,1.64288 -6.15124,2.55983 0.57309,1.03158 1.10798,1.7193 0.5731,0.68771 1.1462,1.06978 0.5731,0.38206 1.1844,0.53489 0.64951,0.15282 1.37543,0.15282 2.29239,0 4.81402,-0.91695 2.55983,-0.91696 4.96684,-2.29239 2.40701,-1.37543 4.54657,-2.9801 2.13956,-1.64288 3.62961,-3.09473 l 4.92864,5.11967 q -3.36217,3.47679 -7.14461,6.15124 -1.64288,1.14619 -3.5532,2.25418 -1.87212,1.10799 -3.97348,1.98674 -2.06315,0.84054 -4.31733,1.37543 -2.21597,0.49668 -4.50836,0.49668 z m -5.08146,-17.95704 q 1.37543,0 2.9801,-0.68771 1.64288,-0.72593 3.01831,-1.83391 1.41364,-1.10799 2.75087,-2.98011 1.33723,-1.87211 1.33723,-3.09472 0,-1.71929 -0.64951,-2.82728 -0.61131,-1.10799 -1.52826,-1.10799 -1.64288,0 -2.82728,0.61131 -1.1462,0.6113 -1.94853,1.60467 -0.76413,0.95516 -1.26082,2.21597 -0.45847,1.22261 -1.10798,3.05652 -0.61131,1.83391 -0.68772,3.01831 -0.0764,1.1844 -0.0764,2.02494 z"
           style="font-style:normal;font-variant:normal;font-weight:normal;font-stretch:normal;font-size:78.24684906px;font-family:Pacifico;-inkscape-font-specification:Pacifico;fill:#050505;fill-opacity:1;stroke:#050505;stroke-width:1.22260702;stroke-opacity:1"
           id="path4562"
           inkscape:connector-curvature="0" />
        <path
           d="m 475.35793,379.81629 q -0.72593,-1.33723 -1.52826,-3.13293 -0.76413,-1.7957 -1.45185,-3.78244 -0.64951,-1.98674 -1.10799,-3.97347 -0.42027,-2.02495 -0.42027,-3.82065 0,-3.09472 1.33723,-5.922 1.33723,-2.82728 3.59141,-5.00505 2.25418,-2.17777 5.19608,-3.43858 2.9801,-1.29902 6.26586,-1.29902 2.78907,0 5.11967,0.87875 2.3688,0.84054 4.04988,2.3688 1.68109,1.52826 2.59804,3.59141 0.95516,2.06314 0.95516,4.50836 0,2.13956 -0.72592,4.50836 -0.72592,2.3306 -2.3688,4.77581 -1.64288,2.40701 -4.24092,4.81402 -2.59804,2.407 -6.30407,4.66119 0.45848,0.91695 1.52826,2.67445 1.10799,1.71929 2.44522,3.85885 1.37543,2.13956 2.82727,4.50836 1.49006,2.3306 2.75087,4.50837 0.80234,-0.5731 1.26081,-1.1844 0.49669,-0.61131 0.72593,-1.22261 0.22924,-0.6113 0.26744,-1.22261 0.0764,-0.64951 0.0764,-1.29902 0,-1.45184 -0.34386,-2.48342 -0.34386,-1.03157 -0.99337,-2.02494 -0.6113,-0.99337 -1.49005,-2.10136 -0.87875,-1.14619 -1.91033,-2.78907 0,-0.0382 0.19104,-0.22924 0.19103,-0.19103 0.42027,-0.42027 0.26744,-0.22924 0.49668,-0.38206 0.22924,-0.19103 0.30565,-0.19103 0.5731,0 1.64288,0.49668 1.06978,0.45848 2.3306,1.33723 1.26081,0.84054 2.59804,2.06315 1.33722,1.1844 2.407,2.67445 1.06978,1.49005 1.7575,3.24755 0.68772,1.71929 0.68772,3.59141 0,2.33059 -1.29902,4.85222 -1.26082,2.48342 -4.31733,4.96684 0.11462,0 0.80233,0.53489 0.68772,0.49668 1.56647,1.1844 0.87875,0.68772 1.71929,1.37543 0.87875,0.68772 1.29902,1.06978 0.6113,0.5731 0.6113,1.56647 0,0.87875 -0.53489,1.91032 -0.49668,0.99337 -1.29902,1.87212 -0.80234,0.84054 -1.7957,1.41364 -0.95516,0.5731 -1.87212,0.5731 -0.87875,0 -1.56647,-0.5731 -0.49668,-0.42027 -1.45184,-1.37543 -0.91696,-0.99337 -1.83391,-2.02495 -0.91696,-1.03157 -1.60467,-1.7957 -0.68772,-0.80234 -0.68772,-0.84054 -1.7957,1.37543 -4.1263,2.44521 -2.02494,0.91696 -4.85222,1.68109 -2.78907,0.76412 -6.38048,0.76412 -4.66119,0 -8.21439,-1.03157 -3.515,-1.03157 -5.8838,-2.82728 -2.3688,-1.7957 -3.59141,-4.1645 -1.1844,-2.40701 -1.1844,-5.15788 0,-2.407 0.95517,-4.96684 0.99336,-2.55983 2.94189,-5.11967 1.94853,-2.55983 4.85222,-4.96684 2.9037,-2.407 6.80076,-4.50836 z m 3.62961,25.02524 q 2.48342,0 4.85222,-0.84054 2.3688,-0.87875 4.43195,-2.21598 -1.64288,-1.94853 -2.90369,-3.5532 -1.26081,-1.64288 -2.48342,-3.40038 -1.1844,-1.7957 -2.48342,-3.93526 -1.29902,-2.17777 -2.9801,-5.23429 -1.83391,1.37543 -3.28576,2.9419 -1.45185,1.52826 -2.44521,3.13293 -0.99337,1.60467 -1.52826,3.20934 -0.49669,1.56647 -0.49669,3.05652 0,1.45185 0.53489,2.71266 0.5731,1.22261 1.71929,2.13956 1.1462,0.91696 2.9037,1.45185 1.75749,0.53489 4.1645,0.53489 z m 8.71108,-47.29961 q -0.80234,0 -1.79571,0.53489 -0.99337,0.49668 -1.87211,1.41364 -0.84055,0.91695 -1.41364,2.17777 -0.5731,1.2226 -0.5731,2.67445 0,1.26081 0.34386,3.01831 0.38206,1.7575 0.84054,3.40038 0.45848,1.60467 0.84054,2.75086 0.38207,1.10799 0.45848,1.10799 1.87212,-1.71929 3.40037,-3.28576 1.56647,-1.60467 2.63625,-3.17113 1.06978,-1.56647 1.64288,-3.17114 0.6113,-1.60467 0.6113,-3.32396 0,-0.95516 -0.26744,-1.71929 -0.22924,-0.76413 -0.80234,-1.29902 -0.5731,-0.53489 -1.56646,-0.80234 -0.99337,-0.30565 -2.48342,-0.30565 z"
           style="font-style:normal;font-variant:normal;font-weight:normal;font-stretch:normal;font-size:78.24684906px;font-family:Pacifico;-inkscape-font-specification:Pacifico;fill:#050505;fill-opacity:1;stroke:#050505;stroke-width:1.22260702;stroke-opacity:1"
           id="path4564"
           inkscape:connector-curvature="0" />
        <path
           d="m 528.42672,400.06572 q 0.49669,-0.34386 1.68109,-1.10799 1.1844,-0.80233 2.78907,-1.87212 1.60467,-1.06978 3.43858,-2.33059 1.87212,-1.29902 3.66782,-2.59804 l 0.30566,-2.59804 q 0.84054,-8.02336 2.71265,-14.70949 1.87212,-6.72434 4.39375,-12.11145 2.55983,-5.42532 5.53994,-9.47521 3.01831,-4.04988 6.11303,-6.76254 3.13293,-2.75087 6.15124,-4.08809 3.05652,-1.37544 5.69277,-1.37544 1.91032,0 3.51499,0.72593 1.60467,0.72592 2.75087,2.17777 1.14619,1.45184 1.7957,3.62961 0.64951,2.17777 0.64951,5.08146 0,3.5532 -1.06978,7.45026 -1.06978,3.89706 -3.05652,7.87053 -1.94853,3.97348 -4.69939,7.94695 -2.75087,3.93527 -6.11304,7.60309 -3.32396,3.66782 -7.22102,6.95358 -3.85885,3.24755 -8.02336,5.80738 0,2.33059 -0.15282,5.57814 -0.0382,1.37544 -0.0764,2.10136 0,0.68772 0,0.95516 0,0.26745 0,0.42027 0,0.34386 0.11462,0.64951 0.15283,0.26745 0.53489,0.45848 0.42027,0.15283 1.10799,0.26744 0.68772,0.0764 1.83391,0.0764 1.68109,0 4.62298,-0.84054 l 12.79917,-3.66783 q 0.22924,-0.0764 0.6113,-0.11462 0.30566,-0.0382 0.5731,-0.0382 0.95516,0 1.64288,0.38206 0.68772,0.34386 1.14619,0.95516 0.45848,0.61131 0.68772,1.41364 0.22924,0.80234 0.22924,1.64288 0,0.76413 -0.22924,1.49005 -0.22924,0.72593 -0.68772,1.37544 -0.45847,0.6113 -1.14619,1.06978 -0.68772,0.45848 -1.60467,0.6113 -3.74424,1.49005 -7.6413,2.67446 -1.68108,0.49668 -3.5532,0.95516 -1.83391,0.49668 -3.78244,0.84054 -1.91032,0.38206 -3.89706,0.6113 -1.94853,0.22924 -3.78244,0.22924 -2.82728,0 -4.66119,-0.99337 -1.7957,-0.95516 -2.86548,-2.63624 -1.03158,-1.64288 -1.45185,-4.77581 -0.42027,-3.13293 -0.42027,-5.57815 -3.28576,2.40701 -5.57814,3.82065 -2.29239,1.41364 -2.9419,1.41364 -0.64951,0 -1.22261,-0.42027 -0.6113,-0.45848 -1.10799,-1.1844 -0.49668,-0.72592 -0.76413,-1.60467 -0.30565,-0.91696 -0.30565,-1.79571 0,-0.72592 0.19103,-1.41364 0.15283,-0.72592 0.76413,-1.14619 z M 550.128,386.65525 q 1.94853,-2.02494 4.04988,-4.39375 2.13957,-2.407 4.20272,-5.00504 2.10135,-2.63625 4.01167,-5.34891 1.94853,-2.75086 3.47679,-5.46352 1.56647,-2.71266 2.59804,-5.2725 1.06978,-2.55983 1.37544,-4.85222 0.11462,-0.76413 0.15282,-1.45184 0.0382,-0.72593 0.0382,-1.33723 0,-2.17777 -0.61131,-3.17114 -0.57309,-0.99337 -1.60467,-0.99337 -1.2226,0 -2.86548,1.29902 -1.64288,1.26082 -3.43858,3.62962 -1.79571,2.3688 -3.62962,5.73097 -1.83391,3.36217 -3.40037,7.48847 -1.56647,4.1263 -2.75087,8.97852 -1.14619,4.85222 -1.60467,10.16292 z"
           style="font-style:normal;font-variant:normal;font-weight:normal;font-stretch:normal;font-size:78.24684906px;font-family:Pacifico;-inkscape-font-specification:Pacifico;fill:#050505;fill-opacity:1;stroke:#050505;stroke-width:1.22260702;stroke-opacity:1"
           id="path4566"
           inkscape:connector-curvature="0" />
        <path
           d="m 589.32784,412.55923 q -3.59141,0 -6.30407,-1.29902 -2.67445,-1.29902 -4.47016,-3.47678 -1.7957,-2.21598 -2.71266,-5.08146 -0.87875,-2.9037 -0.87875,-6.07483 0,-2.13957 0.80234,-5.08146 0.80233,-2.98011 1.64288,-5.2725 0.87875,-2.29238 2.17777,-4.35553 1.29902,-2.10136 3.01831,-3.66782 1.75749,-1.60468 3.89706,-2.52163 2.17777,-0.95516 4.81401,-0.95516 2.13956,0 3.97347,0.68771 1.83392,0.68772 3.17114,1.94853 1.37543,1.22261 2.13956,2.98011 0.76413,1.7575 0.76413,3.93526 0,2.3688 -1.56646,5.3107 -1.52826,2.9419 -3.59141,5.04326 -2.06315,2.10135 -4.92863,3.74423 -2.82728,1.64288 -6.15125,2.55983 0.5731,1.03158 1.10799,1.7193 0.5731,0.68771 1.1462,1.06978 0.57309,0.38206 1.1844,0.53489 0.64951,0.15282 1.37543,0.15282 2.29239,0 4.81401,-0.91695 2.55984,-0.91696 4.96684,-2.29239 2.40701,-1.37543 4.54657,-2.9801 2.13957,-1.64288 3.62962,-3.09473 l 4.92863,5.11967 q -3.36217,3.47679 -7.14461,6.15124 -1.64287,1.14619 -3.5532,2.25418 -1.87211,1.10799 -3.97347,1.98674 -2.06315,0.84054 -4.31733,1.37543 -2.21598,0.49668 -4.50836,0.49668 z m -5.08147,-17.95704 q 1.37544,0 2.98011,-0.68771 1.64288,-0.72593 3.01831,-1.83391 1.41364,-1.10799 2.75087,-2.98011 1.33722,-1.87211 1.33722,-3.09472 0,-1.71929 -0.64951,-2.82728 -0.6113,-1.10799 -1.52826,-1.10799 -1.64287,0 -2.82727,0.61131 -1.1462,0.6113 -1.94853,1.60467 -0.76413,0.95516 -1.26082,2.21597 -0.45848,1.22261 -1.10799,3.05652 -0.6113,1.83391 -0.68771,3.01831 -0.0764,1.1844 -0.0764,2.02494 z"
           style="font-style:normal;font-variant:normal;font-weight:normal;font-stretch:normal;font-size:78.24684906px;font-family:Pacifico;-inkscape-font-specification:Pacifico;fill:#050505;fill-opacity:1;stroke:#050505;stroke-width:1.22260702;stroke-opacity:1"
           id="path4568"
           inkscape:connector-curvature="0" />
        <path
           d="m 628.52768,404.42126 q -1.37544,1.26081 -3.43859,2.71266 -2.02494,1.41364 -4.39374,2.63624 -2.3688,1.1844 -4.85222,1.98674 -2.44522,0.80233 -4.66119,0.80233 -1.98674,0 -3.36217,-0.53489 -1.33723,-0.57309 -2.17777,-1.56646 -0.84054,-0.99337 -1.22261,-2.40701 -0.34385,-1.45184 -0.34385,-3.17114 0,-2.407 0.53489,-5.61635 1.06978,-6.18944 1.37543,-6.95357 0.53489,-1.68109 2.13956,-7.45027 1.29902,-4.81401 1.60467,-6.26586 0.19104,-0.95516 1.06978,-1.71929 0.80234,-0.68771 1.79571,-1.10799 1.03157,-0.45847 2.10135,-0.64951 1.10799,-0.22923 1.98674,-0.22923 1.60467,0 2.17777,0.6113 0.5731,0.5731 0.5731,1.56646 0,0.84055 -0.38207,2.44522 -0.38206,1.56646 -0.95516,3.59141 -0.5731,1.98673 -1.45185,4.81401 -0.87874,2.78907 -1.45184,5.11967 -0.5731,2.29239 -0.95516,4.50836 -0.38207,2.17777 -0.38207,3.93527 0,1.71929 0.38207,2.75086 0.38206,0.99337 1.56646,0.99337 1.37543,0 3.05652,-0.95516 1.68108,-0.95516 3.40038,-2.29239 1.71929,-1.37543 3.36216,-2.82728 1.64288,-1.45184 2.9037,-2.48342 z m -17.0783,-40.04038 q 0,-0.87875 0.38207,-1.98674 0.38206,-1.10799 1.22261,-2.06315 0.87874,-0.99337 2.29238,-1.64288 1.45185,-0.68771 3.59141,-0.68771 1.33723,0 2.52163,0.30565 1.1844,0.30565 2.06315,0.95516 0.87875,0.6113 1.37543,1.64288 0.53489,1.03157 0.53489,2.44521 0,1.29902 -0.42027,2.52163 -0.42027,1.22261 -1.33723,2.17777 -0.91695,0.95516 -2.33059,1.56646 -1.37543,0.5731 -3.32396,0.5731 -3.36217,0 -4.96684,-1.56647 -1.60468,-1.60467 -1.60468,-4.24091 z"
           style="font-style:normal;font-variant:normal;font-weight:normal;font-stretch:normal;font-size:78.24684906px;font-family:Pacifico;-inkscape-font-specification:Pacifico;fill:#050505;fill-opacity:1;stroke:#050505;stroke-width:1.22260702;stroke-opacity:1"
           id="path4570"
           inkscape:connector-curvature="0" />
        <path
           d="m 624.70701,397.88795 q 2.13956,-1.83391 3.47678,-3.05652 1.33723,-1.2226 2.67446,-2.82728 1.33722,-1.64287 2.10135,-2.67445 0.80234,-1.03157 1.87212,-2.44521 1.06978,-1.41364 2.59804,-3.43858 1.52826,-2.06315 3.97347,-5.11967 0.49669,-0.68772 1.10799,-1.33723 0.6113,-0.64951 1.33723,-1.14619 0.76413,-0.53489 1.64287,-0.84054 0.91696,-0.34386 2.02495,-0.34386 1.83391,0 2.82728,0.42027 0.99336,0.38206 1.45184,0.95516 0.45848,0.5731 0.53489,1.22261 0.0764,0.6113 0.0764,1.06978 0,0.91695 -0.72593,2.02494 -0.72592,1.10799 -1.60467,2.13956 -0.87875,1.03158 -1.68108,1.91033 -0.76413,0.84054 -0.87875,1.26081 0,1.1844 0.15282,2.17777 0.19104,0.95516 0.45848,1.91032 0.30565,0.91696 0.6113,1.98674 0.30566,1.03157 0.5731,2.40701 0.30565,1.37543 0.0764,3.78244 -0.19103,2.407 -0.19103,4.85222 1.37544,-0.91696 2.9419,-1.64288 1.60467,-0.76413 3.32396,-1.56646 1.71929,-0.80234 3.515,-1.7575 1.83391,-0.99337 3.66782,-2.3688 l 0.0382,8.55825 q -2.36881,1.83391 -5.50174,3.43858 -3.09472,1.60467 -6.5333,2.82728 -3.40038,1.2226 -6.91537,1.94853 -3.47679,0.68771 -6.60972,0.68771 -2.25418,0 -4.20271,-0.42027 -1.94853,-0.42027 -3.43859,-1.29902 -1.45184,-0.91695 -2.3688,-2.3688 -0.91695,-1.45185 -1.10798,-3.51499 -0.53489,0.11461 -1.06979,0.15282 -0.49668,0.0382 -0.99336,0.0382 -0.61131,0 -1.1462,-0.0382 -0.53489,-0.0382 -0.91695,-0.26744 -0.38207,-0.26745 -0.61131,-0.80234 -0.22924,-0.5731 -0.22924,-1.60467 0,-0.91696 0.45848,-1.68109 0.45848,-0.80233 1.06978,-1.41364 0.61131,-0.6113 1.22261,-1.06978 0.6113,-0.45847 0.91696,-0.72592 z m 4.89042,4.89043 q 0.45848,0 0.99337,0.5731 0.5731,0.57309 1.29902,1.26081 0.72592,0.68772 1.68109,1.26081 0.95516,0.5731 2.17777,0.5731 1.49005,0 2.44521,-0.49668 0.99337,-0.49669 1.56646,-1.29902 0.5731,-0.84055 0.80234,-1.91033 0.22924,-1.10799 0.22924,-2.29239 0,-1.03157 -0.15283,-2.10135 -0.11462,-1.06978 0.0382,-2.63625 0.19103,-1.60467 -0.0764,-2.44521 -0.22924,-0.87875 -0.42027,-1.49005 z"
           style="font-style:normal;font-variant:normal;font-weight:normal;font-stretch:normal;font-size:78.24684906px;font-family:Pacifico;-inkscape-font-specification:Pacifico;fill:#050505;fill-opacity:1;stroke:#050505;stroke-width:1.22260702;stroke-opacity:1"
           id="path4572"
           inkscape:connector-curvature="0" />
        <path
           d="m 690.7278,404.00099 q -3.66782,2.13956 -6.5333,3.74423 -2.86549,1.60467 -5.11967,2.67445 -2.21598,1.06978 -3.97347,1.60467 -1.7193,0.53489 -3.13293,0.53489 -2.9037,0 -5.11967,-1.75749 -2.21598,-1.7575 -3.70603,-5.04326 -1.49005,-3.32396 -2.25418,-8.02336 -0.72592,-4.69939 -0.72592,-10.58319 0,-2.29239 0.19103,-4.89043 0.19103,-2.59804 0.53489,-5.15787 -1.1462,-0.15282 -1.7957,-0.26744 -0.61131,-0.15283 -1.33723,-0.26745 -0.68772,-0.15283 -1.79571,-0.30565 -1.06978,-0.15283 -3.13293,-0.38207 -0.91695,-0.11462 -1.41364,-0.42027 -0.49668,-0.34386 -0.72592,-0.76413 -0.22924,-0.45847 -0.26744,-0.91695 -0.0382,-0.49669 -0.0382,-0.84054 0,-0.76413 0.76413,-1.1462 0.72592,-0.42027 1.91032,-0.6113 1.1462,-0.19103 2.52163,-0.19103 1.41364,-0.0382 2.67445,0 1.29902,0.0382 2.29239,0.0764 1.03158,0 1.41364,-0.0764 1.03157,-5.15788 2.59804,-9.97189 1.60467,-4.85222 3.5532,-8.59646 1.98674,-3.78244 4.31733,-6.03662 2.3306,-2.29239 4.89043,-2.29239 1.64288,0 2.98011,0.91696 1.37543,0.91695 2.33059,2.44521 0.95516,1.52826 1.45185,3.59141 0.53489,2.02494 0.53489,4.24092 0,1.87211 -0.53489,3.97347 -0.53489,2.06315 -1.45185,4.24092 -0.91696,2.13956 -2.17777,4.35554 -1.22261,2.21597 -2.59804,4.39374 0.34386,0.0382 1.1462,0.0382 0.80233,0 1.83391,0.0764 1.06978,0.0382 2.29238,0.11462 1.22261,0.0382 2.36881,0.0764 1.14619,0.0382 2.13956,0.0764 0.99337,0.0382 1.64288,0.0764 0.76413,0.0382 1.10798,0.76413 0.34386,0.72592 0.34386,1.83391 0,1.33722 -0.76413,2.17777 -0.76413,0.84054 -1.68108,0.84054 h -14.6713 q -1.10798,1.52826 -2.25418,3.01831 -1.10799,1.45185 -2.06315,2.63625 -0.15282,2.3688 -0.26744,4.66118 -0.0382,0.99337 -0.0764,2.06315 -0.0382,1.03158 -0.0764,2.06315 -0.0382,1.03158 -0.0764,1.98674 0,0.95516 0,1.7575 0,2.06315 0.38206,3.47679 0.38207,1.41364 1.10799,2.33059 0.72592,0.87875 1.7575,1.29902 1.06978,0.38207 2.3688,0.38207 0.80234,0 1.98674,-0.38207 1.2226,-0.38206 2.63624,-1.03157 1.45185,-0.68772 3.01831,-1.60468 1.60467,-0.91695 3.13293,-1.98673 1.56647,-1.10799 2.98011,-2.29239 1.41364,-1.22261 2.55983,-2.48342 z M 678.50173,355.6316 q 0,-0.42028 -0.0764,-0.91696 -0.0382,-0.53489 -0.22924,-0.99337 -0.19103,-0.45848 -0.6113,-0.76413 -0.38207,-0.30565 -1.10799,-0.30565 -0.99337,0 -2.02494,1.7575 -0.99337,1.7575 -1.94853,4.50836 -0.91696,2.71266 -1.7575,5.99842 -0.80234,3.28575 -1.49005,6.38048 0.57309,0.0764 1.14619,0.15282 0.5731,0.0382 1.1844,0.11462 1.14619,-1.94853 2.3688,-4.20271 1.26082,-2.29239 2.25418,-4.47016 0.99337,-2.21597 1.64288,-4.12629 0.64951,-1.91033 0.64951,-3.13293 z"
           style="font-style:normal;font-variant:normal;font-weight:normal;font-stretch:normal;font-size:78.24684906px;font-family:Pacifico;-inkscape-font-specification:Pacifico;fill:#050505;fill-opacity:1;stroke:#050505;stroke-width:1.22260702;stroke-opacity:1"
           id="path4574"
           inkscape:connector-curvature="0" />
        <path
           d="m 716.66999,376.95081 q 0,1.03157 -0.22924,2.82727 -0.22924,1.7575 -0.6113,3.89706 -0.34386,2.10136 -0.99337,5.08146 -0.6113,2.9419 -0.99337,4.89043 -0.34386,1.94853 -0.57309,3.43858 -0.22924,1.45185 -0.22924,2.02495 0,1.06978 0.0382,1.98673 0.0382,0.87875 0.22924,1.56647 0.19103,0.64951 0.5731,1.03157 0.42027,0.34386 1.1844,0.34386 0.84054,0 2.02494,-0.42027 1.22261,-0.42027 2.55984,-1.10799 1.37543,-0.72592 2.78907,-1.60467 1.41364,-0.91695 2.67445,-1.91032 1.29902,-0.99337 2.3306,-1.94853 1.06978,-0.99337 1.71929,-1.83391 0,1.26081 0,2.29239 0.0382,1.03157 0.0382,1.98673 0,0.91696 0,1.91033 0.0382,0.99336 0.0382,2.21597 -0.84054,0.84054 -2.10136,1.7957 -1.2226,0.95517 -2.75086,1.91033 -1.49005,0.95516 -3.20935,1.83391 -1.68108,0.87875 -3.40037,1.56646 -1.71929,0.64951 -3.40038,1.06979 -1.68108,0.38206 -3.13293,0.38206 -1.45184,0 -2.48342,-0.5731 -1.03157,-0.57309 -1.7957,-1.60467 -0.72592,-1.03157 -1.26082,-2.44521 -0.49668,-1.45185 -0.87874,-3.20935 -1.37544,1.79571 -2.9037,3.32397 -1.52825,1.49005 -3.13293,2.59804 -1.56646,1.10798 -3.20934,1.75749 -1.60467,0.61131 -3.13293,0.61131 -1.26081,0 -2.3688,-0.42027 -1.10799,-0.42027 -1.98674,-1.41364 -0.84054,-0.99337 -1.33722,-2.59804 -0.49669,-1.64288 -0.49669,-4.04989 0.0382,-5.00505 0.72592,-7.6795 1.1462,-3.89706 2.13957,-11.61477 0.0764,-0.57309 0.26744,-1.52825 0.22924,-0.99337 0.5731,-2.13957 0.38206,-1.14619 0.91695,-2.33059 0.5349,-1.1844 1.26082,-2.13956 0.72592,-0.95517 1.68108,-1.56647 0.99337,-0.6113 2.21598,-0.64951 2.02494,0.0764 2.90369,0.53489 0.87875,0.42027 0.87875,1.06978 -0.34386,2.02495 -0.76413,4.50837 -0.38207,2.48342 -0.80234,5.00504 -0.42027,2.52163 -1.03157,5.61635 -0.5731,3.09473 -0.87875,4.96685 -0.30565,1.87211 -0.49668,3.01831 -0.15283,1.14619 -0.15283,1.1844 0,0.68771 0.11462,1.33722 0.15283,0.61131 0.42027,1.10799 0.26745,0.49669 0.68772,0.80234 0.42027,0.30565 0.99337,0.30565 0.84054,0 1.71929,-0.42027 0.87875,-0.45848 1.64287,-1.29902 0.80234,-0.76413 1.41364,-1.98674 0.61131,-1.1844 0.91696,-2.75086 l 4.20271,-20.82253 q 0.19103,-0.91696 1.52826,-1.52826 1.37543,-0.64951 3.09472,-0.64951 1.94853,0 3.09473,0.68772 1.14619,0.68771 1.14619,1.7575 z"
           style="font-style:normal;font-variant:normal;font-weight:normal;font-stretch:normal;font-size:78.24684906px;font-family:Pacifico;-inkscape-font-specification:Pacifico;fill:#050505;fill-opacity:1;stroke:#050505;stroke-width:1.22260702;stroke-opacity:1"
           id="path4576"
           inkscape:connector-curvature="0" />
        <path
           d="m 724.65514,404.57408 q 0,-2.52162 0.30565,-5.80738 0.30565,-3.32396 0.76413,-7.25923 0.45848,-3.97347 1.03157,-7.14461 0.5731,-3.17114 1.10799,-5.42532 0.42027,-1.7575 1.60467,-2.9419 1.22261,-1.1844 3.28576,-1.1844 2.06315,0 2.86548,1.26082 0.80234,1.26081 0.80234,3.36217 0,0.57309 -0.11462,1.56646 -0.11462,0.95516 -0.30565,2.13956 -0.15283,1.1462 -0.34386,2.40701 -0.19103,1.22261 -0.38206,2.82728 -0.15283,1.56646 -0.26745,2.3688 -0.11462,0.76413 -0.11462,1.03158 h 0.76413 q 0.22924,-0.42028 0.72592,-1.33723 0.49669,-0.95516 1.1462,-2.71266 0.64951,-1.7575 1.37543,-3.09472 0.76413,-1.37544 1.41364,-2.59804 0.64951,-1.26082 1.1844,-2.21598 0.53489,-0.95516 0.80234,-1.41364 1.2226,-2.06315 2.78907,-2.82728 1.56646,-0.76413 3.47679,-0.76413 1.91032,0 3.01831,1.60467 1.14619,1.60468 1.14619,4.43196 0,0.42027 -0.19103,1.41363 -0.15283,0.99337 -0.42027,2.36881 -0.26745,1.37543 -0.6113,3.5532 -0.30566,2.17777 -0.5731,3.89706 -0.26745,1.71929 -0.45848,3.40037 -0.15283,1.68109 -0.15283,3.09473 0,2.3688 0.5731,3.89706 0.61131,1.52826 1.87212,1.52826 0.45848,0 1.29902,-0.34386 1.26081,-0.45848 1.60467,-0.80234 1.68109,-1.29902 1.7575,-1.26081 0.11462,0.0382 2.55983,-1.52826 3.05652,-1.94853 7.29744,-4.77581 l -0.0382,8.55825 -1.91032,1.45185 q -0.22924,0.19103 -3.59141,1.98673 -4.85222,2.59804 -6.07483,3.13293 -2.9801,1.33723 -3.70603,1.52826 -1.91032,0.6113 -4.01168,0.6113 -2.10135,0 -3.5532,-3.01831 -1.41364,-3.05651 -1.41364,-8.9021 0,-2.29239 0.30565,-4.92864 0.30566,-2.67445 0.76413,-5.73097 h -0.6113 l -10.01009,19.86737 q -0.80234,1.60467 -1.7193,2.13956 -0.95516,0.57309 -2.21597,0.57309 -1.56647,0 -2.52163,-0.64951 -0.95516,-0.68771 -1.49005,-1.7957 -0.49668,-1.14619 -0.68772,-2.55983 -0.15282,-1.45185 -0.15282,-2.98011 z"
           style="font-style:normal;font-variant:normal;font-weight:normal;font-stretch:normal;font-size:78.24684906px;font-family:Pacifico;-inkscape-font-specification:Pacifico;fill:#050505;fill-opacity:1;stroke:#050505;stroke-width:1.22260702;stroke-opacity:1"
           id="path4578"
           inkscape:connector-curvature="0" />
        <path
           d="m 769.54773,448.01484 q 2.40701,0 4.43195,-0.76413 2.02495,-0.76413 3.47679,-1.98674 1.45185,-1.2226 2.59804,-3.01831 1.1844,-1.7575 1.91033,-3.5532 0.72592,-1.7575 1.26081,-3.89706 0.5731,-2.10136 0.84054,-3.78244 0.26745,-1.64288 0.42027,-3.43858 0.0764,-0.76413 0.22924,-2.17777 0.45848,-4.92864 0.84054,-6.72434 0.38207,-1.7957 1.41364,-2.48342 1.64288,-1.10799 5.3107,-3.47679 0.19103,-0.11462 0.53489,-0.34386 1.91033,-1.49005 4.66119,-4.24092 2.71266,-2.78907 3.78244,-4.92863 l -2.48342,-8.48184 q -5.69276,9.24597 -10.20113,12.64634 -1.26081,0.95517 -2.3688,1.60468 0.5731,-5.99842 0.84055,-9.74265 0.26744,-3.74424 1.10798,-6.80075 0.87875,-3.05652 0.99337,-5.11967 0.34386,-6.64793 -0.11462,-7.83233 -0.26744,-0.68771 -0.49668,-1.10799 -0.64951,-1.03157 -2.3688,-1.03157 l -1.68109,0.0382 q -0.49668,0 -0.87875,-0.0382 -0.38206,-0.0382 -0.68771,-0.15283 -0.30565,-0.11462 -0.49669,-0.15282 -0.19103,-0.0764 -0.42027,-0.30565 -0.22924,-0.22924 -0.34386,-0.30566 -0.0764,-0.0764 -0.30565,-0.38206 -0.22924,-0.34386 -0.34386,-0.45848 -0.91695,-1.10799 -2.90369,-1.10799 -4.39374,0 -9.05493,4.16451 -3.20934,2.86549 -5.23429,6.76254 -2.02494,3.85886 -4.01168,9.81907 -2.17777,6.38048 0.11462,11.15629 1.26082,2.67445 3.74424,4.47015 2.52162,1.79571 5.50173,1.79571 4.04988,0 8.32901,-4.08809 l -0.76413,4.58477 q -2.40701,2.10136 -4.16451,3.89706 -1.71929,1.83391 -4.39374,4.85222 -1.29902,1.45185 -2.55983,3.24755 -1.22261,1.83391 -1.79571,2.82728 -0.53489,0.99337 -1.98673,3.515 -2.52163,4.50836 -2.21598,8.52004 0.19103,2.13956 1.03158,3.74423 0.87874,1.60468 2.25418,2.48342 1.41364,0.91696 3.05651,1.33723 1.64288,0.45848 3.59141,0.45848 z m -0.95516,-51.73156 q 0.34386,-2.25418 3.97347,-8.59646 3.36217,-5.96021 7.79412,-5.96021 l -2.86548,12.72276 q -0.15283,3.32396 -1.49005,6.60972 -1.71929,4.1645 -4.31733,4.1645 -1.49006,0 -2.40701,-1.60467 -1.41364,-2.48342 -0.68772,-7.33564 z m 8.2526,26.05681 q -0.0382,0.53489 -0.22924,2.44521 -0.19103,1.94853 -0.42027,3.28576 -0.19103,1.33723 -0.53489,2.44522 -0.5731,2.06314 -0.99337,3.28575 -0.42027,1.26082 -0.95516,2.55983 -0.49669,1.29902 -0.95516,1.98674 -0.45848,0.68772 -1.06978,1.26081 -0.61131,0.61131 -1.33723,0.84055 -0.68772,0.22924 -1.60467,0.22924 -2.55984,0 -1.29902,-3.62962 1.52826,-4.35554 4.1263,-8.59645 2.59804,-4.20272 5.27249,-6.11304 z"
           style="font-style:normal;font-variant:normal;font-weight:normal;font-stretch:normal;font-size:78.24684906px;font-family:Pacifico;-inkscape-font-specification:Pacifico;fill:#050505;fill-opacity:1;stroke:#050505;stroke-width:1.22260702;stroke-opacity:1"
           id="path4580"
           inkscape:connector-curvature="0" />
        <path
           d="m 811.53667,412.55923 q -3.59141,0 -6.30407,-1.29902 -2.67445,-1.29902 -4.47016,-3.47678 -1.7957,-2.21598 -2.71266,-5.08146 -0.87875,-2.9037 -0.87875,-6.07483 0,-2.13957 0.80234,-5.08146 0.80234,-2.98011 1.64288,-5.2725 0.87875,-2.29238 2.17777,-4.35553 1.29902,-2.10136 3.01831,-3.66782 1.7575,-1.60468 3.89706,-2.52163 2.17777,-0.95516 4.81401,-0.95516 2.13957,0 3.97348,0.68771 1.83391,0.68772 3.17113,1.94853 1.37544,1.22261 2.13957,2.98011 0.76412,1.7575 0.76412,3.93526 0,2.3688 -1.56646,5.3107 -1.52826,2.9419 -3.59141,5.04326 -2.06315,2.10135 -4.92863,3.74423 -2.82728,1.64288 -6.15124,2.55983 0.57309,1.03158 1.10798,1.7193 0.5731,0.68771 1.1462,1.06978 0.57309,0.38206 1.1844,0.53489 0.64951,0.15282 1.37543,0.15282 2.29239,0 4.81402,-0.91695 2.55983,-0.91696 4.96684,-2.29239 2.407,-1.37543 4.54657,-2.9801 2.13956,-1.64288 3.62961,-3.09473 l 4.92864,5.11967 q -3.36217,3.47679 -7.14461,6.15124 -1.64288,1.14619 -3.55321,2.25418 -1.87211,1.10799 -3.97347,1.98674 -2.06315,0.84054 -4.31733,1.37543 -2.21597,0.49668 -4.50836,0.49668 z m -5.08146,-17.95704 q 1.37543,0 2.9801,-0.68771 1.64288,-0.72593 3.01831,-1.83391 1.41364,-1.10799 2.75087,-2.98011 1.33722,-1.87211 1.33722,-3.09472 0,-1.71929 -0.64951,-2.82728 -0.6113,-1.10799 -1.52825,-1.10799 -1.64288,0 -2.82728,0.61131 -1.1462,0.6113 -1.94853,1.60467 -0.76413,0.95516 -1.26082,2.21597 -0.45847,1.22261 -1.10798,3.05652 -0.61131,1.83391 -0.68772,3.01831 -0.0764,1.1844 -0.0764,2.02494 z"
           style="font-style:normal;font-variant:normal;font-weight:normal;font-stretch:normal;font-size:78.24684906px;font-family:Pacifico;-inkscape-font-specification:Pacifico;fill:#050505;fill-opacity:1;stroke:#050505;stroke-width:1.22260702;stroke-opacity:1"
           id="path4582"
           inkscape:connector-curvature="0" />
        <path
           d="m 827.50697,404.57408 q 0,-2.52162 0.30566,-5.80738 0.30565,-3.32396 0.76413,-7.25923 0.45847,-3.97347 1.03157,-7.14461 0.5731,-3.17114 1.10799,-5.42532 0.42027,-1.7575 1.60467,-2.9419 1.22261,-1.1844 3.28576,-1.1844 2.06315,0 2.86548,1.26082 0.80234,1.26081 0.80234,3.36217 0,0.57309 -0.11462,1.56646 -0.11462,0.95516 -0.30565,2.13956 -0.15283,1.1462 -0.34386,2.40701 -0.19103,1.22261 -0.38207,2.82728 -0.15282,1.56646 -0.26744,2.3688 -0.11462,0.76413 -0.11462,1.03158 h 0.76413 q 0.22924,-0.42028 0.72592,-1.33723 0.49668,-0.95516 1.14619,-2.71266 0.64951,-1.7575 1.37544,-3.09472 0.76413,-1.37544 1.41364,-2.59804 0.64951,-1.26082 1.1844,-2.21598 0.53489,-0.95516 0.80233,-1.41364 1.22261,-2.06315 2.78908,-2.82728 1.56646,-0.76413 3.47678,-0.76413 1.91033,0 3.01832,1.60467 1.14619,1.60468 1.14619,4.43196 0,0.42027 -0.19103,1.41363 -0.15283,0.99337 -0.42027,2.36881 -0.26745,1.37543 -0.61131,3.5532 -0.30565,2.17777 -0.57309,3.89706 -0.26745,1.71929 -0.45848,3.40037 -0.15283,1.68109 -0.15283,3.09473 0,2.3688 0.5731,3.89706 0.6113,1.52826 1.87212,1.52826 0.45847,0 1.29902,-0.34386 1.26081,-0.45848 1.60467,-0.80234 1.68108,-1.29902 1.7575,-1.26081 0.11461,0.0382 2.55983,-1.52826 3.05652,-1.94853 7.29743,-4.77581 l -0.0382,8.55825 -1.91033,1.45185 q -0.22923,0.19103 -3.5914,1.98673 -4.85223,2.59804 -6.07483,3.13293 -2.98011,1.33723 -3.70603,1.52826 -1.91032,0.6113 -4.01168,0.6113 -2.10135,0 -3.5532,-3.01831 -1.41364,-3.05651 -1.41364,-8.9021 0,-2.29239 0.30565,-4.92864 0.30565,-2.67445 0.76413,-5.73097 h -0.6113 l -10.0101,19.86737 q -0.80233,1.60467 -1.71929,2.13956 -0.95516,0.57309 -2.21597,0.57309 -1.56647,0 -2.52163,-0.64951 -0.95516,-0.68771 -1.49005,-1.7957 -0.49669,-1.14619 -0.68772,-2.55983 -0.15283,-1.45185 -0.15283,-2.98011 z"
           style="font-style:normal;font-variant:normal;font-weight:normal;font-stretch:normal;font-size:78.24684906px;font-family:Pacifico;-inkscape-font-specification:Pacifico;fill:#050505;fill-opacity:1;stroke:#050505;stroke-width:1.22260702;stroke-opacity:1"
           id="path4584"
           inkscape:connector-curvature="0" />
      </g>
    </g>
  </g>
</svg>
