<?xml version="1.0" encoding="UTF-8" standalone="no"?>
<!-- Created with Inkscape (http://www.inkscape.org/) -->

<svg
   xmlns:dc="http://purl.org/dc/elements/1.1/"
   xmlns:cc="http://creativecommons.org/ns#"
   xmlns:rdf="http://www.w3.org/1999/02/22-rdf-syntax-ns#"
   xmlns:svg="http://www.w3.org/2000/svg"
   xmlns="http://www.w3.org/2000/svg"
   xmlns:sodipodi="http://sodipodi.sourceforge.net/DTD/sodipodi-0.dtd"
   xmlns:inkscape="http://www.inkscape.org/namespaces/inkscape"
   width="1000"
   height="1000"
   viewBox="0 0 264.58333 264.58334"
   version="1.1"
   id="svg8"
   inkscape:version="0.92.1 r15371"
   sodipodi:docname="calmAmbience.svg">
  <defs
     id="defs2" />
  <sodipodi:namedview
     id="base"
     pagecolor="#ffffff"
     bordercolor="#666666"
     borderopacity="1.0"
     inkscape:pageopacity="0.0"
     inkscape:pageshadow="2"
     inkscape:zoom="0.175"
     inkscape:cx="-3279.05"
     inkscape:cy="-1259.6239"
     inkscape:document-units="mm"
     inkscape:current-layer="layer1"
     showgrid="false"
     units="px"
     inkscape:window-width="3840"
     inkscape:window-height="2071"
     inkscape:window-x="-10"
     inkscape:window-y="-10"
     inkscape:window-maximized="1"
     showguides="true"
     inkscape:guide-bbox="true"
     inkscape:measure-start="557.857,431.421"
     inkscape:measure-end="557.857,140.714" />
  <metadata
     id="metadata5">
    <rdf:RDF>
      <cc:Work
         rdf:about="">
        <dc:format>image/svg+xml</dc:format>
        <dc:type
           rdf:resource="http://purl.org/dc/dcmitype/StillImage" />
        <dc:title></dc:title>
      </cc:Work>
    </rdf:RDF>
  </metadata>
  <g
     inkscape:label="Layer 1"
     inkscape:groupmode="layer"
     id="layer1"
     transform="translate(0,-32.41665)"
     style="display:inline">
    <g
       id="g6126"
       transform="translate(0.01786363)"
       style="stroke-width:7.9375;stroke-miterlimit:4;stroke-dasharray:none">
      <path
         style="opacity:1;fill:none;fill-opacity:1;stroke:#f06543;stroke-width:7.9375;stroke-linecap:round;stroke-linejoin:round;stroke-miterlimit:4;stroke-dasharray:none;stroke-dashoffset:0;stroke-opacity:1;paint-order:normal"
         d="m 30.480899,137.49309 h 33.639879 v 54.43046 H 30.480899 v -54.43046 0"
         id="path6092"
         inkscape:connector-curvature="0" />
      <path
         style="opacity:1;fill:none;fill-opacity:1;stroke:#f06543;stroke-width:7.9375;stroke-linecap:round;stroke-linejoin:round;stroke-miterlimit:4;stroke-dasharray:none;stroke-dashoffset:0;stroke-opacity:1;paint-order:normal"
         d="m 73.874693,200.07041 -9.753915,-8.14686 V 137.49309 L 146.70857,68.512431 v 58.563989"
         id="path6090"
         inkscape:connector-curvature="0" />
      <path
         style="opacity:1;fill:none;fill-opacity:1;stroke:#f06543;stroke-width:7.9375;stroke-linecap:round;stroke-linejoin:round;stroke-miterlimit:4;stroke-dasharray:none;stroke-dashoffset:0;stroke-opacity:1;paint-order:normal"
         d="m 146.70857,174.58784 v 86.31635 L 99.70368,221.64382"
         id="path6086"
         inkscape:connector-curvature="0" />
      <path
         transform="matrix(0.26458333,0,0,0.26458333,0,32.41665)"
         id="path6105"
         d="M 673.41728,417.95164 A 292.85716,292.85716 0 0 1 603.38596,703.24341"
         style="opacity:1;fill:none;fill-opacity:1;stroke:#f06543;stroke-width:30.00000038;stroke-linecap:round;stroke-linejoin:round;stroke-miterlimit:4;stroke-dasharray:none;stroke-dashoffset:0;stroke-opacity:1;paint-order:normal"
         inkscape:connector-curvature="0" />
      <path
         transform="matrix(0.26458333,0,0,0.26458333,0,32.41665)"
         id="path5755"
         d="m 603.00456,296.75627 a 292.85716,292.85716 0 0 1 5.94096,6.33716"
         style="opacity:1;fill:none;fill-opacity:1;stroke:#f06543;stroke-width:30.00000038;stroke-linecap:round;stroke-linejoin:round;stroke-miterlimit:4;stroke-dasharray:none;stroke-dashoffset:0;stroke-opacity:1;paint-order:normal"
         inkscape:connector-curvature="0" />
      <path
         transform="matrix(0.26458333,0,0,0.26458333,0,32.41665)"
         id="path6110"
         d="m 751.20694,339.86026 a 415.90847,415.90847 0 0 1 -84.01196,448.7811"
         style="opacity:1;fill:none;fill-opacity:1;stroke:#f06543;stroke-width:30.00000038;stroke-linecap:round;stroke-linejoin:round;stroke-miterlimit:4;stroke-dasharray:none;stroke-dashoffset:0;stroke-opacity:1;paint-order:normal"
         inkscape:connector-curvature="0" />
      <path
         transform="matrix(0.26458333,0,0,0.26458333,0,32.41665)"
         id="path5755-5"
         d="m 666.65331,211.35839 a 415.90847,415.90847 0 0 1 16.08041,17.63663"
         style="opacity:1;fill:none;fill-opacity:1;stroke:#f06543;stroke-width:30.00000038;stroke-linecap:round;stroke-linejoin:round;stroke-miterlimit:4;stroke-dasharray:none;stroke-dashoffset:0;stroke-opacity:1;paint-order:normal"
         inkscape:connector-curvature="0" />
      <path
         transform="matrix(0.26458333,0,0,0.26458333,0,32.41665)"
         id="path6115"
         d="M 830.86355,259.86184 A 562.49152,562.49152 0 0 1 727.73207,890.37034"
         style="opacity:1;fill:none;fill-opacity:1;stroke:#f06543;stroke-width:30.00000038;stroke-linecap:round;stroke-linejoin:round;stroke-miterlimit:4;stroke-dasharray:none;stroke-dashoffset:0;stroke-opacity:1;paint-order:normal"
         inkscape:connector-curvature="0" />
      <path
         transform="matrix(0.26458333,0,0,0.26458333,0,32.41665)"
         id="path5755-5-6"
         d="m 726.9995,109.6294 a 562.49152,562.49152 0 0 1 34.93436,39.75787"
         style="opacity:1;fill:none;fill-opacity:1;stroke:#f06543;stroke-width:30.00000038;stroke-linecap:round;stroke-linejoin:round;stroke-miterlimit:4;stroke-dasharray:none;stroke-dashoffset:0;stroke-opacity:1;paint-order:normal"
         inkscape:connector-curvature="0" />
    </g>
  </g>
  <g
     inkscape:groupmode="layer"
     id="layer2"
     inkscape:label="Layer 2"
     style="display:inline">
    <path
       style="color:#000000;font-style:normal;font-variant:normal;font-weight:normal;font-stretch:normal;font-size:medium;line-height:normal;font-family:sans-serif;font-variant-ligatures:normal;font-variant-position:normal;font-variant-caps:normal;font-variant-numeric:normal;font-variant-alternates:normal;font-feature-settings:normal;text-indent:0;text-align:start;text-decoration:none;text-decoration-line:none;text-decoration-style:solid;text-decoration-color:#000000;letter-spacing:normal;word-spacing:normal;text-transform:none;writing-mode:lr-tb;direction:ltr;text-orientation:mixed;dominant-baseline:auto;baseline-shift:baseline;text-anchor:start;white-space:normal;shape-padding:0;clip-rule:nonzero;display:inline;overflow:visible;visibility:visible;opacity:1;isolation:auto;mix-blend-mode:normal;color-interpolation:sRGB;color-interpolation-filters:linearRGB;solid-color:#000000;solid-opacity:1;vector-effect:none;fill:#f06543;fill-opacity:1;fill-rule:nonzero;stroke:#ffffff;stroke-width:7.9375;stroke-linecap:round;stroke-linejoin:round;stroke-miterlimit:4;stroke-dasharray:none;stroke-dashoffset:0;stroke-opacity:1;paint-order:stroke fill markers;color-rendering:auto;image-rendering:auto;shape-rendering:auto;text-rendering:auto;enable-background:accumulate"
       d="m 245.97733,14.533716 a 3.9691469,3.9691469 0 0 0 -2.72266,1.208984 c 0,0 -56.50591,56.883342 -113.19922,113.76563 -28.34666,28.44115 -56.741987,56.88314 -78.138677,78.20899 -10.69835,10.66292 -19.64807,19.54809 -25.96094,25.75781 -3.15643,3.10486 -5.6549,5.54228 -7.36914,7.18554 -0.85711,0.82164 -1.52244,1.44846 -1.94726,1.83594 -0.10835,0.0988 -0.1405,0.12364 -0.2129,0.1875 a 3.9691469,3.9691469 0 0 0 2.10157,7.36719 c 1.56136,0 1.68381,-0.36285 1.92187,-0.49219 0.23806,-0.12934 0.34932,-0.20951 0.44532,-0.27734 0.192,-0.13566 0.29432,-0.22106 0.40429,-0.3125 0.21995,-0.18288 0.42986,-0.37064 0.68946,-0.60742 0.51919,-0.47357 1.20841,-1.12577 2.08984,-1.97071 1.76285,-1.68986 4.2746,-4.14083 7.44336,-7.25781 6.33752,-6.23397 15.29349,-15.12581 25.99804,-25.79492 21.40911,-21.33821 49.806487,-49.7823 78.156257,-78.22656 56.69954,-56.888538 113.20899,-113.7754 113.20899,-113.7754 a 3.9691469,3.9691469 0 0 0 -2.9082,-6.802734 z M 17.383573,242.26614 a 3.9691469,3.9691469 0 0 0 -0.54102,0.20118 c 0.0922,-0.0744 0.28899,-0.12731 0.54102,-0.20118 z"
       id="path5738-6"
       inkscape:connector-curvature="0" />
  </g>
</svg>
