<?xml version="1.0" encoding="UTF-8"?>
<svg
   xmlns="http://www.w3.org/2000/svg"
   id="svg1"
   version="1.1"
   viewBox="0 0 571.88 242.02">


    <defs>
        <style>
            .pen{
              fill: none;
              stroke: #fdfffc;
              stroke-width: 7;
              stroke-linecap: round;

              stroke-dasharray: 4000 4000;
              stroke-dashoffset: 4000;
              animation: draw 2s linear forwards;
            }

            @keyframes draw {
              from {
                stroke-dashoffset: 4000;
              }

              to {
                stroke-dashoffset: 0;
              }
            }
        </style>
    </defs>
    <clipPath id="logo">
      <path
         d="m250.11 1.006c3.413-0.029 6.674 0.084 9.762 0.342 8.298 0.693 10.246 1.225 16.8 4.586 5.494 2.816 8.044 4.646 9.68 6.793 1.249 1.637 1.71 3.208 1.563 4.533-0.147 1.324-0.87 2.478-2.338 3.39-1.076 0.669-2.051 0.506-2.69 0.016-0.638-0.49-0.978-1.27-0.53-2.383 0.614-1.526 0.327-3.185-0.585-4.595-0.911-1.411-2.397-2.662-4.324-3.793-3.853-2.264-9.519-4.042-16.195-4.905-22.586-2.918-57.75 3.904-94.236 18.112-18.655 7.263-33.198 14.053-43.313 20.189-5.057 3.068-9.009 5.97-11.826 8.72-2.817 2.752-4.539 5.36-4.955 7.938-0.367 2.266 0.555 4.605 2.427 6.856 1.873 2.25 4.721 4.487 8.49 6.71 12.544 7.4 29.954 11.863 65.829 17.018 13.83 1.988 21.62 3.188 26.174 4.238 2.277 0.526 3.734 1.014 4.718 1.51 0.985 0.497 1.507 0.976 2.051 1.643 0.53 0.65 0.8 1.206 0.865 1.68 0.065 0.473-0.024 0.922-0.449 1.55-0.849 1.256-3.17 2.994-7.441 5.13-8.542 4.27-24.763 10.32-52.602 20.1-54.446 19.131-73.677 26.348-100.05 37.546-28.876 12.262-43.962 20.572-49.802 27.94-1.281 1.615-2.074 2.74-2.457 3.991-0.384 1.251-0.281 2.49 0.023 4.1 0.698 3.693 3.845 6.78 8.775 9.361 4.93 2.582 11.743 4.708 20.194 6.38 16.902 3.342 40.358 4.844 68.107 4.073 21.273-0.59 43.906-1.693 61.705-2.89 8.9-0.599 16.59-1.22 22.305-1.815 2.858-0.297 5.22-0.589 7.006-0.869s2.89-0.464 3.693-0.875c9.023-4.611 27.58-10.176 90.586-27.021 38.478-10.288 59.999-16.209 72.676-20.534 6.338-2.162 10.474-3.925 13.43-5.667 2.955-1.743 4.73-3.496 6.207-5.477 0.976-1.31 1.834-2.593 2.449-3.633 0.307-0.52 0.553-0.975 0.728-1.371 0.088-0.198 0.16-0.378 0.213-0.572s0.135-0.385 0.024-0.791c-0.186-0.676-0.608-1.043-1.133-1.469s-1.204-0.864-2.047-1.344c-1.686-0.96-4.027-2.07-6.957-3.314-5.86-2.489-14.064-5.5-23.84-8.71-16.443-5.396-27.974-10.004-35.053-14.062-3.539-2.029-5.956-3.926-7.31-5.623-1.355-1.696-1.674-3.073-1.274-4.476 0.3-1.052 0.79-1.858 1.965-2.742 1.176-0.885 3.065-1.795 6.01-2.774 5.89-1.958 15.948-4.203 32.908-7.627 4.2414-0.85731 8.4637-1.8062 12.664-2.846 3.79-0.943 5.628-1.3059 8.3707-2.2014 2.2965-0.74984 5.6399-1.7005 6.3862-3.0763 0.46414-0.85568-3.684-2.3478-5.7638-2.8893-14.403-3.7501-25.391-3.2141-44.606-1.9971-19.215 1.218-40.455 4.344-57.225 8.987-4.484 1.241-6.769 1.856-8.02 2.545-0.312 0.172-0.592 0.345-0.827 0.703-0.236 0.358-0.265 0.992-0.078 1.36 0.372 0.733 0.865 0.889 1.435 1.218 1.505 0.868 4.03 3.41 5.918 5.84 0.944 1.215 1.75 2.415 2.244 3.342 0.247 0.463 0.415 0.862 0.485 1.115 0.07 0.252-0.032 0.305 0.103 0.07-0.204 0.353-0.36 0.457-0.484 0.5s-0.318 0.062-0.717-0.098c-0.799-0.319-2.18-1.397-3.953-3.283-0.98744-1.0391-2.058-1.996-3.201-2.861-1.099-0.831-2.106-1.48-3.01-1.795-0.59437-0.21963-1.1477-0.53737-1.637-0.94-0.477-0.393-0.807-0.852-0.875-1.035-0.172-0.464-0.461-0.971-1.01-1.252-0.548-0.28-1.16-0.23-1.718-0.062-1.117 0.337-2.41 1.153-4.508 2.564-2.98 2.005-4.94 3.815-5.904 5.842s-0.758 4.218 0.35 6.412c1.65 3.272 6.25 6.198 20.222 13.809l9.629 5.246 1.687-4.68c0.383-1.06 0.67-2.242 0.84-3.338 0.17-1.095 0.243-2.064 0.082-2.888-0.088-0.452 0.027-1.304 0.701-2.807 0.675-1.503 1.867-3.61 3.696-6.563 2.437-3.937 3.748-5.947 4.416-6.58 0.334-0.316 0.325-0.266 0.402-0.257s0.408 0.144 0.935 0.449c0.746 0.43 0.981 0.725 1.045 0.92s0.049 0.581-0.296 1.379c-1.54 3.559-3.923 10.422-6.053 17.09-2.13 6.667-3.982 13.023-4.446 15.794-0.787 4.713-0.514 9.472 0.594 13.47 1.108 3.996 3.033 7.28 5.803 8.878 0.777 0.448 1.65 0.482 2.629 0.416 0.978-0.066 2.063-0.28 3.17-0.601 2.212-0.643 4.483-1.674 5.951-3.014 1.273-1.162 1.788-3.165 1.68-5.074-0.271-4.8 2.259-9.54 5.086-12.436 1.413-1.448 2.908-2.415 3.974-2.725 0.533-0.154 0.932-0.143 1.176-0.06 0.244 0.082 0.398 0.198 0.562 0.574 0.283 0.646 0.388 0.968 0.233 2.024-0.155 1.055-0.646 2.771-1.65 5.681-0.32 0.926-1.73 3.993-2.686 5.992-0.691 1.445-2.234 4.381-2.234 4.381l-0.325 0.617 0.47 0.52s0.662 0.732 1.534 1.588c0.872 0.855 1.922 1.83 2.91 2.414 0.777 0.458 1.774 0.929 2.727 1.275 0.476 0.174 0.94 0.315 1.375 0.405 0.436 0.089 0.822 0.163 1.328 0.027 0.561-0.15 1.48 0.01 2.186 0.4 0.706 0.391 1.066 0.961 1.072 1.162 0.019 0.625-0.206 0.938-0.885 1.291-0.679 0.354-1.813 0.572-3.138 0.534-2.652-0.077-6.033-1.138-8.37-3.036-1.256-1.02-1.98-1.792-3.168-2.502l-0.634-0.376-0.55 0.494c-0.692 0.625-1.501 1.088-3.216 2.13-4.953 3.013-8.73 3.17-12.969 0.637-7.211-4.31-10.767-14.334-8.765-25.7l1.01-5.733-14.003-7.293c-7.641-3.98-12.289-6.688-15.128-9.078-2.84-2.39-3.909-4.375-4.635-7.338-0.598-2.44-0.315-4.66 0.885-6.868 1.199-2.207 3.36-4.396 6.55-6.519 4.363-2.904 15.19-6.43 28.326-9.377 13.137-2.947 28.668-5.403 42.797-6.52 19.07-1.507 35.793-1.047 47.028 0.838 5.617 0.943 9.869 2.27 12.252 3.752 1.191 0.742 1.882 1.502 2.152 2.168 0.27 0.667 0.237 1.289-0.271 2.166-0.9 1.55-3.573 3.295-9.172 5.131-5.6 1.837-14.032 3.81-26.248 6.227-11.546 2.283-18.979 3.87-23.723 5.142-2.372 0.637-4.07 1.192-5.307 1.742-1.236 0.55-2.056 1.09-2.537 1.868-0.273 0.442-0.31 0.993-0.201 1.441s0.326 0.837 0.607 1.225c0.563 0.775 1.408 1.559 2.512 2.408 2.208 1.698 5.457 3.616 9.38 5.486 3.955 1.887 15.714 6.206 26.407 9.735 12.411 4.094 22.734 8.132 28.676 11.197l9.955 5.135 6.078-4.194c2.286-1.576 3.757-2.446 4.756-2.785 1-0.34 1.484-0.27 2.395 0.125 1.229 0.533 1.648 1.168 1.709 2.178 0.06 1.01-0.415 2.494-1.536 4.236-2.24 3.485-6.932 7.925-13.498 12.313-3.26 2.18-5.146 3.503-6.337 4.707-1.192 1.203-1.63 2.43-1.733 3.754-0.088 1.141-0.025 2.13 0.309 2.996 0.33486 0.87091 1.0053 1.5709 1.861 1.943 1.717 0.739 3.954 0.428 7.148-0.428 3.853-1.032 7.311-2.644 9.934-4.53 2.623-1.888 4.478-4.04 4.861-6.395 0.81-4.984 2.876-9.243 6.362-13.1 1.347-1.491 2.345-2.394 3.158-2.867 0.812-0.473 1.42-0.58 2.33-0.492 1.152 0.11 1.566 0.268 1.744 0.45 0.179 0.184 0.4 0.742 0.606 2.038 0.189 1.194 0.162 1.942-0.354 3.264-0.516 1.321-1.578 3.173-3.45 6.144-1.315 2.09-2.337 3.888-2.976 5.225-0.32 0.668-0.544 1.21-0.67 1.691-0.062 0.24-0.115 0.458-0.082 0.78 0.0177 0.21015 0.0905 0.41193 0.211 0.585 0.153 0.22 0.447 0.41 0.707 0.463 1.748 0.353 3.637-0.53 5.809-2.062s4.62-3.823 7.191-6.752c2.819-3.21 4.755-4.953 5.836-5.407 0.54-0.226 0.761-0.2 1.053-0.054s0.703 0.546 1.158 1.28c0.701 1.128 1.982 1.446 3.518 1.696 1.536 0.251 3.415 0.307 5.43 0.202 4.028-0.21 8.552-1.049 11.68-2.534 5.037-2.392 11.13-8.406 16.898-16.408l4.734-6.568-7.965-0.54c-1.724-0.116-3.33-0.153-4.558-0.116-0.51941 9e-3 -1.0379 0.0477-1.553 0.115-0.211 0.03-0.397 0.065-0.592 0.129-0.195 0.063-0.462 0.061-0.754 0.566-0.229 0.396-0.165 0.685-0.125 0.887 0.04 0.201 0.103 0.359 0.176 0.523 0.147 0.329 0.348 0.671 0.603 1.059 0.512 0.775 1.238 1.708 2.082 2.66 1.41 1.589 2.075 3.174 2.114 3.992 0.019 0.41-0.073 0.544-0.135 0.6-0.062 0.055-0.242 0.16-0.777 0.076 0.09 0.014-0.3-0.124-0.746-0.443-0.57121-0.42219-1.1187-0.87554-1.64-1.358-1.251-1.138-2.748-2.674-4.179-4.263-1.43-1.59-2.797-3.24-3.793-4.6-0.498-0.68-0.904-1.29-1.172-1.764-0.267-0.473-0.357-0.875-0.353-0.767-0.02-0.524 0.056-0.717 0.293-0.944 0.237-0.226 0.79-0.504 1.812-0.687 2.045-0.366 5.787-0.348 11.752 2e-3l11.5 0.674 4.944-7.948c2.28-3.664 3.513-5.53 4.166-6.12 0.326-0.296 0.364-0.278 0.521-0.27s0.537 0.131 1.127 0.386c0.634 0.274 1.002 0.501 1.133 0.645 0.13 0.144 0.188 0.217 0.152 0.715-0.07 0.995-0.87 3.27-2.531 7.424l-2.314 5.789 20.142 0.879c20.159 0.878 48.91 1.186 60.387 0.638 3.835-0.183 6.279-0.076 7.295 0.227 0.508 0.151 0.516 0.265 0.498 0.213s0.021 0.124-0.244 0.58c0.09-0.155 0.06-0.055-0.153 0.045-0.212 0.1-0.57 0.224-1.04 0.343-0.941 0.24-2.334 0.471-4.104 0.674-3.541 0.407-8.613 0.71-14.953 0.9-12.68 0.38-30.444 0.304-51.407-0.286-4.774-0.135-9.152-0.19-12.37-0.172-1.61 9e-3 -2.927 0.035-3.874 0.082-0.473 0.023-0.852 0.05-1.152 0.088-0.15 0.018-0.277 0.038-0.42 0.074-0.0874 0.0207-0.17251 0.0502-0.254 0.088-0.109 0.05-0.292 0.094-0.49 0.437-0.154 0.267-0.14 0.317-0.197 0.492-0.0702 0.22026-0.13685 0.44162-0.2 0.664-0.153 0.536-0.348 1.258-0.576 2.124-0.455 1.73-1.034 4.029-1.629 6.486-1.162 4.802-2.14 7.713-2.933 8.902-0.397 0.595-0.624 0.682-0.782 0.695-0.157 0.014-0.527-0.087-1.105-0.544-0.443-0.351-0.644-0.688-0.732-1.512-0.089-0.825 0.032-2.105 0.406-3.932l1.035-5.062-1.762-0.824-5.308 6.636c-5.029 6.287-11.982 11.757-16.547 13.262-1.448 0.477-5.47 1.002-9.412 1.254-3.942 0.251-8.006 0.243-9.53-0.047-1.206-0.23-2.23-0.27-3.156 0.049-0.926 0.318-1.644 1.014-2.152 1.894-0.206 0.357-1.004 1.32-2.016 2.344-1.1074 1.1155-2.2688 2.1761-3.48 3.178-4.79 3.947-9.384 4.87-12.631 2.996-1.034-0.597-2.143-0.903-3.295-0.627s-2.261 0.984-3.809 2.127c-5.627 4.156-11.328 6.265-15.99 6.385-4.662 0.119-8.21-1.628-10.074-5.325-0.594-1.177-0.935-1.958-1.781-2.443-0.424-0.242-0.94-0.302-1.375-0.244s-0.83 0.196-1.288 0.365c-0.862 0.32-2.495 0.52-3.091 0.442-0.3-0.04-0.397-4e-3 -0.582 0.021-0.185 0.026-0.4 0.064-0.657 0.115-0.67646 0.139-1.3502 0.29069-2.021 0.455-1.665 0.4-3.947 0.988-6.693 1.723-5.494 1.47-12.837 3.526-20.71 5.813-15.708 4.563-46.924 12.963-69.324 18.656-19.936 5.067-35.178 9.136-44.888 11.96-4.856 1.413-8.316 2.51-10.342 3.288-1.013 0.39-1.584 0.57-2.125 1.064-0.136 0.124-0.334 0.286-0.404 0.71-0.07 0.422 0.25 0.942 0.494 1.1 0.486 0.318 0.72 0.25 1.066 0.26 0.419 0.014 1.288-0.01 2.68-0.056s3.252-0.118 5.451-0.209c5.4009-0.22587 10.801-0.47121 16.2-0.736 26.015-1.27 78.383-2.134 117.69-1.94l61.598 0.307c27.514 0.138 49.298-0.072 65.035-0.62 7.87-0.273 14.226-0.63 19.043-1.073 4.818-0.444 8.047-0.937 9.907-1.625 0.431-0.16 0.774-0.294 1.107-0.516 0.167-0.111 0.343-0.248 0.496-0.488s0.243-0.619 0.184-0.93c-0.118-0.623-0.473-0.857-0.797-1.106-0.325-0.248-0.717-0.485-1.219-0.775-0.608-0.351-0.931-0.714-1.057-0.947-0.125-0.233-0.088-0.284-0.07-0.32 0.018-0.037 0.094-0.149 0.408-0.223 0.315-0.075 0.84-0.078 1.532 0.119 2.086 0.595 3.463 1.403 4.119 2.182 0.655 0.778 0.76 1.444 0.31 2.484-0.34 0.786-0.699 1.209-1.652 1.69-0.953 0.48-2.518 0.928-4.96 1.425-13.38 2.725-32.633 3.194-118.98 2.801-85.91-0.391-135.18 0.558-178.48 3.437-11.323 0.753-15.526 1.556-20.033 3.895-3.522 1.828-8.812 5.06-13.23 7.955-2.21 1.447-4.195 2.807-5.633 3.87-0.72 0.53-1.3 0.985-1.725 1.36-0.212 0.188-0.382 0.35-0.535 0.534-0.0892 0.10224-0.16544 0.21509-0.227 0.336-0.075 0.15-0.207 0.393-0.095 0.81 0.095 0.355 0.398 0.61 0.6 0.701 0.2 0.092 0.338 0.104 0.456 0.112 0.238 0.016 0.416-0.01 0.621-0.043 0.412-0.068 0.9-0.196 1.489-0.371 1.179-0.35 2.735-0.896 4.418-1.537 3.364-1.283 7.194-2.925 9.39-4.165 1.22-0.688 2.44-0.843 3.223-0.662 0.687 0.16 0.963 0.454 1.045 0.979-0.021 0.036-0.012 0.047-0.059 0.092-0.22 0.207-0.613 0.51-1.129 0.853-1.031 0.687-2.556 1.554-4.373 2.487-3.632 1.865-8.443 4.005-13.021 5.699-3.061 1.132-5.49 1.56-7.131 1.392s-2.44-0.75-2.889-1.96c-0.18-0.488-0.18-1.016 0.114-1.764 0.293-0.748 0.901-1.68 1.87-2.748 1.94-2.138 5.29-4.818 10.128-8.082 2.0178-1.3586 4.0222-2.737 6.013-4.135 0.771-0.544 1.397-0.992 1.836-1.32 0.22-0.165 0.39-0.297 0.526-0.409 0.067-0.055 0.123-0.102 0.191-0.17 0.034-0.033 0.07-0.067 0.13-0.15 0.031-0.041 0.07-0.092 0.118-0.201 0.0587-0.13001 0.0881-0.27136 0.086-0.414l-0.031-0.242-0.324-0.518c-1e-3 0-0.18-0.124-0.237-0.15-0.114-0.052-0.168-0.06-0.21-0.069-0.087-0.018-0.123-0.02-0.159-0.023-0.0622-5e-3 -0.12459-8e-3 -0.187-8e-3 -0.16569-1e-3 -0.33138 9.3e-4 -0.497 6e-3 -0.415 0.01-1.012 0.03-1.777 0.062-1.53 0.064-3.732 0.17-6.447 0.309-5.43 0.28-12.91 0.695-21.131 1.18-70.824 4.176-100.96 3.243-125.91-3.805-11.167-3.155-16.595-6.046-20.72-10.877-2.029-2.374-2.948-4.671-2.909-7.078s1.061-5.004 3.209-7.885c5.881-7.89 17.87-14.857 49.88-28.59 26.79-11.492 42.56-17.484 94.626-35.955 21.882-7.763 37.451-13.48 47.742-17.562 5.145-2.041 8.969-3.67 11.621-4.955 1.326-0.643 2.359-1.197 3.135-1.69 0.776-0.492 1.305-0.852 1.664-1.474 0.145-0.252 0.329-0.694 0.182-1.194-0.148-0.5-0.524-0.789-0.877-0.98-0.707-0.383-1.67-0.62-3.416-0.963-3.493-0.687-10.005-1.64-22.02-3.352-38.267-5.449-52.367-8.83-66.144-15.798-5.387-2.725-9.075-4.99-11.604-7.225-2.53-2.236-3.919-4.412-4.822-7.156-0.926-2.813-0.61-5.6 1.123-8.676 1.733-3.077 4.934-6.392 9.715-9.914 9.561-7.045 25.391-14.913 48.044-23.975 31.817-12.728 63.164-19.862 87.052-20.064z"
      />
      <path
        d="M246.014 134.21c1.185-.014 2.149.084 2.797.29 2.809.892 4.139 2.403 4.496 5.336.356 2.933-.508 7.334-2.703 13.326-.681 1.858-1.217 3.723-1.54 5.268a16.05 16.05 0 0 0-.314 2.056c-.043.593-.085 1.05.166 1.618.272.615.098 1.066-.453 1.523-.552.457-1.508.748-2.547.52-.698-.154-1.131-.418-1.45-.81-.317-.39-.543-.958-.614-1.806-.143-1.696.412-4.42 1.777-8.056 1.283-3.418 2.285-6.824 2.85-9.49.282-1.334.456-2.476.496-3.39.02-.456.01-.854-.067-1.236-.076-.381-.199-.85-.738-1.162-.69-.398-1.417-.417-2.305-.385-.888.033-1.931.177-3.105.407-2.349.458-5.213 1.263-8.16 2.256-5.895 1.985-12.039 4.64-15.014 7.058-1.684 1.369-2.648 2.133-3.205 3.143a3.313 3.313 0 0 0-.4 1.619c.003.545.107 1.07.24 1.69.324 1.507.055 2.437-1.043 3.572-1.412 1.457-2.127 3.603-2.104 5.923.016 1.628-.37 2.685-.822 3.26-.451.576-.92.733-1.451.666-1.064-.133-2.639-1.58-2.737-4.845-.176-5.902 2.549-13.082 6.247-16.698 2.926-2.861 10.154-6.342 17.335-8.69 3.591-1.173 7.186-2.085 10.247-2.575 1.53-.245 2.935-.373 4.12-.387z"
      />
    </clipPath>

    <path class="pen" d="M 286.38794,18.026393 C 277.87776,-3.2213487 239.15007,2.6535208 220.41461,5.4787855 192.3294,9.7139715 164.87988,21.349778 138.94973,32.897045 c -21.81991,9.716882 -49.900036,27.122849 -18.52812,43.434436 17.85086,9.281421 58.12554,15.620846 82.98034,18.533302 18.90163,2.214871 11.46324,8.296587 -4.35269,14.206867 -26.56248,9.92618 -47.32715,16.83759 -75.71735,27.20673 -26.883768,9.81893 -57.812524,23.08823 -83.889363,33.78686 -15.569644,6.3878 -51.079583,24.05402 -30.2759777,37.96466 20.7423487,13.86968 66.5643167,13.78506 97.8603107,12.82587 49.70673,-1.52346 99.25964,-6.36197 149.66737,-7.61117 29.9374,-0.7419 118.26441,-1.80393 177.35704,-1.01488 25.10359,0.3352 78.24543,0.90233 77.83612,-5.90762 -0.48984,-8.14966 -49.05107,4.76258 -71.05588,8.47135 -48.86149,8.23529 -90.68951,36.80931 -133.73506,59.42602 -41.00996,21.54718 -88.57807,26.33871 -134.61817,25.74696 -25.67974,-0.33006 -62.15194,3.29659 -75.433954,-22.6426 -15.225909,-29.73553 14.601924,-63.0904 45.809414,-68.49595 24.40713,-4.22764 50.56721,-19.64047 66.93972,-38.77732 -1.99594,-21.07034 15.75982,-34.78925 39.11564,-33.75703 7.56456,0.33432 -9.18929,31.52692 0.55981,27.98309 9.74909,-3.54384 38.8367,-55.21229 33.08014,-57.38208 -12.98231,15.55686 -20.2613,67.07104 8.25236,55.59156 10.11039,-4.07041 14.25564,-33.64522 5.38602,-14.2202 -8.61157,18.8599 27.65427,25.00753 13.9201,6.98737 -15.04954,-19.74602 -53.00047,-22.37106 -70.20561,-42.18179 -6.36612,-7.33021 8.38992,-20.797545 14.72747,-16.02344 3.04682,2.295186 7.50452,1.413171 10.22321,10.14101 -13.66884,-9.564932 -11.63177,-14.740017 -1.55965,-16.823301 12.98543,-2.685863 34.90754,-6.323539 43.16282,-7.635855 20.6704,-3.285909 64.64128,-2.469301 67.96372,4.635072 5.49273,11.74511 -87.42408,14.686424 -63.68252,28.512214 34.55367,20.12217 8.03828,1.79342 59.01927,23.57294 39.56122,16.90089 -11.25441,27.73592 -25.68324,32.84736 -25.10176,8.89235 -49.43625,14.19447 -76.43801,21.19349 -27.24012,7.0608 -49.37467,13.29508 -77.84654,23.96348 -12.12277,4.54239 -38.24182,27.91083 -20.98066,21.02038 25.21272,-10.0646 45.63319,-21.80579 72.19025,-31.80818 23.64716,-8.90641 74.2624,-13.94724 97.54868,-23.49212 23.12058,-9.47696 65.8417,-34.53269 60.0916,-42.28725 -3.197,-4.31147 -39.14744,35.07729 -12.61997,32.86048 14.23645,-1.1897 37.43383,-34.31127 24.7957,-24.68093 -5.9452,4.53029 -6.94488,16.7809 -0.54843,17.2317 4.85245,0.34197 16.58783,-9.85893 18.49922,-13.72943 25.32861,12.09318 45.17335,-19.23393 56.61389,-38.93342 -8.05538,-2.17109 -6.95278,34.69314 -15.44844,37.51831 -2.53784,0.84394 -0.54025,-8.38962 -6.24515,-13.39941 -7.44393,-6.53693 -11.66092,-12.81365 -9.10096,-12.84022 2.23873,-0.0232 6.79208,-0.35493 14.23914,0.0898 30.82315,1.84067 62.72215,3.10213 92.65211,1.92762 3.04309,-0.18098 6.10679,-0.98645 9.15765,-0.30286" clip-path="url(#logo)"/>
</svg>
