<?xml version="1.0" encoding="UTF-8" standalone="no"?>
<!-- Created with Inkscape (http://www.inkscape.org/) -->

<svg
   xmlns:dc="http://purl.org/dc/elements/1.1/"
   xmlns:cc="http://creativecommons.org/ns#"
   xmlns:rdf="http://www.w3.org/1999/02/22-rdf-syntax-ns#"
   xmlns:svg="http://www.w3.org/2000/svg"
   xmlns="http://www.w3.org/2000/svg"
   xmlns:sodipodi="http://sodipodi.sourceforge.net/DTD/sodipodi-0.dtd"
   xmlns:inkscape="http://www.inkscape.org/namespaces/inkscape"
   width="200"
   height="200"
   viewBox="0 0 52.916666 52.916666"
   version="1.1"
   id="svg8"
   inkscape:version="0.92.4 (5da689c313, 2019-01-14)"
   sodipodi:docname="findCustomers.svg">
  <defs
     id="defs2" />
  <sodipodi:namedview
     id="base"
     pagecolor="#ffffff"
     bordercolor="#666666"
     borderopacity="1.0"
     inkscape:pageopacity="0.0"
     inkscape:pageshadow="2"
     inkscape:zoom="2.8"
     inkscape:cx="36.584836"
     inkscape:cy="77.684077"
     inkscape:document-units="mm"
     inkscape:current-layer="layer1"
     showgrid="false"
     units="px"
     showguides="false"
     inkscape:window-width="1920"
     inkscape:window-height="1017"
     inkscape:window-x="-8"
     inkscape:window-y="-8"
     inkscape:window-maximized="1">
    <inkscape:grid
       type="xygrid"
       id="grid4537" />
  </sodipodi:namedview>
  <metadata
     id="metadata5">
    <rdf:RDF>
      <cc:Work
         rdf:about="">
        <dc:format>image/svg+xml</dc:format>
        <dc:type
           rdf:resource="http://purl.org/dc/dcmitype/StillImage" />
        <dc:title />
      </cc:Work>
    </rdf:RDF>
  </metadata>
  <g
     inkscape:label="Layer 1"
     inkscape:groupmode="layer"
     id="layer1"
     transform="translate(0,-244.08333)">
    <path
       style="fill:#ffffff;fill-opacity:0.98994978;stroke:#000000;stroke-width:0.26458332;stroke-opacity:1"
       d="m 25.088391,255.98958 a 8.3627231,8.3627231 0 0 0 -8.362797,8.3628 8.3627231,8.3627231 0 0 0 8.362797,8.36279 8.3627231,8.3627231 0 0 0 4.88859,-1.5875 l 9.310027,9.30951 1.870686,-1.8712 -9.308992,-9.30899 a 8.3627231,8.3627231 0 0 0 1.601968,-4.90461 8.3627231,8.3627231 0 0 0 -8.362279,-8.3628 z m 0,1.70067 a 6.6618304,6.6618304 0 0 1 6.661609,6.66213 6.6618304,6.6618304 0 0 1 -6.661609,6.66161 6.6618304,6.6618304 0 0 1 -6.662126,-6.66161 6.6618304,6.6618304 0 0 1 6.662126,-6.66213 z"
       id="path3713"
       inkscape:connector-curvature="0" />
    <path
       id="path876"
       style="fill:none;stroke:#000000;stroke-width:0.26458332px;stroke-linecap:butt;stroke-linejoin:miter;stroke-opacity:1"
       d="m 23.415624,267.10208 v 3.175 m 1.322917,-6.08542 v 6.08542 m -2.645833,-6.08542 v 6.08542 m -0.79375,-3.70417 v -2.64583 c 0,0 0,-1.32292 1.322916,-1.32292 1.322917,0 1.5875,0 1.5875,0 0,0 1.322917,0 1.322917,1.32292 0,1.32292 0,2.64583 0,2.64583 m -0.79375,-5.29166 a 1.3229166,1.3229166 0 0 1 -1.322917,1.32292 1.3229166,1.3229166 0 0 1 -1.322916,-1.32292 1.3229166,1.3229166 0 0 1 1.322916,-1.32292 1.3229166,1.3229166 0 0 1 1.322917,1.32292 z"
       inkscape:connector-curvature="0" />
    <path
       style="fill:#ffffff;fill-opacity:0.98994978;stroke:#000000;stroke-width:0.26458332;stroke-opacity:1"
       id="path884"
       sodipodi:type="arc"
       sodipodi:cx="26.127605"
       sodipodi:cy="263.9682"
       sodipodi:rx="4.6302085"
       sodipodi:ry="4.6302085"
       sodipodi:start="5.2359878"
       sodipodi:end="6.1086524"
       sodipodi:open="true"
       d="m 28.44271,259.95832 a 4.6302085,4.6302085 0 0 1 2.244761,3.20585" />
    <path
       id="path876-1"
       style="fill:none;stroke:#000000;stroke-width:0.14246798px;stroke-linecap:butt;stroke-linejoin:miter;stroke-opacity:1"
       d="m 14.501202,278.7234 v 1.70962 m 0.712339,-3.27677 v 3.27677 m -1.424679,-3.27677 v 3.27677 m -0.427404,-1.99455 v -1.42468 c 0,0 0,-0.71234 0.71234,-0.71234 0.712339,0 0.854807,0 0.854807,0 0,0 0.71234,0 0.71234,0.71234 0,0.71234 0,1.42468 0,1.42468 m -0.427404,-2.84936 a 0.71233987,0.71233987 0 0 1 -0.712339,0.71234 0.71233987,0.71233987 0 0 1 -0.71234,-0.71234 0.71233987,0.71233987 0 0 1 0.71234,-0.71234 0.71233987,0.71233987 0 0 1 0.712339,0.71234 z"
       inkscape:connector-curvature="0" />
    <path
       id="path876-1-0"
       style="fill:none;stroke:#000000;stroke-width:0.14246798px;stroke-linecap:butt;stroke-linejoin:miter;stroke-opacity:1"
       d="m 23.86338,281.36923 v 1.70962 m 0.71234,-3.27677 v 3.27677 m -1.424679,-3.27677 v 3.27677 m -0.427404,-1.99455 v -1.42468 c 0,0 0,-0.71234 0.712339,-0.71234 0.71234,0 0.854808,0 0.854808,0 0,0 0.71234,0 0.71234,0.71234 0,0.71234 0,1.42468 0,1.42468 m -0.427404,-2.84936 a 0.71233988,0.71233988 0 0 1 -0.71234,0.71234 0.71233988,0.71233988 0 0 1 -0.712339,-0.71234 0.71233988,0.71233988 0 0 1 0.712339,-0.71234 0.71233988,0.71233988 0 0 1 0.71234,0.71234 z"
       inkscape:connector-curvature="0" />
    <path
       id="path876-1-8"
       style="fill:none;stroke:#000000;stroke-width:0.14246798px;stroke-linecap:butt;stroke-linejoin:miter;stroke-opacity:1"
       d="m 13.280048,269.46298 v 1.70962 m 0.71234,-3.27677 v 3.27677 m -1.42468,-3.27677 v 3.27677 m -0.427404,-1.99455 v -1.42468 c 0,0 0,-0.71234 0.71234,-0.71234 0.71234,0 0.854808,0 0.854808,0 0,0 0.71234,0 0.71234,0.71234 0,0.71234 0,1.42468 0,1.42468 m -0.427404,-2.84936 a 0.71233988,0.71233988 0 0 1 -0.71234,0.71234 0.71233988,0.71233988 0 0 1 -0.71234,-0.71234 0.71233988,0.71233988 0 0 1 0.71234,-0.71234 0.71233988,0.71233988 0 0 1 0.71234,0.71234 z"
       inkscape:connector-curvature="0" />
    <path
       id="path876-1-3"
       style="fill:none;stroke:#000000;stroke-width:0.14246798px;stroke-linecap:butt;stroke-linejoin:miter;stroke-opacity:1"
       d="m 18.469951,276.50496 v 1.70962 m 0.71234,-3.27677 v 3.27677 m -1.424679,-3.27677 v 3.27677 m -0.427404,-1.99455 v -1.42468 c 0,0 0,-0.71234 0.712339,-0.71234 0.71234,0 0.854808,0 0.854808,0 0,0 0.71234,0 0.71234,0.71234 0,0.71234 0,1.42468 0,1.42468 m -0.427404,-2.84936 a 0.71233988,0.71233988 0 0 1 -0.71234,0.71234 0.71233988,0.71233988 0 0 1 -0.712339,-0.71234 0.71233988,0.71233988 0 0 1 0.712339,-0.71234 0.71233988,0.71233988 0 0 1 0.71234,0.71234 z"
       inkscape:connector-curvature="0" />
    <path
       id="path876-1-2"
       style="fill:none;stroke:#000000;stroke-width:0.14246798px;stroke-linecap:butt;stroke-linejoin:miter;stroke-opacity:1"
       d="m 36.990785,269.70721 v 1.70962 m 0.71234,-3.27677 v 3.27677 m -1.42468,-3.27677 v 3.27677 m -0.427404,-1.99455 v -1.42468 c 0,0 0,-0.71234 0.71234,-0.71234 0.71234,0 0.854808,0 0.854808,0 0,0 0.71234,0 0.71234,0.71234 0,0.71234 0,1.42468 0,1.42468 m -0.427404,-2.84936 a 0.71233988,0.71233988 0 0 1 -0.71234,0.71234 0.71233988,0.71233988 0 0 1 -0.71234,-0.71234 0.71233988,0.71233988 0 0 1 0.71234,-0.71234 0.71233988,0.71233988 0 0 1 0.71234,0.71234 z"
       inkscape:connector-curvature="0" />
    <path
       id="path876-1-01"
       style="fill:none;stroke:#000000;stroke-width:0.14246798px;stroke-linecap:butt;stroke-linejoin:miter;stroke-opacity:1"
       d="m 31.699118,279.15079 v 1.70962 m 0.71234,-3.27677 v 3.27677 m -1.42468,-3.27677 v 3.27677 m -0.427404,-1.99455 v -1.42468 c 0,0 0,-0.71234 0.71234,-0.71234 0.71234,0 0.854808,0 0.854808,0 0,0 0.71234,0 0.71234,0.71234 0,0.71234 0,1.42468 0,1.42468 m -0.427404,-2.84936 a 0.71233988,0.71233988 0 0 1 -0.71234,0.71234 0.71233988,0.71233988 0 0 1 -0.71234,-0.71234 0.71233988,0.71233988 0 0 1 0.71234,-0.71234 0.71233988,0.71233988 0 0 1 0.71234,0.71234 z"
       inkscape:connector-curvature="0" />
  </g>
</svg>
