<?xml version="1.0" encoding="UTF-8" standalone="no"?>
<!-- Created with Inkscape (http://www.inkscape.org/) -->

<svg
   xmlns:dc="http://purl.org/dc/elements/1.1/"
   xmlns:cc="http://creativecommons.org/ns#"
   xmlns:rdf="http://www.w3.org/1999/02/22-rdf-syntax-ns#"
   xmlns:svg="http://www.w3.org/2000/svg"
   xmlns="http://www.w3.org/2000/svg"
   xmlns:sodipodi="http://sodipodi.sourceforge.net/DTD/sodipodi-0.dtd"
   xmlns:inkscape="http://www.inkscape.org/namespaces/inkscape"
   version="1.1"
   id="svg2"
   width="1000"
   height="1000"
   viewBox="0 0 1000 1000"
   sodipodi:docname="locationSimple.svg"
   inkscape:version="0.92.1 r15371">
  <metadata
     id="metadata8">
    <rdf:RDF>
      <cc:Work
         rdf:about="">
        <dc:format>image/svg+xml</dc:format>
        <dc:type
           rdf:resource="http://purl.org/dc/dcmitype/StillImage" />
        <dc:title />
      </cc:Work>
    </rdf:RDF>
  </metadata>
  <defs
     id="defs6" />
  <sodipodi:namedview
     pagecolor="#ffffff"
     bordercolor="#666666"
     borderopacity="1"
     objecttolerance="10"
     gridtolerance="10"
     guidetolerance="10"
     inkscape:pageopacity="0"
     inkscape:pageshadow="2"
     inkscape:window-width="3840"
     inkscape:window-height="2071"
     id="namedview4"
     showgrid="false"
     inkscape:zoom="1.0429825"
     inkscape:cx="127.01405"
     inkscape:cy="525.91555"
     inkscape:window-x="-10"
     inkscape:window-y="-10"
     inkscape:window-maximized="1"
     inkscape:current-layer="layer2"
     showguides="true"
     inkscape:guide-bbox="true"
     inkscape:snap-others="false">
    <inkscape:grid
       type="xygrid"
       id="grid4501" />
  </sodipodi:namedview>
  <g
     inkscape:groupmode="layer"
     id="layer1"
     inkscape:label="Layer 1"
     style="display:inline">
    <path
       style="fill:#f6d8ae;fill-opacity:1;stroke:none;stroke-width:8;stroke-linecap:butt;stroke-linejoin:miter;stroke-miterlimit:4;stroke-dasharray:none;stroke-opacity:1"
       d="m 923.51565,755.15073 c 46.1426,-76.82489 70.5193,-164.75406 70.5195,-254.37107 0,-131.02626 -52.05,-256.68602 -144.6996,-349.33558 C 756.68605,58.794529 631.02625,6.744537 500.00005,6.744505 368.97375,6.744538 243.31405,58.79453 150.66445,151.44409 58.01485,244.09364 5.96485,369.7534 5.96485,500.77966 c 2e-4,89.59768 24.3664,177.50862 70.4902,254.32227"
       id="path4528"
       inkscape:connector-curvature="0" />
  </g>
  <g
     inkscape:groupmode="layer"
     id="layer2"
     inkscape:label="Layer 2">
    <path
       style="fill:#70a9a1;fill-opacity:1;stroke:none;stroke-width:8;stroke-linecap:butt;stroke-linejoin:round;stroke-miterlimit:4;stroke-dasharray:none;stroke-opacity:1"
       d="M 512.74023 693.13867 C 263.22985 693.60482 76.455078 755.10156 76.455078 755.10156 L 76.46875 755.10156 A 494.03528 494.03531 0 0 0 500.01562 994.81445 A 494.03528 494.03531 0 0 0 923.53125 755.15039 L 923.51562 755.15039 C 781.24086 708.28585 638.96314 692.90285 512.74023 693.13867 z "
       id="path4509" />
    <path
       style="fill:#f06543;fill-opacity:1;stroke:none;stroke-width:8;stroke-linecap:butt;stroke-linejoin:round;stroke-miterlimit:4;stroke-dasharray:none;stroke-dashoffset:0;stroke-opacity:1;paint-order:normal"
       d="M 500 119.08398 C 367.0772 119.08398 259.32227 226.8409 259.32227 359.76367 C 259.32227 492.68644 436.3672 850.7793 500 850.7793 C 563.6327 850.7793 740.67773 492.68644 740.67773 359.76367 C 740.67773 226.8409 632.9227 119.08398 500 119.08398 z M 500 231.9668 A 126.44068 126.44068 0 0 1 626.44141 358.40625 A 126.44068 126.44068 0 0 1 500 484.84766 A 126.44068 126.44068 0 0 1 373.55859 358.40625 A 126.44068 126.44068 0 0 1 500 231.9668 z "
       id="path4519" />
  </g>
</svg>
