<?xml version="1.0" encoding="UTF-8" standalone="no"?>
<!-- Created with Inkscape (http://www.inkscape.org/) -->

<svg
   xmlns:dc="http://purl.org/dc/elements/1.1/"
   xmlns:cc="http://creativecommons.org/ns#"
   xmlns:rdf="http://www.w3.org/1999/02/22-rdf-syntax-ns#"
   xmlns:svg="http://www.w3.org/2000/svg"
   xmlns="http://www.w3.org/2000/svg"
   xmlns:sodipodi="http://sodipodi.sourceforge.net/DTD/sodipodi-0.dtd"
   xmlns:inkscape="http://www.inkscape.org/namespaces/inkscape"
   width="1000"
   height="1000"
   viewBox="0 0 264.58333 264.58334"
   version="1.1"
   id="svg8"
   inkscape:version="0.92.1 r15371"
   sodipodi:docname="Logo.svg">
  <defs
     id="defs2">
    <inkscape:path-effect
       effect="sketch"
       id="path-effect4701"
       is_visible="true"
       nbiter_approxstrokes="5"
       strokelength="100"
       strokelength_rdm="0.3;1"
       strokeoverlap="0.3"
       strokeoverlap_rdm="0.3;1"
       ends_tolerance="0.1;1"
       parallel_offset="5;1"
       tremble_size="5;1"
       tremble_frequency="1"
       nbtangents="5"
       tgt_places_rdmness="1;1"
       tgtscale="10"
       tgtlength="100"
       tgtlength_rdm="0.3;1" />
  </defs>
  <sodipodi:namedview
     id="base"
     pagecolor="#ffffff"
     bordercolor="#666666"
     borderopacity="1.0"
     inkscape:pageopacity="0.0"
     inkscape:pageshadow="2"
     inkscape:zoom="1.3703468"
     inkscape:cx="250.84964"
     inkscape:cy="525.76975"
     inkscape:document-units="mm"
     inkscape:current-layer="g4718"
     showgrid="false"
     units="px"
     inkscape:window-width="3840"
     inkscape:window-height="2071"
     inkscape:window-x="-10"
     inkscape:window-y="-10"
     inkscape:window-maximized="1"
     inkscape:measure-start="0,0"
     inkscape:measure-end="0,0" />
  <metadata
     id="metadata5">
    <rdf:RDF>
      <cc:Work
         rdf:about="">
        <dc:format>image/svg+xml</dc:format>
        <dc:type
           rdf:resource="http://purl.org/dc/dcmitype/StillImage" />
        <dc:title></dc:title>
      </cc:Work>
    </rdf:RDF>
  </metadata>
  <g
     inkscape:label="Layer 1"
     inkscape:groupmode="layer"
     id="layer1"
     transform="translate(0,-32.41665)">
    <g
       id="g4718"
       transform="translate(7.2667007,-35.419735)"
       style="fill:#ecebe4;fill-opacity:1;stroke:#ecebe4;stroke-opacity:1">
      <g
         id="g4935"
         transform="matrix(1.9460393,0,0,1.9460393,-96.734465,-167.3379)">
        <path
           inkscape:connector-curvature="0"
           id="path4912"
           d="m 110.93937,247.65 c -3.19639,-0.30829 -7.74929,-1.06088 -10.962208,-1.81204 -11.26172,-2.63291 -22.639018,-8.78013 -29.027274,-15.68361 -4.981382,-5.38313 -8.163419,-14.58584 -8.162067,-23.60534 0.0016,-10.46661 3.532241,-18.95942 10.952619,-26.34583 2.349268,-2.33852 6.561302,-5.67171 8.293196,-6.56282 0.472943,-0.24334 0.859896,-0.49597 0.859896,-0.56139 0,-0.39169 -5.112137,2.20272 -7.871434,3.99475 -5.966741,3.87512 -11.49613,11.08445 -13.798837,17.9912 -2.044325,6.13177 -2.159964,13.82894 -0.311657,20.7445 0.922432,3.45135 0.919488,3.41079 0.163258,2.24896 -1.159178,-1.78089 -3.955653,-7.53025 -4.954667,-10.18646 -3.23798,-8.60923 -4.473041,-17.23897 -3.154843,-22.04385 1.735293,-6.3252 5.763579,-10.84871 12.555434,-14.09896 2.545272,-1.21804 2.230435,-1.26027 -1.28038,-0.17174 -3.564195,1.10508 -8.062929,3.49348 -9.988021,5.30267 -0.923502,0.86791 -0.912765,0.6993 0.103154,-1.61981 2.809654,-6.41379 8.589172,-11.06201 16.657684,-13.39706 2.888639,-0.83598 2.867117,-0.82197 1.826142,-1.18905 -0.867136,-0.30578 -0.732494,-0.33871 2.116667,-0.51773 8.664646,-0.54444 15.857638,-2.13957 22.263299,-4.93717 5.865979,-2.56189 11.616529,-7.0669 14.450339,-11.32047 l 1.12178,-1.68379 v 1.56206 c 0,1.97601 -0.57371,4.23562 -1.63401,6.43574 -1.056,2.19119 -4.16772,5.32838 -6.52057,6.57395 -0.91976,0.48691 -1.62249,0.93509 -1.56163,0.99595 0.21093,0.21092 3.77032,-1.01085 5.29555,-1.81771 1.8552,-0.98141 4.13119,-3.36831 5.03237,-5.27757 0.88687,-1.87898 1.32468,-4.2728 1.19645,-6.54201 -0.0581,-1.02856 -0.0744,-1.87011 -0.0362,-1.87011 0.27926,0 1.1702,2.35995 1.43643,3.80482 0.55262,2.99919 -0.34546,6.9955 -2.21334,9.84907 -1.64965,2.52018 -4.64034,5.03831 -8.29066,6.98066 -2.32506,1.23718 -0.51984,0.75018 2.49388,-0.67278 6.86793,-3.24276 10.38428,-7.72278 11.01025,-14.02767 0.48118,-4.84654 -1.68574,-8.91029 -5.8424,-10.95661 -1.40365,-0.69102 -2.19656,-0.88902 -4.15903,-1.03861 l -2.42475,-0.18481 1.57173,-0.48233 c 1.2197,-0.3743 2.10859,-0.45236 3.96875,-0.34854 4.01528,0.22412 7.33408,1.66359 10.35861,4.49289 2.06149,1.92842 3.02791,3.57409 3.92573,6.68495 1.2992,4.50157 1.17759,8.61639 -0.39259,13.28332 l -0.78294,2.32709 0.66508,-0.79375 c 1.07517,-1.28316 2.50406,-4.45028 2.94742,-6.53292 0.67977,-3.19319 0.1412,-7.23296 -1.46056,-10.95547 -0.84247,-1.95791 0.1044,-0.64795 1.1662,1.61339 3.29287,7.01294 2.6211,15.0531 -1.88245,22.53022 -3.00448,4.98826 -5.62815,7.51263 -15.41836,14.83483 -1.28236,0.95909 -2.061,1.70241 -1.85208,1.76808 0.19825,0.0623 0.6888,0.18528 1.09011,0.27325 0.4013,0.088 1.11568,0.51345 1.5875,0.94553 l 0.85785,0.78558 -0.89351,-0.29957 c -0.67526,-0.2264 -1.45079,-0.21874 -3.175,0.0314 -2.26488,0.32854 -2.29112,0.34117 -3.6044,1.73474 -1.71777,1.82278 -3.68679,5.09954 -4.54463,7.56296 -0.957656,2.75007 -1.019425,6.64158 -0.13598,8.56721 0.99698,2.17312 2.42942,3.31059 4.1691,3.31059 1.08671,0 2.44059,-0.76739 2.72532,-1.54474 0.17322,-0.4729 0.26481,-0.54934 0.27884,-0.2327 0.0115,0.25933 -0.15342,0.8887 -0.36646,1.39858 -0.41924,1.00338 -1.64704,1.70177 -2.99179,1.70177 -1.13156,0 -3.3912,-1.24094 -4.25345,-2.33589 -0.931757,-1.18323 -2.156995,-3.56357 -2.156995,-4.19052 0,-0.308 -0.08753,-0.37105 -0.266573,-0.19201 -0.428947,0.42894 -0.752726,5.06876 -0.524216,7.51217 0.620977,6.64006 3.731514,13.4758 9.414024,20.68834 1.70546,2.16465 2.76391,3.36516 5.64305,6.40045 l 1.47642,1.5565 -1.71979,-0.94815 c -3.28919,-1.81337 -7.53142,-5.04715 -10.46361,-7.97622 -7.022169,-7.01471 -10.632062,-14.57223 -11.12592,-23.29279 -0.500922,-8.84533 2.503022,-16.3618 9.124196,-22.83058 1.926884,-1.88254 1.956894,-1.92981 0.691374,-1.0894 -1.629044,1.08183 -6.093173,5.37507 -7.542812,7.25407 -6.32014,8.19207 -7.845814,19.07314 -4.321543,30.82112 1.695659,5.65239 4.48373,10.2028 9.085771,14.82888 5.865754,5.89639 14.377154,10.60897 21.546894,11.93005 0.95529,0.17602 1.7369,0.40105 1.7369,0.50006 0,0.40007 -6.75928,0.64053 -9.78958,0.34825 z"
           style="fill:#ecebe4;fill-opacity:1;stroke:#ecebe4;stroke-width:0.26458335;stroke-opacity:1" />
        <path
           inkscape:connector-curvature="0"
           id="path4910"
           d="m 127.5295,245.85575 c 7.07386,-3.33186 10.64569,-8.57767 9.21435,-13.53277 -0.65008,-2.2505 -3.03651,-6.61797 -3.38275,-6.19085 -0.0572,0.0706 -0.0267,1.0213 0.0679,2.11271 0.0945,1.09141 0.14084,2.02634 0.10292,2.07764 -0.0379,0.0513 -0.47957,-0.72262 -0.98142,-1.7198 -1.4152,-2.81198 -2.05866,-5.19032 -2.22406,-8.22054 l -0.14756,-2.70332 -1.3515,1.29033 c -3.56646,3.405 -7.50243,5.60896 -10.33075,5.78474 -1.49886,0.0932 -1.78634,0.008 -4.38221,-1.29155 -3.12811,-1.56651 -3.74242,-1.9587 -5.86609,-3.74499 -0.82526,-0.69415 -1.56298,-1.26209 -1.63939,-1.26209 -0.25943,0 0.68222,2.77098 1.48354,4.36562 0.92969,1.85009 2.12927,3.72891 4.11202,6.44041 0.78123,1.06837 1.36532,1.99759 1.29798,2.06493 -0.19226,0.19226 -3.2981,-3.38047 -4.96094,-5.70669 -1.68565,-2.35814 -3.79417,-6.35097 -4.83118,-9.14865 -0.80979,-2.18467 -1.85074,-5.8963 -1.55372,-5.53999 0.11385,0.13658 0.8883,1.15708 1.72099,2.26778 2.95901,3.9469 6.91612,7.22559 10.57721,8.76382 2.80823,1.1799 4.14893,1.22368 6.66166,0.21753 1.14779,-0.4596 2.92914,-1.3867 3.95855,-2.06023 3.51964,-2.30284 7.83638,-7.21092 10.42315,-11.85099 0.48675,-0.87313 0.80203,-1.34938 0.70063,-1.05833 -0.87507,2.51154 -1.03801,3.65043 -1.04386,7.29598 l -0.006,3.85641 1.10919,2.22901 c 0.61006,1.22596 1.95318,3.35092 2.98471,4.72213 3.49478,4.6456 4.70043,8.09242 3.85176,11.01174 -1.30021,4.47257 -5.77011,7.75726 -12.8939,9.47507 -4.45573,1.07444 -4.85283,1.08261 -2.67099,0.0549 z"
           style="fill:#ecebe4;fill-opacity:1;stroke:#ecebe4;stroke-width:0.26458335;stroke-opacity:1" />
        <path
           inkscape:connector-curvature="0"
           id="path4842"
           d="m 144.68685,238.80878 c 1.15378,-1.71452 1.51977,-3.10224 1.39598,-5.29311 -0.12294,-2.17566 -1.41788,-4.9293 -3.39726,-7.22413 -3.00503,-3.48393 -5.26084,-7.21178 -5.93627,-9.81002 -0.41426,-1.59359 -0.54668,-5.29327 -0.2316,-6.47095 0.12799,-0.4784 0.28768,-0.0638 0.63374,1.64553 0.65302,3.22551 1.83513,5.42652 4.05989,7.55922 5.5954,5.36386 5.78924,5.61935 6.90053,9.09502 l 0.57079,1.78522 1.91698,-1.32058 c 6.08271,-4.19032 11.64889,-10.09751 15.70732,-16.66964 4.24926,-6.88115 7.80705,-17.10363 8.88685,-25.53425 l 0.23696,-1.85013 0.0335,2.51517 c 0.0368,2.76265 -0.50249,7.94192 -1.17061,11.24317 -3.19794,15.80128 -12.56,29.67448 -26.31304,38.99205 -4.33555,2.93731 -4.38346,2.95676 -3.29373,1.33743 z"
           style="fill:#ecebe4;fill-opacity:1;stroke:#ecebe4;stroke-width:0.26458335;stroke-opacity:1" />
        <path
           id="path4780"
           transform="matrix(0.26458333,0,0,0.26458333,-7.2667007,67.836385)"
           d="m 466.57422,524.44336 c -1.85209,0.0392 -4.23379,1.04284 -9.11133,3.26562 -4.15249,1.89234 -9.0582,3.72449 -10.90234,4.07032 l -3.35352,0.6289 5.02735,5.23828 c 2.76548,2.88095 6.55777,7.17405 8.42773,9.54102 1.86996,2.36693 4.79494,4.91008 6.5,5.65234 4.49722,1.95795 16.99481,1.81084 21.3418,-0.25195 1.99313,-0.94579 5.55793,-4.33584 8.15039,-7.75 2.53455,-3.33781 6.04892,-7.48074 7.80859,-9.20508 l 3.19922,-3.13476 -2.9707,-0.59375 c -1.63325,-0.32667 -6.39846,-2.17872 -10.58985,-4.11524 -8.73641,-4.0365 -9.48587,-4.13665 -13.43359,-1.80468 -2.74382,1.62081 -3.06481,1.62081 -5.80859,0 -1.72387,-1.01832 -2.84464,-1.57148 -4.28516,-1.54102 z m -1.81055,8.53125 c 3.02502,0.0329 7.07501,0.0564 9,0.0488 12.33691,-0.0495 17.81472,0.24278 20.00586,1.07031 2.24583,0.8482 1.99688,1.00559 -2.50586,1.57422 -2.74998,0.34726 -7.25001,1.00831 -10,1.4707 -2.75002,0.46239 -5.675,1.11958 -6.5,1.45899 -0.82499,0.33962 -2.25396,0.17541 -3.17383,-0.36328 -0.91986,-0.53866 -5.5533,-1.37273 -10.29687,-1.85352 -4.74357,-0.48083 -8.8743,-1.1243 -9.17969,-1.42969 -0.87564,-0.87564 6.60885,-2.04459 12.65039,-1.97656 z"
           style="fill:#ecebe4;fill-opacity:1;stroke:#ecebe4;stroke-width:1.00000012;stroke-opacity:1"
           inkscape:connector-curvature="0" />
        <path
           inkscape:connector-curvature="0"
           id="path4732"
           d="m 114.96317,199.63238 c -0.47904,-0.30675 -0.81753,-0.61118 -0.75219,-0.67651 0.15481,-0.15482 1.67306,0.63117 1.88659,0.97667 0.26174,0.42349 -0.19159,0.30354 -1.1344,-0.30016 z"
           style="fill:#ecebe4;fill-opacity:1;stroke:#ecebe4;stroke-width:0.26458335;stroke-opacity:1" />
        <path
           inkscape:connector-curvature="0"
           id="path4730"
           d="m 119.9352,200.06283 c 0,-0.18929 1.6616,-1.18454 1.97964,-1.18575 0.14293,-5.3e-4 -0.17818,0.29667 -0.71356,0.66047 -0.97171,0.66029 -1.26608,0.78242 -1.26608,0.52528 z"
           style="fill:#ecebe4;fill-opacity:1;stroke:#ecebe4;stroke-width:0.26458335;stroke-opacity:1" />
        <path
           inkscape:connector-curvature="0"
           id="path4668"
           d="m 143.48311,192.13822 c 0,-0.12494 0.35294,-0.77718 0.78431,-1.44941 3.27898,-5.10985 4.63085,-12.13329 3.32673,-17.28358 l -0.45344,-1.79073 0.81908,-2.26363 c 2.03627,-5.62751 2.14245,-12.6558 0.28524,-18.881 -0.28015,-0.93904 -0.47131,-1.74541 -0.42479,-1.79193 0.0465,-0.0465 0.44241,0.72179 0.87976,1.70735 0.99643,2.24548 2.08422,6.39482 2.44479,9.32562 0.53711,4.36578 0.27029,11.1623 -0.64945,16.54339 -0.13138,0.76866 -0.1267,0.77285 0.14817,0.1323 0.15611,-0.36381 0.69419,-2.20927 1.19573,-4.10105 l 0.9119,-3.43958 -0.15354,1.98438 c -0.42745,5.52442 -2.89197,12.78005 -6.06627,17.85932 -1.0825,1.73214 -3.04822,3.95602 -3.04822,3.44855 z"
           style="fill:#ecebe4;fill-opacity:1;stroke:#ecebe4;stroke-width:0.26458335;stroke-opacity:1" />
        <path
           inkscape:connector-curvature="0"
           id="path4662"
           d="m 132.37061,187.10326 c -2.32847,-0.57952 -6.90066,-1.21355 -7.76016,-1.07611 -0.94385,0.15093 -1.01568,0.12469 -0.69997,-0.25571 0.80035,-0.96437 1.77849,-1.18984 5.47836,-1.26282 4.3752,-0.0863 5.93968,-0.53765 7.70644,-2.22327 l 1.16626,-1.1127 -0.16965,1.44343 c -0.12537,1.06671 -0.0827,1.45131 0.16339,1.4736 0.18317,0.0166 0.67811,0.0703 1.09987,0.11946 0.42175,0.0491 1.16589,-0.0775 1.65364,-0.28125 1.07674,-0.44989 1.13231,-0.19894 0.15922,0.71893 -0.75605,0.71314 -2.30902,1.26075 -3.58259,1.2633 -0.40607,7.9e-4 -1.06365,0.24201 -1.46129,0.536 -0.68138,0.50376 -2.84665,0.88285 -3.75352,0.65714 z"
           style="fill:#ecebe4;fill-opacity:1;stroke:#ecebe4;stroke-width:0.26458335;stroke-opacity:1" />
        <path
           inkscape:connector-curvature="0"
           id="path4660"
           d="m 129.41059,183.34961 c 0.19099,-0.0764 0.4192,-0.067 0.50712,0.0209 0.0879,0.0879 -0.0684,0.15046 -0.34727,0.13897 -0.30823,-0.0127 -0.37092,-0.0754 -0.15985,-0.15985 z"
           style="fill:#ecebe4;fill-opacity:1;stroke:#ecebe4;stroke-width:0.26458335;stroke-opacity:1" />
        <path
           inkscape:connector-curvature="0"
           id="path4658"
           d="m 132.99797,182.70996 c 0.99989,-0.28501 2.07145,-0.64031 2.38125,-0.78955 0.55343,-0.2666 0.5541,-0.26401 0.0387,0.14816 -0.59982,0.47968 -2.87578,1.20638 -3.69064,1.1784 -0.30101,-0.0103 0.2708,-0.25199 1.27069,-0.53701 z"
           style="fill:#ecebe4;fill-opacity:1;stroke:#ecebe4;stroke-width:0.26458335;stroke-opacity:1" />
        <path
           inkscape:connector-curvature="0"
           id="path4656"
           d="m 124.24864,177.92199 c -0.52501,-0.25366 -1.13889,-1.42419 -1.13815,-2.17019 1.6e-4,-0.16548 0.54284,-0.30823 1.25677,-0.33058 1.34579,-0.0421 3.64489,-0.79481 7.12838,-2.33372 3.04264,-1.34416 5.91318,-1.84958 8.51558,-1.49935 2.29836,0.30931 4.15656,0.90987 2.28127,0.73729 -1.47039,-0.13532 -4.17528,0.26135 -6.21771,0.91181 -1.6227,0.51678 -4.42464,1.83574 -8.57042,4.03436 -1.92738,1.02214 -2.32279,1.10112 -3.25572,0.65038 z"
           style="fill:#ecebe4;fill-opacity:1;stroke:#ecebe4;stroke-width:0.26458335;stroke-opacity:1" />
        <path
           inkscape:connector-curvature="0"
           id="path4654"
           d="m 144.26804,166.96817 c -0.64999,-1.00432 -1.93627,-2.76469 -2.8584,-3.91191 l -1.67659,-2.08587 0.81247,-1.76268 c 0.44686,-0.96947 0.88908,-2.14574 0.98272,-2.61393 0.16184,-0.8092 0.0764,-0.75631 -1.7301,1.07026 -1.87558,1.89646 -1.89478,1.90771 -1.47276,0.86318 0.85003,-2.10387 1.72315,-6.06986 1.88711,-8.5719 0.34848,-5.31751 -1.30678,-9.89076 -4.89954,-13.53671 -2.11583,-2.14716 -1.77796,-2.19842 0.89412,-0.13566 5.52176,4.26259 9.18264,9.45466 10.75773,15.25723 0.51323,1.8907 0.60084,2.83999 0.58375,6.32558 -0.0172,3.5083 -0.11691,4.46434 -0.68987,6.61459 -0.36837,1.38244 -0.83606,2.91862 -1.03931,3.41371 l -0.36954,0.90017 z"
           style="fill:#ecebe4;fill-opacity:1;stroke:#ecebe4;stroke-width:0.26458335;stroke-opacity:1" />
        <path
           id="path4598"
           transform="matrix(0.26458333,0,0,0.26458333,-7.2667007,67.836385)"
           d="m 446.93945,234.49414 c -0.65378,-0.21793 -21.17356,6.1715 -45.59961,14.19922 l -44.41211,14.5957 -10.20507,13.74024 c -12.14637,16.35224 -15.64383,19.551 -24.90625,22.78711 -8.11284,2.83445 -11.70908,3.03947 -16.70703,0.95117 -7.33977,-3.06675 -17.74941,-1.13646 -22.5586,4.18164 -4.73105,5.2317 -5.87923,13.10351 -3.13672,21.48828 1.5512,4.74251 1.53842,5.60602 -0.19726,14.43359 -1.81897,9.25104 -1.81789,9.41029 0.0996,10.83789 1.84051,1.37027 2.04796,1.12501 3.79687,-4.5371 2.25107,-7.28777 4.52911,-9.00579 13.35547,-10.06836 11.19324,-1.34756 16.62335,-6.48433 19.91406,-18.83594 0.95245,-3.57502 2.13344,-7.0332 2.625,-7.68555 0.49157,-0.65235 4.56115,-2.90236 9.04297,-5 5.34404,-2.50118 11.60073,-6.69083 18.17969,-12.17383 18.80976,-15.67631 23.66878,-18.53629 82.96484,-48.84179 10.41268,-5.32181 18.39796,-9.85419 17.74414,-10.07227 z m -150.42968,70.87305 c 5.13481,-0.10614 10.07276,2.94123 11.8789,8.20117 1.65207,4.81122 0.88415,8.6644 -2.54297,12.76953 -2.30573,2.76189 -3.50089,3.3008 -8.1875,3.68945 -4.8496,0.40218 -5.85854,0.14237 -8.67382,-2.22656 -6.59141,-5.54627 -6.25658,-15.58106 0.67578,-20.24609 2.13999,-1.44007 4.5156,-2.13926 6.84961,-2.1875 z"
           style="fill:#ecebe4;fill-opacity:1;stroke:#ecebe4;stroke-width:1.00000012;stroke-opacity:1"
           inkscape:connector-curvature="0" />
        <path
           inkscape:connector-curvature="0"
           id="path4594"
           d="m 89.420308,139.45662 c 0.21231,-0.55328 -0.493808,-1.23491 -1.055843,-1.01924 -0.442328,0.16974 -0.602631,0.92507 -0.26746,1.26024 0.329729,0.32973 1.162492,0.17806 1.323303,-0.241 z"
           style="fill:#ecebe4;fill-opacity:1;stroke:#ecebe4;stroke-width:0.26458335;stroke-opacity:1" />
        <path
           inkscape:connector-curvature="0"
           id="path4592"
           d="m 77.469573,157.75231 c 8.271905,-1.86699 14.415049,-4.15464 18.900988,-7.03856 1.967775,-1.26504 4.913459,-3.96058 4.328119,-3.96058 -0.16441,0 -1.209629,0.53843 -2.322713,1.1965 -4.158964,2.45885 -8.707533,4.4693 -11.91056,5.26443 -2.227009,0.55284 -5.159375,0.82589 -5.159375,0.48043 0,-0.1515 1.22039,-1.09862 2.711979,-2.10469 7.355232,-4.9611 14.452749,-8.15097 20.471389,-9.20053 2.45656,-0.42839 5.9208,-0.53555 5.9208,-0.18315 0,0.48309 -3.23656,3.99973 -5.18826,5.63724 -7.010456,5.88188 -15.315598,9.23158 -25.465295,10.27087 -4.55367,0.46628 -5.378383,0.33576 -2.287072,-0.36196 z"
           style="fill:#ecebe4;fill-opacity:1;stroke:#ecebe4;stroke-width:0.26458335;stroke-opacity:1" />
        <path
           inkscape:connector-curvature="0"
           id="path4590"
           d="m 135.35683,157.18638 c -0.76697,-0.63539 -0.79457,-0.72496 -0.54869,-1.78081 0.2791,-1.1985 0.11522,-6.47444 -0.23767,-7.65116 -0.14815,-0.49402 -0.22839,0.12606 -0.25679,1.98438 -0.0291,1.90095 -0.19785,3.17395 -0.56889,4.29043 l -0.52759,1.5875 -0.028,-1.05834 c -0.0572,-2.16333 -0.83497,-6.32093 -1.62367,-8.67925 -1.62448,-4.85742 -4.92526,-8.7622 -9.10104,-10.76643 -2.79406,-1.34104 -4.73466,-1.83977 -7.92683,-2.03719 -2.30984,-0.14285 -2.56055,-0.20502 -2.12149,-0.52607 0.27384,-0.20024 1.45257,-0.67087 2.61939,-1.04584 5.73771,-1.84389 12.53359,-0.13396 16.95013,4.26487 1.86623,1.85874 3.5445,4.10442 4.55119,6.08991 1.9289,3.80438 2.3135,8.76101 0.99569,12.83229 -0.40038,1.23693 -0.872,2.45502 -1.04806,2.70686 -0.29735,0.42535 -0.3775,0.41035 -1.1277,-0.21115 z"
           style="fill:#ecebe4;fill-opacity:1;stroke:#ecebe4;stroke-width:0.26458335;stroke-opacity:1" />
        <path
           id="path4568"
           transform="matrix(0.26458333,0,0,0.26458333,-7.2667007,67.836385)"
           d="m 293.28711,241.62695 c -10.36838,0.35672 -19.81478,11.04181 -18.02149,21.65625 0.92926,5.5002 5.31581,11.67722 9.97657,14.04883 5.22419,2.65833 15.26524,2.33368 18.92969,-0.61133 10.60175,-8.52026 9.31743,-7.95739 18.01953,-7.88672 7.02926,0.0571 8.87436,0.47655 14.29297,3.25 3.42181,1.7514 6.62166,3.1836 7.10937,3.1836 0.48771,0 2.54183,-2.36248 4.56641,-5.25 l 3.68164,-5.25 -12.29883,-1.0586 c -15.00231,-1.29278 -19.09963,-3.07896 -27.92383,-12.16796 -6.7691,-6.97221 -9.38314,-8.64745 -15.0957,-9.68164 -1.08089,-0.19568 -2.16374,-0.26933 -3.23633,-0.23243 z m 1.44141,6.64063 c 3.2,0 4.82674,0.69928 7.64843,3.28515 4.83259,4.42874 5.68977,10.55841 2.19532,15.70118 -1.30258,1.91697 -3.48136,4.04695 -4.83985,4.73437 -1.35849,0.68738 -4.21068,1.25807 -6.33789,1.26563 -3.16949,0.0121 -4.56845,-0.68562 -7.75,-3.86719 -3.26764,-3.26763 -3.88086,-4.54331 -3.88086,-8.05078 0,-8.17784 4.85144,-13.06836 12.96485,-13.06836 z"
           style="fill:#ecebe4;fill-opacity:1;stroke:#ecebe4;stroke-width:1.00000012;stroke-opacity:1"
           inkscape:connector-curvature="0" />
        <path
           inkscape:connector-curvature="0"
           id="path4564"
           d="m 90.831032,141.64675 c 0,-0.0767 1.243325,-0.79747 2.762943,-1.60176 l 2.762944,-1.46235 7.684081,0.46528 c 7.05083,0.42693 8.66913,0.62214 7.66384,0.92449 -0.20273,0.061 -4.47626,0.42665 -9.49672,0.81262 -5.020473,0.38597 -9.634145,0.76913 -10.252609,0.85146 -0.618463,0.0823 -1.124479,0.0869 -1.124479,0.0103 z"
           style="fill:#ecebe4;fill-opacity:1;stroke:#ecebe4;stroke-width:0.26458335;stroke-opacity:1" />
      </g>
    </g>
  </g>
</svg>
