<?xml version="1.0" encoding="UTF-8" standalone="no"?>
<!-- Created with Inkscape (http://www.inkscape.org/) -->

<svg
   xmlns:dc="http://purl.org/dc/elements/1.1/"
   xmlns:cc="http://creativecommons.org/ns#"
   xmlns:rdf="http://www.w3.org/1999/02/22-rdf-syntax-ns#"
   xmlns:svg="http://www.w3.org/2000/svg"
   xmlns="http://www.w3.org/2000/svg"
   xmlns:sodipodi="http://sodipodi.sourceforge.net/DTD/sodipodi-0.dtd"
   xmlns:inkscape="http://www.inkscape.org/namespaces/inkscape"
   version="1.1"
   id="svg2"
   width="1000"
   height="1000"
   viewBox="0 0 1000 1000"
   sodipodi:docname="phoneSimple.svg"
   inkscape:version="0.92.1 r15371">
  <metadata
     id="metadata8">
    <rdf:RDF>
      <cc:Work
         rdf:about="">
        <dc:format>image/svg+xml</dc:format>
        <dc:type
           rdf:resource="http://purl.org/dc/dcmitype/StillImage" />
        <dc:title />
      </cc:Work>
    </rdf:RDF>
  </metadata>
  <defs
     id="defs6" />
  <sodipodi:namedview
     pagecolor="#ffffff"
     bordercolor="#666666"
     borderopacity="1"
     objecttolerance="10"
     gridtolerance="10"
     guidetolerance="10"
     inkscape:pageopacity="0"
     inkscape:pageshadow="2"
     inkscape:window-width="3840"
     inkscape:window-height="2071"
     id="namedview4"
     showgrid="false"
     inkscape:zoom="1.0429825"
     inkscape:cx="-431.75792"
     inkscape:cy="487.39739"
     inkscape:window-x="-10"
     inkscape:window-y="-10"
     inkscape:window-maximized="1"
     inkscape:current-layer="svg2"
     showguides="true"
     inkscape:guide-bbox="true">
    <inkscape:grid
       type="xygrid"
       id="grid4490" />
  </sodipodi:namedview>
  <path
     style="fill:#f06543;fill-opacity:1;stroke:none;stroke-width:51.53862381;stroke-linecap:butt;stroke-linejoin:round;stroke-miterlimit:4;stroke-dasharray:none;stroke-dashoffset:0;stroke-opacity:1;paint-order:normal"
     d="M 507.30121,0.05329903 A 500.00048,500.00007 0 0 0 146.4465,146.4472 a 500.00048,500.00007 0 0 0 0,707.1064 500.00048,500.00007 0 0 0 707.10699,0 500.00048,500.00007 0 0 0 0,-707.1064 A 500.00048,500.00007 0 0 0 507.30121,0.05329903 Z M 346.50602,213.85864 c 6.28303,-0.0913 12.85824,0.97803 19.65475,3.59207 48.3308,18.58876 81.79047,89.2273 78.07271,122.68705 -3.71775,33.45977 -33.46032,48.3297 -33.46032,48.3297 L 280.65335,258.34571 c 0,0 27.45639,-43.92936 65.85267,-44.48707 z m -73.28944,51.92383 130.12187,130.12176 -11.15413,11.15206 -130.11981,-130.12176 z m -18.58883,18.58882 130.12186,130.12176 c -33.97637,59.01152 37.17774,126.40242 55.76651,144.99117 18.58877,18.58876 81.31699,92.4274 144.9913,55.76647 l 130.12186,130.12175 c 0,0 -55.76573,55.76674 -178.45161,14.87147 C 414.49179,719.34866 280.65156,585.50853 239.75627,462.82275 198.86097,340.13698 254.62775,284.37129 254.62775,284.37129 Z m 410.17643,271.11626 c 35.02651,-0.26819 100.02831,32.2867 117.74574,78.35196 18.58877,48.33076 -40.89503,85.50735 -40.89503,85.50735 L 611.53303,589.22716 c 0,0 14.86994,-29.74255 48.32973,-33.4603 1.56844,-0.17427 3.21881,-0.26612 4.94142,-0.27931 z m -60.70793,41.17432 130.12187,130.12175 -11.15207,11.15207 -130.12187,-130.11971 z"
     id="path4484"
     inkscape:connector-curvature="0" />
</svg>
