<?xml version="1.0" standalone="no"?>
<!DOCTYPE svg PUBLIC "-//W3C//DTD SVG 20010904//EN"
 "http://www.w3.org/TR/2001/REC-SVG-20010904/DTD/svg10.dtd">
<svg version="1.0" xmlns="http://www.w3.org/2000/svg"
 width="1024.000000pt" height="1024.000000pt" viewBox="0 0 1024.000000 1024.000000"
 preserveAspectRatio="xMidYMid meet">
<metadata>
Created by potrace 1.11, written by Peter Selinger 2001-2013
</metadata>
<g transform="translate(0.000000,1024.000000) scale(0.100000,-0.100000)"
fill="#000000" stroke="none">
<path d="M7018 9094 c-2 -2 -23 -4 -46 -5 -24 -2 -46 -7 -48 -11 -3 -5 -9 -6
-13 -4 -13 9 -287 -71 -356 -104 -11 -5 -65 -28 -119 -50 -55 -22 -106 -45
-113 -51 -7 -7 -13 -9 -13 -5 0 3 -28 -8 -62 -26 -35 -18 -65 -32 -68 -33 -13
-1 -318 -163 -435 -230 -52 -30 -99 -55 -104 -55 -5 0 -11 -3 -13 -8 -1 -4
-37 -27 -78 -51 -41 -24 -112 -68 -157 -98 -46 -29 -86 -53 -89 -53 -3 0 -16
-8 -29 -17 -12 -10 -31 -24 -41 -30 -61 -40 -317 -217 -361 -250 -211 -154
-573 -437 -649 -508 -6 -5 -42 -37 -79 -70 -225 -197 -417 -390 -513 -515 -23
-30 -46 -60 -51 -66 -5 -6 -19 -31 -31 -54 -110 -215 -101 -393 25 -502 78
-69 112 -88 195 -112 133 -37 341 -40 875 -11 292 15 298 16 347 29 31 9 45
40 28 61 -23 28 -92 37 -260 35 -362 -6 -759 -4 -825 3 -85 9 -140 23 -174 45
-35 22 -91 83 -92 102 -10 110 6 163 104 340 61 111 145 204 361 405 53 50
114 106 135 125 20 19 59 53 86 75 26 22 55 47 64 55 9 9 54 47 101 85 47 39
87 73 88 78 2 4 10 7 17 7 7 0 15 3 17 8 2 4 23 23 48 42 25 19 47 37 50 40
14 15 294 220 369 269 20 13 38 27 41 30 12 15 416 277 535 347 44 26 87 53
95 59 8 7 44 28 80 47 36 20 81 45 100 57 42 25 79 45 270 143 80 41 148 75
153 76 4 1 40 17 80 35 39 18 88 39 107 46 19 8 53 22 74 32 22 10 43 16 48
13 4 -3 8 0 8 7 0 7 2 10 5 7 3 -3 34 3 68 14 68 22 68 22 181 43 44 8 81 14
83 12 6 -7 -124 -152 -208 -232 -74 -70 -163 -149 -237 -211 -13 -10 -38 -32
-55 -48 -18 -15 -63 -54 -102 -85 -38 -31 -72 -59 -75 -62 -3 -4 -59 -51 -125
-105 -66 -55 -133 -110 -149 -124 -139 -119 -182 -155 -186 -160 -3 -3 -41
-36 -85 -75 -44 -38 -113 -104 -154 -145 -72 -73 -168 -190 -156 -190 3 0 -1
-12 -8 -27 -12 -25 -14 -47 -8 -115 3 -40 94 -111 158 -123 10 -2 18 -4 18 -5
0 -17 339 -29 455 -15 19 2 71 6 115 10 44 3 87 8 95 10 8 3 37 7 64 9 26 3
65 8 85 11 20 2 52 7 71 9 19 3 89 14 155 26 66 12 134 23 150 25 17 2 77 13
135 24 58 11 119 23 135 26 17 3 44 8 60 11 17 3 39 7 50 9 11 2 31 6 45 9 14
3 39 8 55 10 17 3 82 14 145 25 120 22 143 25 225 35 28 4 59 8 70 11 11 2 47
7 80 10 33 4 68 9 78 11 27 8 288 14 320 7 32 -6 56 -38 62 -80 2 -15 4 -30 5
-33 2 -3 2 -8 2 -11 -1 -3 -3 -31 -6 -62 -16 -156 -100 -294 -336 -551 -136
-148 -563 -567 -889 -872 -46 -44 -108 -101 -136 -129 -29 -27 -106 -99 -170
-160 -65 -60 -135 -126 -155 -145 -21 -19 -86 -80 -145 -135 -60 -55 -127
-118 -150 -140 -43 -41 -74 -69 -274 -255 -63 -58 -130 -120 -150 -139 -20
-18 -80 -74 -134 -124 -54 -50 -117 -108 -140 -130 -23 -21 -73 -67 -111 -101
-38 -33 -86 -77 -106 -96 -20 -19 -83 -78 -140 -130 -57 -52 -118 -108 -135
-125 -303 -283 -428 -406 -567 -556 -91 -99 -105 -114 -172 -193 -22 -27 -46
-54 -51 -60 -11 -12 -238 -286 -270 -326 -11 -14 -33 -34 -50 -44 -16 -11 -34
-23 -40 -28 -5 -5 -80 -53 -165 -108 -85 -55 -162 -104 -170 -110 -25 -17
-262 -169 -310 -199 -25 -15 -49 -28 -54 -29 -5 0 -12 -4 -15 -9 -3 -5 -35
-27 -71 -49 -36 -23 -109 -69 -163 -102 -53 -34 -102 -62 -107 -62 -6 0 -10
-4 -10 -9 0 -5 -10 -13 -22 -17 -13 -4 -25 -9 -28 -13 -3 -3 -16 -12 -30 -20
-83 -48 -237 -142 -247 -151 -7 -6 -13 -8 -13 -5 0 3 -25 -10 -55 -30 -30 -19
-55 -31 -55 -27 0 4 -4 2 -8 -4 -4 -6 -50 -33 -102 -61 -52 -27 -106 -56 -120
-65 -14 -9 -36 -19 -50 -23 -14 -4 -27 -11 -30 -14 -11 -14 -305 -151 -463
-215 -321 -131 -520 -181 -707 -179 -105 1 -152 15 -199 61 -24 23 -55 94 -46
104 1 2 5 22 9 45 12 94 87 263 188 426 26 43 48 81 48 83 0 3 5 10 10 17 6 7
51 73 101 147 50 74 95 137 100 138 5 2 9 10 9 18 0 8 5 14 10 14 6 0 10 5 10
11 0 6 6 16 12 23 7 8 65 84 128 171 63 87 124 167 135 179 11 12 25 29 30 38
17 26 445 568 470 594 5 6 28 32 50 59 22 26 45 53 50 59 6 6 28 34 50 61 21
28 42 52 45 55 3 3 39 46 80 95 41 50 77 92 80 95 3 3 30 34 60 70 30 36 59
70 65 76 5 6 24 28 40 49 17 21 35 43 42 50 6 7 30 34 53 61 63 74 123 145
140 164 34 40 112 130 179 210 40 47 87 101 104 120 18 20 66 76 107 125 86
103 107 128 135 159 11 13 32 38 47 57 14 19 36 45 48 59 40 47 55 65 95 115
22 28 42 52 45 55 5 4 103 129 122 155 4 6 18 24 31 40 100 128 187 288 187
345 -1 82 -79 124 -197 106 -65 -10 -347 -112 -572 -205 -41 -17 -80 -31 -87
-31 -8 0 -14 -5 -14 -12 0 -6 -3 -9 -6 -5 -3 3 -27 -4 -52 -15 -26 -11 -81
-33 -122 -48 -41 -15 -88 -34 -105 -40 -16 -7 -34 -14 -40 -16 -5 -1 -55 -19
-110 -39 -55 -20 -104 -38 -110 -39 -5 -2 -22 -8 -36 -14 -22 -9 -103 -34
-119 -36 -3 -1 -9 -4 -15 -7 -9 -6 -63 -20 -75 -21 -3 0 -12 -4 -21 -9 -9 -4
-27 -10 -40 -13 -13 -3 -49 -12 -79 -21 -30 -8 -71 -18 -90 -21 -19 -3 -39 -8
-43 -11 -4 -2 -22 -6 -40 -9 -18 -2 -75 -10 -127 -18 -172 -26 -410 -14 -454
24 -7 5 -15 8 -18 5 -2 -2 -19 8 -38 23 -59 50 -57 157 8 317 46 114 141 298
162 315 4 3 9 13 13 23 17 46 402 592 461 653 6 6 22 26 36 44 27 36 63 80 97
120 11 14 49 59 83 100 185 223 493 540 674 695 32 28 67 57 78 67 10 9 37 31
60 50 23 18 47 39 54 46 7 6 17 12 23 12 6 0 11 4 11 9 0 13 246 185 370 259
39 23 176 91 230 114 86 37 237 81 251 72 4 -2 10 -1 13 4 3 5 40 8 83 7 101
-3 134 -19 157 -78 29 -76 105 -94 157 -36 26 29 46 82 40 104 -2 6 -5 21 -7
34 -12 62 -97 122 -194 138 -56 9 -273 9 -320 -1 -96 -19 -268 -81 -282 -101
-4 -5 -8 -6 -8 -2 0 17 -272 -142 -420 -246 -115 -81 -276 -203 -309 -235 -9
-9 -43 -39 -75 -66 -137 -118 -400 -374 -521 -510 -33 -37 -71 -80 -85 -95
-253 -277 -652 -811 -825 -1101 -21 -36 -43 -68 -48 -71 -5 -3 -8 -9 -7 -13 2
-4 -10 -31 -26 -59 -16 -29 -29 -54 -29 -57 -1 -3 -10 -23 -21 -45 -78 -151
-114 -327 -90 -435 25 -107 134 -209 251 -234 17 -3 41 -9 55 -12 56 -14 403
-6 492 11 83 16 130 24 136 23 4 -1 14 2 22 5 13 5 44 13 165 42 11 3 85 26
165 52 80 26 147 47 150 48 3 1 12 5 20 8 8 3 78 29 155 57 77 28 154 57 170
64 58 26 180 70 188 68 4 -1 7 3 7 8 0 6 6 10 13 10 6 0 93 32 192 71 99 39
190 75 203 80 12 5 32 13 45 19 47 20 123 48 159 58 l37 10 -27 -41 c-23 -37
-227 -307 -273 -361 -9 -12 -45 -55 -79 -96 -34 -41 -70 -85 -81 -98 -10 -12
-19 -27 -19 -32 0 -6 -7 -10 -15 -10 -8 0 -15 -4 -15 -8 0 -8 -22 -37 -90
-117 -19 -23 -55 -65 -80 -95 -25 -29 -53 -63 -62 -74 -40 -48 -62 -73 -96
-115 -21 -24 -42 -49 -49 -56 -6 -6 -35 -41 -64 -76 -29 -35 -55 -66 -59 -69
-3 -3 -30 -34 -60 -70 -30 -36 -57 -67 -60 -70 -3 -3 -25 -30 -50 -60 -25 -30
-56 -67 -70 -81 -14 -15 -38 -43 -55 -64 -16 -21 -35 -43 -40 -49 -6 -6 -33
-38 -60 -71 -28 -33 -54 -65 -60 -71 -5 -6 -26 -30 -45 -53 -19 -24 -39 -48
-45 -54 -29 -34 -124 -149 -153 -185 -19 -22 -43 -51 -54 -64 -35 -41 -52 -62
-113 -138 -32 -41 -64 -80 -70 -86 -5 -6 -19 -23 -30 -38 -11 -16 -25 -33 -31
-40 -23 -25 -198 -251 -318 -411 -70 -93 -132 -177 -139 -185 -29 -36 -269
-371 -292 -409 -5 -9 -12 -18 -15 -21 -3 -3 -25 -36 -50 -75 -25 -38 -49 -73
-55 -77 -5 -4 -6 -8 -1 -8 5 0 2 -8 -6 -17 -23 -27 -140 -242 -143 -263 0 -3
-11 -36 -25 -75 -13 -38 -25 -81 -27 -95 -9 -54 -10 -200 -2 -206 5 -3 9 -14
9 -26 0 -23 32 -72 70 -106 27 -25 109 -70 137 -76 10 -1 26 -7 37 -11 22 -9
222 -11 286 -3 50 7 168 32 218 47 17 5 32 7 32 4 0 -3 7 0 15 7 8 7 15 10 15
7 0 -5 307 95 345 112 11 6 65 29 120 53 55 23 102 46 103 50 2 5 10 8 18 8 8
0 31 9 52 19 20 10 41 19 46 19 5 0 12 4 15 9 3 4 62 37 131 71 69 35 132 68
140 73 8 5 87 50 175 101 213 121 255 146 287 166 15 9 71 44 125 76 54 33
101 64 105 70 5 7 8 7 8 1 0 -7 3 -7 8 0 4 6 68 48 142 94 143 90 372 237 505
327 78 52 104 62 72 26 -10 -10 -17 -24 -17 -30 0 -7 -4 -12 -10 -12 -5 0 -10
-4 -10 -9 0 -5 -19 -40 -42 -77 -57 -95 -161 -298 -183 -359 -10 -27 -23 -56
-28 -62 -5 -7 -6 -13 -2 -13 4 0 2 -7 -5 -15 -7 -8 -10 -15 -6 -15 3 0 1 -12
-5 -27 -17 -44 -18 -135 -3 -165 36 -69 135 -75 228 -14 51 35 131 114 204
201 82 100 146 182 174 224 18 25 34 48 38 51 18 15 100 168 100 187 0 49 -93
56 -138 10 -38 -39 -72 -80 -72 -87 0 -4 -8 -16 -17 -27 -10 -12 -31 -38 -48
-59 -79 -101 -227 -264 -240 -264 -9 0 -5 21 11 58 26 59 100 204 139 271 19
35 35 67 35 72 0 5 4 9 9 9 5 0 11 8 14 18 4 9 16 34 29 54 13 20 47 77 77
125 30 48 57 90 60 93 3 3 21 28 40 55 53 77 79 103 171 164 47 31 87 59 88
64 2 4 10 7 18 7 8 0 14 5 14 10 0 6 4 10 10 10 5 0 41 22 80 50 39 27 75 50
80 50 6 0 13 7 16 15 4 8 10 15 14 15 7 0 72 40 130 80 41 28 284 184 455 292
33 20 65 41 70 45 6 5 69 45 140 91 72 45 135 86 142 92 7 5 15 10 18 10 4 0
25 13 48 28 23 16 49 32 57 35 8 4 29 16 45 27 17 11 38 23 48 26 9 4 17 11
17 17 0 6 3 7 7 4 3 -4 13 -1 22 7 9 7 59 38 111 68 52 30 145 84 206 120 61
35 117 68 125 71 8 4 30 17 49 28 33 20 272 158 347 200 18 10 49 28 68 39 19
11 51 29 70 40 19 11 50 28 68 38 17 11 77 45 132 77 55 32 116 67 135 78 19
10 80 45 135 77 55 32 116 67 135 77 19 11 98 56 175 100 77 44 156 90 175
100 19 11 85 49 146 85 61 36 117 68 125 72 8 4 23 12 34 19 11 7 52 30 90 52
39 21 72 43 73 47 2 4 7 8 12 8 9 0 151 80 160 89 3 3 25 17 50 30 25 13 68
39 97 57 28 19 54 34 57 34 3 0 24 12 48 28 73 46 82 52 116 69 17 9 32 20 32
25 0 4 6 8 13 8 7 0 37 17 67 37 30 20 63 41 75 47 115 63 371 251 467 344 64
61 83 96 81 145 -1 29 -2 31 -29 62 -23 27 -32 30 -85 32 -74 2 -137 -22 -150
-55 -14 -36 -2 -60 37 -74 18 -6 34 -15 34 -18 0 -3 -12 -14 -27 -25 -14 -11
-32 -25 -38 -32 -30 -29 -319 -223 -333 -223 -6 0 -12 -4 -14 -9 -1 -4 -46
-35 -98 -66 -52 -32 -102 -64 -110 -70 -8 -7 -35 -24 -60 -37 -35 -20 -365
-216 -450 -268 -82 -49 -154 -90 -161 -90 -5 0 -9 -4 -9 -9 0 -5 -6 -11 -13
-13 -10 -2 -263 -145 -317 -179 -18 -11 -385 -220 -457 -261 -29 -16 -155 -87
-279 -158 -125 -72 -229 -130 -232 -130 -3 0 -13 -6 -21 -14 -9 -7 -43 -28
-75 -45 -33 -17 -64 -35 -70 -40 -6 -5 -39 -24 -74 -42 -35 -19 -71 -39 -80
-44 -9 -6 -64 -37 -122 -70 -57 -33 -112 -64 -122 -70 -78 -46 -288 -166 -323
-185 -11 -5 -33 -19 -50 -30 -16 -11 -37 -23 -45 -27 -19 -9 -326 -199 -362
-224 -15 -10 -30 -19 -33 -19 -3 0 -11 -5 -18 -10 -7 -6 -46 -31 -87 -57 -86
-53 -213 -135 -220 -143 -3 -3 -36 -25 -75 -50 -38 -25 -72 -47 -75 -50 -3 -3
-30 -21 -60 -40 -30 -19 -57 -37 -60 -41 -4 -6 -131 -90 -170 -113 -8 -5 -1 6
15 24 199 220 475 494 725 720 15 14 65 59 111 101 46 42 106 96 133 120 27
24 65 59 85 78 20 18 67 61 105 95 38 33 89 81 115 104 25 24 66 62 90 84 24
21 87 78 139 126 52 48 106 98 121 111 14 13 75 70 135 125 60 56 122 113 138
129 17 15 35 27 41 27 6 0 8 3 5 6 -3 3 15 24 40 47 55 50 49 45 193 178 149
140 178 166 280 263 47 44 157 149 244 231 189 178 597 587 710 710 126 137
130 141 171 191 21 25 49 58 62 73 13 14 30 38 40 54 9 15 20 27 24 27 4 0 8
5 8 10 0 6 14 29 31 53 86 118 134 273 132 422 -5 248 -88 299 -438 271 -49
-4 -103 -9 -120 -11 -16 -2 -55 -6 -85 -10 -30 -3 -66 -8 -80 -10 -14 -2 -54
-7 -90 -11 -36 -3 -72 -7 -80 -9 -8 -1 -40 -6 -70 -10 -30 -4 -64 -9 -75 -11
-11 -2 -40 -7 -65 -10 -25 -3 -54 -8 -65 -10 -11 -3 -36 -7 -55 -10 -19 -3
-46 -7 -60 -10 -14 -2 -38 -6 -55 -9 -109 -19 -311 -58 -315 -60 -3 -2 -26 -6
-50 -9 -25 -3 -56 -8 -70 -10 -14 -3 -41 -7 -60 -10 -19 -3 -44 -7 -55 -10
-30 -6 -175 -28 -210 -32 -16 -1 -30 -3 -30 -4 0 -1 -14 -3 -30 -5 -17 -2 -46
-6 -65 -10 -65 -13 -432 -14 -491 -1 -58 12 -89 33 -89 60 0 32 117 158 257
277 10 8 54 46 98 85 45 38 103 87 129 109 27 22 54 45 60 50 6 6 69 57 141
115 71 58 137 112 145 120 9 8 33 29 54 45 22 17 50 39 62 50 13 11 34 29 47
40 463 394 612 581 554 694 -18 37 -66 60 -135 64 -34 3 -63 3 -64 1z"/>
<path d="M4656 7254 c-19 -19 -26 -37 -26 -64 0 -37 31 -81 110 -160 45 -44
120 -137 120 -148 0 -6 4 -12 8 -14 12 -4 72 -95 72 -107 0 -6 4 -11 8 -11 4
0 18 -19 30 -42 12 -24 32 -59 43 -78 24 -38 116 -207 139 -255 8 -16 17 -32
20 -35 5 -5 177 -350 259 -520 75 -155 119 -229 163 -272 35 -35 66 -36 74 -3
9 37 -21 120 -155 418 -11 23 -38 85 -61 137 -128 293 -319 675 -413 825 -98
157 -146 225 -191 271 -87 88 -151 106 -200 58z"/>
</g>
</svg>
