<?xml version="1.0" standalone="no"?>
<!DOCTYPE svg PUBLIC "-//W3C//DTD SVG 20010904//EN"
 "http://www.w3.org/TR/2001/REC-SVG-20010904/DTD/svg10.dtd">
<svg version="1.0" xmlns="http://www.w3.org/2000/svg"
 width="700.000000pt" height="700.000000pt" viewBox="0 0 700.000000 700.000000"
 preserveAspectRatio="xMidYMid meet">
<metadata>
Created by potrace 1.11, written by Peter Selinger 2001-2013
</metadata>
<g transform="translate(0.000000,700.000000) scale(0.100000,-0.100000)"
fill="#000000" stroke="none">
<path d="M3617 6657 c-3 -8 24 -37 66 -71 109 -88 259 -237 359 -356 43 -52
168 -233 168 -244 0 -3 13 -27 28 -53 47 -80 122 -275 138 -357 2 -12 6 -32 9
-46 3 -14 7 -35 9 -47 6 -27 16 -173 18 -228 0 -23 11 -58 25 -83 35 -62 175
-200 348 -342 212 -174 316 -283 366 -384 22 -45 41 -91 43 -102 3 -12 9 -38
15 -59 10 -38 8 -284 -3 -365 -8 -57 -46 -202 -93 -352 -19 -64 -33 -124 -29
-134 6 -16 8 -15 27 2 34 30 164 231 216 334 84 163 126 271 168 423 28 102
28 106 40 177 4 25 9 53 11 63 16 89 21 309 10 428 -30 308 -140 612 -321 889
-240 368 -572 634 -987 789 -255 96 -614 163 -631 118z"/>
<path d="M3417 6654 c-1 -1 -56 -4 -122 -8 -66 -3 -131 -8 -145 -10 -14 -3
-47 -7 -75 -10 -27 -3 -75 -10 -105 -16 -30 -6 -71 -13 -90 -16 -125 -19 -435
-113 -575 -174 -552 -239 -954 -545 -1297 -987 -312 -403 -501 -826 -614
-1378 -2 -11 -7 -42 -10 -70 -3 -27 -7 -52 -9 -55 -19 -30 -28 -615 -12 -770
7 -72 9 -90 23 -170 130 -758 499 -1403 1090 -1911 55 -47 188 -145 279 -206
97 -65 282 -173 295 -173 4 0 27 -11 52 -25 165 -92 492 -207 738 -259 113
-24 136 -28 235 -41 28 -4 61 -9 75 -11 146 -24 547 -21 744 7 77 10 86 14 86
35 0 11 -19 14 -92 15 -51 0 -100 2 -108 3 -8 2 -41 6 -72 9 -106 12 -255 47
-398 93 -169 55 -480 226 -585 321 -11 10 -36 31 -55 47 -235 191 -475 512
-596 798 -64 151 -128 361 -139 458 -1 8 -8 47 -14 86 -15 86 -20 311 -10 397
5 34 11 84 14 111 23 185 124 446 247 638 52 82 161 220 179 226 4 2 -8 -27
-29 -65 -45 -83 -60 -115 -106 -228 -124 -300 -146 -737 -56 -1090 143 -556
526 -1009 1004 -1185 46 -16 125 -39 175 -50 111 -25 133 -18 94 26 -23 25
-65 79 -141 180 -259 345 -427 716 -483 1069 -14 89 -18 384 -6 485 25 206
136 487 276 694 120 177 247 314 476 511 279 240 417 382 537 552 342 484 338
1029 -12 1548 -116 172 -320 392 -493 534 -68 55 -85 64 -123 66 -24 1 -45 1
-47 -1z"/>
<path d="M4659 4364 c-86 -13 -191 -46 -328 -103 -98 -41 -219 -79 -278 -87
-26 -3 -51 -11 -54 -16 -10 -15 29 -76 52 -83 32 -11 57 -1 280 109 210 105
310 143 427 166 34 7 61 15 59 17 -10 9 -79 8 -158 -3z"/>
<path d="M4677 3825 c-21 -18 -57 -42 -80 -53 -70 -33 -121 -40 -398 -57 -105
-7 -143 -17 -147 -37 -4 -21 17 -29 113 -42 32 -4 68 -10 80 -12 157 -31 253
-33 375 -9 39 7 141 47 178 68 44 26 39 50 -13 57 l-40 5 -3 58 c-4 67 -12 70
-65 22z"/>
<path d="M3282 3687 c-12 -13 -22 -26 -22 -30 0 -11 108 -8 115 3 5 8 -49 50
-66 50 -3 0 -15 -10 -27 -23z"/>
<path d="M3600 2562 c-25 -8 -143 -54 -187 -73 -23 -11 -47 -19 -52 -19 -29 0
-12 -23 119 -163 91 -98 99 -102 218 -103 144 -1 170 12 273 136 29 36 64 75
76 88 13 13 23 26 23 30 0 4 -57 30 -127 59 l-127 51 -51 -20 c-50 -19 -52
-19 -101 0 -27 10 -56 16 -64 14z"/>
<path d="M4569 2443 c-66 -120 -153 -247 -234 -343 -56 -66 -211 -215 -255
-245 -25 -16 -47 -33 -50 -37 -14 -19 -188 -98 -237 -108 -117 -25 -226 11
-388 125 -33 24 -71 53 -85 65 -105 91 -187 173 -287 287 -106 122 -133 144
-133 109 0 -29 57 -195 109 -321 56 -134 181 -345 290 -488 102 -134 147 -181
167 -173 14 5 15 9 2 29 -8 12 -41 67 -73 122 -32 55 -68 116 -80 135 -26 41
-125 241 -125 252 0 12 31 -3 90 -42 173 -116 312 -183 398 -193 62 -7 167 16
247 54 39 19 75 37 80 41 6 4 44 32 85 63 203 149 429 432 520 652 29 69 31
93 10 93 -5 0 -28 -35 -51 -77z"/>
<path d="M4479 2148 c0 -7 -2 -22 -5 -33 -9 -42 -5 -264 6 -345 23 -175 69
-301 160 -434 59 -87 81 -148 81 -224 -1 -155 -124 -352 -311 -494 -26 -20
-32 -29 -24 -38 25 -26 229 104 323 206 88 95 131 196 133 306 3 137 -29 220
-148 395 -36 52 -74 115 -85 141 -12 26 -27 61 -35 78 -29 66 -55 203 -60 314
-6 126 -8 140 -24 140 -5 0 -10 -6 -11 -12z"/>
</g>
</svg>
