<?xml version="1.0" encoding="UTF-8" standalone="no"?>
<!-- Created with Inkscape (http://www.inkscape.org/) -->

<svg
   xmlns:dc="http://purl.org/dc/elements/1.1/"
   xmlns:cc="http://creativecommons.org/ns#"
   xmlns:rdf="http://www.w3.org/1999/02/22-rdf-syntax-ns#"
   xmlns:svg="http://www.w3.org/2000/svg"
   xmlns="http://www.w3.org/2000/svg"
   xmlns:sodipodi="http://sodipodi.sourceforge.net/DTD/sodipodi-0.dtd"
   xmlns:inkscape="http://www.inkscape.org/namespaces/inkscape"
   version="1.1"
   id="svg2"
   width="512"
   height="448"
   viewBox="0 0 512 448"
   sodipodi:docname="SchriftzugKleinWeiß.svg"
   inkscape:version="0.92.1 r15371">
  <metadata
     id="metadata8">
    <rdf:RDF>
      <cc:Work
         rdf:about="">
        <dc:format>image/svg+xml</dc:format>
        <dc:type
           rdf:resource="http://purl.org/dc/dcmitype/StillImage" />
        <dc:title></dc:title>
      </cc:Work>
    </rdf:RDF>
  </metadata>
  <defs
     id="defs6" />
  <sodipodi:namedview
     pagecolor="#ffffff"
     bordercolor="#666666"
     borderopacity="1"
     objecttolerance="10"
     gridtolerance="10"
     guidetolerance="10"
     inkscape:pageopacity="0"
     inkscape:pageshadow="2"
     inkscape:window-width="3840"
     inkscape:window-height="2071"
     id="namedview4"
     showgrid="false"
     inkscape:zoom="1.9296875"
     inkscape:cx="297.26339"
     inkscape:cy="37.560035"
     inkscape:window-x="-10"
     inkscape:window-y="-10"
     inkscape:window-maximized="1"
     inkscape:current-layer="svg2" />
  <path
     style="fill:#fdfffc;stroke-width:1.13885427;fill-opacity:1"
     d="m 384.63909,83.2274 2.65019,-2.183889"
     id="path4496"
     inkscape:connector-curvature="0" />
  <path
     style="fill:#fdfffc;stroke-width:1.57123172;fill-opacity:1"
     d="m 242.66154,170.70061 -21.86575,1.11772 c -28.06431,1.43457 -35.27813,-0.0549 -42.46004,-7.04172 -6.15865,-5.99135 -6.3889,-14.23939 -0.69645,-24.94886 8.10655,-15.25125 49.6809,-50.936357 87.84584,-75.402007 51.46782,-32.993437 96.04488,-48.505249 96.015,-33.41107 -0.013,6.894392 -10.6929,18.009901 -41.23736,42.921916 -28.81439,23.500983 -36.70497,30.861301 -36.81648,34.342261 -0.0876,2.73496 10.24299,4.01226 24.1743,2.98898 6.8124,-0.50038 27.03379,-3.74702 44.93643,-7.21475 20.87354,-4.04322 45.99722,-6.736978 52.09642,-7.068066 6.09921,-0.331099 14.79353,-0.487521 17.31136,4.663836 2.12694,4.35163 1.9772,11.31558 1.33095,15.16795 -1.40566,8.37917 -5.63278,14.6777 -10.50681,21.06474 -4.87403,6.38705 -18.3701,21.16839 -36.82698,39.1057 -18.45689,17.93732 -55.61082,52.64368 -82.56435,77.12526 -47.93859,43.54208 -41.70235,37.69987 -60.97797,57.92103 -6.90798,7.24686 -19.54385,22.6701 -19.54385,22.6701 -2.70785,3.22915 -3.96429,4.82191 -8.27683,11.11301 -6.82513,9.95638 -19.30324,33.01231 -18.34831,33.90234 0.82628,0.77013 13.08567,-13.27267 17.05625,-19.53752 2.66916,-4.21141 7.38121,-5.55304 9.3064,-2.64976 1.11829,1.68647 -8.89569,16.1562 -19.14113,27.65807 -6.96367,7.8176 -12.75591,10.23729 -16.87634,7.05006 -3.95007,-3.05547 -1.97963,-11.54073 6.40017,-27.56086 4.02971,-7.70381 15.95372,-26.43455 25.88722,-38.37621 30.62963,-36.82168 27.96474,-31.60999 103.06941,-101.5333 91.71807,-85.3906 102.06232,-96.41836 103.86705,-110.73014 0.60862,-4.82628 0.1137,-7.41277 -1.63856,-9.10137 -2.50304,-2.41207 -24.02642,-0.29823 -56.74157,6.08845 -55.23131,10.78231 -80.21909,10.85422 -83.0776,0.23906 -2.0177,-7.49271 5.17361,-15.040324 47.429,-49.778994 10.80042,-8.879147 22.10614,-19.049416 25.12382,-22.600595 l 5.48672,-6.456721 -6.43228,1.105606 c -28.88474,4.964822 -98.73351,48.260972 -138.2171,85.674624 -10.611,10.05472 -9.43514,8.54906 -13.42406,13.39865 -2.99423,3.6403 -4.21813,4.8499 -7.80412,11.68129 -5.02194,9.5668 -4.59021,14.61329 1.57215,18.3766 4.21888,2.57642 12.95842,3.15166 38.80939,2.5544 l 13.38533,-0.30925 c 0,0 11.18209,-0.73918 11.30872,2.9031 0.10204,2.93726 -8.93799,2.88644 -8.93799,2.88644 z"
     id="path4488"
     inkscape:connector-curvature="0"
     sodipodi:nodetypes="cscsscsccsssscssscccccccssscssssscsssccscac" />
  <path
     style="color:#000000;font-style:normal;font-variant:normal;font-weight:normal;font-stretch:normal;font-size:medium;line-height:normal;font-family:sans-serif;font-variant-ligatures:normal;font-variant-position:normal;font-variant-caps:normal;font-variant-numeric:normal;font-variant-alternates:normal;font-feature-settings:normal;text-indent:0;text-align:start;text-decoration:none;text-decoration-line:none;text-decoration-style:solid;text-decoration-color:#000000;letter-spacing:normal;word-spacing:normal;text-transform:none;writing-mode:lr-tb;direction:ltr;text-orientation:mixed;dominant-baseline:auto;baseline-shift:baseline;text-anchor:start;white-space:normal;shape-padding:0;clip-rule:nonzero;display:inline;overflow:visible;visibility:visible;opacity:1;isolation:auto;mix-blend-mode:normal;color-interpolation:sRGB;color-interpolation-filters:linearRGB;solid-color:#000000;solid-opacity:1;vector-effect:none;fill:#fdfffc;fill-opacity:1;fill-rule:nonzero;stroke:none;stroke-width:2.50547934;stroke-linecap:butt;stroke-linejoin:miter;stroke-miterlimit:4;stroke-dasharray:none;stroke-dashoffset:0;stroke-opacity:1;color-rendering:auto;image-rendering:auto;shape-rendering:auto;text-rendering:auto;enable-background:accumulate"
     d="m 175.53074,65.680138 c -26.12901,12.308263 -57.37065,40.000692 -85.116006,75.262242 -17.239659,21.90987 -28.460932,38.76092 -34.043289,51.52648 -2.791179,6.38279 -4.185097,11.75452 -4.137244,16.29318 0.04785,4.53868 1.625078,8.26897 4.631044,10.9548 2.728584,2.43799 5.838856,4.03736 9.94718,4.87128 4.108325,0.8339 9.21049,0.94801 16.166388,0.56275 17.902457,-0.99157 34.095747,-5.8127 74.993107,-22.24992 12.82126,-5.15305 19.8093,-7.92717 23.50667,-9.19091 1.33235,-0.45539 1.79117,-0.52042 2.31329,-0.62503 -0.0769,0.19392 -0.0356,0.15849 -0.16683,0.40927 -0.41508,0.7936 -1.07686,1.87269 -1.98854,3.21637 -1.82334,2.68737 -4.64344,6.44322 -8.53695,11.36185 -7.78704,9.83727 -19.87715,24.33243 -37.03057,44.43979 -40.839909,47.87285 -53.04567,62.84423 -72.946719,89.46456 -23.796671,31.83124 -31.968536,45.76041 -33.378217,57.75459 -0.515737,4.38812 -0.03743,8.08309 1.610411,11.046 1.506667,2.70906 4.079344,4.63179 7.353618,5.97009 v 0.14903 l 0.836345,0.29583 c 7.361744,2.60722 15.029966,2.28458 28.017594,-1.00761 29.050232,-7.36387 59.550688,-23.78256 127.075668,-68.26453 15.68732,-10.33401 36.54036,-24.9739 55.19885,-36.75475 34.24525,-21.62224 19.21723,-13.75659 104.15844,-62.28331 85.3938,-48.7853 104.21135,-60.2319 116.14979,-70.79804 2.18047,-1.92982 3.59609,-3.33838 4.49536,-4.71112 0.89928,-1.37274 1.20529,-2.79784 1.04321,-4.19507 -0.22974,-1.98055 -1.47702,-3.59222 -3.2831,-4.24624 -1.80609,-0.65401 -4.03705,-0.54593 -6.69967,0.12235 -1.10018,0.27612 -1.98659,0.72277 -2.63805,1.33681 -0.65146,0.61405 -1.07696,1.4497 -1.02096,2.33999 0.056,0.89029 0.62045,1.69202 1.3813,2.16205 0.76086,0.47001 1.71326,0.68732 2.83825,0.68731 0.0901,0 0.11024,0.006 0.19351,0.007 -1.17545,1.32756 -3.77455,3.52437 -8.02092,6.52617 -4.43795,3.13725 -10.47563,7.09065 -18.05707,11.82674 -15.16287,9.47217 -36.50776,22.07391 -63.70688,37.59554 -18.16477,10.36602 -45.58258,26.01357 -60.9287,34.77286 -38.90029,22.20359 -30.61712,17.69382 -59.87882,35.93619 l -0.0201,0.0133 -0.02,0.0133 c 0,0 -14.14969,9.60192 -21.26677,14.29351 -30.11227,19.84998 -49.56346,33.33034 -90.80361,58.69326 -26.82417,16.497 -50.708026,28.30183 -69.011899,34.53709 -9.151937,3.11762 -16.91133,4.83679 -22.874955,5.08258 -5.963626,0.24579 -9.993292,-0.98913 -12.073635,-3.40767 -1.13955,-1.32481 -1.627831,-2.08489 -1.839516,-3.00506 -0.211685,-0.92017 -0.147992,-2.20032 0.184619,-4.45087 1.393926,-9.43173 11.312477,-26.36437 32.753181,-54.82516 19.602348,-26.0205 34.401445,-44.0173 77.199635,-93.87985 21.89838,-25.51299 34.45571,-40.68979 40.61617,-50.02062 3.08023,-4.6654 4.62242,-7.83764 4.80676,-10.4432 0.0921,-1.30278 -0.22898,-2.50589 -0.93644,-3.41878 -0.70745,-0.9129 -1.7087,-1.50457 -2.84713,-1.93739 -1.13037,-0.42977 -2.38137,-0.69104 -3.94373,-0.60279 -1.56236,0.0883 -3.44021,0.49187 -6.07908,1.299 -5.27772,1.61427 -13.63849,4.87219 -28.41797,10.7902 -38.23806,15.31131 -57.670749,20.67792 -73.705224,20.52829 -4.805856,-0.0449 -8.652661,-0.62699 -11.386316,-1.63487 -2.733656,-1.0079 -4.278414,-2.37401 -4.89129,-3.98599 -0.76831,-2.02082 -0.702696,-5.1067 0.433744,-9.15533 1.13644,-4.04862 3.308321,-9.02693 6.492804,-14.82957 6.368962,-11.60525 16.782036,-26.50971 30.991521,-44.23069 27.730391,-34.58327 58.480951,-61.135588 81.683871,-70.811377 6.84593,-2.854802 13.22386,-4.236605 17.82796,-4.201749 2.30204,0.01742 4.14767,0.399726 5.35172,1.016516 1.20407,0.61679 1.76364,1.338032 1.91515,2.406719 0.32324,2.280096 2.03786,3.833164 3.93705,4.08386 1.8992,0.250696 3.96614,-0.736452 5.06479,-2.789302 1.20872,-2.25852 1.36664,-4.685331 0.45599,-6.764172 -0.91065,-2.07884 -2.80617,-3.748676 -5.39177,-4.829009 -3.33531,-1.393472 -9.83203,-2.031347 -14.76816,-1.628348 -6.81985,0.556791 -11.11621,1.453681 -19.76886,5.52958 z"
     id="path4510"
     inkscape:connector-curvature="0"
     sodipodi:nodetypes="sssssccsscccssssccccssssccccccsccccsssccccssscssssccccccscccsssscccssscas" />
  <path
     style="color:#000000;font-style:normal;font-variant:normal;font-weight:normal;font-stretch:normal;font-size:medium;line-height:normal;font-family:sans-serif;font-variant-ligatures:normal;font-variant-position:normal;font-variant-caps:normal;font-variant-numeric:normal;font-variant-alternates:normal;font-feature-settings:normal;text-indent:0;text-align:start;text-decoration:none;text-decoration-line:none;text-decoration-style:solid;text-decoration-color:#000000;letter-spacing:normal;word-spacing:normal;text-transform:none;writing-mode:lr-tb;direction:ltr;text-orientation:mixed;dominant-baseline:auto;baseline-shift:baseline;text-anchor:start;white-space:normal;shape-padding:0;clip-rule:nonzero;display:inline;overflow:visible;visibility:visible;opacity:1;isolation:auto;mix-blend-mode:normal;color-interpolation:sRGB;color-interpolation-filters:linearRGB;solid-color:#000000;solid-opacity:1;vector-effect:none;fill:#fdfffc;fill-opacity:1;fill-rule:nonzero;stroke:none;stroke-width:0.69999999;stroke-linecap:butt;stroke-linejoin:round;stroke-miterlimit:4;stroke-dasharray:none;stroke-dashoffset:0;stroke-opacity:1;paint-order:normal;color-rendering:auto;image-rendering:auto;shape-rendering:auto;text-rendering:auto;enable-background:accumulate"
     d="m 236.28906,115.97461 c -1.24442,-0.10259 -2.36711,0.30904 -3.20312,0.97656 -0.83596,0.66749 -1.48658,1.67253 -1.66211,2.90821 -0.18147,1.27771 0.24225,2.58458 0.94726,3.4707 0.0154,0.0197 0.0238,0.0279 0.0312,0.0352 0.003,0.004 0.005,0.006 0.008,0.01 9.9e-4,9.4e-4 0.008,0.008 0.008,0.008 -0.0393,-0.0393 -0.0227,-0.0207 0.008,0.01 3.606,4.42977 6.62124,6.81435 9.3418,10.52539 5.01553,6.84154 10.46128,16.1815 13.30859,21.65234 2.82795,5.47583 6.52704,12.24468 9.26367,17.83985 1.78117,3.64169 3.51264,7.30011 5.32032,10.93164 2.05676,4.13195 3.89972,8.41383 6.31445,12.40039 1.39256,2.29903 1.98027,3.82 4.76562,6.69336 4.6e-4,4.7e-4 -4.5e-4,0.001 0,0.002 a 0.35003499,0.35003499 0 0 0 0.19922,0.10156 c 0.36089,0.31005 0.7442,0.55351 1.13477,0.58399 0.45927,0.0358 0.89914,-0.12604 1.23633,-0.41993 0.67438,-0.58777 0.96989,-1.67468 0.59961,-2.86523 -0.89438,-2.87566 -1.81732,-5.00517 -2.82032,-7.44727 -1.81806,-4.42667 -3.59843,-8.0306 -5.80468,-13.09374 -1.60329,-3.67937 -3.68258,-8.61668 -4.85938,-11.06836 -2.68127,-5.6382 -5.15201,-11.38605 -8.05273,-16.95899 a 0.35003499,0.35003499 0 0 0 -0.0117,-0.0176 0.35003499,0.35003499 0 0 0 -0.006,-0.0117 c -0.6073,-1.17905 -1.15232,-2.41526 -1.79883,-3.64257 -2.51874,-4.7815 -6.89676,-13.13603 -11.02344,-19.35157 -2.37008,-3.56979 -4.62154,-7.4893 -8.00781,-10.41211 -0.62983,-0.54359 -1.41836,-1.24247 -2.47851,-1.87695 -1.06973,-0.64021 -2.03232,-0.92253 -2.75782,-0.98242 z"
     id="path4532" />
  <path
     style="color:#000000;font-style:normal;font-variant:normal;font-weight:normal;font-stretch:normal;font-size:medium;line-height:normal;font-family:sans-serif;font-variant-ligatures:normal;font-variant-position:normal;font-variant-caps:normal;font-variant-numeric:normal;font-variant-alternates:normal;font-feature-settings:normal;text-indent:0;text-align:start;text-decoration:none;text-decoration-line:none;text-decoration-style:solid;text-decoration-color:#000000;letter-spacing:normal;word-spacing:normal;text-transform:none;writing-mode:lr-tb;direction:ltr;text-orientation:mixed;dominant-baseline:auto;baseline-shift:baseline;text-anchor:start;white-space:normal;shape-padding:0;clip-rule:nonzero;display:inline;overflow:visible;visibility:visible;opacity:1;isolation:auto;mix-blend-mode:normal;color-interpolation:sRGB;color-interpolation-filters:linearRGB;solid-color:#000000;solid-opacity:1;vector-effect:none;fill:#fdfffc;fill-opacity:1;fill-rule:nonzero;stroke:none;stroke-width:0.70000005;stroke-linecap:butt;stroke-linejoin:round;stroke-miterlimit:4;stroke-dasharray:none;stroke-dashoffset:0;stroke-opacity:1;paint-order:normal;color-rendering:auto;image-rendering:auto;shape-rendering:auto;text-rendering:auto;enable-background:accumulate"
     d="m 292.87305,204.93555 a 0.35003502,0.35003502 0 0 0 0.0918,0.28711 c -0.0784,0.0183 -0.17695,-0.0382 -0.25586,-0.0859 -0.002,-0.0431 -0.0117,-0.0836 -0.0137,-0.12695 z"
     id="path4514" />
</svg>
