<?xml version="1.0" encoding="UTF-8" standalone="no"?>
<!-- Created with Inkscape (http://www.inkscape.org/) -->

<svg
   xmlns:dc="http://purl.org/dc/elements/1.1/"
   xmlns:cc="http://creativecommons.org/ns#"
   xmlns:rdf="http://www.w3.org/1999/02/22-rdf-syntax-ns#"
   xmlns:svg="http://www.w3.org/2000/svg"
   xmlns="http://www.w3.org/2000/svg"
   xmlns:sodipodi="http://sodipodi.sourceforge.net/DTD/sodipodi-0.dtd"
   xmlns:inkscape="http://www.inkscape.org/namespaces/inkscape"
   width="1000"
   height="1000"
   viewBox="0 0 264.58333 264.58334"
   version="1.1"
   id="svg8"
   inkscape:version="0.92.1 r15371"
   sodipodi:docname="Title.svg">
  <defs
     id="defs2">
    <inkscape:path-effect
       effect="sketch"
       id="path-effect4701"
       is_visible="true"
       nbiter_approxstrokes="5"
       strokelength="100"
       strokelength_rdm="0.3;1"
       strokeoverlap="0.3"
       strokeoverlap_rdm="0.3;1"
       ends_tolerance="0.1;1"
       parallel_offset="5;1"
       tremble_size="5;1"
       tremble_frequency="1"
       nbtangents="5"
       tgt_places_rdmness="1;1"
       tgtscale="10"
       tgtlength="100"
       tgtlength_rdm="0.3;1" />
  </defs>
  <sodipodi:namedview
     id="base"
     pagecolor="#ffffff"
     bordercolor="#666666"
     borderopacity="1.0"
     inkscape:pageopacity="0.0"
     inkscape:pageshadow="2"
     inkscape:zoom="1.3703468"
     inkscape:cx="421.29661"
     inkscape:cy="501.11776"
     inkscape:document-units="mm"
     inkscape:current-layer="g4718"
     showgrid="false"
     units="px"
     inkscape:window-width="3840"
     inkscape:window-height="2071"
     inkscape:window-x="-10"
     inkscape:window-y="-10"
     inkscape:window-maximized="1" />
  <metadata
     id="metadata5">
    <rdf:RDF>
      <cc:Work
         rdf:about="">
        <dc:format>image/svg+xml</dc:format>
        <dc:type
           rdf:resource="http://purl.org/dc/dcmitype/StillImage" />
        <dc:title />
      </cc:Work>
    </rdf:RDF>
  </metadata>
  <g
     inkscape:label="Layer 1"
     inkscape:groupmode="layer"
     id="layer1"
     transform="translate(0,-32.41665)">
    <g
       id="g4718"
       transform="translate(7.2667007,-35.419735)"
       style="fill:#ecebe4;fill-opacity:1;stroke:#ecebe4;stroke-opacity:1">
      <g
         aria-label="
Michaela Lachenmaier"
         transform="matrix(0.26458333,0,0,0.26458333,-6.6269865,93.703941)"
         style="font-style:normal;font-variant:normal;font-weight:normal;font-stretch:normal;font-size:40px;line-height:1.25;font-family:'MV Boli';-inkscape-font-specification:'MV Boli';letter-spacing:0px;word-spacing:0px;fill:#ecebe4;fill-opacity:1;stroke:#ecebe4;stroke-opacity:1"
         id="flowRoot4485">
        <path
           d="m 159.48436,426.08864 q -0.16666,1.25 -0.79166,2.04167 -0.625,0.79166 -1.5,1.25 -0.875,0.45833 -1.875,0.66666 -1,0.16667 -1.91667,0.16667 -1.08333,0 -2.125,-0.20833 -1,-0.25 -1.79167,-0.70834 -0.79166,-0.5 -1.25,-1.16666 -0.45833,-0.70834 -0.45833,-1.58334 0,-1.70833 0.16667,-3.125 0.16666,-1.45833 0.5,-2.91667 1.16666,-4.875 2.04166,-9.04166 0.875,-4.20834 1.5,-7.95834 0.625,-3.75 1.08334,-7.25 0.45833,-3.54166 0.79166,-7.08333 0.375,-3.58333 0.66667,-7.375 0.29167,-3.79167 0.625,-8.125 0,-0.375 0,-0.95833 0,-0.58334 -0.125,-1.08334 -0.125,-0.54166 -0.45833,-0.91666 -0.29167,-0.375 -0.91667,-0.375 -1,0 -2.45833,0.70833 -1.41667,0.66667 -3,1.83333 -1.58334,1.16667 -3.16667,2.75 -1.58333,1.54167 -2.91667,3.33334 -0.25,0.625 -0.79166,0.91666 -0.54167,0.25 -1.20834,0.25 -0.20833,0 -0.41666,-0.33333 -0.25,-0.375 -0.41667,-0.875 -0.20833,-0.5 -0.33333,-1.04167 -0.125,-0.58333 -0.125,-1.04166 0,-0.25 0.16666,-0.41667 1.5,-4.91667 3.375,-8.20833 1.91667,-3.33334 4,-5.29167 2.125,-2 4.29167,-2.83333 2.20833,-0.83334 4.20833,-0.83334 2.58334,0 4.29167,1 1.70833,0.95834 2.70833,2.75 1,1.75 1.375,4.25 0.41667,2.5 0.41667,5.54167 0,2.33333 -0.375,5.45833 -0.375,3.125 -0.95833,6.58334 -0.54167,3.41666 -1.20834,6.875 -0.66666,3.45833 -1.29166,6.45833 1.33333,-5.54167 3.125,-10.625 1.83333,-5.125 3.95833,-9.54167 2.16667,-4.45833 4.58333,-8.04166 2.41667,-3.625 4.95834,-6.20834 2.58333,-2.58333 5.20833,-4 2.625,-1.41666 5.20834,-1.41666 1.91666,0 3.54166,0.83333 1.625,0.83333 2.79167,2.58333 1.16667,1.75 1.79167,4.41667 0.66666,2.66667 0.66666,6.33333 0,0.33334 -0.0833,1.04167 -0.0417,0.70833 -0.16667,1.625 -0.0833,0.91667 -0.25,2 -0.125,1.04167 -0.25,2.08333 -0.33333,2.5 -0.70833,5.41667 l 0.875,-0.0417 q 1.625,-6.16666 4,-11.08333 2.375,-4.91667 5.33333,-8.33333 2.95834,-3.45834 6.375,-5.29167 3.41667,-1.83333 7.08334,-1.83333 2.54166,0 4.5,1.5 2,1.5 3.33333,4.08333 1.33333,2.54167 2.04167,6 0.70833,3.41667 0.70833,7.25 0,3.58333 -0.5,7.375 -0.45833,3.75 -1.16667,7.45833 -0.70833,3.66667 -1.54166,7.20834 -0.79167,3.54166 -1.5,6.70833 -0.70834,3.16667 -1.20834,5.875 -0.45833,2.66667 -0.45833,4.625 0,2.45833 0.875,3.58333 0.91667,1.08334 2.625,1.08334 0.95833,0 2,-0.5 1.08333,-0.54167 2.125,-1.375 1.08333,-0.875 2.125,-1.95834 1.04167,-1.125 2,-2.29166 2.20833,-2.66667 4.375,-6.125 0,0.0417 0.375,0.875 0.29167,0.70833 0.95833,2.41666 0.66667,1.70834 1.875,4.91667 -2.08333,3.66667 -4.29166,6.20833 -2.20834,2.54167 -4.5,4.16667 -2.29167,1.58334 -4.66667,2.29167 -2.33333,0.70833 -4.66667,0.70833 -2.25,0 -4.41666,-0.79166 -2.125,-0.79167 -3.79167,-2.33334 -1.66667,-1.58333 -2.66667,-3.875 -1,-2.33333 -1,-5.33333 0,-0.33334 0,-0.70834 0.0417,-0.375 0.0833,-0.75 0.16666,-2.79166 0.70833,-5.91666 0.54167,-3.16667 1.20833,-6.5 0.70834,-3.33334 1.45834,-6.79167 0.75,-3.45833 1.375,-6.875 0.625,-3.45833 1.04166,-6.79167 0.41667,-3.375 0.41667,-6.45833 0,-1.875 -0.125,-3.375 -0.125,-1.54167 -0.5,-2.58333 -0.375,-1.08334 -1.08333,-1.66667 -0.70834,-0.58333 -1.875,-0.58333 -2.20834,0 -4.16667,1.54166 -1.95833,1.54167 -3.70833,4.25 -1.75,2.70834 -3.29167,6.41667 -1.5,3.70833 -2.875,8.04167 -1.33333,4.29166 -2.5,9.04166 -1.16667,4.70834 -2.16667,9.5 -1,4.79167 -1.875,9.45834 -0.875,4.66666 -1.625,8.83333 -0.33333,1.16667 -1.04166,2 -0.66667,0.79167 -1.58334,1.29167 -0.875,0.5 -1.875,0.75 -1,0.20833 -2,0.20833 -0.875,0 -1.75,-0.33333 -0.83333,-0.33333 -1.5,-1.04167 -0.625,-0.75 -1.04167,-1.875 -0.375,-1.125 -0.375,-2.75 0,-1.08333 0.5,-3.70833 0.5,-2.66667 1.25,-6.33334 0.79167,-3.70833 1.66667,-8.08333 0.91667,-4.41667 1.66667,-8.95833 0.79167,-4.58334 1.29167,-9.04167 0.5,-4.45833 0.5,-8.20833 0,-2.58334 -0.125,-4.625 -0.125,-2.04167 -0.58334,-3.45834 -0.45833,-1.41666 -1.33333,-2.16666 -0.83334,-0.75 -2.25,-0.75 -1.16667,0 -2.66667,1.58333 -1.5,1.58333 -3.25,4.375 -1.70833,2.79167 -3.54167,6.58333 -1.83333,3.75 -3.66666,8.125 -1.79167,4.375 -3.5,9.16667 -1.66667,4.75 -3.08334,9.54167 -1.41666,4.75 -2.5,9.33333 -1.08333,4.54167 -1.625,8.54167 z"
           style="font-style:normal;font-variant:normal;font-weight:normal;font-stretch:normal;font-size:192px;line-height:0.5;font-family:Pacifico;-inkscape-font-specification:Pacifico;text-align:center;text-anchor:middle;fill:#ecebe4;fill-opacity:1;stroke:#ecebe4;stroke-opacity:1"
           id="path4496" />
        <path
           d="m 261.98437,421.29697 q -1.5,1.375 -3.75,2.95834 -2.20833,1.54166 -4.79167,2.875 -2.58333,1.29166 -5.29166,2.16666 -2.66667,0.875 -5.08334,0.875 -2.16666,0 -3.66666,-0.58333 -1.45834,-0.625 -2.375,-1.70833 -0.91667,-1.08334 -1.33334,-2.625 -0.375,-1.58334 -0.375,-3.45834 0,-2.625 0.58334,-6.125 1.16666,-6.75 1.5,-7.58333 0.58333,-1.83334 2.33333,-8.125 1.41667,-5.25 1.75,-6.83334 0.20833,-1.04166 1.16667,-1.875 0.875,-0.75 1.95833,-1.20833 1.125,-0.5 2.29167,-0.70833 1.20833,-0.25 2.16666,-0.25 1.75,0 2.375,0.66666 0.625,0.625 0.625,1.70834 0,0.91666 -0.41666,2.66666 -0.41667,1.70834 -1.04167,3.91667 -0.625,2.16667 -1.58333,5.25 -0.95834,3.04167 -1.58334,5.58333 -0.625,2.5 -1.04166,4.91667 -0.41667,2.375 -0.41667,4.29167 0,1.875 0.41667,3 0.41666,1.08333 1.70833,1.08333 1.5,0 3.33333,-1.04167 1.83334,-1.04166 3.70834,-2.5 1.875,-1.5 3.66666,-3.08333 1.79167,-1.58333 3.16667,-2.70833 z m -18.625,-43.66667 q 0,-0.95833 0.41667,-2.16666 0.41666,-1.20834 1.33333,-2.25 0.95833,-1.08334 2.5,-1.79167 1.58333,-0.75 3.91667,-0.75 1.45833,0 2.75,0.33333 1.29166,0.33334 2.25,1.04167 0.95833,0.66667 1.5,1.79167 0.58333,1.125 0.58333,2.66666 0,1.41667 -0.45833,2.75 -0.45834,1.33334 -1.45834,2.375 -1,1.04167 -2.54166,1.70834 -1.5,0.625 -3.625,0.625 -3.66667,0 -5.41667,-1.70834 -1.75,-1.75 -1.75,-4.625 z"
           style="font-style:normal;font-variant:normal;font-weight:normal;font-stretch:normal;font-size:85.33333588px;line-height:2.25;font-family:Pacifico;-inkscape-font-specification:Pacifico;text-align:center;text-anchor:middle;fill:#ecebe4;fill-opacity:1;stroke:#ecebe4;stroke-opacity:1"
           id="path4498" />
        <path
           d="m 272.02604,430.17197 q -3.83334,0 -6.75,-1.41666 -2.875,-1.41667 -4.83334,-3.79167 -1.95833,-2.375 -2.95833,-5.5 -1,-3.125 -1,-6.5 0,-2.41667 0.83333,-5.79167 0.83334,-3.375 1.79167,-5.875 1,-2.54167 2.41667,-4.83333 1.45833,-2.29167 3.33333,-4 1.91667,-1.75 4.25,-2.75 2.33333,-1.04167 5.125,-1.04167 2.375,0 4.375,0.75 2.04167,0.70833 3.45833,2 1.45834,1.29167 2.25,3.08333 0.83334,1.75 0.83334,3.79167 0,1.41667 -0.375,2.79167 -0.375,1.375 -1.45834,3.25 -1.08333,1.83333 -2.125,2.5 -1,0.66666 -2.29166,0.66666 -2,0 -2.58334,-1.04166 -0.95833,-1.625 -0.58333,-2.875 0.125,-0.66667 0.75,-3.08334 0.0833,-0.33333 0.0417,-1.5 0,-1 -0.20834,-1.66666 -0.20833,-0.66667 -0.91666,-0.66667 -1.70834,0 -2.91667,0.83333 -1.20833,0.79167 -2.08333,2.125 -0.83334,1.29167 -1.66667,3.70834 -0.83333,2.375 -1.20833,4 -0.33334,1.625 -0.41667,3.125 -0.0833,1.45833 -0.0833,2.45833 0,1.5 0.25,3.125 0.29166,1.625 1.08333,3 0.83333,1.33333 2.125,2.25 1.29167,0.875 3.33333,0.875 2,0 4.41667,-1.20833 2.41667,-1.25 4.83333,-3.125 2.45834,-1.875 4.66667,-4.125 2.20833,-2.25 3.79167,-4.25 l 2.875,4.83333 q -3.125,4.45833 -6.75,7.95833 -1.54167,1.5 -3.375,2.91667 -1.79167,1.41667 -3.79167,2.54167 -1.95833,1.08333 -4.125,1.79167 -2.125,0.66666 -4.33333,0.66666 z"
           style="font-style:normal;font-variant:normal;font-weight:normal;font-stretch:normal;font-size:85.33333588px;line-height:2.25;font-family:Pacifico;-inkscape-font-specification:Pacifico;text-align:center;text-anchor:middle;fill:#ecebe4;fill-opacity:1;stroke:#ecebe4;stroke-opacity:1"
           id="path4500" />
        <path
           d="m 305.02604,404.2553 q 1.70833,-2.25 3.83333,-4.83333 2.125,-2.58333 5.66667,-5.95833 3.58333,-3.375 5.83333,-4.83334 2.29167,-1.5 4.29167,-1.5 0.5,0 1.125,0.20834 0.625,0.16666 1.16666,0.66666 0.58334,0.5 0.95834,1.41667 0.375,0.875 0.375,2.29167 0,2.83333 -0.79167,5.54166 -0.79167,2.66667 -3,6.5 -2.20833,3.83334 -3,6.625 -0.75,2.79167 -0.75,5.83334 0,1.66666 0.5,2.66666 0.5,1 1.29167,1 1,0 2.125,-0.41666 1.125,-0.41667 2.25,-1.08334 1.125,-0.66666 2.20833,-1.5 1.08333,-0.875 2.04167,-1.79166 2.29166,-2.125 4.5,-4.83334 l 0.70833,11.08334 q -0.75,0.58333 -1.91667,1.45833 -1.125,0.875 -2.54166,1.875 -1.375,0.95834 -3,1.95834 -1.625,1 -3.29167,1.79166 -1.625,0.75 -3.29167,1.25 -1.625,0.5 -3.125,0.5 -2.29166,0 -4,-1.20833 -1.66666,-1.25 -2.75,-3.125 -1.08333,-1.91667 -1.625,-4.16667 -0.54166,-2.25 -0.54166,-4.25 0,-1.33333 0.33333,-2.95833 0.375,-1.66667 0.875,-3.33334 0.54167,-1.66666 1.16667,-3.25 0.66666,-1.58333 1.20833,-2.83333 0.58333,-1.25 1,-2.04167 0.41667,-0.79166 0.54167,-0.91666 l -0.875,-0.125 q -0.70834,0.45833 -2.41667,2.33333 -1.66667,1.875 -3.79167,4.75 -2.125,2.83333 -4.41666,6.41667 -2.25,3.54166 -4.08334,7.33333 -0.91666,1.875 -1.5,3.29167 -0.58333,1.375 -1.16666,2.29167 -0.54167,0.875 -1.20834,1.33333 -0.66666,0.45833 -1.70833,0.45833 -1.375,0 -2.16667,-0.79166 -0.79166,-0.79167 -1.20833,-2.08334 -0.41667,-1.33333 -0.54167,-3 -0.125,-1.66667 -0.125,-3.41667 0,-2.79166 0.0417,-7.29166 0.0833,-4.54167 0.41667,-10.04167 0.33333,-5.5 0.95833,-11.58333 0.625,-6.08334 1.75,-12 1.16667,-5.95834 2.875,-11.33334 1.75,-5.41666 4.20833,-9.5 2.5,-4.125 5.83334,-6.54166 3.33333,-2.41667 7.66666,-2.41667 2.25,0 3.66667,0.66667 1.45833,0.66666 2.29167,1.875 0.875,1.20833 1.20833,2.91666 0.33333,1.66667 0.33333,3.75 0,3.08334 -0.875,6.83334 -0.875,3.75 -2.33333,7.79166 -1.41667,4.04167 -3.25,8.20834 -1.83333,4.125 -3.75,8.04166 -1.91667,3.875 -3.79167,7.33334 -1.83333,3.45833 -3.25,6.08333 z m 3.70833,-25.75 q 2.45833,-6.375 3.54167,-10.75 1.125,-4.375 1.125,-6.45833 0,-3.16667 -0.83334,-3.16667 -1.08333,0 -3.20833,3.54167 -2.125,3.54167 -5,10.29167 -0.70833,2.29166 -1.33333,4.75 -0.58334,2.45833 -1.08334,4.91666 -0.45833,2.41667 -0.875,4.79167 -0.375,2.33333 -0.66666,4.45833 -0.70834,4.95834 -1.08334,9.70834 1.125,-2.625 2.45834,-5.70834 1.33333,-3.08333 2.625,-6.08333 1.29166,-3.04167 2.41666,-5.70833 1.16667,-2.70834 1.91667,-4.58334 z"
           style="font-style:normal;font-variant:normal;font-weight:normal;font-stretch:normal;font-size:85.33333588px;line-height:2.25;font-family:Pacifico;-inkscape-font-specification:Pacifico;text-align:center;text-anchor:middle;fill:#ecebe4;fill-opacity:1;stroke:#ecebe4;stroke-opacity:1"
           id="path4502" />
        <path
           d="m 379.0677,419.96364 q -0.95833,1.33333 -2.58333,3.125 -1.58334,1.79167 -3.58334,3.41667 -2,1.625 -4.29167,2.75 -2.29166,1.125 -4.58333,1.125 -2.75,0 -4.58333,-1.75 -1.83334,-1.79167 -3.16667,-5.16667 -1,1.16667 -2.45833,2.375 -1.45834,1.20833 -3.20834,2.20833 -1.70833,0.95834 -3.58333,1.58334 -1.875,0.625 -3.75,0.625 -2,0 -3.91667,-0.79167 -1.875,-0.83333 -3.33333,-2.33333 -1.45833,-1.54167 -2.33333,-3.70834 -0.875,-2.20833 -0.875,-4.95833 0,-3.125 0.875,-6.41667 0.875,-3.29167 2.70833,-7.125 1.83333,-3.83333 3.91667,-6.625 2.125,-2.79167 4.625,-4.875 2.5,-2.08333 5.25,-3.29167 2.79166,-1.25 5.66666,-1.25 0.95834,0 1.5,0.375 0.54167,0.375 0.875,0.875 0.375,0.45834 0.70834,0.91667 0.33333,0.45833 0.83333,0.66667 0.5,0.20833 1,0.29166 0.54167,0.0417 1.08333,0.0417 0.45834,0 0.91667,0 0.5,-0.0417 0.95833,-0.0417 0.625,0 1.16667,0.125 0.54167,0.125 0.95833,0.54167 0.41667,0.41667 0.625,1.16667 0.25,0.75 0.25,2.04166 0,2 -0.41666,4.45834 -0.41667,2.41666 -0.91667,5 -0.5,2.54166 -1.20833,5.79166 -0.70834,3.25 -0.70834,5.54167 0,1.95833 0.33334,3.08333 0.375,1.08334 1.54166,1.08334 0.875,0 1.83334,-0.41667 0.95833,-0.45833 1.91666,-1.16667 1,-0.70833 1.95834,-1.58333 1,-0.91667 1.875,-1.875 2.04167,-2.25 4.125,-5.08333 z m -35.58334,-3.29167 q 0,1.04167 0.125,2.04167 0.16667,0.95833 0.54167,1.75 0.375,0.75 1,1.25 0.625,0.45833 1.58333,0.45833 1.54167,0 2.79167,-1.33333 1.25,-1.33334 2.16667,-3.20834 0.91666,-1.875 1.45833,-3.875 0.58333,-2 0.75,-3.33333 l 3.125,-13.625 q -1.70833,0 -3.33333,0.875 -1.625,0.83333 -3.08334,2.29167 -1.41666,1.45833 -2.625,3.33333 -1.20833,1.875 -2.375,4.625 -1.16666,2.75 -1.66666,4.83333 -0.45834,2.08334 -0.45834,3.91667 z"
           style="font-style:normal;font-variant:normal;font-weight:normal;font-stretch:normal;font-size:85.33333588px;line-height:2.25;font-family:Pacifico;-inkscape-font-specification:Pacifico;text-align:center;text-anchor:middle;fill:#ecebe4;fill-opacity:1;stroke:#ecebe4;stroke-opacity:1"
           id="path4504" />
        <path
           d="m 389.90104,430.17197 q -3.91667,0 -6.875,-1.41666 -2.91667,-1.41667 -4.875,-3.79167 -1.95833,-2.41667 -2.95833,-5.54167 -0.95834,-3.16667 -0.95834,-6.625 0,-2.33333 0.875,-5.54167 0.875,-3.25 1.79167,-5.75 0.95833,-2.5 2.375,-4.75 1.41667,-2.29166 3.29167,-4 1.91666,-1.75 4.25,-2.75 2.375,-1.04166 5.25,-1.04166 2.33333,0 4.33333,0.75 2,0.75 3.45833,2.125 1.5,1.33333 2.33334,3.25 0.83333,1.91666 0.83333,4.29166 0,2.58334 -1.70833,5.79167 -1.66667,3.20833 -3.91667,5.5 -2.25,2.29167 -5.375,4.08333 -3.08333,1.79167 -6.70833,2.79167 0.625,1.125 1.20833,1.875 0.625,0.75 1.25,1.16667 0.625,0.41666 1.29167,0.58333 0.70833,0.16667 1.5,0.16667 2.5,0 5.25,-1 2.79166,-1 5.41666,-2.5 2.625,-1.5 4.95834,-3.25 2.33333,-1.79167 3.95833,-3.375 l 5.375,5.58333 q -3.66666,3.79167 -7.79167,6.70833 -1.79166,1.25001 -3.875,2.45834 -2.04166,1.20833 -4.33333,2.16667 -2.25,0.91666 -4.70833,1.5 -2.41667,0.54166 -4.91667,0.54166 z m -5.54167,-19.58333 q 1.5,0 3.25,-0.75 1.79167,-0.79167 3.29167,-2 1.54167,-1.20834 3,-3.25 1.45833,-2.04167 1.45833,-3.375 0,-1.875 -0.70833,-3.08334 -0.66667,-1.20833 -1.66667,-1.20833 -1.79166,0 -3.08333,0.66667 -1.25,0.66666 -2.125,1.75 -0.83333,1.04166 -1.375,2.41666 -0.5,1.33334 -1.20833,3.33334 -0.66667,2 -0.75,3.29166 -0.0833,1.29167 -0.0833,2.20834 z"
           style="font-style:normal;font-variant:normal;font-weight:normal;font-stretch:normal;font-size:85.33333588px;line-height:2.25;font-family:Pacifico;-inkscape-font-specification:Pacifico;text-align:center;text-anchor:middle;fill:#ecebe4;fill-opacity:1;stroke:#ecebe4;stroke-opacity:1"
           id="path4506" />
        <path
           d="m 416.60937,430.17197 q -2.25,0 -4.20833,-1.95833 -1.91667,-2 -3.375,-5.33334 -1.41667,-3.33333 -2.25,-7.70833 -0.79167,-4.41667 -0.79167,-9.25 0,-3.70833 0.54167,-8.04167 0.54167,-4.375 1.58333,-9 1.04167,-4.625 2.45834,-9.29166 1.45833,-4.66667 3.25,-8.95834 1.83333,-4.29166 3.95833,-8 2.125,-3.75 4.45833,-6.5 2.33334,-2.79166 4.875,-4.375 2.54167,-1.58333 5.16667,-1.58333 1.79167,0 2.95833,0.83333 1.16667,0.79167 1.83334,2.125 0.66666,1.33334 0.91666,3.04167 0.29167,1.66667 0.29167,3.41667 0,3.91666 -0.91667,8 -0.875,4.04166 -2.41666,8.16666 -1.5,4.08334 -3.5,8.20834 -2,4.125 -4.16667,8.20833 -2.16667,4.04167 -4.375,8 -2.16667,3.91667 -4.08333,7.66667 -0.20834,0.41666 -0.45834,1.08333 -0.20833,0.66667 -0.41666,1.45833 -0.20834,0.75 -0.41667,1.625 -0.20833,0.875 -0.33333,1.70834 v 0.58333 q 0,1.08333 0.20833,2.125 0.25,1 0.58333,1.83333 0.33334,0.79167 0.70834,1.29167 0.375,0.45833 0.70833,0.45833 0.79167,0 1.79167,-0.33333 1.04166,-0.33333 2.16666,-0.875 1.16667,-0.58333 2.375,-1.29167 1.20834,-0.75 2.33334,-1.5 2.625,-1.75 5.5,-4.04166 l 3.41666,8.75 q -3.70833,2.66666 -7.33333,4.75 -1.58333,0.875 -3.29167,1.75 -1.66666,0.83333 -3.375,1.5 -1.70833,0.66667 -3.33333,1.08333 -1.625,0.375 -3.04167,0.375 z m 0.0417,-33.33333 q 1.875,-3.33334 3.95833,-7.5 2.125,-4.16667 4,-8.58334 1.875,-4.41666 3.25,-8.79166 1.375,-4.41667 1.75,-8.20834 0,-1.20833 -0.0833,-2.04166 -0.0417,-0.875 -0.375,-0.875 -1.20833,0 -2.625,1.58333 -1.375,1.54167 -2.79167,4.20833 -1.375,2.66667 -2.66666,6.20834 -1.25,3.54166 -2.25,7.54166 -1,4 -1.58334,8.25 -0.58333,4.20834 -0.58333,8.20834 z"
           style="font-style:normal;font-variant:normal;font-weight:normal;font-stretch:normal;font-size:85.33333588px;line-height:2.25;font-family:Pacifico;-inkscape-font-specification:Pacifico;text-align:center;text-anchor:middle;fill:#ecebe4;fill-opacity:1;stroke:#ecebe4;stroke-opacity:1"
           id="path4508" />
        <path
           d="m 473.23439,419.96364 q -0.95834,1.33333 -2.58334,3.125 -1.58333,1.79167 -3.58333,3.41667 -2,1.625 -4.29167,2.75 -2.29166,1.125 -4.58333,1.125 -2.75,0 -4.58334,-1.75 -1.83333,-1.79167 -3.16666,-5.16667 -1,1.16667 -2.45834,2.375 -1.45833,1.20833 -3.20833,2.20833 -1.70833,0.95834 -3.58333,1.58334 -1.875,0.625 -3.75,0.625 -2,0 -3.91667,-0.79167 -1.875,-0.83333 -3.33333,-2.33333 -1.45834,-1.54167 -2.33334,-3.70834 -0.875,-2.20833 -0.875,-4.95833 0,-3.125 0.875,-6.41667 0.875,-3.29167 2.70834,-7.125 1.83333,-3.83333 3.91666,-6.625 2.125,-2.79167 4.625,-4.875 2.5,-2.08333 5.25,-3.29167 2.79167,-1.25 5.66667,-1.25 0.95833,0 1.5,0.375 0.54167,0.375 0.875,0.875 0.375,0.45834 0.70833,0.91667 0.33334,0.45833 0.83334,0.66667 0.5,0.20833 1,0.29166 0.54166,0.0417 1.08333,0.0417 0.45833,0 0.91667,0 0.5,-0.0417 0.95833,-0.0417 0.625,0 1.16667,0.125 0.54167,0.125 0.95833,0.54167 0.41667,0.41667 0.625,1.16667 0.25,0.75 0.25,2.04166 0,2 -0.41666,4.45834 -0.41667,2.41666 -0.91667,5 -0.5,2.54166 -1.20833,5.79166 -0.70834,3.25 -0.70834,5.54167 0,1.95833 0.33334,3.08333 0.375,1.08334 1.54166,1.08334 0.875,0 1.83334,-0.41667 0.95833,-0.45833 1.91666,-1.16667 1,-0.70833 1.95834,-1.58333 1,-0.91667 1.875,-1.875 2.04166,-2.25 4.125,-5.08333 z m -35.58334,-3.29167 q 0,1.04167 0.125,2.04167 0.16667,0.95833 0.54167,1.75 0.375,0.75 1,1.25 0.625,0.45833 1.58333,0.45833 1.54167,0 2.79167,-1.33333 1.25,-1.33334 2.16666,-3.20834 0.91667,-1.875 1.45834,-3.875 0.58333,-2 0.75,-3.33333 l 3.125,-13.625 q -1.70834,0 -3.33334,0.875 -1.625,0.83333 -3.08333,2.29167 -1.41667,1.45833 -2.625,3.33333 -1.20833,1.875 -2.375,4.625 -1.16667,2.75 -1.66667,4.83333 -0.45833,2.08334 -0.45833,3.91667 z"
           style="font-style:normal;font-variant:normal;font-weight:normal;font-stretch:normal;font-size:85.33333588px;line-height:2.25;font-family:Pacifico;-inkscape-font-specification:Pacifico;text-align:center;text-anchor:middle;fill:#ecebe4;fill-opacity:1;stroke:#ecebe4;stroke-opacity:1"
           id="path4510" />
        <path
           d="m 480.81772,416.54697 q 0.54166,-0.375 1.83333,-1.20833 1.29167,-0.875 3.04167,-2.04167 1.75,-1.16667 3.75,-2.54167 2.04166,-1.41666 4,-2.83333 l 0.33333,-2.83333 q 0.91667,-8.75 2.95833,-16.04167 2.04167,-7.33333 4.79167,-13.20833 2.79167,-5.91667 6.04167,-10.33334 3.29166,-4.41666 6.66666,-7.375 3.41667,-3 6.70834,-4.45833 3.33333,-1.5 6.20833,-1.5 2.08334,0 3.83334,0.79167 1.75,0.79166 3,2.375 1.25,1.58333 1.95833,3.95833 0.70833,2.375 0.70833,5.54167 0,3.875 -1.16666,8.125 -1.16667,4.25 -3.33334,8.58333 -2.125,4.33333 -5.125,8.66667 -3,4.29166 -6.66666,8.29166 -3.62501,4 -7.87501,7.58334 -4.20833,3.54166 -8.75,6.33333 0,2.54167 -0.16666,6.08333 -0.0417,1.5 -0.0833,2.29167 0,0.75 0,1.04167 0,0.29166 0,0.45833 0,0.375 0.125,0.70833 0.16667,0.29167 0.58334,0.5 0.45833,0.16667 1.20833,0.29167 0.75,0.0833 2,0.0833 1.83333,0 5.04167,-0.91667 l 13.95833,-4 q 0.25,-0.0833 0.66667,-0.125 0.33333,-0.0417 0.625,-0.0417 1.04167,0 1.79167,0.41667 0.75,0.375 1.25,1.04166 0.5,0.66667 0.75,1.54167 0.25,0.875 0.25,1.79167 0,0.83333 -0.25,1.625 -0.25,0.79167 -0.75,1.5 -0.5,0.66667 -1.25,1.16667 -0.75,0.5 -1.75,0.66666 -4.08334,1.625 -8.33334,2.91667 -1.83333,0.54167 -3.875,1.04167 -2,0.54166 -4.125,0.91666 -2.08333,0.41667 -4.25,0.66667 -2.125,0.25 -4.125,0.25 -3.08333,0 -5.08333,-1.08333 -1.95834,-1.04167 -3.125,-2.875 -1.125,-1.79167 -1.58334,-5.20834 -0.45833,-3.41667 -0.45833,-6.08333 -3.58333,2.625 -6.08333,4.16666 -2.5,1.54167 -3.20834,1.54167 -0.70833,0 -1.33333,-0.45833 -0.66667,-0.5 -1.20833,-1.29167 -0.54167,-0.79167 -0.83334,-1.75 -0.33333,-1 -0.33333,-1.95833 0,-0.79167 0.20833,-1.54167 0.16667,-0.79167 0.83334,-1.25 z m 23.66666,-14.625 q 2.125,-2.20833 4.41667,-4.79167 2.33333,-2.625 4.58333,-5.45833 2.29167,-2.875 4.375,-5.83333 2.12501,-3 3.79167,-5.95834 1.70834,-2.95833 2.83334,-5.75 1.16666,-2.79166 1.5,-5.29166 0.125,-0.83334 0.16666,-1.58334 0.0417,-0.79166 0.0417,-1.45833 0,-2.375 -0.66667,-3.45833 -0.625,-1.08334 -1.75,-1.08334 -1.33333,0 -3.125,1.41667 -1.79167,1.375 -3.75,3.95833 -1.95833,2.58334 -3.95833,6.25 -2,3.66667 -3.70834,8.16667 -1.70833,4.5 -3,9.79167 -1.25,5.29166 -1.75,11.08333 z"
           style="font-style:normal;font-variant:normal;font-weight:normal;font-stretch:normal;font-size:85.33333588px;line-height:2.25;font-family:Pacifico;-inkscape-font-specification:Pacifico;text-align:center;text-anchor:middle;fill:#ecebe4;fill-opacity:1;stroke:#ecebe4;stroke-opacity:1"
           id="path4512" />
        <path
           d="m 576.73439,419.96364 q -0.95834,1.33333 -2.58334,3.125 -1.58333,1.79167 -3.58333,3.41667 -2,1.625 -4.29167,2.75 -2.29166,1.125 -4.58333,1.125 -2.75,0 -4.58334,-1.75 -1.83333,-1.79167 -3.16666,-5.16667 -1,1.16667 -2.45834,2.375 -1.45833,1.20833 -3.20833,2.20833 -1.70833,0.95834 -3.58333,1.58334 -1.875,0.625 -3.75,0.625 -2,0 -3.91667,-0.79167 -1.875,-0.83333 -3.33333,-2.33333 -1.45834,-1.54167 -2.33334,-3.70834 -0.875,-2.20833 -0.875,-4.95833 0,-3.125 0.875,-6.41667 0.875,-3.29167 2.70834,-7.125 1.83333,-3.83333 3.91666,-6.625 2.125,-2.79167 4.625,-4.875 2.5,-2.08333 5.25,-3.29167 2.79167,-1.25 5.66667,-1.25 0.95833,0 1.5,0.375 0.54167,0.375 0.875,0.875 0.375,0.45834 0.70833,0.91667 0.33334,0.45833 0.83334,0.66667 0.5,0.20833 1,0.29166 0.54166,0.0417 1.08333,0.0417 0.45833,0 0.91667,0 0.5,-0.0417 0.95833,-0.0417 0.625,0 1.16667,0.125 0.54167,0.125 0.95833,0.54167 0.41667,0.41667 0.625,1.16667 0.25,0.75 0.25,2.04166 0,2 -0.41666,4.45834 -0.41667,2.41666 -0.91667,5 -0.5,2.54166 -1.20833,5.79166 -0.70834,3.25 -0.70834,5.54167 0,1.95833 0.33334,3.08333 0.375,1.08334 1.54166,1.08334 0.875,0 1.83334,-0.41667 0.95833,-0.45833 1.91666,-1.16667 1,-0.70833 1.95834,-1.58333 1,-0.91667 1.875,-1.875 2.04166,-2.25 4.125,-5.08333 z m -35.58334,-3.29167 q 0,1.04167 0.125,2.04167 0.16667,0.95833 0.54167,1.75 0.375,0.75 1,1.25 0.625,0.45833 1.58333,0.45833 1.54167,0 2.79167,-1.33333 1.25,-1.33334 2.16666,-3.20834 0.91667,-1.875 1.45834,-3.875 0.58333,-2 0.75,-3.33333 l 3.125,-13.625 q -1.70834,0 -3.33334,0.875 -1.625,0.83333 -3.08333,2.29167 -1.41667,1.45833 -2.625,3.33333 -1.20833,1.875 -2.375,4.625 -1.16667,2.75 -1.66667,4.83333 -0.45833,2.08334 -0.45833,3.91667 z"
           style="font-style:normal;font-variant:normal;font-weight:normal;font-stretch:normal;font-size:85.33333588px;line-height:2.25;font-family:Pacifico;-inkscape-font-specification:Pacifico;text-align:center;text-anchor:middle;fill:#ecebe4;fill-opacity:1;stroke:#ecebe4;stroke-opacity:1"
           id="path4514" />
        <path
           d="m 586.35939,430.17197 q -3.83333,0 -6.75,-1.41666 -2.875,-1.41667 -4.83333,-3.79167 -1.95833,-2.375 -2.95833,-5.5 -1,-3.125 -1,-6.5 0,-2.41667 0.83333,-5.79167 0.83333,-3.375 1.79167,-5.875 1,-2.54167 2.41666,-4.83333 1.45834,-2.29167 3.33334,-4 1.91666,-1.75 4.25,-2.75 2.33333,-1.04167 5.125,-1.04167 2.375,0 4.375,0.75 2.04167,0.70833 3.45833,2 1.45834,1.29167 2.25,3.08333 0.83334,1.75 0.83334,3.79167 0,1.41667 -0.375,2.79167 -0.375,1.375 -1.45834,3.25 -1.08333,1.83333 -2.125,2.5 -1,0.66666 -2.29167,0.66666 -2,0 -2.58333,-1.04166 -0.95833,-1.625 -0.58333,-2.875 0.125,-0.66667 0.75,-3.08334 0.0833,-0.33333 0.0417,-1.5 0,-1 -0.20833,-1.66666 -0.20833,-0.66667 -0.91667,-0.66667 -1.70833,0 -2.91666,0.83333 -1.20834,0.79167 -2.08334,2.125 -0.83333,1.29167 -1.66666,3.70834 -0.83334,2.375 -1.20834,4 -0.33333,1.625 -0.41666,3.125 -0.0833,1.45833 -0.0833,2.45833 0,1.5 0.25,3.125 0.29167,1.625 1.08334,3 0.83333,1.33333 2.125,2.25 1.29166,0.875 3.33333,0.875 2,0 4.41667,-1.20833 2.41667,-1.25 4.83333,-3.125 2.45834,-1.875 4.66667,-4.125 2.20833,-2.25 3.79167,-4.25 l 2.875,4.83333 q -3.125,4.45833 -6.75,7.95833 -1.54167,1.5 -3.375,2.91667 -1.79167,1.41667 -3.79167,2.54167 -1.95834,1.08333 -4.125,1.79167 -2.125,0.66666 -4.33334,0.66666 z"
           style="font-style:normal;font-variant:normal;font-weight:normal;font-stretch:normal;font-size:85.33333588px;line-height:2.25;font-family:Pacifico;-inkscape-font-specification:Pacifico;text-align:center;text-anchor:middle;fill:#ecebe4;fill-opacity:1;stroke:#ecebe4;stroke-opacity:1"
           id="path4516" />
        <path
           d="m 619.35939,404.2553 q 1.70834,-2.25 3.83334,-4.83333 2.125,-2.58333 5.66667,-5.95833 3.58333,-3.375 5.83333,-4.83334 2.29167,-1.5 4.29167,-1.5 0.5,0 1.125,0.20834 0.625,0.16666 1.16666,0.66666 0.58334,0.5 0.95834,1.41667 0.375,0.875 0.375,2.29167 0,2.83333 -0.79167,5.54166 -0.79167,2.66667 -3,6.5 -2.20833,3.83334 -3,6.625 -0.75,2.79167 -0.75,5.83334 0,1.66666 0.5,2.66666 0.5,1 1.29167,1 1,0 2.125,-0.41666 1.125,-0.41667 2.25,-1.08334 1.125,-0.66666 2.20833,-1.5 1.08333,-0.875 2.04167,-1.79166 2.29166,-2.125 4.5,-4.83334 l 0.70833,11.08334 q -0.75,0.58333 -1.91667,1.45833 -1.125,0.875 -2.54166,1.875 -1.375,0.95834 -3,1.95834 -1.625,1 -3.29167,1.79166 -1.625,0.75 -3.29167,1.25 -1.625,0.5 -3.125,0.5 -2.29166,0 -4,-1.20833 -1.66666,-1.25 -2.75,-3.125 -1.08333,-1.91667 -1.625,-4.16667 -0.54167,-2.25 -0.54167,-4.25 0,-1.33333 0.33334,-2.95833 0.375,-1.66667 0.875,-3.33334 0.54167,-1.66666 1.16667,-3.25 0.66666,-1.58333 1.20833,-2.83333 0.58333,-1.25 1,-2.04167 0.41667,-0.79166 0.54167,-0.91666 l -0.875,-0.125 q -0.70834,0.45833 -2.41667,2.33333 -1.66667,1.875 -3.79167,4.75 -2.125,2.83333 -4.41667,6.41667 -2.25,3.54166 -4.08333,7.33333 -0.91667,1.875 -1.5,3.29167 -0.58333,1.375 -1.16667,2.29167 -0.54166,0.875 -1.20833,1.33333 -0.66667,0.45833 -1.70833,0.45833 -1.375,0 -2.16667,-0.79166 -0.79167,-0.79167 -1.20833,-2.08334 -0.41667,-1.33333 -0.54167,-3 -0.125,-1.66667 -0.125,-3.41667 0,-2.79166 0.0417,-7.29166 0.0833,-4.54167 0.41666,-10.04167 0.33334,-5.5 0.95834,-11.58333 0.625,-6.08334 1.75,-12 1.16666,-5.95834 2.875,-11.33334 1.75,-5.41666 4.20833,-9.5 2.5,-4.125 5.83333,-6.54166 3.33334,-2.41667 7.66667,-2.41667 2.25,0 3.66667,0.66667 1.45833,0.66666 2.29167,1.875 0.875,1.20833 1.20833,2.91666 0.33333,1.66667 0.33333,3.75 0,3.08334 -0.875,6.83334 -0.875,3.75 -2.33333,7.79166 -1.41667,4.04167 -3.25,8.20834 -1.83333,4.125 -3.75,8.04166 -1.91667,3.875 -3.79167,7.33334 -1.83333,3.45833 -3.25,6.08333 z m 3.70834,-25.75 q 2.45833,-6.375 3.54167,-10.75 1.125,-4.375 1.125,-6.45833 0,-3.16667 -0.83334,-3.16667 -1.08333,0 -3.20833,3.54167 -2.125,3.54167 -5,10.29167 -0.70834,2.29166 -1.33334,4.75 -0.58333,2.45833 -1.08333,4.91666 -0.45833,2.41667 -0.875,4.79167 -0.375,2.33333 -0.66667,4.45833 -0.70833,4.95834 -1.08333,9.70834 1.125,-2.625 2.45833,-5.70834 1.33334,-3.08333 2.625,-6.08333 1.29167,-3.04167 2.41667,-5.70833 1.16667,-2.70834 1.91667,-4.58334 z"
           style="font-style:normal;font-variant:normal;font-weight:normal;font-stretch:normal;font-size:85.33333588px;line-height:2.25;font-family:Pacifico;-inkscape-font-specification:Pacifico;text-align:center;text-anchor:middle;fill:#ecebe4;fill-opacity:1;stroke:#ecebe4;stroke-opacity:1"
           id="path4518" />
        <path
           d="m 663.90104,430.17197 q -3.91667,0 -6.875,-1.41666 -2.91667,-1.41667 -4.875,-3.79167 -1.95833,-2.41667 -2.95833,-5.54167 -0.95834,-3.16667 -0.95834,-6.625 0,-2.33333 0.875,-5.54167 0.875,-3.25 1.79167,-5.75 0.95833,-2.5 2.375,-4.75 1.41667,-2.29166 3.29167,-4 1.91666,-1.75 4.25,-2.75 2.375,-1.04166 5.25,-1.04166 2.33333,0 4.33333,0.75 2,0.75 3.45833,2.125 1.5,1.33333 2.33334,3.25 0.83333,1.91666 0.83333,4.29166 0,2.58334 -1.70833,5.79167 -1.66667,3.20833 -3.91667,5.5 -2.25,2.29167 -5.375,4.08333 -3.08333,1.79167 -6.70833,2.79167 0.625,1.125 1.20833,1.875 0.625,0.75 1.25,1.16667 0.625,0.41666 1.29167,0.58333 0.70833,0.16667 1.5,0.16667 2.5,0 5.25,-1 2.79166,-1 5.41666,-2.5 2.625,-1.5 4.95834,-3.25 2.33333,-1.79167 3.95833,-3.375 l 5.375,5.58333 q -3.66666,3.79167 -7.79167,6.70833 -1.79166,1.25001 -3.875,2.45834 -2.04166,1.20833 -4.33333,2.16667 -2.25,0.91666 -4.70833,1.5 -2.41667,0.54166 -4.91667,0.54166 z m -5.54167,-19.58333 q 1.5,0 3.25,-0.75 1.79167,-0.79167 3.29167,-2 1.54167,-1.20834 3,-3.25 1.45833,-2.04167 1.45833,-3.375 0,-1.875 -0.70833,-3.08334 -0.66667,-1.20833 -1.66667,-1.20833 -1.79166,0 -3.08333,0.66667 -1.25,0.66666 -2.125,1.75 -0.83333,1.04166 -1.375,2.41666 -0.5,1.33334 -1.20833,3.33334 -0.66667,2 -0.75,3.29166 -0.0833,1.29167 -0.0833,2.20834 z"
           style="font-style:normal;font-variant:normal;font-weight:normal;font-stretch:normal;font-size:85.33333588px;line-height:2.25;font-family:Pacifico;-inkscape-font-specification:Pacifico;text-align:center;text-anchor:middle;fill:#ecebe4;fill-opacity:1;stroke:#ecebe4;stroke-opacity:1"
           id="path4520" />
        <path
           d="m 681.31774,421.46364 q 0,-2.75 0.33333,-6.33334 0.33333,-3.625 0.83333,-7.91666 0.5,-4.33334 1.125,-7.79167 0.625,-3.45833 1.20834,-5.91667 0.45833,-1.91666 1.75,-3.20833 1.33333,-1.29167 3.58333,-1.29167 2.25,0 3.125,1.375 0.875,1.375 0.875,3.66667 0,0.625 -0.125,1.70833 -0.125,1.04167 -0.33333,2.33334 -0.16667,1.25 -0.375,2.625 -0.20834,1.33333 -0.41667,3.08333 -0.16667,1.70833 -0.29167,2.58333 -0.125,0.83334 -0.125,1.125 h 0.83334 q 0.25,-0.45833 0.79166,-1.45833 0.54167,-1.04167 1.25,-2.95833 0.70834,-1.91667 1.5,-3.375 0.83334,-1.5 1.54167,-2.83334 0.70834,-1.375 1.29167,-2.41666 0.58333,-1.04167 0.875,-1.54167 1.33333,-2.25 3.04167,-3.08333 1.70833,-0.83334 3.79166,-0.83334 2.08334,0 3.29167,1.75 1.25,1.75 1.25,4.83334 0,0.45833 -0.20833,1.54166 -0.16667,1.08334 -0.45834,2.58334 -0.29166,1.5 -0.66666,3.875 -0.33334,2.375 -0.625,4.25 -0.29167,1.875 -0.5,3.70833 -0.16667,1.83333 -0.16667,3.375 0,2.58333 0.625,4.25 0.66667,1.66667 2.04167,1.66667 0.5,0 1.41666,-0.375 1.375,-0.5 1.75,-0.875 1.83334,-1.41667 1.91667,-1.375 0.125,0.0417 2.79167,-1.66667 3.33333,-2.125 7.95833,-5.20833 l -0.0417,9.33333 -2.08333,1.58333 q -0.25,0.20834 -3.91667,2.16667 -5.29166,2.83334 -6.625,3.41667 -3.25,1.45833 -4.04166,1.66667 -2.08334,0.66666 -4.375,0.66666 -2.29167,0 -3.875,-3.29166 -1.54167,-3.33334 -1.54167,-9.70834 0,-2.5 0.33333,-5.375 0.33334,-2.91667 0.83334,-6.25 h -0.66667 l -10.91667,21.66667 q -0.875,1.75 -1.875,2.33333 -1.04167,0.625 -2.41667,0.625 -1.70833,0 -2.75,-0.70833 -1.04166,-0.75 -1.625,-1.95833 -0.54166,-1.25 -0.75,-2.79167 -0.16666,-1.58334 -0.16666,-3.25 z"
           style="font-style:normal;font-variant:normal;font-weight:normal;font-stretch:normal;font-size:85.33333588px;line-height:2.25;font-family:Pacifico;-inkscape-font-specification:Pacifico;text-align:center;text-anchor:middle;fill:#ecebe4;fill-opacity:1;stroke:#ecebe4;stroke-opacity:1"
           id="path4522" />
        <path
           d="m 738.98438,422.3803 q 0,-0.54166 0.0833,-1.54166 0.0833,-1 0.25,-2.29167 0.16666,-1.29167 0.375,-2.70833 0.20833,-1.45834 0.41666,-2.875 0.45834,-3.33334 1.125,-7.16667 h -0.625 q -0.5,0.625 -1.16666,1.875 -0.625,1.25 -1.79167,3.66667 -1.16667,2.41666 -3,6.29166 -1.79167,3.83334 -4.66667,9.62501 -0.83333,1.70833 -1.95833,2.33333 -1.08333,0.58333 -2.41667,0.58333 -1.70833,0 -2.75,-0.70833 -1.04166,-0.75 -1.625,-1.95833 -0.54166,-1.25 -0.75,-2.79167 -0.16666,-1.58334 -0.16666,-3.25 0,-1.70834 0.20833,-4.04167 0.20833,-2.33333 0.54167,-4.91667 0.33333,-2.58333 0.95833,-5.875 0.66667,-3.33333 1.125,-5.79166 0.5,-2.45834 1,-4.5 0.5,-2.04167 0.91667,-3.33334 0.41666,-1.33333 0.79166,-2.125 0.375,-0.79166 0.83334,-1.20833 0.5,-0.45833 1.16666,-0.58333 0.66667,-0.16667 1.70834,-0.16667 1.58333,0 2.45833,0.125 0.91667,0.0833 1.33333,0.5 0.45834,0.375 0.54167,1.125 0.0833,0.75 0.0833,2.04167 0,0.70833 -0.0833,1.625 -0.0417,0.91666 -0.16667,1.95833 -0.0833,1.04167 -0.25,2.125 -0.29166,2.08333 -0.33333,2.16667 -0.58333,2.83333 -1.20833,6.33333 l 0.45833,0.5 q 0.0833,-0.125 1.08333,-2.20833 1.04167,-2.08334 2.20834,-4.125 1.20833,-2.04167 2.58333,-4.25 1.375,-2.25 2.625,-3.95834 1.20833,-1.70833 2.54167,-2.83333 1.375,-1.125 3.25,-1.125 1.75,0 3,1.04167 1.25,1 1.25,2.875 0,1.625 -0.20833,3.08333 -0.25,1.875 -0.5,2.83333 -0.29167,1.08334 -0.66667,2.66667 -0.29167,1.375 -1.04167,3.95833 -0.125,0.41667 -0.25,1.20834 -0.0417,0.25 -0.0417,0.33333 l 0.45834,0.5 q 0.0833,-0.125 1.16667,-2.16667 1.08333,-2.08333 2.33333,-4.125 1.29167,-2.04166 2.70833,-4.29166 1.45834,-2.25 2.70834,-3.95834 1.20833,-1.66666 2.41666,-2.79166 1.20834,-1.16667 2.95834,-1.16667 1.95833,0 3.29166,1.04167 1.375,1 1.375,2.875 0,2.875 -0.29166,5.45833 -0.29167,2.58333 -0.875,5.70833 -0.58334,3.125 -0.875,5.70834 -0.29167,2.54166 -0.29167,5.41666 0,2.25 0.58333,3.66667 0.58334,1.41667 1.41667,1.41667 0.875,0 1.83333,-0.375 0.95834,-0.375 1.95834,-0.95834 1,-0.58333 1.95833,-1.33333 0.95833,-0.79167 1.83333,-1.625 2.04167,-1.91667 4.04167,-4.33333 l 0.70833,9.83333 q -1.83333,1.45833 -3.66666,3.04167 -1.79167,1.54167 -3.83334,2.83333 -2,1.25 -4.41666,2.08334 -2.41667,0.79166 -5.45834,0.79166 -1.5,0 -2.54166,-0.95833 -1,-1 -1.625,-2.75 -0.625,-1.75 -0.91667,-4.125 -0.25,-2.375 -0.25,-5.16667 0,-2.625 0.16667,-5.54167 0.20833,-2.95833 0.54166,-5.95833 h -0.625 l -8.45833,21.54167 q -1.08334,1.75 -2.41667,2.375 -1.33333,0.58333 -3.08333,0.58333 -1.33334,0 -2.125,-0.70833 -0.79167,-0.75 -1.25,-1.875 -0.41667,-1.16667 -0.58334,-2.54167 -0.125,-1.375 -0.125,-2.66667 z"
           style="font-style:normal;font-variant:normal;font-weight:normal;font-stretch:normal;font-size:85.33333588px;line-height:2.25;font-family:Pacifico;-inkscape-font-specification:Pacifico;text-align:center;text-anchor:middle;fill:#ecebe4;fill-opacity:1;stroke:#ecebe4;stroke-opacity:1"
           id="path4524" />
        <path
           d="m 819.0677,419.96364 q -0.95833,1.33333 -2.58333,3.125 -1.58334,1.79167 -3.58334,3.41667 -2,1.625 -4.29167,2.75 -2.29166,1.125 -4.58333,1.125 -2.75,0 -4.58333,-1.75 -1.83334,-1.79167 -3.16667,-5.16667 -1,1.16667 -2.45833,2.375 -1.45834,1.20833 -3.20834,2.20833 -1.70833,0.95834 -3.58333,1.58334 -1.875,0.625 -3.75,0.625 -2,0 -3.91667,-0.79167 -1.875,-0.83333 -3.33333,-2.33333 -1.45833,-1.54167 -2.33333,-3.70834 -0.875,-2.20833 -0.875,-4.95833 0,-3.125 0.875,-6.41667 0.875,-3.29167 2.70833,-7.125 1.83333,-3.83333 3.91667,-6.625 2.125,-2.79167 4.625,-4.875 2.5,-2.08333 5.25,-3.29167 2.79166,-1.25 5.66666,-1.25 0.95834,0 1.5,0.375 0.54167,0.375 0.875,0.875 0.375,0.45834 0.70834,0.91667 0.33333,0.45833 0.83333,0.66667 0.5,0.20833 1,0.29166 0.54167,0.0417 1.08333,0.0417 0.45834,0 0.91667,0 0.5,-0.0417 0.95833,-0.0417 0.625,0 1.16667,0.125 0.54167,0.125 0.95833,0.54167 0.41667,0.41667 0.625,1.16667 0.25,0.75 0.25,2.04166 0,2 -0.41666,4.45834 -0.41667,2.41666 -0.91667,5 -0.5,2.54166 -1.20833,5.79166 -0.70834,3.25 -0.70834,5.54167 0,1.95833 0.33334,3.08333 0.375,1.08334 1.54166,1.08334 0.875,0 1.83334,-0.41667 0.95833,-0.45833 1.91666,-1.16667 1,-0.70833 1.95834,-1.58333 1,-0.91667 1.875,-1.875 2.04167,-2.25 4.125,-5.08333 z m -35.58334,-3.29167 q 0,1.04167 0.125,2.04167 0.16667,0.95833 0.54167,1.75 0.375,0.75 1,1.25 0.625,0.45833 1.58333,0.45833 1.54167,0 2.79167,-1.33333 1.25,-1.33334 2.16667,-3.20834 0.91666,-1.875 1.45833,-3.875 0.58333,-2 0.75,-3.33333 l 3.125,-13.625 q -1.70833,0 -3.33333,0.875 -1.625,0.83333 -3.08334,2.29167 -1.41666,1.45833 -2.625,3.33333 -1.20833,1.875 -2.375,4.625 -1.16666,2.75 -1.66666,4.83333 -0.45834,2.08334 -0.45834,3.91667 z"
           style="font-style:normal;font-variant:normal;font-weight:normal;font-stretch:normal;font-size:85.33333588px;line-height:2.25;font-family:Pacifico;-inkscape-font-specification:Pacifico;text-align:center;text-anchor:middle;fill:#ecebe4;fill-opacity:1;stroke:#ecebe4;stroke-opacity:1"
           id="path4526" />
        <path
           d="m 841.15107,421.29697 q -1.5,1.375 -3.75,2.95834 -2.20833,1.54166 -4.79166,2.875 -2.58334,1.29166 -5.29167,2.16666 -2.66667,0.875 -5.08334,0.875 -2.16666,0 -3.66666,-0.58333 -1.45834,-0.625 -2.375,-1.70833 -0.91667,-1.08334 -1.33334,-2.625 -0.375,-1.58334 -0.375,-3.45834 0,-2.625 0.58334,-6.125 1.16666,-6.75 1.5,-7.58333 0.58333,-1.83334 2.33333,-8.125 1.41667,-5.25 1.75,-6.83334 0.20833,-1.04166 1.16667,-1.875 0.875,-0.75 1.95833,-1.20833 1.125,-0.5 2.29167,-0.70833 1.20833,-0.25 2.16666,-0.25 1.75,0 2.375,0.66666 0.625,0.625 0.625,1.70834 0,0.91666 -0.41666,2.66666 -0.41667,1.70834 -1.04167,3.91667 -0.625,2.16667 -1.58333,5.25 -0.95834,3.04167 -1.58334,5.58333 -0.625,2.5 -1.04166,4.91667 -0.41667,2.375 -0.41667,4.29167 0,1.875 0.41667,3 0.41666,1.08333 1.70833,1.08333 1.5,0 3.33333,-1.04167 1.83334,-1.04166 3.70834,-2.5 1.875,-1.5 3.66667,-3.08333 1.79166,-1.58333 3.16666,-2.70833 z m -18.625,-43.66667 q 0,-0.95833 0.41667,-2.16666 0.41666,-1.20834 1.33333,-2.25 0.95833,-1.08334 2.5,-1.79167 1.58333,-0.75 3.91667,-0.75 1.45833,0 2.75,0.33333 1.29167,0.33334 2.25,1.04167 0.95833,0.66667 1.5,1.79167 0.58333,1.125 0.58333,2.66666 0,1.41667 -0.45833,2.75 -0.45833,1.33334 -1.45833,2.375 -1,1.04167 -2.54167,1.70834 -1.5,0.625 -3.625,0.625 -3.66667,0 -5.41667,-1.70834 -1.75,-1.75 -1.75,-4.625 z"
           style="font-style:normal;font-variant:normal;font-weight:normal;font-stretch:normal;font-size:85.33333588px;line-height:2.25;font-family:Pacifico;-inkscape-font-specification:Pacifico;text-align:center;text-anchor:middle;fill:#ecebe4;fill-opacity:1;stroke:#ecebe4;stroke-opacity:1"
           id="path4528" />
        <path
           d="m 852.40107,430.17197 q -3.91667,0 -6.875,-1.41666 -2.91667,-1.41667 -4.875,-3.79167 -1.95833,-2.41667 -2.95833,-5.54167 -0.95834,-3.16667 -0.95834,-6.625 0,-2.33333 0.875,-5.54167 0.875,-3.25 1.79167,-5.75 0.95833,-2.5 2.375,-4.75 1.41667,-2.29166 3.29167,-4 1.91666,-1.75 4.25,-2.75 2.375,-1.04166 5.25,-1.04166 2.33333,0 4.33333,0.75 2,0.75 3.45834,2.125 1.5,1.33333 2.33333,3.25 0.83333,1.91666 0.83333,4.29166 0,2.58334 -1.70833,5.79167 -1.66667,3.20833 -3.91667,5.5 -2.25,2.29167 -5.375,4.08333 -3.08333,1.79167 -6.70833,2.79167 0.625,1.125 1.20833,1.875 0.625,0.75 1.25,1.16667 0.625,0.41666 1.29167,0.58333 0.70833,0.16667 1.5,0.16667 2.5,0 5.25,-1 2.79167,-1 5.41667,-2.5 2.625,-1.5 4.95833,-3.25 2.33333,-1.79167 3.95833,-3.375 l 5.375,5.58333 q -3.66666,3.79167 -7.79166,6.70833 -1.79167,1.25001 -3.875,2.45834 -2.04167,1.20833 -4.33334,2.16667 -2.25,0.91666 -4.70833,1.5 -2.41667,0.54166 -4.91667,0.54166 z m -5.54167,-19.58333 q 1.5,0 3.25,-0.75 1.79167,-0.79167 3.29167,-2 1.54167,-1.20834 3,-3.25 1.45834,-2.04167 1.45834,-3.375 0,-1.875 -0.70834,-3.08334 -0.66666,-1.20833 -1.66666,-1.20833 -1.79167,0 -3.08334,0.66667 -1.25,0.66666 -2.125,1.75 -0.83333,1.04166 -1.375,2.41666 -0.5,1.33334 -1.20833,3.33334 -0.66667,2 -0.75,3.29166 -0.0833,1.29167 -0.0833,2.20834 z"
           style="font-style:normal;font-variant:normal;font-weight:normal;font-stretch:normal;font-size:85.33333588px;line-height:2.25;font-family:Pacifico;-inkscape-font-specification:Pacifico;text-align:center;text-anchor:middle;fill:#ecebe4;fill-opacity:1;stroke:#ecebe4;stroke-opacity:1"
           id="path4530" />
        <path
           d="m 869.81774,421.46364 q 0,-1.83334 0.20833,-4.25 0.20833,-2.45834 0.54167,-5.16667 0.375,-2.70833 0.83333,-5.5 0.5,-2.83333 1.25,-6 0.75,-3.20833 1.29167,-5.33333 0.54166,-2.125 1.08333,-3.5 0.33333,-0.91667 0.66667,-1.45834 0.33333,-0.54166 0.75,-0.83333 0.45833,-0.33333 1.08333,-0.41667 0.66667,-0.125 1.625,-0.125 1.08333,0 1.66667,0.125 0.625,0.0833 0.91666,0.5 0.29167,0.375 0.33334,1.125 0.0833,0.75 0.0833,2.04167 0,1.54167 -0.20833,4.375 -0.20834,2.83333 -0.125,4.95833 h 0.45833 q 0.83333,-1.66666 2.08333,-4.375 1.25001,-2.70833 2.62501,-4.5 1.375,-1.79166 3.125,-3 1.75,-1.25 4.04166,-1.25 0.79167,0 1.54167,0.29167 0.75,0.25 1.29167,0.75 0.58333,0.5 0.91666,1.25 0.33334,0.70833 0.33334,1.625 0,0.70833 -0.20834,2 -0.20833,1.25 -0.66666,3.29167 -0.45834,2.04166 -0.66667,3.375 -0.20833,1.29166 -0.20833,2.16666 0,1.5 0.29166,2.5 0.29167,1 0.75,1.625 0.5,0.58334 1.08334,0.83334 0.625,0.25 1.29166,0.25 1.875,0 3.875,-0.83334 2,-0.83333 3.66667,-1.875 1.95833,-1.20833 3.83333,-2.75 l -0.625,9.75 q -1.08333,0.70834 -2.45833,1.58334 -1.375,0.875 -2.95833,1.66666 -1.54167,0.75 -3.25,1.29167 -1.66667,0.5 -3.41667,0.5 -3.125,0 -5.04167,-1.25 -1.91666,-1.29167 -3.04166,-3.33333 -1.125,-2.08334 -1.66667,-4.625 -0.54167,-2.58334 -0.875,-5.20834 h -0.66667 l -7.45833,20.79167 q -0.58334,1.625 -1.125,2.70834 -0.5,1.04166 -1.04167,1.70833 -0.54167,0.66667 -1.16667,0.95833 -0.625,0.25 -1.375,0.25 -1.70833,0 -2.75,-0.70833 -1.04166,-0.75 -1.625,-1.95833 -0.54166,-1.25 -0.75,-2.79167 -0.16666,-1.58334 -0.16666,-3.25 z"
           style="font-style:normal;font-variant:normal;font-weight:normal;font-stretch:normal;font-size:85.33333588px;line-height:2.25;font-family:Pacifico;-inkscape-font-specification:Pacifico;text-align:center;text-anchor:middle;fill:#ecebe4;fill-opacity:1;stroke:#ecebe4;stroke-opacity:1"
           id="path4532" />
      </g>
      <path
         transform="matrix(0.26458333,0,0,0.26458333,0,32.41665)"
         sodipodi:nodetypes="ccccscccsscccsccssssccccscccccscacccsccccsccscsccscsccsscccscccccccccsccsccscccsscscscscccccccsssccscccccsccsccccscasccc"
         inkscape:connector-curvature="0"
         id="path4563"
         d="m 593.28125,693.49414 c -1.7276,0.0163 -3.46048,0.0678 -5.18555,0.13672 7.67597,0.0945 14.96845,1.74265 24.07227,5.28906 4.96218,1.933 14.43761,7.69223 17.40234,13.44531 1.34975,2.61918 2.16232,5.62382 2.16602,8.57032 0.005,4.18973 -0.47242,8.54151 -2.14063,12.38476 -5.60239,12.90694 -16.56504,22.34368 -27.5039,30.50977 -17.19398,12.83573 -38.64817,24.82952 -58.50196,32.54297 -12.35539,4.80019 -25.06813,8.81305 -38.0039,11.70507 -12.79412,2.86036 -25.85633,4.72099 -38.94336,5.4961 -27.12732,1.60667 -54.48164,-2.15442 -80.52149,-9.97461 11.5788,-7.73365 23.30169,-15.74895 39.3418,-26.72656 20.3085,-13.89888 54.9929,-38.5761 76.57813,-51.46289 11.10085,-6.62744 22.36985,-13.06706 34.17187,-18.34571 9.81415,-4.38954 20.00439,-8.11862 30.47266,-10.56836 3.94211,-0.92252 7.51621,-1.62416 10.88672,-2.11132 -4.07994,0.43822 -7.82977,1.0278 -10.92188,1.75 -10.4965,2.45159 -20.71589,6.1874 -30.55664,10.58593 -11.82081,5.28356 -23.10671,11.73286 -34.22461,18.36914 -21.59218,12.88838 -56.29715,37.58033 -76.61328,51.48438 -16.15211,11.05426 -27.92528,19.10567 -39.58203,26.88867 -7.70002,-2.3276 -15.28943,-4.99336 -22.7168,-8 -9.98716,-4.04284 -17.78523,-7.92291 -25.17969,-12.0957 4.29073,-0.0677 8.5819,-0.14855 12.87305,-0.16602 4.1597,-0.0174 8.31926,0.16413 12.47852,0.10156 2.30504,-0.0347 4.60272,-0.2618 6.90429,-0.39257 l -3.84375,-14.41407 c -10.39954,5.20899 -21.3784,8.714 -32.76562,11.08399 -0.52341,0.10893 -1.04855,0.21544 -1.57227,0.32422 -6.91407,-4.13211 -13.88788,-8.61692 -22.4375,-13.89063 -26.35966,-17.85226 -17.98035,-11.51752 -41.28125,-29.6289 -8.2071,-6.37924 -17.82517,-14.83964 -27.23828,-19.79883 -9.21459,-4.85458 -14.09687,-5.32954 -21.50962,-6.09469 -3.91738,-0.40436 -8.50239,0.17731 -11.7853,0.83102 -9.30529,1.85295 -20.19445,5.73047 -27.33399,12.23632 -2.48451,2.26402 -4.86497,4.80372 -6.39453,7.79688 -1.55546,3.04388 -2.68171,6.48811 -2.65234,9.90625 0.0296,3.44918 1.05115,6.99639 2.82422,9.95508 4.79721,8.00507 12.881,11.02923 21.00781,14.4082 20.59396,8.5626 42.31663,14.1056 64.41797,16.97656 9.02323,0.61134 18.02626,1.65257 27.06836,1.83399 8.40187,0.1686 16.79757,-0.60589 25.19922,-0.78516 7.39837,-0.15786 14.79966,-0.13919 22.19922,-0.22461 1.04164,-0.012 2.08339,-0.0329 3.125,-0.0488 7.56034,4.29221 15.49928,8.26732 25.73633,12.41211 7.35451,2.97771 14.86851,5.62022 22.49023,7.9336 -12.66962,8.4546 -25.25102,16.62254 -43.16602,27.96289 -9.17888,5.81032 -18.44532,11.48031 -27.70703,17.1582 -14.62146,-3.75153 -29.35861,-6.95377 -44.79687,-8.82813 -12.58583,-1.52817 -25.32572,-2.0515 -37.99805,-1.66406 -11.63663,0.35577 -23.21723,2.02194 -34.70898,3.88672 -24.78903,4.02259 -39.53284,7.57319 -63.25666,15.00521 -13.76163,4.31114 -28.09022,10.04102 -40.792172,17.26823 -4.071602,2.31666 -7.763027,5.26067 -11.416016,8.19336 -5.830008,4.68041 -12.286789,10.66569 -16.05664,17.30859 -1.704995,3.00439 -3.210643,6.24674 -3.753906,9.65821 -0.513949,3.22739 -0.37537,6.68293 0.658203,9.7832 2.174695,6.5232 7.558515,10.52265 13.763672,12.71289 9.307434,3.28528 18.753005,4 28.535259,3.16351 6.15171,-0.52603 10.07,-1.47357 16.18117,-2.35315 7.65376,-1.10162 15.23738,-2.91927 22.7662,-4.68287 9.07936,-2.12678 17.75778,-5.49245 26.62284,-8.3853 22.65377,-7.39242 42.83436,-15.53023 64.36328,-25.91993 26.96795,-13.01457 43.49455,-23.27374 69.55859,-38.375 3.45762,-2.13642 6.92548,-4.25647 10.39063,-6.38085 14.27641,3.66686 28.44466,7.85539 43.03711,11.85156 44.27529,11.79311 66.5837,18.40431 112.07031,27.67968 19.83443,4.04448 39.85029,7.14376 59.77539,10.71485 l 0.0625,-0.35938 c -19.91939,-3.56991 -39.92909,-6.66572 -59.75781,-10.70898 -45.48015,-9.27383 -67.78453,-15.88602 -112.05469,-27.67773 -14.48736,-3.96705 -28.54617,-8.11595 -42.70703,-11.76172 9.16579,-5.61877 18.3343,-11.23236 27.41797,-16.98243 18.03171,-11.41426 30.66162,-19.61668 43.41602,-28.13085 26.15548,7.88739 53.63968,11.68907 80.89843,10.07812 13.10725,-0.77458 26.18977,-2.6349 39.00391,-5.49805 12.95481,-2.89458 25.6848,-6.91496 38.05859,-11.7207 19.88599,-7.72339 41.37353,-19.72989 58.59571,-32.58398 8.8707,-6.62075 22.62786,-19.49792 29.58007,-29.08594 2.62587,-3.62139 5.20382,-7.46203 6.48438,-11.74805 1.11682,-3.73797 1.73062,-7.98486 0.51953,-11.69336 -3.88258,-11.88897 -13.7397,-14.5558 -24.91992,-16.66992 -5.64497,-1.06744 -13.07851,-1.51507 -20.67383,-1.44336 z m -15.70898,0.89063 c 3.34292,-0.35907 6.90888,-0.60959 10.52343,-0.75391 -3.36821,-0.0415 -6.82048,0.21869 -10.52343,0.75391 z M 218.7832,720.05078 c 3.07048,-10e-4 6.1571,0.31911 9.16016,0.95899 7.30383,1.55622 16.5592,5.60755 23,8.79101 20.61647,10.18991 39.28043,23.65576 58.26562,36.51367 8.41532,5.191 15.30699,9.61756 22.11524,13.69727 -6.49699,1.34667 -13.02057,2.64503 -19.6211,3.27734 -8.35825,0.79903 -16.78097,0.95177 -25.17578,0.78321 -9.03014,-0.1815 -18.02388,-1.22288 -27.03515,-1.83399 -21.61438,-3.70703 -44.5892,-6.59089 -63.57617,-18.64648 -7.28792,-4.62739 -12.4695,-9.2576 -14.26758,-17.71289 -0.42879,-2.01634 -0.0103,-4.17847 0.56445,-6.15821 0.47572,-1.63875 1.50614,-3.08463 2.51758,-4.45898 5.90583,-8.02481 16.04708,-12.3636 25.55469,-14.24414 2.79674,-0.55317 5.64713,-0.96563 8.49804,-0.9668 z m 22.37696,118.54492 c 9.50519,0.0562 19.01612,0.63781 28.4414,1.78321 15.28705,1.85771 29.89594,5.01751 44.38672,8.72656 -3.36688,2.06428 -6.73608,4.12529 -10.0957,6.20117 -26.05559,15.09623 -42.57634,25.35155 -69.53516,38.36133 -21.51286,10.38172 -41.68335,18.51413 -64.32031,25.90039 -8.85735,2.89009 -17.79962,5.56877 -26.87109,7.69336 -7.51621,1.76035 -15.11925,3.41076 -22.82032,3.94531 -14.08186,0.97746 -19.43028,1.60206 -32.371091,-2.63672 -3.258773,-1.06745 -6.389796,-2.65664 -9.169921,-4.66406 -3.519481,-2.54132 -5.500854,-5.71197 -5.75,-9.93359 -0.08599,-1.45697 0.413005,-2.88907 0.61914,-4.33399 0.677106,-1.91724 1.13269,-3.92799 2.03125,-5.75195 4.792539,-9.72832 12.853654,-17.65454 21.160156,-24.40039 4.520726,-3.67136 8.994006,-7.47557 13.999996,-10.45117 7.28866,-4.33244 15.05643,-7.97417 23.10743,-10.63477 23.57677,-7.79138 38.25305,-11.78949 63.01367,-15.80664 11.47974,-1.86251 23.04939,-3.52634 34.67383,-3.88086 3.1634,-0.0965 6.3316,-0.13591 9.5,-0.11719 z"
         style="opacity:1;fill:#ecebe4;fill-opacity:1;stroke:#ecebe4;stroke-width:5.00031519;stroke-linecap:round;stroke-linejoin:miter;stroke-miterlimit:4;stroke-dasharray:none;stroke-dashoffset:0;stroke-opacity:1;paint-order:normal" />
      <g
         transform="translate(37.681319,72.359054)"
         style="stroke-width:2;stroke-miterlimit:4;stroke-dasharray:none;fill:#ecebe4;fill-opacity:1;stroke:#ecebe4;stroke-opacity:1"
         id="g4699">
        <path
           id="path4607"
           transform="matrix(0.26458333,0,0,0.26458333,-37.681319,-39.942404)"
           d="m 306.44531,333.36914 c -9.93138,0.0356 -19.49045,1.06614 -29.43359,3.67578 -9.28625,2.43724 -18.10954,6.27932 -25.35352,12.70508 -2.55083,2.26272 -4.30115,5.29293 -6.45117,7.93945 -4.13122,7.69898 -5.50477,8.89726 -7.27148,17.46094 -2.38621,11.56651 -0.16551,23.36826 2.25781,34.70508 0.71125,2.74184 1.34301,5.50491 2.13476,8.22461 3.08538,10.59842 7.61294,20.68377 11.13672,31.12695 l 13.88282,-8.16601 c -6.65424,-7.66568 -11.0532,-17.15084 -14.25196,-26.72461 -0.81698,-2.44521 -1.45582,-4.9467 -2.18359,-7.41993 -2.38655,-9.9292 -4.15565,-20.28558 -1.97852,-30.44336 1.42244,-6.63667 2.54107,-7.77902 5.67188,-13.78515 1.66729,-2.23327 3.11351,-4.64955 5.00195,-6.69922 14.19093,-15.40249 36.4302,-22.16139 56.94336,-21.96289 7.89448,0.0764 15.68873,1.78133 23.5332,2.67187 8.08201,1.75619 16.23226,3.2247 24.2461,5.26954 9.00274,2.29715 17.85021,5.16114 26.77344,7.75 19.26689,5.58981 45.80787,13.57575 65.1914,18.15429 35.81755,8.46039 43.9825,8.84651 81.45899,14.47266 52.47462,6.59538 105.44849,6.68351 158.21875,5.13867 16.25835,-0.47596 32.4973,-1.46508 48.74609,-2.19727 l -0.0137,-0.36328 c -16.24524,0.73209 -32.4816,1.72132 -48.73633,2.19727 -52.75034,1.54455 -105.70523,1.45733 -158.16016,-5.13477 -37.45333,-5.62216 -45.62254,-6.00986 -81.41797,-14.46484 -19.38634,-4.57912 -45.91474,-12.56226 -65.18359,-18.15234 -8.93115,-2.59102 -17.788,-5.45722 -26.79883,-7.75586 -8.02582,-2.04737 -16.18911,-3.51721 -24.2832,-5.27539 -7.86527,-0.89111 -15.69199,-2.24042 -23.5957,-2.67383 -3.42113,-0.18761 -6.77353,-0.28531 -10.08399,-0.27344 z"
           style="opacity:1;fill:#ecebe4;fill-opacity:1;stroke:#ecebe4;stroke-width:7.55905533;stroke-linecap:round;stroke-linejoin:miter;stroke-miterlimit:4;stroke-dasharray:none;stroke-dashoffset:0;stroke-opacity:1;paint-order:normal"
           inkscape:connector-curvature="0" />
        <path
           style="opacity:1;fill:#ecebe4;fill-opacity:1;stroke:#ecebe4;stroke-width:2;stroke-linecap:round;stroke-linejoin:miter;stroke-miterlimit:4;stroke-dasharray:none;stroke-dashoffset:0;stroke-opacity:1;paint-order:normal"
           id="path4613"
           d="m 76.734563,59.868512 c -0.01156,0.348099 -0.06039,0.696957 -0.03466,1.044297 0.07905,1.067295 0.392533,2.233581 0.696208,3.241569 0.743239,2.467018 1.755548,4.827167 2.752114,7.198675 1.516542,3.191976 2.561386,6.574012 3.328676,10.017773 0.573868,2.575647 1.008647,4.996677 1.042233,7.643043 0.01513,1.192027 -0.142714,2.379969 -0.214069,3.569954 -0.272248,1.112932 -0.439605,2.256898 -0.81674,3.338798 -1.026803,2.945643 -3.268146,6.283169 -5.70127,8.251769 -2.542559,2.05715 -4.441987,2.66622 -7.433244,4.01854 -1.64423,0.48079 -3.266983,1.04229 -4.932691,1.44237 -5.459119,1.31121 -12.299042,2.16758 -17.821888,0.72624 -1.047981,-0.2735 -2.03168,-0.75135 -3.047519,-1.12702 -0.822777,-0.53901 -1.708814,-0.99202 -2.468332,-1.61701 -2.396929,-1.9724 -4.414247,-5.40248 -4.451199,-8.573676 -0.0088,-0.751975 0.197511,-1.491025 0.296267,-2.236539 0.933135,-1.790724 1.137626,-2.754283 2.996819,-3.881673 2.147199,-1.30203 5.162113,-1.819709 7.525628,-2.261402 16.157326,-3.019467 -5.690237,1.402845 10.38569,-1.907735 0,0 0.046,0.21881 0.046,0.21881 v 0 c -4.616567,0.990335 -5.67812,1.012436 -10.065848,2.767348 -2.476519,0.990505 -5.277903,2.345648 -7.00047,4.502264 -0.280805,0.351563 -0.472755,0.765702 -0.709131,1.148554 -0.120521,0.443579 -0.312248,0.873733 -0.361559,1.330743 -0.263101,2.438456 1.169162,5.217896 2.799242,6.936796 0.574484,0.60579 1.261747,1.09363 1.89262,1.64045 0.853543,0.48087 1.660927,1.05492 2.560629,1.44262 5.314783,2.2902 11.82212,2.19213 17.28774,0.50916 1.59304,-0.49053 3.073366,-1.29151 4.610047,-1.93727 1.224582,-0.73553 2.502143,-1.38931 3.673742,-2.20659 3.395464,-2.36862 6.481683,-5.825821 8.03057,-9.70162 0.386302,-0.966648 0.605634,-1.991927 0.908449,-2.98789 0.384858,-3.078297 0.646161,-3.734183 0.283499,-6.907265 -0.540674,-4.73057 -2.575004,-9.006004 -4.728557,-13.184169 -2.028751,-3.928134 -4.13862,-7.849888 -5.533845,-12.059451 0,0 4.204851,-0.400463 4.204851,-0.400463 z"
           inkscape:connector-curvature="0" />
        <path
           sodipodi:nodetypes="csasccccssssccccccc"
           inkscape:connector-curvature="0"
           id="path4615"
           transform="matrix(0.26458333,0,0,0.26458333,-37.681319,-39.942404)"
           d="m 542.45117,439.69727 c -46.98833,0.13972 -93.99479,2.90646 -140.66601,8.31054 -11.6286,1.34648 -23.19613,2.87232 -34.78711,4.36422 -7.67286,0.98759 -15.27547,2.07958 -23.00897,3.03654 -10.87417,1.34559 -18.3884,3.64705 -28.67991,6.07239 -8.5077,2.00495 -16.49145,4.09869 -24.7369,6.91552 l 8.58593,13.73633 c 5.66575,-5.48323 13.08707,-8.52084 20.13282,-11.77929 15.40397,-7.1239 6.88533,-3.60654 26.10141,-10.69256 7.25202,-2.67422 14.09285,-4.99856 21.67984,-6.47541 18.04342,-3.51224 63.03477,-7.92486 79.11523,-9.16016 35.18265,-2.70275 70.37526,-4.1152 105.66797,-3.95703 18.57403,0.0833 37.13536,0.98027 55.70312,1.4707 63.94194,3.52878 33.37587,1.48408 91.71485,5.95703 l 0.0254,-0.36132 c -58.3502,-4.4737 -27.77554,-2.42968 -91.73047,-5.95899 -18.57317,-0.49045 -37.14126,-1.38751 -55.7207,-1.4707 -3.13229,-0.014 -6.26393,-0.0171 -9.39649,-0.008 z"
           style="opacity:1;fill:#ecebe4;fill-opacity:1;stroke:#ecebe4;stroke-width:7.55905533;stroke-linecap:round;stroke-linejoin:miter;stroke-miterlimit:4;stroke-dasharray:none;stroke-dashoffset:0;stroke-opacity:1;paint-order:normal" />
      </g>
      <text
         id="text4694"
         y="172.48781"
         x="124.51218"
         style="font-style:normal;font-variant:normal;font-weight:normal;font-stretch:normal;font-size:10.58333302px;line-height:1.25;font-family:'MV Boli';-inkscape-font-specification:'MV Boli';letter-spacing:0px;word-spacing:0px;fill:#ecebe4;fill-opacity:1;stroke:#ecebe4;stroke-width:0.26458332;stroke-opacity:1"
         xml:space="preserve"><tspan
           style="font-style:normal;font-variant:normal;font-weight:normal;font-stretch:normal;font-size:28.22222137px;font-family:Pacifico;-inkscape-font-specification:Pacifico;stroke-width:0.26458332;fill:#ecebe4;fill-opacity:1;stroke:#ecebe4;stroke-opacity:1"
           y="172.48781"
           x="124.51218"
           id="tspan4692"
           sodipodi:role="line">rieseur</tspan></text>
    </g>
  </g>
</svg>
