<?xml version="1.0" encoding="UTF-8" standalone="no"?>
<!-- Created with Inkscape (http://www.inkscape.org/) -->

<svg
   xmlns:dc="http://purl.org/dc/elements/1.1/"
   xmlns:cc="http://creativecommons.org/ns#"
   xmlns:rdf="http://www.w3.org/1999/02/22-rdf-syntax-ns#"
   xmlns:svg="http://www.w3.org/2000/svg"
   xmlns="http://www.w3.org/2000/svg"
   xmlns:sodipodi="http://sodipodi.sourceforge.net/DTD/sodipodi-0.dtd"
   xmlns:inkscape="http://www.inkscape.org/namespaces/inkscape"
   width="1500"
   height="1000"
   viewBox="0 0 396.875 264.58334"
   version="1.1"
   id="svg8"
   inkscape:version="0.92.1 r15371"
   sodipodi:docname="TitleLogo.svg">
  <defs
     id="defs2">
    <inkscape:path-effect
       effect="sketch"
       id="path-effect4701"
       is_visible="true"
       nbiter_approxstrokes="5"
       strokelength="100"
       strokelength_rdm="0.3;1"
       strokeoverlap="0.3"
       strokeoverlap_rdm="0.3;1"
       ends_tolerance="0.1;1"
       parallel_offset="5;1"
       tremble_size="5;1"
       tremble_frequency="1"
       nbtangents="5"
       tgt_places_rdmness="1;1"
       tgtscale="10"
       tgtlength="100"
       tgtlength_rdm="0.3;1" />
  </defs>
  <sodipodi:namedview
     id="base"
     pagecolor="#ffffff"
     bordercolor="#666666"
     borderopacity="1.0"
     inkscape:pageopacity="0.0"
     inkscape:pageshadow="2"
     inkscape:zoom="1.3703468"
     inkscape:cx="446.83759"
     inkscape:cy="384.41327"
     inkscape:document-units="mm"
     inkscape:current-layer="g4623"
     showgrid="false"
     units="px"
     inkscape:window-width="3840"
     inkscape:window-height="2071"
     inkscape:window-x="-10"
     inkscape:window-y="-10"
     inkscape:window-maximized="1" />
  <metadata
     id="metadata5">
    <rdf:RDF>
      <cc:Work
         rdf:about="">
        <dc:format>image/svg+xml</dc:format>
        <dc:type
           rdf:resource="http://purl.org/dc/dcmitype/StillImage" />
        <dc:title />
      </cc:Work>
    </rdf:RDF>
  </metadata>
  <g
     inkscape:label="Layer 1"
     inkscape:groupmode="layer"
     id="layer1"
     transform="translate(0,-32.41665)">
    <g
       id="g4718"
       transform="translate(7.2667007,-35.419735)"
       style="fill:#ecebe4;fill-opacity:1;stroke:#ecebe4;stroke-opacity:1">
      <g
         id="g4623"
         transform="matrix(1.1377917,0,0,1.1377917,26.93723,-80.018943)">
        <g
           id="flowRoot4485"
           style="font-style:normal;font-variant:normal;font-weight:normal;font-stretch:normal;font-size:40px;line-height:1.25;font-family:'MV Boli';-inkscape-font-specification:'MV Boli';letter-spacing:0px;word-spacing:0px;fill:#f06543;fill-opacity:1;stroke:#f06543;stroke-opacity:1"
           transform="matrix(0.30860764,0,0,0.30860764,-29.524307,106.919)"
           aria-label=" Michaela Lachenmaier">
          <path
             inkscape:connector-curvature="0"
             id="path4496"
             style="font-style:normal;font-variant:normal;font-weight:normal;font-stretch:normal;font-size:192px;line-height:0.5;font-family:Pacifico;-inkscape-font-specification:Pacifico;text-align:center;text-anchor:middle;fill:#f06543;fill-opacity:1;stroke:#f06543;stroke-opacity:1"
             d="m 159.48436,426.08864 q -0.16666,1.25 -0.79166,2.04167 -0.625,0.79166 -1.5,1.25 -0.875,0.45833 -1.875,0.66666 -1,0.16667 -1.91667,0.16667 -1.08333,0 -2.125,-0.20833 -1,-0.25 -1.79167,-0.70834 -0.79166,-0.5 -1.25,-1.16666 -0.45833,-0.70834 -0.45833,-1.58334 0,-1.70833 0.16667,-3.125 0.16666,-1.45833 0.5,-2.91667 1.16666,-4.875 2.04166,-9.04166 0.875,-4.20834 1.5,-7.95834 0.625,-3.75 1.08334,-7.25 0.45833,-3.54166 0.79166,-7.08333 0.375,-3.58333 0.66667,-7.375 0.29167,-3.79167 0.625,-8.125 0,-0.375 0,-0.95833 0,-0.58334 -0.125,-1.08334 -0.125,-0.54166 -0.45833,-0.91666 -0.29167,-0.375 -0.91667,-0.375 -1,0 -2.45833,0.70833 -1.41667,0.66667 -3,1.83333 -1.58334,1.16667 -3.16667,2.75 -1.58333,1.54167 -2.91667,3.33334 -0.25,0.625 -0.79166,0.91666 -0.54167,0.25 -1.20834,0.25 -0.20833,0 -0.41666,-0.33333 -0.25,-0.375 -0.41667,-0.875 -0.20833,-0.5 -0.33333,-1.04167 -0.125,-0.58333 -0.125,-1.04166 0,-0.25 0.16666,-0.41667 1.5,-4.91667 3.375,-8.20833 1.91667,-3.33334 4,-5.29167 2.125,-2 4.29167,-2.83333 2.20833,-0.83334 4.20833,-0.83334 2.58334,0 4.29167,1 1.70833,0.95834 2.70833,2.75 1,1.75 1.375,4.25 0.41667,2.5 0.41667,5.54167 0,2.33333 -0.375,5.45833 -0.375,3.125 -0.95833,6.58334 -0.54167,3.41666 -1.20834,6.875 -0.66666,3.45833 -1.29166,6.45833 1.33333,-5.54167 3.125,-10.625 1.83333,-5.125 3.95833,-9.54167 2.16667,-4.45833 4.58333,-8.04166 2.41667,-3.625 4.95834,-6.20834 2.58333,-2.58333 5.20833,-4 2.625,-1.41666 5.20834,-1.41666 1.91666,0 3.54166,0.83333 1.625,0.83333 2.79167,2.58333 1.16667,1.75 1.79167,4.41667 0.66666,2.66667 0.66666,6.33333 0,0.33334 -0.0833,1.04167 -0.0417,0.70833 -0.16667,1.625 -0.0833,0.91667 -0.25,2 -0.125,1.04167 -0.25,2.08333 -0.33333,2.5 -0.70833,5.41667 l 0.875,-0.0417 q 1.625,-6.16666 4,-11.08333 2.375,-4.91667 5.33333,-8.33333 2.95834,-3.45834 6.375,-5.29167 3.41667,-1.83333 7.08334,-1.83333 2.54166,0 4.5,1.5 2,1.5 3.33333,4.08333 1.33333,2.54167 2.04167,6 0.70833,3.41667 0.70833,7.25 0,3.58333 -0.5,7.375 -0.45833,3.75 -1.16667,7.45833 -0.70833,3.66667 -1.54166,7.20834 -0.79167,3.54166 -1.5,6.70833 -0.70834,3.16667 -1.20834,5.875 -0.45833,2.66667 -0.45833,4.625 0,2.45833 0.875,3.58333 0.91667,1.08334 2.625,1.08334 0.95833,0 2,-0.5 1.08333,-0.54167 2.125,-1.375 1.08333,-0.875 2.125,-1.95834 1.04167,-1.125 2,-2.29166 2.20833,-2.66667 4.375,-6.125 0,0.0417 0.375,0.875 0.29167,0.70833 0.95833,2.41666 0.66667,1.70834 1.875,4.91667 -2.08333,3.66667 -4.29166,6.20833 -2.20834,2.54167 -4.5,4.16667 -2.29167,1.58334 -4.66667,2.29167 -2.33333,0.70833 -4.66667,0.70833 -2.25,0 -4.41666,-0.79166 -2.125,-0.79167 -3.79167,-2.33334 -1.66667,-1.58333 -2.66667,-3.875 -1,-2.33333 -1,-5.33333 0,-0.33334 0,-0.70834 0.0417,-0.375 0.0833,-0.75 0.16666,-2.79166 0.70833,-5.91666 0.54167,-3.16667 1.20833,-6.5 0.70834,-3.33334 1.45834,-6.79167 0.75,-3.45833 1.375,-6.875 0.625,-3.45833 1.04166,-6.79167 0.41667,-3.375 0.41667,-6.45833 0,-1.875 -0.125,-3.375 -0.125,-1.54167 -0.5,-2.58333 -0.375,-1.08334 -1.08333,-1.66667 -0.70834,-0.58333 -1.875,-0.58333 -2.20834,0 -4.16667,1.54166 -1.95833,1.54167 -3.70833,4.25 -1.75,2.70834 -3.29167,6.41667 -1.5,3.70833 -2.875,8.04167 -1.33333,4.29166 -2.5,9.04166 -1.16667,4.70834 -2.16667,9.5 -1,4.79167 -1.875,9.45834 -0.875,4.66666 -1.625,8.83333 -0.33333,1.16667 -1.04166,2 -0.66667,0.79167 -1.58334,1.29167 -0.875,0.5 -1.875,0.75 -1,0.20833 -2,0.20833 -0.875,0 -1.75,-0.33333 -0.83333,-0.33333 -1.5,-1.04167 -0.625,-0.75 -1.04167,-1.875 -0.375,-1.125 -0.375,-2.75 0,-1.08333 0.5,-3.70833 0.5,-2.66667 1.25,-6.33334 0.79167,-3.70833 1.66667,-8.08333 0.91667,-4.41667 1.66667,-8.95833 0.79167,-4.58334 1.29167,-9.04167 0.5,-4.45833 0.5,-8.20833 0,-2.58334 -0.125,-4.625 -0.125,-2.04167 -0.58334,-3.45834 -0.45833,-1.41666 -1.33333,-2.16666 -0.83334,-0.75 -2.25,-0.75 -1.16667,0 -2.66667,1.58333 -1.5,1.58333 -3.25,4.375 -1.70833,2.79167 -3.54167,6.58333 -1.83333,3.75 -3.66666,8.125 -1.79167,4.375 -3.5,9.16667 -1.66667,4.75 -3.08334,9.54167 -1.41666,4.75 -2.5,9.33333 -1.08333,4.54167 -1.625,8.54167 z" />
          <path
             inkscape:connector-curvature="0"
             id="path4498"
             style="font-style:normal;font-variant:normal;font-weight:normal;font-stretch:normal;font-size:85.33333588px;line-height:2.25;font-family:Pacifico;-inkscape-font-specification:Pacifico;text-align:center;text-anchor:middle;fill:#f06543;fill-opacity:1;stroke:#f06543;stroke-opacity:1"
             d="m 261.98437,421.29697 q -1.5,1.375 -3.75,2.95834 -2.20833,1.54166 -4.79167,2.875 -2.58333,1.29166 -5.29166,2.16666 -2.66667,0.875 -5.08334,0.875 -2.16666,0 -3.66666,-0.58333 -1.45834,-0.625 -2.375,-1.70833 -0.91667,-1.08334 -1.33334,-2.625 -0.375,-1.58334 -0.375,-3.45834 0,-2.625 0.58334,-6.125 1.16666,-6.75 1.5,-7.58333 0.58333,-1.83334 2.33333,-8.125 1.41667,-5.25 1.75,-6.83334 0.20833,-1.04166 1.16667,-1.875 0.875,-0.75 1.95833,-1.20833 1.125,-0.5 2.29167,-0.70833 1.20833,-0.25 2.16666,-0.25 1.75,0 2.375,0.66666 0.625,0.625 0.625,1.70834 0,0.91666 -0.41666,2.66666 -0.41667,1.70834 -1.04167,3.91667 -0.625,2.16667 -1.58333,5.25 -0.95834,3.04167 -1.58334,5.58333 -0.625,2.5 -1.04166,4.91667 -0.41667,2.375 -0.41667,4.29167 0,1.875 0.41667,3 0.41666,1.08333 1.70833,1.08333 1.5,0 3.33333,-1.04167 1.83334,-1.04166 3.70834,-2.5 1.875,-1.5 3.66666,-3.08333 1.79167,-1.58333 3.16667,-2.70833 z m -18.625,-43.66667 q 0,-0.95833 0.41667,-2.16666 0.41666,-1.20834 1.33333,-2.25 0.95833,-1.08334 2.5,-1.79167 1.58333,-0.75 3.91667,-0.75 1.45833,0 2.75,0.33333 1.29166,0.33334 2.25,1.04167 0.95833,0.66667 1.5,1.79167 0.58333,1.125 0.58333,2.66666 0,1.41667 -0.45833,2.75 -0.45834,1.33334 -1.45834,2.375 -1,1.04167 -2.54166,1.70834 -1.5,0.625 -3.625,0.625 -3.66667,0 -5.41667,-1.70834 -1.75,-1.75 -1.75,-4.625 z" />
          <path
             inkscape:connector-curvature="0"
             id="path4500"
             style="font-style:normal;font-variant:normal;font-weight:normal;font-stretch:normal;font-size:85.33333588px;line-height:2.25;font-family:Pacifico;-inkscape-font-specification:Pacifico;text-align:center;text-anchor:middle;fill:#f06543;fill-opacity:1;stroke:#f06543;stroke-opacity:1"
             d="m 272.02604,430.17197 q -3.83334,0 -6.75,-1.41666 -2.875,-1.41667 -4.83334,-3.79167 -1.95833,-2.375 -2.95833,-5.5 -1,-3.125 -1,-6.5 0,-2.41667 0.83333,-5.79167 0.83334,-3.375 1.79167,-5.875 1,-2.54167 2.41667,-4.83333 1.45833,-2.29167 3.33333,-4 1.91667,-1.75 4.25,-2.75 2.33333,-1.04167 5.125,-1.04167 2.375,0 4.375,0.75 2.04167,0.70833 3.45833,2 1.45834,1.29167 2.25,3.08333 0.83334,1.75 0.83334,3.79167 0,1.41667 -0.375,2.79167 -0.375,1.375 -1.45834,3.25 -1.08333,1.83333 -2.125,2.5 -1,0.66666 -2.29166,0.66666 -2,0 -2.58334,-1.04166 -0.95833,-1.625 -0.58333,-2.875 0.125,-0.66667 0.75,-3.08334 0.0833,-0.33333 0.0417,-1.5 0,-1 -0.20834,-1.66666 -0.20833,-0.66667 -0.91666,-0.66667 -1.70834,0 -2.91667,0.83333 -1.20833,0.79167 -2.08333,2.125 -0.83334,1.29167 -1.66667,3.70834 -0.83333,2.375 -1.20833,4 -0.33334,1.625 -0.41667,3.125 -0.0833,1.45833 -0.0833,2.45833 0,1.5 0.25,3.125 0.29166,1.625 1.08333,3 0.83333,1.33333 2.125,2.25 1.29167,0.875 3.33333,0.875 2,0 4.41667,-1.20833 2.41667,-1.25 4.83333,-3.125 2.45834,-1.875 4.66667,-4.125 2.20833,-2.25 3.79167,-4.25 l 2.875,4.83333 q -3.125,4.45833 -6.75,7.95833 -1.54167,1.5 -3.375,2.91667 -1.79167,1.41667 -3.79167,2.54167 -1.95833,1.08333 -4.125,1.79167 -2.125,0.66666 -4.33333,0.66666 z" />
          <path
             inkscape:connector-curvature="0"
             id="path4502"
             style="font-style:normal;font-variant:normal;font-weight:normal;font-stretch:normal;font-size:85.33333588px;line-height:2.25;font-family:Pacifico;-inkscape-font-specification:Pacifico;text-align:center;text-anchor:middle;fill:#f06543;fill-opacity:1;stroke:#f06543;stroke-opacity:1"
             d="m 305.02604,404.2553 q 1.70833,-2.25 3.83333,-4.83333 2.125,-2.58333 5.66667,-5.95833 3.58333,-3.375 5.83333,-4.83334 2.29167,-1.5 4.29167,-1.5 0.5,0 1.125,0.20834 0.625,0.16666 1.16666,0.66666 0.58334,0.5 0.95834,1.41667 0.375,0.875 0.375,2.29167 0,2.83333 -0.79167,5.54166 -0.79167,2.66667 -3,6.5 -2.20833,3.83334 -3,6.625 -0.75,2.79167 -0.75,5.83334 0,1.66666 0.5,2.66666 0.5,1 1.29167,1 1,0 2.125,-0.41666 1.125,-0.41667 2.25,-1.08334 1.125,-0.66666 2.20833,-1.5 1.08333,-0.875 2.04167,-1.79166 2.29166,-2.125 4.5,-4.83334 l 0.70833,11.08334 q -0.75,0.58333 -1.91667,1.45833 -1.125,0.875 -2.54166,1.875 -1.375,0.95834 -3,1.95834 -1.625,1 -3.29167,1.79166 -1.625,0.75 -3.29167,1.25 -1.625,0.5 -3.125,0.5 -2.29166,0 -4,-1.20833 -1.66666,-1.25 -2.75,-3.125 -1.08333,-1.91667 -1.625,-4.16667 -0.54166,-2.25 -0.54166,-4.25 0,-1.33333 0.33333,-2.95833 0.375,-1.66667 0.875,-3.33334 0.54167,-1.66666 1.16667,-3.25 0.66666,-1.58333 1.20833,-2.83333 0.58333,-1.25 1,-2.04167 0.41667,-0.79166 0.54167,-0.91666 l -0.875,-0.125 q -0.70834,0.45833 -2.41667,2.33333 -1.66667,1.875 -3.79167,4.75 -2.125,2.83333 -4.41666,6.41667 -2.25,3.54166 -4.08334,7.33333 -0.91666,1.875 -1.5,3.29167 -0.58333,1.375 -1.16666,2.29167 -0.54167,0.875 -1.20834,1.33333 -0.66666,0.45833 -1.70833,0.45833 -1.375,0 -2.16667,-0.79166 -0.79166,-0.79167 -1.20833,-2.08334 -0.41667,-1.33333 -0.54167,-3 -0.125,-1.66667 -0.125,-3.41667 0,-2.79166 0.0417,-7.29166 0.0833,-4.54167 0.41667,-10.04167 0.33333,-5.5 0.95833,-11.58333 0.625,-6.08334 1.75,-12 1.16667,-5.95834 2.875,-11.33334 1.75,-5.41666 4.20833,-9.5 2.5,-4.125 5.83334,-6.54166 3.33333,-2.41667 7.66666,-2.41667 2.25,0 3.66667,0.66667 1.45833,0.66666 2.29167,1.875 0.875,1.20833 1.20833,2.91666 0.33333,1.66667 0.33333,3.75 0,3.08334 -0.875,6.83334 -0.875,3.75 -2.33333,7.79166 -1.41667,4.04167 -3.25,8.20834 -1.83333,4.125 -3.75,8.04166 -1.91667,3.875 -3.79167,7.33334 -1.83333,3.45833 -3.25,6.08333 z m 3.70833,-25.75 q 2.45833,-6.375 3.54167,-10.75 1.125,-4.375 1.125,-6.45833 0,-3.16667 -0.83334,-3.16667 -1.08333,0 -3.20833,3.54167 -2.125,3.54167 -5,10.29167 -0.70833,2.29166 -1.33333,4.75 -0.58334,2.45833 -1.08334,4.91666 -0.45833,2.41667 -0.875,4.79167 -0.375,2.33333 -0.66666,4.45833 -0.70834,4.95834 -1.08334,9.70834 1.125,-2.625 2.45834,-5.70834 1.33333,-3.08333 2.625,-6.08333 1.29166,-3.04167 2.41666,-5.70833 1.16667,-2.70834 1.91667,-4.58334 z" />
          <path
             inkscape:connector-curvature="0"
             id="path4504"
             style="font-style:normal;font-variant:normal;font-weight:normal;font-stretch:normal;font-size:85.33333588px;line-height:2.25;font-family:Pacifico;-inkscape-font-specification:Pacifico;text-align:center;text-anchor:middle;fill:#f06543;fill-opacity:1;stroke:#f06543;stroke-opacity:1"
             d="m 379.0677,419.96364 q -0.95833,1.33333 -2.58333,3.125 -1.58334,1.79167 -3.58334,3.41667 -2,1.625 -4.29167,2.75 -2.29166,1.125 -4.58333,1.125 -2.75,0 -4.58333,-1.75 -1.83334,-1.79167 -3.16667,-5.16667 -1,1.16667 -2.45833,2.375 -1.45834,1.20833 -3.20834,2.20833 -1.70833,0.95834 -3.58333,1.58334 -1.875,0.625 -3.75,0.625 -2,0 -3.91667,-0.79167 -1.875,-0.83333 -3.33333,-2.33333 -1.45833,-1.54167 -2.33333,-3.70834 -0.875,-2.20833 -0.875,-4.95833 0,-3.125 0.875,-6.41667 0.875,-3.29167 2.70833,-7.125 1.83333,-3.83333 3.91667,-6.625 2.125,-2.79167 4.625,-4.875 2.5,-2.08333 5.25,-3.29167 2.79166,-1.25 5.66666,-1.25 0.95834,0 1.5,0.375 0.54167,0.375 0.875,0.875 0.375,0.45834 0.70834,0.91667 0.33333,0.45833 0.83333,0.66667 0.5,0.20833 1,0.29166 0.54167,0.0417 1.08333,0.0417 0.45834,0 0.91667,0 0.5,-0.0417 0.95833,-0.0417 0.625,0 1.16667,0.125 0.54167,0.125 0.95833,0.54167 0.41667,0.41667 0.625,1.16667 0.25,0.75 0.25,2.04166 0,2 -0.41666,4.45834 -0.41667,2.41666 -0.91667,5 -0.5,2.54166 -1.20833,5.79166 -0.70834,3.25 -0.70834,5.54167 0,1.95833 0.33334,3.08333 0.375,1.08334 1.54166,1.08334 0.875,0 1.83334,-0.41667 0.95833,-0.45833 1.91666,-1.16667 1,-0.70833 1.95834,-1.58333 1,-0.91667 1.875,-1.875 2.04167,-2.25 4.125,-5.08333 z m -35.58334,-3.29167 q 0,1.04167 0.125,2.04167 0.16667,0.95833 0.54167,1.75 0.375,0.75 1,1.25 0.625,0.45833 1.58333,0.45833 1.54167,0 2.79167,-1.33333 1.25,-1.33334 2.16667,-3.20834 0.91666,-1.875 1.45833,-3.875 0.58333,-2 0.75,-3.33333 l 3.125,-13.625 q -1.70833,0 -3.33333,0.875 -1.625,0.83333 -3.08334,2.29167 -1.41666,1.45833 -2.625,3.33333 -1.20833,1.875 -2.375,4.625 -1.16666,2.75 -1.66666,4.83333 -0.45834,2.08334 -0.45834,3.91667 z" />
          <path
             inkscape:connector-curvature="0"
             id="path4506"
             style="font-style:normal;font-variant:normal;font-weight:normal;font-stretch:normal;font-size:85.33333588px;line-height:2.25;font-family:Pacifico;-inkscape-font-specification:Pacifico;text-align:center;text-anchor:middle;fill:#f06543;fill-opacity:1;stroke:#f06543;stroke-opacity:1"
             d="m 389.90104,430.17197 q -3.91667,0 -6.875,-1.41666 -2.91667,-1.41667 -4.875,-3.79167 -1.95833,-2.41667 -2.95833,-5.54167 -0.95834,-3.16667 -0.95834,-6.625 0,-2.33333 0.875,-5.54167 0.875,-3.25 1.79167,-5.75 0.95833,-2.5 2.375,-4.75 1.41667,-2.29166 3.29167,-4 1.91666,-1.75 4.25,-2.75 2.375,-1.04166 5.25,-1.04166 2.33333,0 4.33333,0.75 2,0.75 3.45833,2.125 1.5,1.33333 2.33334,3.25 0.83333,1.91666 0.83333,4.29166 0,2.58334 -1.70833,5.79167 -1.66667,3.20833 -3.91667,5.5 -2.25,2.29167 -5.375,4.08333 -3.08333,1.79167 -6.70833,2.79167 0.625,1.125 1.20833,1.875 0.625,0.75 1.25,1.16667 0.625,0.41666 1.29167,0.58333 0.70833,0.16667 1.5,0.16667 2.5,0 5.25,-1 2.79166,-1 5.41666,-2.5 2.625,-1.5 4.95834,-3.25 2.33333,-1.79167 3.95833,-3.375 l 5.375,5.58333 q -3.66666,3.79167 -7.79167,6.70833 -1.79166,1.25001 -3.875,2.45834 -2.04166,1.20833 -4.33333,2.16667 -2.25,0.91666 -4.70833,1.5 -2.41667,0.54166 -4.91667,0.54166 z m -5.54167,-19.58333 q 1.5,0 3.25,-0.75 1.79167,-0.79167 3.29167,-2 1.54167,-1.20834 3,-3.25 1.45833,-2.04167 1.45833,-3.375 0,-1.875 -0.70833,-3.08334 -0.66667,-1.20833 -1.66667,-1.20833 -1.79166,0 -3.08333,0.66667 -1.25,0.66666 -2.125,1.75 -0.83333,1.04166 -1.375,2.41666 -0.5,1.33334 -1.20833,3.33334 -0.66667,2 -0.75,3.29166 -0.0833,1.29167 -0.0833,2.20834 z" />
          <path
             inkscape:connector-curvature="0"
             id="path4508"
             style="font-style:normal;font-variant:normal;font-weight:normal;font-stretch:normal;font-size:85.33333588px;line-height:2.25;font-family:Pacifico;-inkscape-font-specification:Pacifico;text-align:center;text-anchor:middle;fill:#f06543;fill-opacity:1;stroke:#f06543;stroke-opacity:1"
             d="m 416.60937,430.17197 q -2.25,0 -4.20833,-1.95833 -1.91667,-2 -3.375,-5.33334 -1.41667,-3.33333 -2.25,-7.70833 -0.79167,-4.41667 -0.79167,-9.25 0,-3.70833 0.54167,-8.04167 0.54167,-4.375 1.58333,-9 1.04167,-4.625 2.45834,-9.29166 1.45833,-4.66667 3.25,-8.95834 1.83333,-4.29166 3.95833,-8 2.125,-3.75 4.45833,-6.5 2.33334,-2.79166 4.875,-4.375 2.54167,-1.58333 5.16667,-1.58333 1.79167,0 2.95833,0.83333 1.16667,0.79167 1.83334,2.125 0.66666,1.33334 0.91666,3.04167 0.29167,1.66667 0.29167,3.41667 0,3.91666 -0.91667,8 -0.875,4.04166 -2.41666,8.16666 -1.5,4.08334 -3.5,8.20834 -2,4.125 -4.16667,8.20833 -2.16667,4.04167 -4.375,8 -2.16667,3.91667 -4.08333,7.66667 -0.20834,0.41666 -0.45834,1.08333 -0.20833,0.66667 -0.41666,1.45833 -0.20834,0.75 -0.41667,1.625 -0.20833,0.875 -0.33333,1.70834 v 0.58333 q 0,1.08333 0.20833,2.125 0.25,1 0.58333,1.83333 0.33334,0.79167 0.70834,1.29167 0.375,0.45833 0.70833,0.45833 0.79167,0 1.79167,-0.33333 1.04166,-0.33333 2.16666,-0.875 1.16667,-0.58333 2.375,-1.29167 1.20834,-0.75 2.33334,-1.5 2.625,-1.75 5.5,-4.04166 l 3.41666,8.75 q -3.70833,2.66666 -7.33333,4.75 -1.58333,0.875 -3.29167,1.75 -1.66666,0.83333 -3.375,1.5 -1.70833,0.66667 -3.33333,1.08333 -1.625,0.375 -3.04167,0.375 z m 0.0417,-33.33333 q 1.875,-3.33334 3.95833,-7.5 2.125,-4.16667 4,-8.58334 1.875,-4.41666 3.25,-8.79166 1.375,-4.41667 1.75,-8.20834 0,-1.20833 -0.0833,-2.04166 -0.0417,-0.875 -0.375,-0.875 -1.20833,0 -2.625,1.58333 -1.375,1.54167 -2.79167,4.20833 -1.375,2.66667 -2.66666,6.20834 -1.25,3.54166 -2.25,7.54166 -1,4 -1.58334,8.25 -0.58333,4.20834 -0.58333,8.20834 z" />
          <path
             inkscape:connector-curvature="0"
             id="path4510"
             style="font-style:normal;font-variant:normal;font-weight:normal;font-stretch:normal;font-size:85.33333588px;line-height:2.25;font-family:Pacifico;-inkscape-font-specification:Pacifico;text-align:center;text-anchor:middle;fill:#f06543;fill-opacity:1;stroke:#f06543;stroke-opacity:1"
             d="m 473.23439,419.96364 q -0.95834,1.33333 -2.58334,3.125 -1.58333,1.79167 -3.58333,3.41667 -2,1.625 -4.29167,2.75 -2.29166,1.125 -4.58333,1.125 -2.75,0 -4.58334,-1.75 -1.83333,-1.79167 -3.16666,-5.16667 -1,1.16667 -2.45834,2.375 -1.45833,1.20833 -3.20833,2.20833 -1.70833,0.95834 -3.58333,1.58334 -1.875,0.625 -3.75,0.625 -2,0 -3.91667,-0.79167 -1.875,-0.83333 -3.33333,-2.33333 -1.45834,-1.54167 -2.33334,-3.70834 -0.875,-2.20833 -0.875,-4.95833 0,-3.125 0.875,-6.41667 0.875,-3.29167 2.70834,-7.125 1.83333,-3.83333 3.91666,-6.625 2.125,-2.79167 4.625,-4.875 2.5,-2.08333 5.25,-3.29167 2.79167,-1.25 5.66667,-1.25 0.95833,0 1.5,0.375 0.54167,0.375 0.875,0.875 0.375,0.45834 0.70833,0.91667 0.33334,0.45833 0.83334,0.66667 0.5,0.20833 1,0.29166 0.54166,0.0417 1.08333,0.0417 0.45833,0 0.91667,0 0.5,-0.0417 0.95833,-0.0417 0.625,0 1.16667,0.125 0.54167,0.125 0.95833,0.54167 0.41667,0.41667 0.625,1.16667 0.25,0.75 0.25,2.04166 0,2 -0.41666,4.45834 -0.41667,2.41666 -0.91667,5 -0.5,2.54166 -1.20833,5.79166 -0.70834,3.25 -0.70834,5.54167 0,1.95833 0.33334,3.08333 0.375,1.08334 1.54166,1.08334 0.875,0 1.83334,-0.41667 0.95833,-0.45833 1.91666,-1.16667 1,-0.70833 1.95834,-1.58333 1,-0.91667 1.875,-1.875 2.04166,-2.25 4.125,-5.08333 z m -35.58334,-3.29167 q 0,1.04167 0.125,2.04167 0.16667,0.95833 0.54167,1.75 0.375,0.75 1,1.25 0.625,0.45833 1.58333,0.45833 1.54167,0 2.79167,-1.33333 1.25,-1.33334 2.16666,-3.20834 0.91667,-1.875 1.45834,-3.875 0.58333,-2 0.75,-3.33333 l 3.125,-13.625 q -1.70834,0 -3.33334,0.875 -1.625,0.83333 -3.08333,2.29167 -1.41667,1.45833 -2.625,3.33333 -1.20833,1.875 -2.375,4.625 -1.16667,2.75 -1.66667,4.83333 -0.45833,2.08334 -0.45833,3.91667 z" />
          <path
             inkscape:connector-curvature="0"
             id="path4512"
             style="font-style:normal;font-variant:normal;font-weight:normal;font-stretch:normal;font-size:85.33333588px;line-height:2.25;font-family:Pacifico;-inkscape-font-specification:Pacifico;text-align:center;text-anchor:middle;fill:#f06543;fill-opacity:1;stroke:#f06543;stroke-opacity:1"
             d="m 480.81772,416.54697 q 0.54166,-0.375 1.83333,-1.20833 1.29167,-0.875 3.04167,-2.04167 1.75,-1.16667 3.75,-2.54167 2.04166,-1.41666 4,-2.83333 l 0.33333,-2.83333 q 0.91667,-8.75 2.95833,-16.04167 2.04167,-7.33333 4.79167,-13.20833 2.79167,-5.91667 6.04167,-10.33334 3.29166,-4.41666 6.66666,-7.375 3.41667,-3 6.70834,-4.45833 3.33333,-1.5 6.20833,-1.5 2.08334,0 3.83334,0.79167 1.75,0.79166 3,2.375 1.25,1.58333 1.95833,3.95833 0.70833,2.375 0.70833,5.54167 0,3.875 -1.16666,8.125 -1.16667,4.25 -3.33334,8.58333 -2.125,4.33333 -5.125,8.66667 -3,4.29166 -6.66666,8.29166 -3.62501,4 -7.87501,7.58334 -4.20833,3.54166 -8.75,6.33333 0,2.54167 -0.16666,6.08333 -0.0417,1.5 -0.0833,2.29167 0,0.75 0,1.04167 0,0.29166 0,0.45833 0,0.375 0.125,0.70833 0.16667,0.29167 0.58334,0.5 0.45833,0.16667 1.20833,0.29167 0.75,0.0833 2,0.0833 1.83333,0 5.04167,-0.91667 l 13.95833,-4 q 0.25,-0.0833 0.66667,-0.125 0.33333,-0.0417 0.625,-0.0417 1.04167,0 1.79167,0.41667 0.75,0.375 1.25,1.04166 0.5,0.66667 0.75,1.54167 0.25,0.875 0.25,1.79167 0,0.83333 -0.25,1.625 -0.25,0.79167 -0.75,1.5 -0.5,0.66667 -1.25,1.16667 -0.75,0.5 -1.75,0.66666 -4.08334,1.625 -8.33334,2.91667 -1.83333,0.54167 -3.875,1.04167 -2,0.54166 -4.125,0.91666 -2.08333,0.41667 -4.25,0.66667 -2.125,0.25 -4.125,0.25 -3.08333,0 -5.08333,-1.08333 -1.95834,-1.04167 -3.125,-2.875 -1.125,-1.79167 -1.58334,-5.20834 -0.45833,-3.41667 -0.45833,-6.08333 -3.58333,2.625 -6.08333,4.16666 -2.5,1.54167 -3.20834,1.54167 -0.70833,0 -1.33333,-0.45833 -0.66667,-0.5 -1.20833,-1.29167 -0.54167,-0.79167 -0.83334,-1.75 -0.33333,-1 -0.33333,-1.95833 0,-0.79167 0.20833,-1.54167 0.16667,-0.79167 0.83334,-1.25 z m 23.66666,-14.625 q 2.125,-2.20833 4.41667,-4.79167 2.33333,-2.625 4.58333,-5.45833 2.29167,-2.875 4.375,-5.83333 2.12501,-3 3.79167,-5.95834 1.70834,-2.95833 2.83334,-5.75 1.16666,-2.79166 1.5,-5.29166 0.125,-0.83334 0.16666,-1.58334 0.0417,-0.79166 0.0417,-1.45833 0,-2.375 -0.66667,-3.45833 -0.625,-1.08334 -1.75,-1.08334 -1.33333,0 -3.125,1.41667 -1.79167,1.375 -3.75,3.95833 -1.95833,2.58334 -3.95833,6.25 -2,3.66667 -3.70834,8.16667 -1.70833,4.5 -3,9.79167 -1.25,5.29166 -1.75,11.08333 z" />
          <path
             inkscape:connector-curvature="0"
             id="path4514"
             style="font-style:normal;font-variant:normal;font-weight:normal;font-stretch:normal;font-size:85.33333588px;line-height:2.25;font-family:Pacifico;-inkscape-font-specification:Pacifico;text-align:center;text-anchor:middle;fill:#f06543;fill-opacity:1;stroke:#f06543;stroke-opacity:1"
             d="m 576.73439,419.96364 q -0.95834,1.33333 -2.58334,3.125 -1.58333,1.79167 -3.58333,3.41667 -2,1.625 -4.29167,2.75 -2.29166,1.125 -4.58333,1.125 -2.75,0 -4.58334,-1.75 -1.83333,-1.79167 -3.16666,-5.16667 -1,1.16667 -2.45834,2.375 -1.45833,1.20833 -3.20833,2.20833 -1.70833,0.95834 -3.58333,1.58334 -1.875,0.625 -3.75,0.625 -2,0 -3.91667,-0.79167 -1.875,-0.83333 -3.33333,-2.33333 -1.45834,-1.54167 -2.33334,-3.70834 -0.875,-2.20833 -0.875,-4.95833 0,-3.125 0.875,-6.41667 0.875,-3.29167 2.70834,-7.125 1.83333,-3.83333 3.91666,-6.625 2.125,-2.79167 4.625,-4.875 2.5,-2.08333 5.25,-3.29167 2.79167,-1.25 5.66667,-1.25 0.95833,0 1.5,0.375 0.54167,0.375 0.875,0.875 0.375,0.45834 0.70833,0.91667 0.33334,0.45833 0.83334,0.66667 0.5,0.20833 1,0.29166 0.54166,0.0417 1.08333,0.0417 0.45833,0 0.91667,0 0.5,-0.0417 0.95833,-0.0417 0.625,0 1.16667,0.125 0.54167,0.125 0.95833,0.54167 0.41667,0.41667 0.625,1.16667 0.25,0.75 0.25,2.04166 0,2 -0.41666,4.45834 -0.41667,2.41666 -0.91667,5 -0.5,2.54166 -1.20833,5.79166 -0.70834,3.25 -0.70834,5.54167 0,1.95833 0.33334,3.08333 0.375,1.08334 1.54166,1.08334 0.875,0 1.83334,-0.41667 0.95833,-0.45833 1.91666,-1.16667 1,-0.70833 1.95834,-1.58333 1,-0.91667 1.875,-1.875 2.04166,-2.25 4.125,-5.08333 z m -35.58334,-3.29167 q 0,1.04167 0.125,2.04167 0.16667,0.95833 0.54167,1.75 0.375,0.75 1,1.25 0.625,0.45833 1.58333,0.45833 1.54167,0 2.79167,-1.33333 1.25,-1.33334 2.16666,-3.20834 0.91667,-1.875 1.45834,-3.875 0.58333,-2 0.75,-3.33333 l 3.125,-13.625 q -1.70834,0 -3.33334,0.875 -1.625,0.83333 -3.08333,2.29167 -1.41667,1.45833 -2.625,3.33333 -1.20833,1.875 -2.375,4.625 -1.16667,2.75 -1.66667,4.83333 -0.45833,2.08334 -0.45833,3.91667 z" />
          <path
             inkscape:connector-curvature="0"
             id="path4516"
             style="font-style:normal;font-variant:normal;font-weight:normal;font-stretch:normal;font-size:85.33333588px;line-height:2.25;font-family:Pacifico;-inkscape-font-specification:Pacifico;text-align:center;text-anchor:middle;fill:#f06543;fill-opacity:1;stroke:#f06543;stroke-opacity:1"
             d="m 586.35939,430.17197 q -3.83333,0 -6.75,-1.41666 -2.875,-1.41667 -4.83333,-3.79167 -1.95833,-2.375 -2.95833,-5.5 -1,-3.125 -1,-6.5 0,-2.41667 0.83333,-5.79167 0.83333,-3.375 1.79167,-5.875 1,-2.54167 2.41666,-4.83333 1.45834,-2.29167 3.33334,-4 1.91666,-1.75 4.25,-2.75 2.33333,-1.04167 5.125,-1.04167 2.375,0 4.375,0.75 2.04167,0.70833 3.45833,2 1.45834,1.29167 2.25,3.08333 0.83334,1.75 0.83334,3.79167 0,1.41667 -0.375,2.79167 -0.375,1.375 -1.45834,3.25 -1.08333,1.83333 -2.125,2.5 -1,0.66666 -2.29167,0.66666 -2,0 -2.58333,-1.04166 -0.95833,-1.625 -0.58333,-2.875 0.125,-0.66667 0.75,-3.08334 0.0833,-0.33333 0.0417,-1.5 0,-1 -0.20833,-1.66666 -0.20833,-0.66667 -0.91667,-0.66667 -1.70833,0 -2.91666,0.83333 -1.20834,0.79167 -2.08334,2.125 -0.83333,1.29167 -1.66666,3.70834 -0.83334,2.375 -1.20834,4 -0.33333,1.625 -0.41666,3.125 -0.0833,1.45833 -0.0833,2.45833 0,1.5 0.25,3.125 0.29167,1.625 1.08334,3 0.83333,1.33333 2.125,2.25 1.29166,0.875 3.33333,0.875 2,0 4.41667,-1.20833 2.41667,-1.25 4.83333,-3.125 2.45834,-1.875 4.66667,-4.125 2.20833,-2.25 3.79167,-4.25 l 2.875,4.83333 q -3.125,4.45833 -6.75,7.95833 -1.54167,1.5 -3.375,2.91667 -1.79167,1.41667 -3.79167,2.54167 -1.95834,1.08333 -4.125,1.79167 -2.125,0.66666 -4.33334,0.66666 z" />
          <path
             inkscape:connector-curvature="0"
             id="path4518"
             style="font-style:normal;font-variant:normal;font-weight:normal;font-stretch:normal;font-size:85.33333588px;line-height:2.25;font-family:Pacifico;-inkscape-font-specification:Pacifico;text-align:center;text-anchor:middle;fill:#f06543;fill-opacity:1;stroke:#f06543;stroke-opacity:1"
             d="m 619.35939,404.2553 q 1.70834,-2.25 3.83334,-4.83333 2.125,-2.58333 5.66667,-5.95833 3.58333,-3.375 5.83333,-4.83334 2.29167,-1.5 4.29167,-1.5 0.5,0 1.125,0.20834 0.625,0.16666 1.16666,0.66666 0.58334,0.5 0.95834,1.41667 0.375,0.875 0.375,2.29167 0,2.83333 -0.79167,5.54166 -0.79167,2.66667 -3,6.5 -2.20833,3.83334 -3,6.625 -0.75,2.79167 -0.75,5.83334 0,1.66666 0.5,2.66666 0.5,1 1.29167,1 1,0 2.125,-0.41666 1.125,-0.41667 2.25,-1.08334 1.125,-0.66666 2.20833,-1.5 1.08333,-0.875 2.04167,-1.79166 2.29166,-2.125 4.5,-4.83334 l 0.70833,11.08334 q -0.75,0.58333 -1.91667,1.45833 -1.125,0.875 -2.54166,1.875 -1.375,0.95834 -3,1.95834 -1.625,1 -3.29167,1.79166 -1.625,0.75 -3.29167,1.25 -1.625,0.5 -3.125,0.5 -2.29166,0 -4,-1.20833 -1.66666,-1.25 -2.75,-3.125 -1.08333,-1.91667 -1.625,-4.16667 -0.54167,-2.25 -0.54167,-4.25 0,-1.33333 0.33334,-2.95833 0.375,-1.66667 0.875,-3.33334 0.54167,-1.66666 1.16667,-3.25 0.66666,-1.58333 1.20833,-2.83333 0.58333,-1.25 1,-2.04167 0.41667,-0.79166 0.54167,-0.91666 l -0.875,-0.125 q -0.70834,0.45833 -2.41667,2.33333 -1.66667,1.875 -3.79167,4.75 -2.125,2.83333 -4.41667,6.41667 -2.25,3.54166 -4.08333,7.33333 -0.91667,1.875 -1.5,3.29167 -0.58333,1.375 -1.16667,2.29167 -0.54166,0.875 -1.20833,1.33333 -0.66667,0.45833 -1.70833,0.45833 -1.375,0 -2.16667,-0.79166 -0.79167,-0.79167 -1.20833,-2.08334 -0.41667,-1.33333 -0.54167,-3 -0.125,-1.66667 -0.125,-3.41667 0,-2.79166 0.0417,-7.29166 0.0833,-4.54167 0.41666,-10.04167 0.33334,-5.5 0.95834,-11.58333 0.625,-6.08334 1.75,-12 1.16666,-5.95834 2.875,-11.33334 1.75,-5.41666 4.20833,-9.5 2.5,-4.125 5.83333,-6.54166 3.33334,-2.41667 7.66667,-2.41667 2.25,0 3.66667,0.66667 1.45833,0.66666 2.29167,1.875 0.875,1.20833 1.20833,2.91666 0.33333,1.66667 0.33333,3.75 0,3.08334 -0.875,6.83334 -0.875,3.75 -2.33333,7.79166 -1.41667,4.04167 -3.25,8.20834 -1.83333,4.125 -3.75,8.04166 -1.91667,3.875 -3.79167,7.33334 -1.83333,3.45833 -3.25,6.08333 z m 3.70834,-25.75 q 2.45833,-6.375 3.54167,-10.75 1.125,-4.375 1.125,-6.45833 0,-3.16667 -0.83334,-3.16667 -1.08333,0 -3.20833,3.54167 -2.125,3.54167 -5,10.29167 -0.70834,2.29166 -1.33334,4.75 -0.58333,2.45833 -1.08333,4.91666 -0.45833,2.41667 -0.875,4.79167 -0.375,2.33333 -0.66667,4.45833 -0.70833,4.95834 -1.08333,9.70834 1.125,-2.625 2.45833,-5.70834 1.33334,-3.08333 2.625,-6.08333 1.29167,-3.04167 2.41667,-5.70833 1.16667,-2.70834 1.91667,-4.58334 z" />
          <path
             inkscape:connector-curvature="0"
             id="path4520"
             style="font-style:normal;font-variant:normal;font-weight:normal;font-stretch:normal;font-size:85.33333588px;line-height:2.25;font-family:Pacifico;-inkscape-font-specification:Pacifico;text-align:center;text-anchor:middle;fill:#f06543;fill-opacity:1;stroke:#f06543;stroke-opacity:1"
             d="m 663.90104,430.17197 q -3.91667,0 -6.875,-1.41666 -2.91667,-1.41667 -4.875,-3.79167 -1.95833,-2.41667 -2.95833,-5.54167 -0.95834,-3.16667 -0.95834,-6.625 0,-2.33333 0.875,-5.54167 0.875,-3.25 1.79167,-5.75 0.95833,-2.5 2.375,-4.75 1.41667,-2.29166 3.29167,-4 1.91666,-1.75 4.25,-2.75 2.375,-1.04166 5.25,-1.04166 2.33333,0 4.33333,0.75 2,0.75 3.45833,2.125 1.5,1.33333 2.33334,3.25 0.83333,1.91666 0.83333,4.29166 0,2.58334 -1.70833,5.79167 -1.66667,3.20833 -3.91667,5.5 -2.25,2.29167 -5.375,4.08333 -3.08333,1.79167 -6.70833,2.79167 0.625,1.125 1.20833,1.875 0.625,0.75 1.25,1.16667 0.625,0.41666 1.29167,0.58333 0.70833,0.16667 1.5,0.16667 2.5,0 5.25,-1 2.79166,-1 5.41666,-2.5 2.625,-1.5 4.95834,-3.25 2.33333,-1.79167 3.95833,-3.375 l 5.375,5.58333 q -3.66666,3.79167 -7.79167,6.70833 -1.79166,1.25001 -3.875,2.45834 -2.04166,1.20833 -4.33333,2.16667 -2.25,0.91666 -4.70833,1.5 -2.41667,0.54166 -4.91667,0.54166 z m -5.54167,-19.58333 q 1.5,0 3.25,-0.75 1.79167,-0.79167 3.29167,-2 1.54167,-1.20834 3,-3.25 1.45833,-2.04167 1.45833,-3.375 0,-1.875 -0.70833,-3.08334 -0.66667,-1.20833 -1.66667,-1.20833 -1.79166,0 -3.08333,0.66667 -1.25,0.66666 -2.125,1.75 -0.83333,1.04166 -1.375,2.41666 -0.5,1.33334 -1.20833,3.33334 -0.66667,2 -0.75,3.29166 -0.0833,1.29167 -0.0833,2.20834 z" />
          <path
             inkscape:connector-curvature="0"
             id="path4522"
             style="font-style:normal;font-variant:normal;font-weight:normal;font-stretch:normal;font-size:85.33333588px;line-height:2.25;font-family:Pacifico;-inkscape-font-specification:Pacifico;text-align:center;text-anchor:middle;fill:#f06543;fill-opacity:1;stroke:#f06543;stroke-opacity:1"
             d="m 681.31774,421.46364 q 0,-2.75 0.33333,-6.33334 0.33333,-3.625 0.83333,-7.91666 0.5,-4.33334 1.125,-7.79167 0.625,-3.45833 1.20834,-5.91667 0.45833,-1.91666 1.75,-3.20833 1.33333,-1.29167 3.58333,-1.29167 2.25,0 3.125,1.375 0.875,1.375 0.875,3.66667 0,0.625 -0.125,1.70833 -0.125,1.04167 -0.33333,2.33334 -0.16667,1.25 -0.375,2.625 -0.20834,1.33333 -0.41667,3.08333 -0.16667,1.70833 -0.29167,2.58333 -0.125,0.83334 -0.125,1.125 h 0.83334 q 0.25,-0.45833 0.79166,-1.45833 0.54167,-1.04167 1.25,-2.95833 0.70834,-1.91667 1.5,-3.375 0.83334,-1.5 1.54167,-2.83334 0.70834,-1.375 1.29167,-2.41666 0.58333,-1.04167 0.875,-1.54167 1.33333,-2.25 3.04167,-3.08333 1.70833,-0.83334 3.79166,-0.83334 2.08334,0 3.29167,1.75 1.25,1.75 1.25,4.83334 0,0.45833 -0.20833,1.54166 -0.16667,1.08334 -0.45834,2.58334 -0.29166,1.5 -0.66666,3.875 -0.33334,2.375 -0.625,4.25 -0.29167,1.875 -0.5,3.70833 -0.16667,1.83333 -0.16667,3.375 0,2.58333 0.625,4.25 0.66667,1.66667 2.04167,1.66667 0.5,0 1.41666,-0.375 1.375,-0.5 1.75,-0.875 1.83334,-1.41667 1.91667,-1.375 0.125,0.0417 2.79167,-1.66667 3.33333,-2.125 7.95833,-5.20833 l -0.0417,9.33333 -2.08333,1.58333 q -0.25,0.20834 -3.91667,2.16667 -5.29166,2.83334 -6.625,3.41667 -3.25,1.45833 -4.04166,1.66667 -2.08334,0.66666 -4.375,0.66666 -2.29167,0 -3.875,-3.29166 -1.54167,-3.33334 -1.54167,-9.70834 0,-2.5 0.33333,-5.375 0.33334,-2.91667 0.83334,-6.25 h -0.66667 l -10.91667,21.66667 q -0.875,1.75 -1.875,2.33333 -1.04167,0.625 -2.41667,0.625 -1.70833,0 -2.75,-0.70833 -1.04166,-0.75 -1.625,-1.95833 -0.54166,-1.25 -0.75,-2.79167 -0.16666,-1.58334 -0.16666,-3.25 z" />
          <path
             inkscape:connector-curvature="0"
             id="path4524"
             style="font-style:normal;font-variant:normal;font-weight:normal;font-stretch:normal;font-size:85.33333588px;line-height:2.25;font-family:Pacifico;-inkscape-font-specification:Pacifico;text-align:center;text-anchor:middle;fill:#f06543;fill-opacity:1;stroke:#f06543;stroke-opacity:1"
             d="m 738.98438,422.3803 q 0,-0.54166 0.0833,-1.54166 0.0833,-1 0.25,-2.29167 0.16666,-1.29167 0.375,-2.70833 0.20833,-1.45834 0.41666,-2.875 0.45834,-3.33334 1.125,-7.16667 h -0.625 q -0.5,0.625 -1.16666,1.875 -0.625,1.25 -1.79167,3.66667 -1.16667,2.41666 -3,6.29166 -1.79167,3.83334 -4.66667,9.62501 -0.83333,1.70833 -1.95833,2.33333 -1.08333,0.58333 -2.41667,0.58333 -1.70833,0 -2.75,-0.70833 -1.04166,-0.75 -1.625,-1.95833 -0.54166,-1.25 -0.75,-2.79167 -0.16666,-1.58334 -0.16666,-3.25 0,-1.70834 0.20833,-4.04167 0.20833,-2.33333 0.54167,-4.91667 0.33333,-2.58333 0.95833,-5.875 0.66667,-3.33333 1.125,-5.79166 0.5,-2.45834 1,-4.5 0.5,-2.04167 0.91667,-3.33334 0.41666,-1.33333 0.79166,-2.125 0.375,-0.79166 0.83334,-1.20833 0.5,-0.45833 1.16666,-0.58333 0.66667,-0.16667 1.70834,-0.16667 1.58333,0 2.45833,0.125 0.91667,0.0833 1.33333,0.5 0.45834,0.375 0.54167,1.125 0.0833,0.75 0.0833,2.04167 0,0.70833 -0.0833,1.625 -0.0417,0.91666 -0.16667,1.95833 -0.0833,1.04167 -0.25,2.125 -0.29166,2.08333 -0.33333,2.16667 -0.58333,2.83333 -1.20833,6.33333 l 0.45833,0.5 q 0.0833,-0.125 1.08333,-2.20833 1.04167,-2.08334 2.20834,-4.125 1.20833,-2.04167 2.58333,-4.25 1.375,-2.25 2.625,-3.95834 1.20833,-1.70833 2.54167,-2.83333 1.375,-1.125 3.25,-1.125 1.75,0 3,1.04167 1.25,1 1.25,2.875 0,1.625 -0.20833,3.08333 -0.25,1.875 -0.5,2.83333 -0.29167,1.08334 -0.66667,2.66667 -0.29167,1.375 -1.04167,3.95833 -0.125,0.41667 -0.25,1.20834 -0.0417,0.25 -0.0417,0.33333 l 0.45834,0.5 q 0.0833,-0.125 1.16667,-2.16667 1.08333,-2.08333 2.33333,-4.125 1.29167,-2.04166 2.70833,-4.29166 1.45834,-2.25 2.70834,-3.95834 1.20833,-1.66666 2.41666,-2.79166 1.20834,-1.16667 2.95834,-1.16667 1.95833,0 3.29166,1.04167 1.375,1 1.375,2.875 0,2.875 -0.29166,5.45833 -0.29167,2.58333 -0.875,5.70833 -0.58334,3.125 -0.875,5.70834 -0.29167,2.54166 -0.29167,5.41666 0,2.25 0.58333,3.66667 0.58334,1.41667 1.41667,1.41667 0.875,0 1.83333,-0.375 0.95834,-0.375 1.95834,-0.95834 1,-0.58333 1.95833,-1.33333 0.95833,-0.79167 1.83333,-1.625 2.04167,-1.91667 4.04167,-4.33333 l 0.70833,9.83333 q -1.83333,1.45833 -3.66666,3.04167 -1.79167,1.54167 -3.83334,2.83333 -2,1.25 -4.41666,2.08334 -2.41667,0.79166 -5.45834,0.79166 -1.5,0 -2.54166,-0.95833 -1,-1 -1.625,-2.75 -0.625,-1.75 -0.91667,-4.125 -0.25,-2.375 -0.25,-5.16667 0,-2.625 0.16667,-5.54167 0.20833,-2.95833 0.54166,-5.95833 h -0.625 l -8.45833,21.54167 q -1.08334,1.75 -2.41667,2.375 -1.33333,0.58333 -3.08333,0.58333 -1.33334,0 -2.125,-0.70833 -0.79167,-0.75 -1.25,-1.875 -0.41667,-1.16667 -0.58334,-2.54167 -0.125,-1.375 -0.125,-2.66667 z" />
          <path
             inkscape:connector-curvature="0"
             id="path4526"
             style="font-style:normal;font-variant:normal;font-weight:normal;font-stretch:normal;font-size:85.33333588px;line-height:2.25;font-family:Pacifico;-inkscape-font-specification:Pacifico;text-align:center;text-anchor:middle;fill:#f06543;fill-opacity:1;stroke:#f06543;stroke-opacity:1"
             d="m 819.0677,419.96364 q -0.95833,1.33333 -2.58333,3.125 -1.58334,1.79167 -3.58334,3.41667 -2,1.625 -4.29167,2.75 -2.29166,1.125 -4.58333,1.125 -2.75,0 -4.58333,-1.75 -1.83334,-1.79167 -3.16667,-5.16667 -1,1.16667 -2.45833,2.375 -1.45834,1.20833 -3.20834,2.20833 -1.70833,0.95834 -3.58333,1.58334 -1.875,0.625 -3.75,0.625 -2,0 -3.91667,-0.79167 -1.875,-0.83333 -3.33333,-2.33333 -1.45833,-1.54167 -2.33333,-3.70834 -0.875,-2.20833 -0.875,-4.95833 0,-3.125 0.875,-6.41667 0.875,-3.29167 2.70833,-7.125 1.83333,-3.83333 3.91667,-6.625 2.125,-2.79167 4.625,-4.875 2.5,-2.08333 5.25,-3.29167 2.79166,-1.25 5.66666,-1.25 0.95834,0 1.5,0.375 0.54167,0.375 0.875,0.875 0.375,0.45834 0.70834,0.91667 0.33333,0.45833 0.83333,0.66667 0.5,0.20833 1,0.29166 0.54167,0.0417 1.08333,0.0417 0.45834,0 0.91667,0 0.5,-0.0417 0.95833,-0.0417 0.625,0 1.16667,0.125 0.54167,0.125 0.95833,0.54167 0.41667,0.41667 0.625,1.16667 0.25,0.75 0.25,2.04166 0,2 -0.41666,4.45834 -0.41667,2.41666 -0.91667,5 -0.5,2.54166 -1.20833,5.79166 -0.70834,3.25 -0.70834,5.54167 0,1.95833 0.33334,3.08333 0.375,1.08334 1.54166,1.08334 0.875,0 1.83334,-0.41667 0.95833,-0.45833 1.91666,-1.16667 1,-0.70833 1.95834,-1.58333 1,-0.91667 1.875,-1.875 2.04167,-2.25 4.125,-5.08333 z m -35.58334,-3.29167 q 0,1.04167 0.125,2.04167 0.16667,0.95833 0.54167,1.75 0.375,0.75 1,1.25 0.625,0.45833 1.58333,0.45833 1.54167,0 2.79167,-1.33333 1.25,-1.33334 2.16667,-3.20834 0.91666,-1.875 1.45833,-3.875 0.58333,-2 0.75,-3.33333 l 3.125,-13.625 q -1.70833,0 -3.33333,0.875 -1.625,0.83333 -3.08334,2.29167 -1.41666,1.45833 -2.625,3.33333 -1.20833,1.875 -2.375,4.625 -1.16666,2.75 -1.66666,4.83333 -0.45834,2.08334 -0.45834,3.91667 z" />
          <path
             inkscape:connector-curvature="0"
             id="path4528"
             style="font-style:normal;font-variant:normal;font-weight:normal;font-stretch:normal;font-size:85.33333588px;line-height:2.25;font-family:Pacifico;-inkscape-font-specification:Pacifico;text-align:center;text-anchor:middle;fill:#f06543;fill-opacity:1;stroke:#f06543;stroke-opacity:1"
             d="m 841.15107,421.29697 q -1.5,1.375 -3.75,2.95834 -2.20833,1.54166 -4.79166,2.875 -2.58334,1.29166 -5.29167,2.16666 -2.66667,0.875 -5.08334,0.875 -2.16666,0 -3.66666,-0.58333 -1.45834,-0.625 -2.375,-1.70833 -0.91667,-1.08334 -1.33334,-2.625 -0.375,-1.58334 -0.375,-3.45834 0,-2.625 0.58334,-6.125 1.16666,-6.75 1.5,-7.58333 0.58333,-1.83334 2.33333,-8.125 1.41667,-5.25 1.75,-6.83334 0.20833,-1.04166 1.16667,-1.875 0.875,-0.75 1.95833,-1.20833 1.125,-0.5 2.29167,-0.70833 1.20833,-0.25 2.16666,-0.25 1.75,0 2.375,0.66666 0.625,0.625 0.625,1.70834 0,0.91666 -0.41666,2.66666 -0.41667,1.70834 -1.04167,3.91667 -0.625,2.16667 -1.58333,5.25 -0.95834,3.04167 -1.58334,5.58333 -0.625,2.5 -1.04166,4.91667 -0.41667,2.375 -0.41667,4.29167 0,1.875 0.41667,3 0.41666,1.08333 1.70833,1.08333 1.5,0 3.33333,-1.04167 1.83334,-1.04166 3.70834,-2.5 1.875,-1.5 3.66667,-3.08333 1.79166,-1.58333 3.16666,-2.70833 z m -18.625,-43.66667 q 0,-0.95833 0.41667,-2.16666 0.41666,-1.20834 1.33333,-2.25 0.95833,-1.08334 2.5,-1.79167 1.58333,-0.75 3.91667,-0.75 1.45833,0 2.75,0.33333 1.29167,0.33334 2.25,1.04167 0.95833,0.66667 1.5,1.79167 0.58333,1.125 0.58333,2.66666 0,1.41667 -0.45833,2.75 -0.45833,1.33334 -1.45833,2.375 -1,1.04167 -2.54167,1.70834 -1.5,0.625 -3.625,0.625 -3.66667,0 -5.41667,-1.70834 -1.75,-1.75 -1.75,-4.625 z" />
          <path
             inkscape:connector-curvature="0"
             id="path4530"
             style="font-style:normal;font-variant:normal;font-weight:normal;font-stretch:normal;font-size:85.33333588px;line-height:2.25;font-family:Pacifico;-inkscape-font-specification:Pacifico;text-align:center;text-anchor:middle;fill:#f06543;fill-opacity:1;stroke:#f06543;stroke-opacity:1"
             d="m 852.40107,430.17197 q -3.91667,0 -6.875,-1.41666 -2.91667,-1.41667 -4.875,-3.79167 -1.95833,-2.41667 -2.95833,-5.54167 -0.95834,-3.16667 -0.95834,-6.625 0,-2.33333 0.875,-5.54167 0.875,-3.25 1.79167,-5.75 0.95833,-2.5 2.375,-4.75 1.41667,-2.29166 3.29167,-4 1.91666,-1.75 4.25,-2.75 2.375,-1.04166 5.25,-1.04166 2.33333,0 4.33333,0.75 2,0.75 3.45834,2.125 1.5,1.33333 2.33333,3.25 0.83333,1.91666 0.83333,4.29166 0,2.58334 -1.70833,5.79167 -1.66667,3.20833 -3.91667,5.5 -2.25,2.29167 -5.375,4.08333 -3.08333,1.79167 -6.70833,2.79167 0.625,1.125 1.20833,1.875 0.625,0.75 1.25,1.16667 0.625,0.41666 1.29167,0.58333 0.70833,0.16667 1.5,0.16667 2.5,0 5.25,-1 2.79167,-1 5.41667,-2.5 2.625,-1.5 4.95833,-3.25 2.33333,-1.79167 3.95833,-3.375 l 5.375,5.58333 q -3.66666,3.79167 -7.79166,6.70833 -1.79167,1.25001 -3.875,2.45834 -2.04167,1.20833 -4.33334,2.16667 -2.25,0.91666 -4.70833,1.5 -2.41667,0.54166 -4.91667,0.54166 z m -5.54167,-19.58333 q 1.5,0 3.25,-0.75 1.79167,-0.79167 3.29167,-2 1.54167,-1.20834 3,-3.25 1.45834,-2.04167 1.45834,-3.375 0,-1.875 -0.70834,-3.08334 -0.66666,-1.20833 -1.66666,-1.20833 -1.79167,0 -3.08334,0.66667 -1.25,0.66666 -2.125,1.75 -0.83333,1.04166 -1.375,2.41666 -0.5,1.33334 -1.20833,3.33334 -0.66667,2 -0.75,3.29166 -0.0833,1.29167 -0.0833,2.20834 z" />
          <path
             inkscape:connector-curvature="0"
             id="path4532"
             style="font-style:normal;font-variant:normal;font-weight:normal;font-stretch:normal;font-size:85.33333588px;line-height:2.25;font-family:Pacifico;-inkscape-font-specification:Pacifico;text-align:center;text-anchor:middle;fill:#f06543;fill-opacity:1;stroke:#f06543;stroke-opacity:1"
             d="m 869.81774,421.46364 q 0,-1.83334 0.20833,-4.25 0.20833,-2.45834 0.54167,-5.16667 0.375,-2.70833 0.83333,-5.5 0.5,-2.83333 1.25,-6 0.75,-3.20833 1.29167,-5.33333 0.54166,-2.125 1.08333,-3.5 0.33333,-0.91667 0.66667,-1.45834 0.33333,-0.54166 0.75,-0.83333 0.45833,-0.33333 1.08333,-0.41667 0.66667,-0.125 1.625,-0.125 1.08333,0 1.66667,0.125 0.625,0.0833 0.91666,0.5 0.29167,0.375 0.33334,1.125 0.0833,0.75 0.0833,2.04167 0,1.54167 -0.20833,4.375 -0.20834,2.83333 -0.125,4.95833 h 0.45833 q 0.83333,-1.66666 2.08333,-4.375 1.25001,-2.70833 2.62501,-4.5 1.375,-1.79166 3.125,-3 1.75,-1.25 4.04166,-1.25 0.79167,0 1.54167,0.29167 0.75,0.25 1.29167,0.75 0.58333,0.5 0.91666,1.25 0.33334,0.70833 0.33334,1.625 0,0.70833 -0.20834,2 -0.20833,1.25 -0.66666,3.29167 -0.45834,2.04166 -0.66667,3.375 -0.20833,1.29166 -0.20833,2.16666 0,1.5 0.29166,2.5 0.29167,1 0.75,1.625 0.5,0.58334 1.08334,0.83334 0.625,0.25 1.29166,0.25 1.875,0 3.875,-0.83334 2,-0.83333 3.66667,-1.875 1.95833,-1.20833 3.83333,-2.75 l -0.625,9.75 q -1.08333,0.70834 -2.45833,1.58334 -1.375,0.875 -2.95833,1.66666 -1.54167,0.75 -3.25,1.29167 -1.66667,0.5 -3.41667,0.5 -3.125,0 -5.04167,-1.25 -1.91666,-1.29167 -3.04166,-3.33333 -1.125,-2.08334 -1.66667,-4.625 -0.54167,-2.58334 -0.875,-5.20834 h -0.66667 l -7.45833,20.79167 q -0.58334,1.625 -1.125,2.70834 -0.5,1.04166 -1.04167,1.70833 -0.54167,0.66667 -1.16667,0.95833 -0.625,0.25 -1.375,0.25 -1.70833,0 -2.75,-0.70833 -1.04166,-0.75 -1.625,-1.95833 -0.54166,-1.25 -0.75,-2.79167 -0.16666,-1.58334 -0.16666,-3.25 z" />
        </g>
        <path
           style="opacity:1;fill:#f06543;fill-opacity:1;stroke:#f06543;stroke-width:1.54313552;stroke-linecap:round;stroke-linejoin:miter;stroke-miterlimit:4;stroke-dasharray:none;stroke-dashoffset:0;stroke-opacity:1;paint-order:normal"
           d="m 161.29647,249.45165 c -0.53314,0.005 -1.06792,0.0209 -1.6003,0.0422 2.36887,0.0292 4.61939,0.5378 7.4289,1.63225 1.53137,0.59654 4.45556,2.37388 5.3705,4.14933 0.41654,0.8083 0.6673,1.73555 0.66844,2.64486 0.001,1.29298 -0.1458,2.63597 -0.66062,3.82203 -1.72894,3.98318 -5.11209,6.89544 -8.48791,9.41555 -5.30619,3.96121 -11.92712,7.66257 -18.05415,10.043 -3.81296,1.48139 -7.73621,2.71978 -11.72829,3.61228 -3.94836,0.88273 -7.97947,1.45694 -12.01823,1.69614 -8.37169,0.49584 -16.81344,-0.66487 -24.849539,-3.07824 3.573309,-2.38666 7.191079,-4.86025 12.141179,-8.24802 6.26735,-4.2893 16.97123,-11.90488 23.6326,-15.88184 3.4258,-2.04528 6.9035,-4.0326 10.5457,-5.66163 3.02872,-1.35464 6.17351,-2.50546 9.4041,-3.26147 1.21656,-0.2847 2.31955,-0.50123 3.35972,-0.65157 -1.2591,0.13523 -2.41633,0.31718 -3.37058,0.54006 -3.2393,0.75658 -6.39308,1.90948 -9.43001,3.2669 -3.64799,1.63055 -7.1309,3.62085 -10.56198,5.66886 -6.66351,3.97745 -17.37372,11.59757 -23.64344,15.88846 -4.98466,3.41144 -8.61796,5.89617 -12.215318,8.29806 -2.376285,-0.71832 -4.718434,-1.54099 -7.010577,-2.46887 -3.082114,-1.24765 -5.488659,-2.44507 -7.770646,-3.73282 1.324153,-0.0209 2.648441,-0.0458 3.972723,-0.0512 1.283715,-0.006 2.567386,0.0506 3.850966,0.0314 0.711353,-0.0105 1.420434,-0.0808 2.130717,-0.12115 l -1.186211,-4.44829 c -3.209378,1.60753 -6.597537,2.68921 -10.111721,3.4206 -0.161527,0.0336 -0.323591,0.0665 -0.485214,0.10008 -2.133735,-1.2752 -4.285906,-2.65925 -6.924384,-4.28675 -8.134792,-5.50935 -5.548874,-3.5544 -12.739709,-9.14371 -2.532774,-1.96868 -5.500984,-4.57963 -8.405941,-6.11007 -2.843693,-1.49817 -4.350402,-1.64474 -6.638034,-1.88087 -1.208933,-0.12478 -2.623903,0.0547 -3.637033,0.25646 -2.871684,0.57184 -6.232162,1.76846 -8.435478,3.77622 -0.766739,0.69869 -1.501367,1.48247 -1.973401,2.40618 -0.480027,0.93937 -0.827597,2.00228 -0.818533,3.05715 0.0091,1.06444 0.324394,2.15913 0.871576,3.0722 1.480455,2.47043 3.975175,3.40371 6.483171,4.44648 6.355453,2.64249 13.059236,4.3531 19.879878,5.23911 2.784637,0.18866 5.563042,0.50999 8.353503,0.56598 2.59288,0.052 5.183858,-0.18699 7.776671,-0.24231 2.283194,-0.0488 4.567289,-0.0429 6.850849,-0.0693 0.321458,-0.004 0.64295,-0.0105 0.964399,-0.0151 2.333179,1.32461 4.783197,2.55136 7.942429,3.83047 2.269657,0.91895 4.588534,1.73445 6.940657,2.44838 -3.909943,2.60914 -7.792658,5.12983 -13.321365,8.62955 -2.832672,1.79312 -5.692366,3.54292 -8.550601,5.29516 -4.512295,-1.15776 -9.060291,-2.146 -13.824656,-2.72443 -3.884084,-0.47161 -7.81571,-0.63311 -11.726489,-0.51354 -3.591153,0.10976 -7.165015,0.62398 -10.711456,1.19947 -7.650084,1.2414 -12.200137,2.33714 -19.521489,4.63072 -4.246944,1.33045 -8.668857,3.09873 -12.5887763,5.3291 -1.2565275,0.71494 -2.3957288,1.62349 -3.5230691,2.52854 -1.7991851,1.44441 -3.79179754,3.29151 -4.9552015,5.34156 -0.5261754,0.92718 -0.9908294,1.9278 -1.1584842,2.9806 -0.1586093,0.996 -0.1158459,2.06241 0.2031259,3.01918 0.6711274,2.01311 2.3326154,3.24736 4.2475741,3.92328 2.8723454,1.01387 5.7873213,1.23444 8.8061991,0.97629 1.898465,-0.16233 3.107679,-0.45476 4.993633,-0.7262 2.362008,-0.33997 4.702372,-0.90091 7.025823,-1.44517 2.80196,-0.65634 5.480187,-1.69501 8.216013,-2.58777 6.991126,-2.28136 13.21901,-4.79275 19.863,-7.99909 8.322515,-4.0164 13.422749,-7.18245 21.466312,-11.84281 1.067048,-0.65931 2.137256,-1.31358 3.206627,-1.96918 4.40581,1.13162 8.778239,2.42422 13.281581,3.65747 13.66369,3.63946 20.54823,5.67972 34.58575,8.54217 6.12106,1.24816 12.29811,2.20462 18.44714,3.30669 l 0.0192,-0.11093 c -6.14728,-1.1017 -12.32242,-2.05709 -18.44172,-3.30487 -14.03552,-2.86198 -20.91883,-4.90254 -34.580933,-8.54155 -4.47091,-1.22427 -8.809566,-2.50465 -13.179715,-3.62977 2.828632,-1.73399 5.658105,-3.46638 8.461395,-5.24091 5.564723,-3.52252 9.46241,-6.05385 13.398516,-8.68139 8.071787,2.43411 16.553617,3.60734 24.965877,3.11018 4.045,-0.23904 8.08236,-0.81315 12.0369,-1.69673 3.99795,-0.8933 7.92652,-2.13401 11.74517,-3.6171 6.13697,-2.3835 12.76819,-6.08879 18.08309,-10.05567 2.73756,-2.04321 6.98312,-6.0172 9.12863,-8.97613 0.81036,-1.11759 1.60594,-2.30284 2.00113,-3.62554 0.34466,-1.15358 0.53409,-2.46419 0.16033,-3.60867 -1.1982,-3.66902 -4.24017,-4.49203 -7.69047,-5.14446 -1.74209,-0.32942 -4.03613,-0.46756 -6.38011,-0.44543 z m -4.8479,0.27486 c 1.03165,-0.11081 2.13213,-0.18813 3.2476,-0.23268 -1.03945,-0.0128 -2.10484,0.0675 -3.2476,0.23268 z m -110.72505,7.92071 c 0.947572,-3e-4 1.900128,0.0985 2.826894,0.29596 2.254018,0.48026 5.110295,1.73053 7.097976,2.71297 6.3624,3.14468 12.122241,7.30035 17.981216,11.2684 2.597032,1.60198 4.723854,2.96806 6.824931,4.22708 -2.00502,0.4156 -4.018246,0.81628 -6.055221,1.01142 -2.579419,0.24658 -5.178736,0.29372 -7.769437,0.2417 -2.786771,-0.056 -5.562308,-0.37739 -8.343254,-0.56598 -6.670363,-1.14402 -13.760568,-2.034 -19.620092,-5.75445 -2.249108,-1.42805 -3.848184,-2.85696 -4.403085,-5.46633 -0.132328,-0.62226 -0.0031,-1.28952 0.174194,-1.90047 0.146811,-0.50574 0.464807,-0.95194 0.776944,-1.37607 1.822585,-2.47653 4.952252,-3.81551 7.886373,-4.39586 0.863096,-0.17072 1.742747,-0.29801 2.622561,-0.29837 z m 6.9057,36.58387 c 2.933374,0.0174 5.868519,0.19684 8.777233,0.55032 4.717701,0.5733 9.226116,1.54844 13.698082,2.69308 -1.039046,0.63706 -2.078807,1.2731 -3.115611,1.91373 -8.040954,4.65881 -13.139384,7.82368 -21.459081,11.8386 -6.639034,3.20388 -12.863801,5.7136 -19.84974,7.99306 -2.733445,0.8919 -5.493099,1.71856 -8.292624,2.37423 -2.31956,0.54325 -4.665915,1.05259 -7.042525,1.21755 -4.345769,0.30165 -5.9963324,0.49441 -9.9899657,-0.81371 -1.0056822,-0.32942 -1.9719404,-0.81986 -2.8299074,-1.43937 -1.0861387,-0.78427 -1.69760641,-1.76276 -1.77449375,-3.06558 -0.0265354,-0.44963 0.12745622,-0.89159 0.19107119,-1.3375 0.20896016,-0.59168 0.34955696,-1.21221 0.62685936,-1.7751 1.4790131,-3.00223 3.9667352,-5.44832 6.5301853,-7.53015 1.3951308,-1.13301 2.775619,-2.30701 4.320506,-3.2253 2.249336,-1.33702 4.646529,-2.46089 7.131129,-3.28197 7.275972,-2.40448 11.805184,-3.63833 19.4465,-4.87806 3.542736,-0.57478 7.113218,-1.08825 10.700609,-1.19766 0.976249,-0.0297 1.95398,-0.042 2.931773,-0.0362 z"
           id="path4563"
           inkscape:connector-curvature="0"
           sodipodi:nodetypes="ccccscccsscccsccssssccccscccccscacccsccccsccscsccscsccsscccscccccccccsccsccscccsscscscscccccccsssccscccccsccsccccscasccc" />
        <g
           id="g4699"
           style="fill:#f06543;fill-opacity:1;stroke:#f06543;stroke-width:2;stroke-miterlimit:4;stroke-dasharray:none;stroke-opacity:1"
           transform="matrix(1.1663911,0,0,1.1663911,22.156507,82.022525)">
          <path
             inkscape:connector-curvature="0"
             style="opacity:1;fill:#f06543;fill-opacity:1;stroke:#f06543;stroke-width:7.55905533;stroke-linecap:round;stroke-linejoin:miter;stroke-miterlimit:4;stroke-dasharray:none;stroke-dashoffset:0;stroke-opacity:1;paint-order:normal"
             d="m 306.44531,333.36914 c -9.93138,0.0356 -19.49045,1.06614 -29.43359,3.67578 -9.28625,2.43724 -18.10954,6.27932 -25.35352,12.70508 -2.55083,2.26272 -4.30115,5.29293 -6.45117,7.93945 -4.13122,7.69898 -5.50477,8.89726 -7.27148,17.46094 -2.38621,11.56651 -0.16551,23.36826 2.25781,34.70508 0.71125,2.74184 1.34301,5.50491 2.13476,8.22461 3.08538,10.59842 7.61294,20.68377 11.13672,31.12695 l 13.88282,-8.16601 c -6.65424,-7.66568 -11.0532,-17.15084 -14.25196,-26.72461 -0.81698,-2.44521 -1.45582,-4.9467 -2.18359,-7.41993 -2.38655,-9.9292 -4.15565,-20.28558 -1.97852,-30.44336 1.42244,-6.63667 2.54107,-7.77902 5.67188,-13.78515 1.66729,-2.23327 3.11351,-4.64955 5.00195,-6.69922 14.19093,-15.40249 36.4302,-22.16139 56.94336,-21.96289 7.89448,0.0764 15.68873,1.78133 23.5332,2.67187 8.08201,1.75619 16.23226,3.2247 24.2461,5.26954 9.00274,2.29715 17.85021,5.16114 26.77344,7.75 19.26689,5.58981 45.80787,13.57575 65.1914,18.15429 35.81755,8.46039 43.9825,8.84651 81.45899,14.47266 52.47462,6.59538 105.44849,6.68351 158.21875,5.13867 16.25835,-0.47596 32.4973,-1.46508 48.74609,-2.19727 l -0.0137,-0.36328 c -16.24524,0.73209 -32.4816,1.72132 -48.73633,2.19727 -52.75034,1.54455 -105.70523,1.45733 -158.16016,-5.13477 -37.45333,-5.62216 -45.62254,-6.00986 -81.41797,-14.46484 -19.38634,-4.57912 -45.91474,-12.56226 -65.18359,-18.15234 -8.93115,-2.59102 -17.788,-5.45722 -26.79883,-7.75586 -8.02582,-2.04737 -16.18911,-3.51721 -24.2832,-5.27539 -7.86527,-0.89111 -15.69199,-2.24042 -23.5957,-2.67383 -3.42113,-0.18761 -6.77353,-0.28531 -10.08399,-0.27344 z"
             transform="matrix(0.26458333,0,0,0.26458333,-37.681319,-39.942404)"
             id="path4607" />
          <path
             inkscape:connector-curvature="0"
             d="m 76.734563,59.868512 c -0.01156,0.348099 -0.06039,0.696957 -0.03466,1.044297 0.07905,1.067295 0.392533,2.233581 0.696208,3.241569 0.743239,2.467018 1.755548,4.827167 2.752114,7.198675 1.516542,3.191976 2.561386,6.574012 3.328676,10.017773 0.573868,2.575647 1.008647,4.996677 1.042233,7.643043 0.01513,1.192027 -0.142714,2.379969 -0.214069,3.569954 -0.272248,1.112932 -0.439605,2.256898 -0.81674,3.338798 -1.026803,2.945643 -3.268146,6.283169 -5.70127,8.251769 -2.542559,2.05715 -4.441987,2.66622 -7.433244,4.01854 -1.64423,0.48079 -3.266983,1.04229 -4.932691,1.44237 -5.459119,1.31121 -12.299042,2.16758 -17.821888,0.72624 -1.047981,-0.2735 -2.03168,-0.75135 -3.047519,-1.12702 -0.822777,-0.53901 -1.708814,-0.99202 -2.468332,-1.61701 -2.396929,-1.9724 -4.414247,-5.40248 -4.451199,-8.573676 -0.0088,-0.751975 0.197511,-1.491025 0.296267,-2.236539 0.933135,-1.790724 1.137626,-2.754283 2.996819,-3.881673 2.147199,-1.30203 5.162113,-1.819709 7.525628,-2.261402 16.157326,-3.019467 -5.690237,1.402845 10.38569,-1.907735 0,0 0.046,0.21881 0.046,0.21881 v 0 c -4.616567,0.990335 -5.67812,1.012436 -10.065848,2.767348 -2.476519,0.990505 -5.277903,2.345648 -7.00047,4.502264 -0.280805,0.351563 -0.472755,0.765702 -0.709131,1.148554 -0.120521,0.443579 -0.312248,0.873733 -0.361559,1.330743 -0.263101,2.438456 1.169162,5.217896 2.799242,6.936796 0.574484,0.60579 1.261747,1.09363 1.89262,1.64045 0.853543,0.48087 1.660927,1.05492 2.560629,1.44262 5.314783,2.2902 11.82212,2.19213 17.28774,0.50916 1.59304,-0.49053 3.073366,-1.29151 4.610047,-1.93727 1.224582,-0.73553 2.502143,-1.38931 3.673742,-2.20659 3.395464,-2.36862 6.481683,-5.825821 8.03057,-9.70162 0.386302,-0.966648 0.605634,-1.991927 0.908449,-2.98789 0.384858,-3.078297 0.646161,-3.734183 0.283499,-6.907265 -0.540674,-4.73057 -2.575004,-9.006004 -4.728557,-13.184169 -2.028751,-3.928134 -4.13862,-7.849888 -5.533845,-12.059451 0,0 4.204851,-0.400463 4.204851,-0.400463 z"
             id="path4613"
             style="opacity:1;fill:#f06543;fill-opacity:1;stroke:#f06543;stroke-width:2;stroke-linecap:round;stroke-linejoin:miter;stroke-miterlimit:4;stroke-dasharray:none;stroke-dashoffset:0;stroke-opacity:1;paint-order:normal" />
          <path
             style="opacity:1;fill:#f06543;fill-opacity:1;stroke:#f06543;stroke-width:7.55905533;stroke-linecap:round;stroke-linejoin:miter;stroke-miterlimit:4;stroke-dasharray:none;stroke-dashoffset:0;stroke-opacity:1;paint-order:normal"
             d="m 542.45117,439.69727 c -46.98833,0.13972 -93.99479,2.90646 -140.66601,8.31054 -11.6286,1.34648 -23.19613,2.87232 -34.78711,4.36422 -7.67286,0.98759 -15.27547,2.07958 -23.00897,3.03654 -10.87417,1.34559 -18.3884,3.64705 -28.67991,6.07239 -8.5077,2.00495 -16.49145,4.09869 -24.7369,6.91552 l 8.58593,13.73633 c 5.66575,-5.48323 13.08707,-8.52084 20.13282,-11.77929 15.40397,-7.1239 6.88533,-3.60654 26.10141,-10.69256 7.25202,-2.67422 14.09285,-4.99856 21.67984,-6.47541 18.04342,-3.51224 63.03477,-7.92486 79.11523,-9.16016 35.18265,-2.70275 70.37526,-4.1152 105.66797,-3.95703 18.57403,0.0833 37.13536,0.98027 55.70312,1.4707 63.94194,3.52878 33.37587,1.48408 91.71485,5.95703 l 0.0254,-0.36132 c -58.3502,-4.4737 -27.77554,-2.42968 -91.73047,-5.95899 -18.57317,-0.49045 -37.14126,-1.38751 -55.7207,-1.4707 -3.13229,-0.014 -6.26393,-0.0171 -9.39649,-0.008 z"
             transform="matrix(0.26458333,0,0,0.26458333,-37.681319,-39.942404)"
             id="path4615"
             inkscape:connector-curvature="0"
             sodipodi:nodetypes="csasccccssssccccccc" />
        </g>
        <g
           aria-label="riseur"
           style="font-style:normal;font-variant:normal;font-weight:normal;font-stretch:normal;font-size:12.34430504px;line-height:1.25;font-family:'MV Boli';-inkscape-font-specification:'MV Boli';letter-spacing:0px;word-spacing:0px;fill:#f06543;fill-opacity:1;stroke:#f06543;stroke-width:0.30860764;stroke-opacity:1"
           id="text4694">
          <path
             inkscape:connector-curvature="0"
             d="m 125.49263,195.45249 q 0,-0.70723 0.0804,-1.63948 0.0804,-0.94832 0.20895,-1.99309 0.14466,-1.04476 0.32147,-2.12168 0.19288,-1.09298 0.4822,-2.31455 0.28932,-1.23765 0.49827,-2.05739 0.20895,-0.81974 0.41791,-1.35016 0.12858,-0.35361 0.25717,-0.56256 0.12859,-0.20895 0.28932,-0.32147 0.17681,-0.12858 0.41791,-0.16073 0.25717,-0.0482 0.62686,-0.0482 0.4179,0 0.64293,0.0482 0.2411,0.0322 0.35361,0.19288 0.11251,0.14466 0.12859,0.43398 0.0321,0.28932 0.0321,0.78759 0,0.59471 -0.0804,1.6877 -0.0804,1.09298 -0.0482,1.91272 h 0.1768 q 0.32147,-0.64293 0.80367,-1.6877 0.4822,-1.04476 1.01262,-1.73591 0.53042,-0.69116 1.2055,-1.15728 0.67508,-0.4822 1.55911,-0.4822 0.30539,0 0.59471,0.11251 0.28932,0.0964 0.49827,0.28932 0.22503,0.19288 0.35362,0.4822 0.12858,0.27325 0.12858,0.62686 0,0.27325 -0.0804,0.77152 -0.0804,0.4822 -0.25718,1.26979 -0.1768,0.78759 -0.25717,1.30194 -0.0804,0.49827 -0.0804,0.83581 0,0.57864 0.11252,0.9644 0.11251,0.38576 0.28932,0.62686 0.19288,0.22503 0.4179,0.32147 0.2411,0.0964 0.49828,0.0964 0.7233,0 1.49481,-0.32147 0.77152,-0.32147 1.41446,-0.7233 0.75544,-0.46613 1.47874,-1.06084 l -0.2411,3.76116 q -0.4179,0.27324 -0.94832,0.61078 -0.53042,0.33754 -1.14121,0.64294 -0.59471,0.28932 -1.25372,0.49827 -0.64293,0.19288 -1.31801,0.19288 -1.2055,0 -1.94487,-0.4822 -0.73937,-0.49827 -1.17335,-1.28587 -0.43398,-0.80366 -0.64294,-1.78413 -0.20895,-0.99655 -0.33753,-2.00917 h -0.25718 l -2.87712,8.02059 q -0.22503,0.62686 -0.43398,1.04476 -0.19288,0.40183 -0.40183,0.65901 -0.20896,0.25717 -0.45006,0.36968 -0.2411,0.0964 -0.53042,0.0964 -0.659,0 -1.06083,-0.27324 -0.40184,-0.28932 -0.62686,-0.75545 -0.20896,-0.4822 -0.28932,-1.07691 -0.0643,-0.61079 -0.0643,-1.25372 z"
             style="font-style:normal;font-variant:normal;font-weight:normal;font-stretch:normal;font-size:32.91814804px;font-family:Pacifico;-inkscape-font-specification:Pacifico;fill:#f06543;fill-opacity:1;stroke:#f06543;stroke-width:0.30860764;stroke-opacity:1"
             id="path4546" />
          <path
             inkscape:connector-curvature="0"
             d="m 149.08826,195.3882 q -0.57864,0.53042 -1.4466,1.1412 -0.85188,0.59472 -1.84843,1.10906 -0.99655,0.49827 -2.04131,0.83581 -1.02869,0.33754 -1.96095,0.33754 -0.83581,0 -1.41445,-0.22502 -0.56256,-0.2411 -0.91618,-0.65901 -0.35361,-0.41791 -0.51434,-1.01262 -0.14466,-0.61078 -0.14466,-1.33408 0,-1.01262 0.22502,-2.36278 0.45006,-2.60388 0.57864,-2.92534 0.22503,-0.70723 0.90011,-3.1343 0.54649,-2.02524 0.67508,-2.63602 0.0804,-0.40184 0.45005,-0.7233 0.33754,-0.28932 0.75545,-0.46613 0.43398,-0.19288 0.88403,-0.27324 0.46613,-0.0964 0.83581,-0.0964 0.67508,0 0.91618,0.25717 0.2411,0.2411 0.2411,0.659 0,0.35362 -0.16073,1.0287 -0.16074,0.659 -0.40184,1.51089 -0.2411,0.83581 -0.61078,2.02524 -0.36969,1.17335 -0.61079,2.15382 -0.2411,0.9644 -0.40183,1.89665 -0.16073,0.91618 -0.16073,1.65555 0,0.7233 0.16073,1.15728 0.16073,0.41791 0.65901,0.41791 0.57863,0 1.28586,-0.40184 0.70723,-0.40183 1.43053,-0.96439 0.72329,-0.57864 1.41445,-1.18943 0.69115,-0.61079 1.22157,-1.04477 z m -7.18477,-16.84484 q 0,-0.36968 0.16073,-0.83581 0.16073,-0.46612 0.51435,-0.86796 0.36968,-0.4179 0.9644,-0.69115 0.61078,-0.28932 1.51089,-0.28932 0.56256,0 1.06084,0.12859 0.49827,0.12858 0.86796,0.40183 0.36968,0.25717 0.57863,0.69115 0.22503,0.43398 0.22503,1.02869 0,0.5465 -0.17681,1.06084 -0.1768,0.51435 -0.56256,0.91618 -0.38576,0.40183 -0.98047,0.65901 -0.57864,0.2411 -1.39838,0.2411 -1.41445,0 -2.08953,-0.65901 -0.67508,-0.67508 -0.67508,-1.78414 z"
             style="font-style:normal;font-variant:normal;font-weight:normal;font-stretch:normal;font-size:32.91814804px;font-family:Pacifico;-inkscape-font-specification:Pacifico;fill:#f06543;fill-opacity:1;stroke:#f06543;stroke-width:0.30860764;stroke-opacity:1"
             id="path4548" />
          <path
             inkscape:connector-curvature="0"
             d="m 147.48093,192.63966 q 0.9001,-0.77152 1.46267,-1.28586 0.56256,-0.51435 1.12513,-1.18943 0.56257,-0.69115 0.88403,-1.12513 0.33754,-0.43398 0.7876,-1.02869 0.45005,-0.59472 1.09298,-1.4466 0.64293,-0.86796 1.67163,-2.15383 0.20895,-0.28932 0.46612,-0.56256 0.25717,-0.27325 0.56257,-0.4822 0.32146,-0.22503 0.69115,-0.35361 0.38576,-0.14466 0.85189,-0.14466 0.77152,0 1.18942,0.1768 0.41791,0.16074 0.61079,0.40183 0.19288,0.2411 0.22502,0.51435 0.0322,0.25717 0.0322,0.45005 0,0.38576 -0.30539,0.85189 -0.3054,0.46613 -0.67508,0.9001 -0.36969,0.43398 -0.70723,0.80367 -0.32146,0.35361 -0.36968,0.53042 0,0.49827 0.0643,0.91618 0.0804,0.40183 0.19288,0.80366 0.12859,0.38576 0.25717,0.83582 0.12859,0.43398 0.2411,1.01262 0.12859,0.57864 0.0322,1.59125 -0.0804,1.01262 -0.0804,2.04131 0.57864,-0.38575 1.23765,-0.69115 0.67508,-0.32146 1.39838,-0.659 0.72329,-0.33754 1.47874,-0.73938 0.77152,-0.4179 1.54304,-0.99654 l 0.0161,3.60042 q -0.99654,0.77152 -2.31456,1.4466 -1.30193,0.67508 -2.74853,1.18942 -1.43053,0.51435 -2.90927,0.81974 -1.46267,0.28932 -2.78069,0.28932 -0.94832,0 -1.76806,-0.1768 -0.81974,-0.17681 -1.4466,-0.5465 -0.61078,-0.38576 -0.99654,-0.99654 -0.38576,-0.61079 -0.46613,-1.47875 -0.22503,0.0482 -0.45005,0.0643 -0.20896,0.0161 -0.41791,0.0161 -0.25717,0 -0.4822,-0.0161 -0.22502,-0.0161 -0.38576,-0.11252 -0.16073,-0.11251 -0.25717,-0.33754 -0.0964,-0.2411 -0.0964,-0.67508 0,-0.38575 0.19288,-0.70722 0.19288,-0.33754 0.45005,-0.59471 0.25717,-0.25718 0.51435,-0.45006 0.25717,-0.19288 0.38576,-0.30539 z m 2.05738,2.05738 q 0.19288,0 0.41791,0.2411 0.2411,0.2411 0.54649,0.53042 0.30539,0.28932 0.70723,0.53042 0.40183,0.2411 0.91618,0.2411 0.62685,0 1.02869,-0.20895 0.4179,-0.20895 0.659,-0.54649 0.2411,-0.35362 0.33754,-0.80367 0.0964,-0.46612 0.0964,-0.9644 0,-0.43398 -0.0643,-0.88403 -0.0482,-0.45005 0.0161,-1.10906 0.0804,-0.67508 -0.0321,-1.02869 -0.0964,-0.36969 -0.17681,-0.62686 z"
             style="font-style:normal;font-variant:normal;font-weight:normal;font-stretch:normal;font-size:32.91814804px;font-family:Pacifico;-inkscape-font-specification:Pacifico;fill:#f06543;fill-opacity:1;stroke:#f06543;stroke-width:0.30860764;stroke-opacity:1"
             id="path4550" />
          <path
             inkscape:connector-curvature="0"
             d="m 167.3154,198.81181 q -1.51089,0 -2.6521,-0.54649 -1.12513,-0.54649 -1.88058,-1.46267 -0.75544,-0.93225 -1.1412,-2.13775 -0.36969,-1.22157 -0.36969,-2.55566 0,-0.9001 0.33754,-2.13775 0.33754,-1.25372 0.69115,-2.21812 0.36969,-0.9644 0.91618,-1.83235 0.5465,-0.88404 1.26979,-1.54304 0.73938,-0.67508 1.63948,-1.06084 0.91618,-0.40183 2.02524,-0.40183 0.90011,0 1.67163,0.28932 0.77151,0.28931 1.33408,0.81973 0.57864,0.51435 0.90011,1.25372 0.32146,0.73938 0.32146,1.65555 0,0.99655 -0.659,2.23419 -0.64294,1.23765 -1.5109,2.12168 -0.86795,0.88403 -2.07345,1.57519 -1.18943,0.69115 -2.58781,1.07691 0.2411,0.43398 0.46613,0.7233 0.2411,0.28932 0.4822,0.45005 0.2411,0.16073 0.49827,0.22503 0.27325,0.0643 0.57864,0.0643 0.9644,0 2.02524,-0.38576 1.07691,-0.38576 2.08953,-0.9644 1.01262,-0.57864 1.91272,-1.25372 0.90011,-0.69115 1.52697,-1.30193 l 2.07346,2.15382 q -1.41446,1.46267 -3.00571,2.5878 -0.69116,0.4822 -1.49482,0.94833 -0.78759,0.46612 -1.67163,0.83581 -0.86796,0.35361 -1.81628,0.57864 -0.93225,0.20895 -1.89665,0.20895 z m -2.13775,-7.55445 q 0.57864,0 1.25372,-0.28932 0.69115,-0.3054 1.26979,-0.77152 0.59471,-0.46613 1.15728,-1.25372 0.56256,-0.78759 0.56256,-1.30194 0,-0.7233 -0.27324,-1.18943 -0.25718,-0.46612 -0.64294,-0.46612 -0.69115,0 -1.18942,0.25717 -0.4822,0.25717 -0.81974,0.67508 -0.32147,0.40183 -0.53042,0.93225 -0.19288,0.51435 -0.46613,1.28587 -0.25717,0.77152 -0.28932,1.26979 -0.0321,0.49827 -0.0321,0.85189 z"
             style="font-style:normal;font-variant:normal;font-weight:normal;font-stretch:normal;font-size:32.91814804px;font-family:Pacifico;-inkscape-font-specification:Pacifico;fill:#f06543;fill-opacity:1;stroke:#f06543;stroke-width:0.30860764;stroke-opacity:1"
             id="path4552" />
          <path
             inkscape:connector-curvature="0"
             d="m 186.23369,183.83148 q 0,0.43398 -0.0964,1.18943 -0.0964,0.73937 -0.25718,1.63948 -0.14465,0.88403 -0.4179,2.13775 -0.25717,1.23764 -0.41791,2.05738 -0.14466,0.81974 -0.2411,1.4466 -0.0964,0.61079 -0.0964,0.85189 0,0.45005 0.0161,0.83581 0.0161,0.36969 0.0964,0.659 0.0804,0.27325 0.2411,0.43398 0.1768,0.14466 0.49827,0.14466 0.35361,0 0.85188,-0.1768 0.51435,-0.17681 1.07692,-0.46613 0.57864,-0.30539 1.17335,-0.67508 0.59471,-0.38576 1.12513,-0.80366 0.54649,-0.41791 0.98047,-0.81974 0.45006,-0.41791 0.7233,-0.77152 0,0.53042 0,0.9644 0.0161,0.43398 0.0161,0.83581 0,0.38576 0,0.80367 0.0161,0.4179 0.0161,0.93225 -0.35361,0.35361 -0.88403,0.75544 -0.51435,0.40184 -1.15728,0.80367 -0.62686,0.40183 -1.35016,0.77152 -0.70723,0.36968 -1.43053,0.659 -0.7233,0.27325 -1.43052,0.45006 -0.70723,0.16073 -1.31801,0.16073 -0.61079,0 -1.04477,-0.2411 -0.43398,-0.2411 -0.75544,-0.67508 -0.3054,-0.43398 -0.53042,-1.02869 -0.20896,-0.61079 -0.36969,-1.35016 -0.57864,0.75545 -1.22157,1.39838 -0.64293,0.62686 -1.31801,1.09298 -0.65901,0.46613 -1.35016,0.73938 -0.67508,0.25717 -1.31801,0.25717 -0.53042,0 -0.99655,-0.17681 -0.46613,-0.1768 -0.83581,-0.59471 -0.35361,-0.41791 -0.56257,-1.09298 -0.20895,-0.69116 -0.20895,-1.70378 0.0161,-2.1056 0.30539,-3.23073 0.4822,-1.63948 0.90011,-4.88629 0.0321,-0.2411 0.11251,-0.64293 0.0964,-0.41791 0.2411,-0.90011 0.16073,-0.4822 0.38576,-0.98047 0.22503,-0.49827 0.53042,-0.90011 0.30539,-0.40183 0.70723,-0.659 0.4179,-0.25717 0.93225,-0.27325 0.85188,0.0322 1.22157,0.22503 0.36969,0.17681 0.36969,0.45005 -0.14466,0.85189 -0.32147,1.89665 -0.16073,1.04477 -0.33754,2.10561 -0.17681,1.06084 -0.43398,2.36277 -0.2411,1.30194 -0.36969,2.08953 -0.12858,0.7876 -0.20895,1.2698 -0.0643,0.4822 -0.0643,0.49827 0,0.28932 0.0482,0.56257 0.0643,0.25717 0.1768,0.46612 0.11252,0.20895 0.28932,0.33754 0.17681,0.12859 0.41791,0.12859 0.35361,0 0.7233,-0.17681 0.36969,-0.19288 0.69115,-0.54649 0.33754,-0.32147 0.59471,-0.83581 0.25718,-0.49828 0.38576,-1.15728 l 1.76807,-8.75996 q 0.0804,-0.38576 0.64293,-0.64293 0.57864,-0.27325 1.30194,-0.27325 0.81974,0 1.30194,0.28932 0.4822,0.28932 0.4822,0.73937 z"
             style="font-style:normal;font-variant:normal;font-weight:normal;font-stretch:normal;font-size:32.91814804px;font-family:Pacifico;-inkscape-font-specification:Pacifico;fill:#f06543;fill-opacity:1;stroke:#f06543;stroke-width:0.30860764;stroke-opacity:1"
             id="path4554" />
          <path
             inkscape:connector-curvature="0"
             d="m 189.59301,195.45249 q 0,-0.70723 0.0804,-1.63948 0.0804,-0.94832 0.20895,-1.99309 0.14466,-1.04476 0.32147,-2.12168 0.19288,-1.09298 0.4822,-2.31455 0.28932,-1.23765 0.49827,-2.05739 0.20895,-0.81974 0.41791,-1.35016 0.12858,-0.35361 0.25717,-0.56256 0.12859,-0.20895 0.28932,-0.32147 0.17681,-0.12858 0.41791,-0.16073 0.25717,-0.0482 0.62686,-0.0482 0.4179,0 0.64293,0.0482 0.2411,0.0322 0.35361,0.19288 0.11251,0.14466 0.12859,0.43398 0.0321,0.28932 0.0321,0.78759 0,0.59471 -0.0804,1.6877 -0.0804,1.09298 -0.0482,1.91272 h 0.1768 q 0.32147,-0.64293 0.80367,-1.6877 0.4822,-1.04476 1.01262,-1.73591 0.53042,-0.69116 1.2055,-1.15728 0.67508,-0.4822 1.55911,-0.4822 0.30539,0 0.59471,0.11251 0.28932,0.0964 0.49827,0.28932 0.22503,0.19288 0.35362,0.4822 0.12858,0.27325 0.12858,0.62686 0,0.27325 -0.0804,0.77152 -0.0804,0.4822 -0.25718,1.26979 -0.1768,0.78759 -0.25717,1.30194 -0.0804,0.49827 -0.0804,0.83581 0,0.57864 0.11252,0.9644 0.11251,0.38576 0.28932,0.62686 0.19288,0.22503 0.4179,0.32147 0.2411,0.0964 0.49828,0.0964 0.7233,0 1.49481,-0.32147 0.77152,-0.32147 1.41446,-0.7233 0.75544,-0.46613 1.47874,-1.06084 l -0.2411,3.76116 q -0.4179,0.27324 -0.94832,0.61078 -0.53042,0.33754 -1.14121,0.64294 -0.59471,0.28932 -1.25372,0.49827 -0.64293,0.19288 -1.31801,0.19288 -1.2055,0 -1.94487,-0.4822 -0.73937,-0.49827 -1.17335,-1.28587 -0.43398,-0.80366 -0.64294,-1.78413 -0.20895,-0.99655 -0.33753,-2.00917 h -0.25718 l -2.87712,8.02059 q -0.22503,0.62686 -0.43398,1.04476 -0.19288,0.40183 -0.40183,0.65901 -0.20896,0.25717 -0.45006,0.36968 -0.2411,0.0964 -0.53042,0.0964 -0.659,0 -1.06083,-0.27324 -0.40184,-0.28932 -0.62686,-0.75545 -0.20896,-0.4822 -0.28932,-1.07691 -0.0643,-0.61079 -0.0643,-1.25372 z"
             style="font-style:normal;font-variant:normal;font-weight:normal;font-stretch:normal;font-size:32.91814804px;font-family:Pacifico;-inkscape-font-specification:Pacifico;fill:#f06543;fill-opacity:1;stroke:#f06543;stroke-width:0.30860764;stroke-opacity:1"
             id="path4556" />
        </g>
        <g
           transform="matrix(0.90543135,0,0,0.90543135,133.33178,130.8251)"
           id="g4935"
           style="fill:#f06543;fill-opacity:1;stroke:#f06543;stroke-opacity:1">
          <path
             style="fill:#f06543;fill-opacity:1;stroke:#f06543;stroke-width:0.26458335;stroke-opacity:1"
             d="m 110.93937,247.65 c -3.19639,-0.30829 -7.74929,-1.06088 -10.962208,-1.81204 -11.26172,-2.63291 -22.639018,-8.78013 -29.027274,-15.68361 -4.981382,-5.38313 -8.163419,-14.58584 -8.162067,-23.60534 0.0016,-10.46661 3.532241,-18.95942 10.952619,-26.34583 2.349268,-2.33852 6.561302,-5.67171 8.293196,-6.56282 0.472943,-0.24334 0.859896,-0.49597 0.859896,-0.56139 0,-0.39169 -5.112137,2.20272 -7.871434,3.99475 -5.966741,3.87512 -11.49613,11.08445 -13.798837,17.9912 -2.044325,6.13177 -2.159964,13.82894 -0.311657,20.7445 0.922432,3.45135 0.919488,3.41079 0.163258,2.24896 -1.159178,-1.78089 -3.955653,-7.53025 -4.954667,-10.18646 -3.23798,-8.60923 -4.473041,-17.23897 -3.154843,-22.04385 1.735293,-6.3252 5.763579,-10.84871 12.555434,-14.09896 2.545272,-1.21804 2.230435,-1.26027 -1.28038,-0.17174 -3.564195,1.10508 -8.062929,3.49348 -9.988021,5.30267 -0.923502,0.86791 -0.912765,0.6993 0.103154,-1.61981 2.809654,-6.41379 8.589172,-11.06201 16.657684,-13.39706 2.888639,-0.83598 2.867117,-0.82197 1.826142,-1.18905 -0.867136,-0.30578 -0.732494,-0.33871 2.116667,-0.51773 8.664646,-0.54444 15.857638,-2.13957 22.263299,-4.93717 5.865979,-2.56189 11.616529,-7.0669 14.450339,-11.32047 l 1.12178,-1.68379 v 1.56206 c 0,1.97601 -0.57371,4.23562 -1.63401,6.43574 -1.056,2.19119 -4.16772,5.32838 -6.52057,6.57395 -0.91976,0.48691 -1.62249,0.93509 -1.56163,0.99595 0.21093,0.21092 3.77032,-1.01085 5.29555,-1.81771 1.8552,-0.98141 4.13119,-3.36831 5.03237,-5.27757 0.88687,-1.87898 1.32468,-4.2728 1.19645,-6.54201 -0.0581,-1.02856 -0.0744,-1.87011 -0.0362,-1.87011 0.27926,0 1.1702,2.35995 1.43643,3.80482 0.55262,2.99919 -0.34546,6.9955 -2.21334,9.84907 -1.64965,2.52018 -4.64034,5.03831 -8.29066,6.98066 -2.32506,1.23718 -0.51984,0.75018 2.49388,-0.67278 6.86793,-3.24276 10.38428,-7.72278 11.01025,-14.02767 0.48118,-4.84654 -1.68574,-8.91029 -5.8424,-10.95661 -1.40365,-0.69102 -2.19656,-0.88902 -4.15903,-1.03861 l -2.42475,-0.18481 1.57173,-0.48233 c 1.2197,-0.3743 2.10859,-0.45236 3.96875,-0.34854 4.01528,0.22412 7.33408,1.66359 10.35861,4.49289 2.06149,1.92842 3.02791,3.57409 3.92573,6.68495 1.2992,4.50157 1.17759,8.61639 -0.39259,13.28332 l -0.78294,2.32709 0.66508,-0.79375 c 1.07517,-1.28316 2.50406,-4.45028 2.94742,-6.53292 0.67977,-3.19319 0.1412,-7.23296 -1.46056,-10.95547 -0.84247,-1.95791 0.1044,-0.64795 1.1662,1.61339 3.29287,7.01294 2.6211,15.0531 -1.88245,22.53022 -3.00448,4.98826 -5.62815,7.51263 -15.41836,14.83483 -1.28236,0.95909 -2.061,1.70241 -1.85208,1.76808 0.19825,0.0623 0.6888,0.18528 1.09011,0.27325 0.4013,0.088 1.11568,0.51345 1.5875,0.94553 l 0.85785,0.78558 -0.89351,-0.29957 c -0.67526,-0.2264 -1.45079,-0.21874 -3.175,0.0314 -2.26488,0.32854 -2.29112,0.34117 -3.6044,1.73474 -1.71777,1.82278 -3.68679,5.09954 -4.54463,7.56296 -0.957656,2.75007 -1.019425,6.64158 -0.13598,8.56721 0.99698,2.17312 2.42942,3.31059 4.1691,3.31059 1.08671,0 2.44059,-0.76739 2.72532,-1.54474 0.17322,-0.4729 0.26481,-0.54934 0.27884,-0.2327 0.0115,0.25933 -0.15342,0.8887 -0.36646,1.39858 -0.41924,1.00338 -1.64704,1.70177 -2.99179,1.70177 -1.13156,0 -3.3912,-1.24094 -4.25345,-2.33589 -0.931757,-1.18323 -2.156995,-3.56357 -2.156995,-4.19052 0,-0.308 -0.08753,-0.37105 -0.266573,-0.19201 -0.428947,0.42894 -0.752726,5.06876 -0.524216,7.51217 0.620977,6.64006 3.731514,13.4758 9.414024,20.68834 1.70546,2.16465 2.76391,3.36516 5.64305,6.40045 l 1.47642,1.5565 -1.71979,-0.94815 c -3.28919,-1.81337 -7.53142,-5.04715 -10.46361,-7.97622 -7.022169,-7.01471 -10.632062,-14.57223 -11.12592,-23.29279 -0.500922,-8.84533 2.503022,-16.3618 9.124196,-22.83058 1.926884,-1.88254 1.956894,-1.92981 0.691374,-1.0894 -1.629044,1.08183 -6.093173,5.37507 -7.542812,7.25407 -6.32014,8.19207 -7.845814,19.07314 -4.321543,30.82112 1.695659,5.65239 4.48373,10.2028 9.085771,14.82888 5.865754,5.89639 14.377154,10.60897 21.546894,11.93005 0.95529,0.17602 1.7369,0.40105 1.7369,0.50006 0,0.40007 -6.75928,0.64053 -9.78958,0.34825 z"
             id="path4912"
             inkscape:connector-curvature="0" />
          <path
             style="fill:#f06543;fill-opacity:1;stroke:#f06543;stroke-width:0.26458335;stroke-opacity:1"
             d="m 127.5295,245.85575 c 7.07386,-3.33186 10.64569,-8.57767 9.21435,-13.53277 -0.65008,-2.2505 -3.03651,-6.61797 -3.38275,-6.19085 -0.0572,0.0706 -0.0267,1.0213 0.0679,2.11271 0.0945,1.09141 0.14084,2.02634 0.10292,2.07764 -0.0379,0.0513 -0.47957,-0.72262 -0.98142,-1.7198 -1.4152,-2.81198 -2.05866,-5.19032 -2.22406,-8.22054 l -0.14756,-2.70332 -1.3515,1.29033 c -3.56646,3.405 -7.50243,5.60896 -10.33075,5.78474 -1.49886,0.0932 -1.78634,0.008 -4.38221,-1.29155 -3.12811,-1.56651 -3.74242,-1.9587 -5.86609,-3.74499 -0.82526,-0.69415 -1.56298,-1.26209 -1.63939,-1.26209 -0.25943,0 0.68222,2.77098 1.48354,4.36562 0.92969,1.85009 2.12927,3.72891 4.11202,6.44041 0.78123,1.06837 1.36532,1.99759 1.29798,2.06493 -0.19226,0.19226 -3.2981,-3.38047 -4.96094,-5.70669 -1.68565,-2.35814 -3.79417,-6.35097 -4.83118,-9.14865 -0.80979,-2.18467 -1.85074,-5.8963 -1.55372,-5.53999 0.11385,0.13658 0.8883,1.15708 1.72099,2.26778 2.95901,3.9469 6.91612,7.22559 10.57721,8.76382 2.80823,1.1799 4.14893,1.22368 6.66166,0.21753 1.14779,-0.4596 2.92914,-1.3867 3.95855,-2.06023 3.51964,-2.30284 7.83638,-7.21092 10.42315,-11.85099 0.48675,-0.87313 0.80203,-1.34938 0.70063,-1.05833 -0.87507,2.51154 -1.03801,3.65043 -1.04386,7.29598 l -0.006,3.85641 1.10919,2.22901 c 0.61006,1.22596 1.95318,3.35092 2.98471,4.72213 3.49478,4.6456 4.70043,8.09242 3.85176,11.01174 -1.30021,4.47257 -5.77011,7.75726 -12.8939,9.47507 -4.45573,1.07444 -4.85283,1.08261 -2.67099,0.0549 z"
             id="path4910"
             inkscape:connector-curvature="0" />
          <path
             style="fill:#f06543;fill-opacity:1;stroke:#f06543;stroke-width:0.26458335;stroke-opacity:1"
             d="m 144.68685,238.80878 c 1.15378,-1.71452 1.51977,-3.10224 1.39598,-5.29311 -0.12294,-2.17566 -1.41788,-4.9293 -3.39726,-7.22413 -3.00503,-3.48393 -5.26084,-7.21178 -5.93627,-9.81002 -0.41426,-1.59359 -0.54668,-5.29327 -0.2316,-6.47095 0.12799,-0.4784 0.28768,-0.0638 0.63374,1.64553 0.65302,3.22551 1.83513,5.42652 4.05989,7.55922 5.5954,5.36386 5.78924,5.61935 6.90053,9.09502 l 0.57079,1.78522 1.91698,-1.32058 c 6.08271,-4.19032 11.64889,-10.09751 15.70732,-16.66964 4.24926,-6.88115 7.80705,-17.10363 8.88685,-25.53425 l 0.23696,-1.85013 0.0335,2.51517 c 0.0368,2.76265 -0.50249,7.94192 -1.17061,11.24317 -3.19794,15.80128 -12.56,29.67448 -26.31304,38.99205 -4.33555,2.93731 -4.38346,2.95676 -3.29373,1.33743 z"
             id="path4842"
             inkscape:connector-curvature="0" />
          <path
             inkscape:connector-curvature="0"
             style="fill:#f06543;fill-opacity:1;stroke:#f06543;stroke-width:1.00000012;stroke-opacity:1"
             d="m 466.57422,524.44336 c -1.85209,0.0392 -4.23379,1.04284 -9.11133,3.26562 -4.15249,1.89234 -9.0582,3.72449 -10.90234,4.07032 l -3.35352,0.6289 5.02735,5.23828 c 2.76548,2.88095 6.55777,7.17405 8.42773,9.54102 1.86996,2.36693 4.79494,4.91008 6.5,5.65234 4.49722,1.95795 16.99481,1.81084 21.3418,-0.25195 1.99313,-0.94579 5.55793,-4.33584 8.15039,-7.75 2.53455,-3.33781 6.04892,-7.48074 7.80859,-9.20508 l 3.19922,-3.13476 -2.9707,-0.59375 c -1.63325,-0.32667 -6.39846,-2.17872 -10.58985,-4.11524 -8.73641,-4.0365 -9.48587,-4.13665 -13.43359,-1.80468 -2.74382,1.62081 -3.06481,1.62081 -5.80859,0 -1.72387,-1.01832 -2.84464,-1.57148 -4.28516,-1.54102 z m -1.81055,8.53125 c 3.02502,0.0329 7.07501,0.0564 9,0.0488 12.33691,-0.0495 17.81472,0.24278 20.00586,1.07031 2.24583,0.8482 1.99688,1.00559 -2.50586,1.57422 -2.74998,0.34726 -7.25001,1.00831 -10,1.4707 -2.75002,0.46239 -5.675,1.11958 -6.5,1.45899 -0.82499,0.33962 -2.25396,0.17541 -3.17383,-0.36328 -0.91986,-0.53866 -5.5533,-1.37273 -10.29687,-1.85352 -4.74357,-0.48083 -8.8743,-1.1243 -9.17969,-1.42969 -0.87564,-0.87564 6.60885,-2.04459 12.65039,-1.97656 z"
             transform="matrix(0.26458333,0,0,0.26458333,-7.2667007,67.836385)"
             id="path4780" />
          <path
             style="fill:#f06543;fill-opacity:1;stroke:#f06543;stroke-width:0.26458335;stroke-opacity:1"
             d="m 114.96317,199.63238 c -0.47904,-0.30675 -0.81753,-0.61118 -0.75219,-0.67651 0.15481,-0.15482 1.67306,0.63117 1.88659,0.97667 0.26174,0.42349 -0.19159,0.30354 -1.1344,-0.30016 z"
             id="path4732"
             inkscape:connector-curvature="0" />
          <path
             style="fill:#f06543;fill-opacity:1;stroke:#f06543;stroke-width:0.26458335;stroke-opacity:1"
             d="m 119.9352,200.06283 c 0,-0.18929 1.6616,-1.18454 1.97964,-1.18575 0.14293,-5.3e-4 -0.17818,0.29667 -0.71356,0.66047 -0.97171,0.66029 -1.26608,0.78242 -1.26608,0.52528 z"
             id="path4730"
             inkscape:connector-curvature="0" />
          <path
             style="fill:#f06543;fill-opacity:1;stroke:#f06543;stroke-width:0.26458335;stroke-opacity:1"
             d="m 143.48311,192.13822 c 0,-0.12494 0.35294,-0.77718 0.78431,-1.44941 3.27898,-5.10985 4.63085,-12.13329 3.32673,-17.28358 l -0.45344,-1.79073 0.81908,-2.26363 c 2.03627,-5.62751 2.14245,-12.6558 0.28524,-18.881 -0.28015,-0.93904 -0.47131,-1.74541 -0.42479,-1.79193 0.0465,-0.0465 0.44241,0.72179 0.87976,1.70735 0.99643,2.24548 2.08422,6.39482 2.44479,9.32562 0.53711,4.36578 0.27029,11.1623 -0.64945,16.54339 -0.13138,0.76866 -0.1267,0.77285 0.14817,0.1323 0.15611,-0.36381 0.69419,-2.20927 1.19573,-4.10105 l 0.9119,-3.43958 -0.15354,1.98438 c -0.42745,5.52442 -2.89197,12.78005 -6.06627,17.85932 -1.0825,1.73214 -3.04822,3.95602 -3.04822,3.44855 z"
             id="path4668"
             inkscape:connector-curvature="0" />
          <path
             style="fill:#f06543;fill-opacity:1;stroke:#f06543;stroke-width:0.26458335;stroke-opacity:1"
             d="m 132.37061,187.10326 c -2.32847,-0.57952 -6.90066,-1.21355 -7.76016,-1.07611 -0.94385,0.15093 -1.01568,0.12469 -0.69997,-0.25571 0.80035,-0.96437 1.77849,-1.18984 5.47836,-1.26282 4.3752,-0.0863 5.93968,-0.53765 7.70644,-2.22327 l 1.16626,-1.1127 -0.16965,1.44343 c -0.12537,1.06671 -0.0827,1.45131 0.16339,1.4736 0.18317,0.0166 0.67811,0.0703 1.09987,0.11946 0.42175,0.0491 1.16589,-0.0775 1.65364,-0.28125 1.07674,-0.44989 1.13231,-0.19894 0.15922,0.71893 -0.75605,0.71314 -2.30902,1.26075 -3.58259,1.2633 -0.40607,7.9e-4 -1.06365,0.24201 -1.46129,0.536 -0.68138,0.50376 -2.84665,0.88285 -3.75352,0.65714 z"
             id="path4662"
             inkscape:connector-curvature="0" />
          <path
             style="fill:#f06543;fill-opacity:1;stroke:#f06543;stroke-width:0.26458335;stroke-opacity:1"
             d="m 129.41059,183.34961 c 0.19099,-0.0764 0.4192,-0.067 0.50712,0.0209 0.0879,0.0879 -0.0684,0.15046 -0.34727,0.13897 -0.30823,-0.0127 -0.37092,-0.0754 -0.15985,-0.15985 z"
             id="path4660"
             inkscape:connector-curvature="0" />
          <path
             style="fill:#f06543;fill-opacity:1;stroke:#f06543;stroke-width:0.26458335;stroke-opacity:1"
             d="m 132.99797,182.70996 c 0.99989,-0.28501 2.07145,-0.64031 2.38125,-0.78955 0.55343,-0.2666 0.5541,-0.26401 0.0387,0.14816 -0.59982,0.47968 -2.87578,1.20638 -3.69064,1.1784 -0.30101,-0.0103 0.2708,-0.25199 1.27069,-0.53701 z"
             id="path4658"
             inkscape:connector-curvature="0" />
          <path
             style="fill:#f06543;fill-opacity:1;stroke:#f06543;stroke-width:0.26458335;stroke-opacity:1"
             d="m 124.24864,177.92199 c -0.52501,-0.25366 -1.13889,-1.42419 -1.13815,-2.17019 1.6e-4,-0.16548 0.54284,-0.30823 1.25677,-0.33058 1.34579,-0.0421 3.64489,-0.79481 7.12838,-2.33372 3.04264,-1.34416 5.91318,-1.84958 8.51558,-1.49935 2.29836,0.30931 4.15656,0.90987 2.28127,0.73729 -1.47039,-0.13532 -4.17528,0.26135 -6.21771,0.91181 -1.6227,0.51678 -4.42464,1.83574 -8.57042,4.03436 -1.92738,1.02214 -2.32279,1.10112 -3.25572,0.65038 z"
             id="path4656"
             inkscape:connector-curvature="0" />
          <path
             style="fill:#f06543;fill-opacity:1;stroke:#f06543;stroke-width:0.26458335;stroke-opacity:1"
             d="m 144.26804,166.96817 c -0.64999,-1.00432 -1.93627,-2.76469 -2.8584,-3.91191 l -1.67659,-2.08587 0.81247,-1.76268 c 0.44686,-0.96947 0.88908,-2.14574 0.98272,-2.61393 0.16184,-0.8092 0.0764,-0.75631 -1.7301,1.07026 -1.87558,1.89646 -1.89478,1.90771 -1.47276,0.86318 0.85003,-2.10387 1.72315,-6.06986 1.88711,-8.5719 0.34848,-5.31751 -1.30678,-9.89076 -4.89954,-13.53671 -2.11583,-2.14716 -1.77796,-2.19842 0.89412,-0.13566 5.52176,4.26259 9.18264,9.45466 10.75773,15.25723 0.51323,1.8907 0.60084,2.83999 0.58375,6.32558 -0.0172,3.5083 -0.11691,4.46434 -0.68987,6.61459 -0.36837,1.38244 -0.83606,2.91862 -1.03931,3.41371 l -0.36954,0.90017 z"
             id="path4654"
             inkscape:connector-curvature="0" />
          <path
             inkscape:connector-curvature="0"
             style="fill:#f06543;fill-opacity:1;stroke:#f06543;stroke-width:1.00000012;stroke-opacity:1"
             d="m 446.93945,234.49414 c -0.65378,-0.21793 -21.17356,6.1715 -45.59961,14.19922 l -44.41211,14.5957 -10.20507,13.74024 c -12.14637,16.35224 -15.64383,19.551 -24.90625,22.78711 -8.11284,2.83445 -11.70908,3.03947 -16.70703,0.95117 -7.33977,-3.06675 -17.74941,-1.13646 -22.5586,4.18164 -4.73105,5.2317 -5.87923,13.10351 -3.13672,21.48828 1.5512,4.74251 1.53842,5.60602 -0.19726,14.43359 -1.81897,9.25104 -1.81789,9.41029 0.0996,10.83789 1.84051,1.37027 2.04796,1.12501 3.79687,-4.5371 2.25107,-7.28777 4.52911,-9.00579 13.35547,-10.06836 11.19324,-1.34756 16.62335,-6.48433 19.91406,-18.83594 0.95245,-3.57502 2.13344,-7.0332 2.625,-7.68555 0.49157,-0.65235 4.56115,-2.90236 9.04297,-5 5.34404,-2.50118 11.60073,-6.69083 18.17969,-12.17383 18.80976,-15.67631 23.66878,-18.53629 82.96484,-48.84179 10.41268,-5.32181 18.39796,-9.85419 17.74414,-10.07227 z m -150.42968,70.87305 c 5.13481,-0.10614 10.07276,2.94123 11.8789,8.20117 1.65207,4.81122 0.88415,8.6644 -2.54297,12.76953 -2.30573,2.76189 -3.50089,3.3008 -8.1875,3.68945 -4.8496,0.40218 -5.85854,0.14237 -8.67382,-2.22656 -6.59141,-5.54627 -6.25658,-15.58106 0.67578,-20.24609 2.13999,-1.44007 4.5156,-2.13926 6.84961,-2.1875 z"
             transform="matrix(0.26458333,0,0,0.26458333,-7.2667007,67.836385)"
             id="path4598" />
          <path
             style="fill:#f06543;fill-opacity:1;stroke:#f06543;stroke-width:0.26458335;stroke-opacity:1"
             d="m 89.420308,139.45662 c 0.21231,-0.55328 -0.493808,-1.23491 -1.055843,-1.01924 -0.442328,0.16974 -0.602631,0.92507 -0.26746,1.26024 0.329729,0.32973 1.162492,0.17806 1.323303,-0.241 z"
             id="path4594"
             inkscape:connector-curvature="0" />
          <path
             style="fill:#f06543;fill-opacity:1;stroke:#f06543;stroke-width:0.26458335;stroke-opacity:1"
             d="m 77.469573,157.75231 c 8.271905,-1.86699 14.415049,-4.15464 18.900988,-7.03856 1.967775,-1.26504 4.913459,-3.96058 4.328119,-3.96058 -0.16441,0 -1.209629,0.53843 -2.322713,1.1965 -4.158964,2.45885 -8.707533,4.4693 -11.91056,5.26443 -2.227009,0.55284 -5.159375,0.82589 -5.159375,0.48043 0,-0.1515 1.22039,-1.09862 2.711979,-2.10469 7.355232,-4.9611 14.452749,-8.15097 20.471389,-9.20053 2.45656,-0.42839 5.9208,-0.53555 5.9208,-0.18315 0,0.48309 -3.23656,3.99973 -5.18826,5.63724 -7.010456,5.88188 -15.315598,9.23158 -25.465295,10.27087 -4.55367,0.46628 -5.378383,0.33576 -2.287072,-0.36196 z"
             id="path4592"
             inkscape:connector-curvature="0" />
          <path
             style="fill:#f06543;fill-opacity:1;stroke:#f06543;stroke-width:0.26458335;stroke-opacity:1"
             d="m 135.35683,157.18638 c -0.76697,-0.63539 -0.79457,-0.72496 -0.54869,-1.78081 0.2791,-1.1985 0.11522,-6.47444 -0.23767,-7.65116 -0.14815,-0.49402 -0.22839,0.12606 -0.25679,1.98438 -0.0291,1.90095 -0.19785,3.17395 -0.56889,4.29043 l -0.52759,1.5875 -0.028,-1.05834 c -0.0572,-2.16333 -0.83497,-6.32093 -1.62367,-8.67925 -1.62448,-4.85742 -4.92526,-8.7622 -9.10104,-10.76643 -2.79406,-1.34104 -4.73466,-1.83977 -7.92683,-2.03719 -2.30984,-0.14285 -2.56055,-0.20502 -2.12149,-0.52607 0.27384,-0.20024 1.45257,-0.67087 2.61939,-1.04584 5.73771,-1.84389 12.53359,-0.13396 16.95013,4.26487 1.86623,1.85874 3.5445,4.10442 4.55119,6.08991 1.9289,3.80438 2.3135,8.76101 0.99569,12.83229 -0.40038,1.23693 -0.872,2.45502 -1.04806,2.70686 -0.29735,0.42535 -0.3775,0.41035 -1.1277,-0.21115 z"
             id="path4590"
             inkscape:connector-curvature="0" />
          <path
             inkscape:connector-curvature="0"
             style="fill:#f06543;fill-opacity:1;stroke:#f06543;stroke-width:1.00000012;stroke-opacity:1"
             d="m 293.28711,241.62695 c -10.36838,0.35672 -19.81478,11.04181 -18.02149,21.65625 0.92926,5.5002 5.31581,11.67722 9.97657,14.04883 5.22419,2.65833 15.26524,2.33368 18.92969,-0.61133 10.60175,-8.52026 9.31743,-7.95739 18.01953,-7.88672 7.02926,0.0571 8.87436,0.47655 14.29297,3.25 3.42181,1.7514 6.62166,3.1836 7.10937,3.1836 0.48771,0 2.54183,-2.36248 4.56641,-5.25 l 3.68164,-5.25 -12.29883,-1.0586 c -15.00231,-1.29278 -19.09963,-3.07896 -27.92383,-12.16796 -6.7691,-6.97221 -9.38314,-8.64745 -15.0957,-9.68164 -1.08089,-0.19568 -2.16374,-0.26933 -3.23633,-0.23243 z m 1.44141,6.64063 c 3.2,0 4.82674,0.69928 7.64843,3.28515 4.83259,4.42874 5.68977,10.55841 2.19532,15.70118 -1.30258,1.91697 -3.48136,4.04695 -4.83985,4.73437 -1.35849,0.68738 -4.21068,1.25807 -6.33789,1.26563 -3.16949,0.0121 -4.56845,-0.68562 -7.75,-3.86719 -3.26764,-3.26763 -3.88086,-4.54331 -3.88086,-8.05078 0,-8.17784 4.85144,-13.06836 12.96485,-13.06836 z"
             transform="matrix(0.26458333,0,0,0.26458333,-7.2667007,67.836385)"
             id="path4568" />
          <path
             style="fill:#f06543;fill-opacity:1;stroke:#f06543;stroke-width:0.26458335;stroke-opacity:1"
             d="m 90.831032,141.64675 c 0,-0.0767 1.243325,-0.79747 2.762943,-1.60176 l 2.762944,-1.46235 7.684081,0.46528 c 7.05083,0.42693 8.66913,0.62214 7.66384,0.92449 -0.20273,0.061 -4.47626,0.42665 -9.49672,0.81262 -5.020473,0.38597 -9.634145,0.76913 -10.252609,0.85146 -0.618463,0.0823 -1.124479,0.0869 -1.124479,0.0103 z"
             id="path4564"
             inkscape:connector-curvature="0" />
        </g>
      </g>
    </g>
  </g>
</svg>
