<?xml version="1.0" encoding="UTF-8" standalone="no"?>
<!-- Created with Inkscape (http://www.inkscape.org/) -->

<svg
   xmlns:dc="http://purl.org/dc/elements/1.1/"
   xmlns:cc="http://creativecommons.org/ns#"
   xmlns:rdf="http://www.w3.org/1999/02/22-rdf-syntax-ns#"
   xmlns:svg="http://www.w3.org/2000/svg"
   xmlns="http://www.w3.org/2000/svg"
   xmlns:sodipodi="http://sodipodi.sourceforge.net/DTD/sodipodi-0.dtd"
   xmlns:inkscape="http://www.inkscape.org/namespaces/inkscape"
   width="1000"
   height="1000"
   viewBox="0 0 264.58333 264.58334"
   version="1.1"
   id="svg8"
   inkscape:version="0.92.1 r15371"
   sodipodi:docname="withChild.svg">
  <defs
     id="defs2" />
  <sodipodi:namedview
     id="base"
     pagecolor="#ffffff"
     bordercolor="#666666"
     borderopacity="1.0"
     inkscape:pageopacity="0.0"
     inkscape:pageshadow="2"
     inkscape:zoom="0.175"
     inkscape:cx="-3605.1298"
     inkscape:cy="-1106.2421"
     inkscape:document-units="mm"
     inkscape:current-layer="layer1"
     showgrid="false"
     units="px"
     inkscape:window-width="3840"
     inkscape:window-height="2071"
     inkscape:window-x="-10"
     inkscape:window-y="-10"
     inkscape:window-maximized="1"
     showguides="true"
     inkscape:guide-bbox="true">
    <inkscape:grid
       type="xygrid"
       id="grid4558" />
  </sodipodi:namedview>
  <metadata
     id="metadata5">
    <rdf:RDF>
      <cc:Work
         rdf:about="">
        <dc:format>image/svg+xml</dc:format>
        <dc:type
           rdf:resource="http://purl.org/dc/dcmitype/StillImage" />
        <dc:title></dc:title>
      </cc:Work>
    </rdf:RDF>
  </metadata>
  <g
     inkscape:label="Layer 1"
     inkscape:groupmode="layer"
     id="layer1"
     transform="translate(0,-32.41665)">
    <g
       id="g4623"
       transform="translate(10.178333,-0.59058285)"
       style="stroke:#f06543;stroke-opacity:1;stroke-width:7.9375;stroke-miterlimit:4;stroke-dasharray:none">
      <g
         transform="matrix(1.5071851,0,0,1.5071851,-54.66645,-92.66719)"
         style="stroke:#f06543;stroke-width:5.26644007;stroke-miterlimit:4;stroke-dasharray:none;stroke-opacity:1"
         id="g4609">
        <path
           style="fill:none;stroke:#f06543;stroke-width:5.26644007;stroke-linecap:butt;stroke-linejoin:miter;stroke-miterlimit:4;stroke-dasharray:none;stroke-opacity:1"
           d="m 50.932293,176.61456 2.645829,-41.01041 c 0,-19.84375 55.562498,-19.84375 55.562498,0 l 2.64584,41.01042 c 0,5.29166 -9.26042,5.29166 -9.26042,0 l -2.645831,-34.39584 v 103.1875 c 0,9.26042 -13.229173,9.26042 -13.229173,0 2e-6,-3.96875 -5.291666,-64.82291 -5.291666,-64.82291 0,0 -5.291665,60.85416 -5.291667,64.82291 0,9.26042 -13.229165,9.26041 -13.229165,-1e-5 l 10e-7,-104.5104 -2.645833,35.71875 c 4e-6,5.29166 -9.260413,5.29166 -9.260413,-10e-6 z"
           id="path4556"
           inkscape:connector-curvature="0"
           sodipodi:nodetypes="cccccccccccccc" />
        <path
           style="opacity:1;fill:none;fill-opacity:1;stroke:#f06543;stroke-width:5.26644007;stroke-linecap:round;stroke-linejoin:round;stroke-miterlimit:4;stroke-dasharray:none;stroke-dashoffset:0;stroke-opacity:1;paint-order:normal"
           d="M 95.25,103.85415 A 13.890624,13.890624 0 0 1 81.359376,117.74478 13.890624,13.890624 0 0 1 67.468752,103.85415 13.890624,13.890624 0 0 1 81.359376,89.963529 13.890624,13.890624 0 0 1 95.25,103.85415 Z"
           id="path4570"
           inkscape:connector-curvature="0" />
      </g>
      <g
         transform="matrix(1.5071851,0,0,1.5071851,-54.66645,-92.66719)"
         style="stroke-width:5.26644007;stroke-miterlimit:4;stroke-dasharray:none;stroke:#f06543;stroke-opacity:1"
         id="g4615">
        <path
           style="fill:none;stroke:#f06543;stroke-width:5.26644007;stroke-linecap:butt;stroke-linejoin:miter;stroke-miterlimit:4;stroke-dasharray:none;stroke-opacity:1"
           d="m 111.86141,173.17499 c 41.275,13.49375 60.58958,-5.29167 67.20416,-9.26042 3.96875,-2.64583 6.61459,2.64583 2.64584,5.29167 0,0 -10.58334,9.26041 -22.48959,14.55208 v 63.5 c 0,5.4828 -7.9375,5.4828 -7.9375,0 0,-2.34977 -2.64583,-38.36458 -2.64583,-38.36458 0,0 -2.64583,36.01481 -2.64583,38.36458 0,5.4828 -7.9375,5.48281 -7.9375,0 v -60.85417 c -13.25839,-0.80425 -27.78125,-6.61458 -27.78125,-6.61458 -3.96875,-1.32292 -2.64584,-7.9375 1.5875,-6.61458 z"
           id="path4556-2"
           inkscape:connector-curvature="0"
           sodipodi:nodetypes="cccccccccccc" />
        <path
           style="opacity:1;fill:none;fill-opacity:1;stroke:#f06543;stroke-width:5.26644007;stroke-linecap:round;stroke-linejoin:round;stroke-miterlimit:4;stroke-dasharray:none;stroke-dashoffset:0;stroke-opacity:1;paint-order:normal"
           d="m 157.4271,164.70832 a 10.583329,10.583329 0 0 1 -10.58333,10.58333 10.583329,10.583329 0 0 1 -10.58333,-10.58333 10.583329,10.583329 0 0 1 10.58333,-10.58334 10.583329,10.583329 0 0 1 10.58333,10.58334 z"
           id="path4570-7"
           inkscape:connector-curvature="0" />
      </g>
    </g>
  </g>
</svg>
